<svg width="64" height="64" viewBox="0 0 64 64" fill="none" xmlns="http://www.w3.org/2000/svg">
<path d="M31.9863 8.97363C19.2692 8.97363 8.94629 19.2966 8.94629 32.0136C8.94629 44.7307 19.2692 55.0536 31.9863 55.0536C44.7033 55.0536 55.0263 44.7307 55.0263 32.0136C55.0263 19.2966 44.7033 8.97363 31.9863 8.97363ZM31.9863 10.2536C44.0116 10.2536 53.7463 19.9883 53.7463 32.0136C53.7463 44.0389 44.0116 53.7736 31.9863 53.7736C19.961 53.7736 10.2263 44.0389 10.2263 32.0136C10.2263 19.9883 19.961 10.2536 31.9863 10.2536ZM32 12.7999C21.4002 12.7999 12.8 21.4001 12.8 31.9999C12.8 42.5997 21.4002 51.1999 32 51.1999C42.5999 51.1999 51.2 42.5997 51.2 31.9999C51.2 26.2646 48.6798 21.1166 44.6913 17.5986C44.6601 17.5687 44.6232 17.5454 44.5828 17.5301C44.5424 17.5148 44.4994 17.5079 44.4562 17.5097C44.413 17.5115 44.3707 17.522 44.3317 17.5406C44.2927 17.5592 44.2579 17.5856 44.2294 17.618C44.2008 17.6504 44.1791 17.6883 44.1656 17.7293C44.1521 17.7703 44.147 17.8137 44.1507 17.8567C44.1544 17.8998 44.1668 17.9416 44.1871 17.9798C44.2073 18.0179 44.2351 18.0515 44.2688 18.0786C48.1254 21.4803 50.56 26.452 50.56 31.9999C50.56 42.2538 42.254 50.5599 32 50.5599C21.7461 50.5599 13.44 42.2538 13.44 31.9999C13.44 21.746 21.7461 13.4399 32 13.4399C34.0922 13.4399 36.1011 13.7906 37.9775 14.4286C38.0175 14.4429 38.06 14.4491 38.1024 14.4468C38.1448 14.4445 38.1864 14.4338 38.2246 14.4153C38.2629 14.3968 38.297 14.3708 38.3251 14.339C38.3533 14.3071 38.3747 14.27 38.3883 14.2298C38.402 14.1895 38.4074 14.147 38.4044 14.1046C38.4014 14.0622 38.39 14.0209 38.3708 13.9829C38.3517 13.945 38.3252 13.9113 38.2928 13.8837C38.2605 13.8562 38.223 13.8353 38.1825 13.8224C36.242 13.1625 34.1638 12.7999 32 12.7999ZM39.98 14.5774C39.9084 14.5811 39.8401 14.6089 39.7861 14.6561C39.7321 14.7033 39.6955 14.7673 39.6823 14.8378C39.669 14.9083 39.6798 14.9812 39.713 15.0448C39.7461 15.1085 39.7997 15.1591 39.865 15.1886C40.2935 15.389 40.7119 15.6062 41.1225 15.8386C41.1591 15.8593 41.1995 15.8726 41.2412 15.8777C41.2829 15.8828 41.3253 15.8796 41.3658 15.8684C41.4063 15.8571 41.4442 15.838 41.4773 15.8121C41.5104 15.7862 41.5381 15.754 41.5588 15.7174C41.5795 15.6808 41.5928 15.6405 41.5979 15.5987C41.603 15.557 41.5998 15.5147 41.5885 15.4741C41.5773 15.4336 41.5581 15.3957 41.5322 15.3626C41.5063 15.3295 41.4741 15.3018 41.4375 15.2811C41.0136 15.0412 40.5795 14.8165 40.135 14.6086C40.0868 14.5854 40.0335 14.5747 39.98 14.5774ZM42.5588 16.0249C42.4898 16.0245 42.4225 16.0464 42.3669 16.0874C42.3114 16.1284 42.2706 16.1863 42.2507 16.2524C42.2307 16.3184 42.2326 16.3892 42.2562 16.4541C42.2797 16.5189 42.3236 16.5745 42.3813 16.6124C42.593 16.7554 42.8016 16.9059 43.01 17.0599C43.0438 17.0854 43.0823 17.104 43.1233 17.1146C43.1643 17.1251 43.207 17.1274 43.2489 17.1213C43.2908 17.1153 43.3311 17.1009 43.3675 17.0792C43.4038 17.0574 43.4354 17.0287 43.4606 16.9946C43.4857 16.9606 43.5039 16.9218 43.5139 16.8807C43.524 16.8396 43.5258 16.7969 43.5192 16.755C43.5127 16.7132 43.4979 16.6731 43.4757 16.637C43.4535 16.6009 43.4244 16.5696 43.39 16.5449C43.1774 16.3878 42.961 16.2325 42.7388 16.0824C42.6859 16.0455 42.6232 16.0255 42.5588 16.0249ZM32.5425 23.0399C32.3045 23.0399 32.0925 23.1617 31.9063 23.4061L29.8213 26.2461C29.5672 26.4593 29.44 26.704 29.44 26.9811C29.44 27.177 29.5033 27.3441 29.6313 27.4824C29.7586 27.6213 29.9144 27.6911 30.1013 27.6911C30.2875 27.6911 30.4494 27.5932 30.585 27.3974L31.6025 25.8061V40.3236C31.6025 40.5195 31.6825 40.6747 31.8438 40.7886C32.0051 40.9032 32.2038 40.9599 32.4413 40.9599C32.6614 40.9599 32.8567 40.9032 33.0263 40.7886C33.1952 40.6747 33.28 40.5195 33.28 40.3236V23.6511C33.28 23.4713 33.2042 23.3251 33.0513 23.2111C32.8983 23.0972 32.7294 23.0399 32.5425 23.0399Z" fill="white"/>
</svg>
