<svg width="64" height="64" viewBox="0 0 64 64" fill="none" xmlns="http://www.w3.org/2000/svg">
<path d="M31.9862 8.97363C19.2692 8.97363 8.94623 19.2966 8.94623 32.0136C8.94623 44.7307 19.2692 55.0536 31.9862 55.0536C44.7033 55.0536 55.0262 44.7307 55.0262 32.0136C55.0262 19.2966 44.7033 8.97363 31.9862 8.97363ZM31.9862 10.2536C44.0115 10.2536 53.7462 19.9883 53.7462 32.0136C53.7462 44.0389 44.0115 53.7736 31.9862 53.7736C19.9609 53.7736 10.2262 44.0389 10.2262 32.0136C10.2262 19.9883 19.9609 10.2536 31.9862 10.2536ZM31.9862 12.1736C21.0325 12.1736 12.1462 21.0599 12.1462 32.0136C12.1462 42.9674 21.0325 51.8536 31.9862 51.8536C42.94 51.8536 51.8262 42.9674 51.8262 32.0136C51.8262 26.1924 49.3168 20.9524 45.3212 17.3236C45.2904 17.294 45.2539 17.2708 45.2139 17.2555C45.1739 17.2401 45.1313 17.233 45.0885 17.2344C45.0457 17.2359 45.0037 17.2459 44.9648 17.2639C44.926 17.2819 44.8912 17.3075 44.8624 17.3392C44.8336 17.3709 44.8115 17.408 44.7974 17.4484C44.7832 17.4888 44.7773 17.5317 44.78 17.5744C44.7827 17.6171 44.7939 17.6589 44.813 17.6972C44.8321 17.7355 44.8587 17.7695 44.8912 17.7974C48.7587 21.3097 51.1862 26.3763 51.1862 32.0136C51.1862 42.6215 42.5941 51.2136 31.9862 51.2136C21.3784 51.2136 12.7862 42.6215 12.7862 32.0136C12.7862 21.4058 21.3784 12.8136 31.9862 12.8136C34.3099 12.8136 36.5354 13.2258 38.5962 13.9811C38.6362 13.9984 38.6793 14.0073 38.7228 14.0073C38.7663 14.0074 38.8094 13.9985 38.8494 13.9813C38.8894 13.9641 38.9255 13.939 38.9554 13.9073C38.9853 13.8757 39.0085 13.8383 39.0235 13.7975C39.0385 13.7566 39.045 13.7131 39.0426 13.6696C39.0402 13.6262 39.0289 13.5836 39.0095 13.5447C38.9901 13.5057 38.963 13.4711 38.9297 13.443C38.8965 13.4149 38.8579 13.3938 38.8162 13.3811C36.6863 12.6005 34.3858 12.1736 31.9862 12.1736ZM40.6137 14.1824C40.5419 14.1844 40.4729 14.2105 40.4178 14.2566C40.3626 14.3026 40.3245 14.3658 40.3097 14.4361C40.2948 14.5063 40.304 14.5796 40.3358 14.644C40.3676 14.7084 40.4202 14.7602 40.485 14.7911C40.9136 15.0032 41.3331 15.2312 41.7437 15.4736C41.7799 15.4981 41.8207 15.515 41.8636 15.5231C41.9066 15.5312 41.9507 15.5305 41.9933 15.5209C42.0359 15.5114 42.0762 15.4932 42.1115 15.4675C42.1468 15.4418 42.1765 15.4091 42.1987 15.3715C42.221 15.3339 42.2353 15.2921 42.2407 15.2488C42.2462 15.2054 42.2427 15.1614 42.2306 15.1194C42.2184 15.0775 42.1977 15.0385 42.1699 15.0048C42.1421 14.9711 42.1076 14.9435 42.0687 14.9236C41.6448 14.6733 41.2118 14.4379 40.7687 14.2186C40.7209 14.1937 40.6676 14.1812 40.6137 14.1824ZM43.1912 15.7011C43.1219 15.6991 43.0539 15.7196 42.9972 15.7595C42.9406 15.7995 42.8985 15.8568 42.8772 15.9228C42.8559 15.9887 42.8566 16.0598 42.8792 16.1253C42.9018 16.1909 42.9451 16.2473 43.0025 16.2861C43.2154 16.4354 43.4263 16.5896 43.6325 16.7474C43.6999 16.7989 43.7851 16.8216 43.8693 16.8103C43.9534 16.7991 44.0297 16.7548 44.0812 16.6874C44.1328 16.6199 44.1554 16.5347 44.1442 16.4506C44.1329 16.3664 44.0887 16.2902 44.0212 16.2386C43.8075 16.0751 43.5897 15.9164 43.37 15.7624C43.3179 15.7244 43.2556 15.7031 43.1912 15.7011ZM31.9612 23.0399C30.6255 23.0399 29.508 23.425 28.6062 24.1924C27.7045 24.961 27.2537 25.9323 27.2537 27.1086C27.2537 27.7787 27.5045 28.1136 28.0037 28.1136C28.27 28.1136 28.4819 28.048 28.64 27.9161C28.7981 27.7837 28.8775 27.6285 28.8775 27.4474C28.8775 26.5098 29.1575 25.7885 29.7175 25.2874C30.2775 24.7863 31.0088 24.5349 31.9112 24.5349C32.9813 24.5349 33.8129 24.8614 34.4062 25.5161C34.9989 26.1709 35.295 26.9256 35.295 27.7761C35.295 28.5621 35.0024 29.3268 34.4175 30.0711C33.8325 30.8167 33.1221 31.4836 32.2862 32.0724L29.83 33.8161C29.0108 34.4049 28.3134 35.0509 27.74 35.7549C27.1672 36.4589 26.88 37.1872 26.88 37.9399V40.3211C26.88 40.501 26.9629 40.6533 27.13 40.7761C27.2957 40.8984 27.4701 40.9599 27.6525 40.9599H36.5225C36.6876 40.9599 36.8285 40.8829 36.945 40.7274C37.0621 40.5731 37.12 40.3957 37.12 40.1999C37.12 40.0034 37.0621 39.8327 36.9437 39.6861C36.8272 39.5389 36.6851 39.4649 36.5187 39.4649H28.5287V37.9424C28.5287 37.4349 28.7377 36.9226 29.155 36.4074C29.5723 35.8922 30.0905 35.4295 30.7087 35.0199L32.7387 33.5961C33.4728 33.056 34.1493 32.5247 34.7662 32.0011C35.3832 31.4763 35.9002 30.8375 36.3175 30.0849C36.7348 29.3322 36.9437 28.5459 36.9437 27.7274C36.9437 26.393 36.4714 25.2777 35.5287 24.3824C34.5854 23.487 33.3967 23.0399 31.9612 23.0399Z" fill="white"/>
</svg>
