<svg width="33" height="32" viewBox="0 0 33 32" fill="none" xmlns="http://www.w3.org/2000/svg">
<g clip-path="url(#clip0)">
<path d="M31.3593 0H1.9185C1.21753 0 0.616699 0.6 0.616699 1.3V30.6C0.616699 31.4 1.21753 32 1.9185 32H17.6403V20H13.6348V15H17.6403V11C17.6403 6.9 20.2439 4.8 23.9491 4.8C25.7516 4.8 27.2536 5 27.6542 5V9.3H25.0506C23.0478 9.3 22.5471 10.3 22.5471 11.7V15H27.5541L26.5527 20H22.5471L22.6472 32H31.2592C31.9602 32 32.561 31.4 32.561 30.7V1.3C32.6611 0.6 32.0603 0 31.3593 0Z" fill="white"/>
</g>
<defs>
<clipPath id="clip0">
<rect width="32.0444" height="32" fill="white" transform="translate(0.616699)"/>
</clipPath>
</defs>
</svg>
