<svg width="33" height="32" viewBox="0 0 33 32" fill="none" xmlns="http://www.w3.org/2000/svg">
<g clip-path="url(#clip0)">
<path d="M31.426 0H1.98515C1.28418 0 0.68335 0.6 0.68335 1.3V30.6C0.68335 31.4 1.28418 32 1.98515 32H31.3258C32.0268 32 32.6276 31.4 32.6276 30.7V1.3C32.7278 0.6 32.127 0 31.426 0ZM10.1965 27.3H5.38988V12H10.1965V27.3ZM7.79321 9.9C6.29113 9.9 4.98932 8.7 4.98932 7.1C4.98932 5.6 6.19099 4.3 7.79321 4.3C9.29529 4.3 10.5971 5.5 10.5971 7.1C10.5971 8.7 9.29529 9.9 7.79321 9.9ZM28.0213 27.3H23.3147V19.9C23.3147 18.1 23.3147 15.9 20.8113 15.9C18.3078 15.9 18.0074 17.8 18.0074 19.8V27.4H13.3008V12H17.707V14.1H17.8071C18.4079 12.9 20.0101 11.6 22.3133 11.6C27.12 11.6 28.0213 14.8 28.0213 18.9V27.3Z" fill="white"/>
</g>
<defs>
<clipPath id="clip0">
<rect width="32.0444" height="32" fill="white" transform="translate(0.68335)"/>
</clipPath>
</defs>
</svg>
