<svg width="33" height="32" viewBox="0 0 33 32" fill="none" xmlns="http://www.w3.org/2000/svg">
<g clip-path="url(#clip0)">
<path d="M32.2939 9.59995C32.2939 9.59995 31.9935 7.39995 30.9921 6.39995C29.7905 5.09995 28.3885 5.09995 27.7877 4.99995C23.2814 4.69995 16.5721 4.69995 16.5721 4.69995C16.5721 4.69995 9.86284 4.69995 5.35659 4.99995C4.75576 5.09995 3.35381 5.09995 2.15215 6.39995C1.15076 7.39995 0.850343 9.59995 0.850343 9.59995C0.850343 9.59995 0.549927 12.2 0.549927 14.8V17.2C0.549927 19.8 0.850343 22.4 0.850343 22.4C0.850343 22.4 1.15076 24.6 2.15215 25.6C3.35381 26.9 4.95604 26.8 5.65701 27C8.26062 27.2 16.5721 27.2999 16.5721 27.2999C16.5721 27.2999 23.2814 27.3 27.7877 27C28.3885 26.9 29.7905 26.9 30.9921 25.6C31.9935 24.6 32.2939 22.4 32.2939 22.4C32.2939 22.4 32.5944 19.8 32.5944 17.2V14.8C32.5944 12.2 32.2939 9.59995 32.2939 9.59995ZM13.2676 20.2V11.2L21.8795 15.7L13.2676 20.2Z" fill="white"/>
</g>
<defs>
<clipPath id="clip0">
<rect width="32.0444" height="32" fill="white" transform="translate(0.549927)"/>
</clipPath>
</defs>
</svg>
