<svg width="136" height="21" viewBox="0 0 136 21" fill="none" xmlns="http://www.w3.org/2000/svg">
<g clip-path="url(#clip0)">
<path fill-rule="evenodd" clip-rule="evenodd" d="M120.916 7.57091C120.915 7.55808 120.914 7.54515 120.914 7.53213V6.92184C120.914 6.58238 121.194 6.30701 121.538 6.30701H130.362C133.829 6.30701 135.976 8.45954 135.976 11.5147C135.976 14.5698 133.829 16.7228 130.362 16.7228H121.538C121.194 16.7228 120.914 16.4474 120.914 16.1075V15.5105C120.914 15.1714 121.193 14.8965 121.536 14.8956L126.919 14.8828H130.221C130.253 14.8828 130.283 14.8762 130.315 14.8758L130.487 14.8754L130.487 14.863C132.389 14.7617 133.776 13.6035 133.776 11.5147C133.776 9.32742 132.263 8.14696 130.221 8.14696H123.044H122.86V9.41789C122.86 9.70815 122.622 9.94341 122.327 9.94341H121.448C121.153 9.94341 120.914 9.70815 120.914 9.41789V7.60854C120.914 7.59588 120.915 7.58334 120.916 7.57091ZM39.0511 16.0961V6.93358C39.0511 6.58751 39.3353 6.30717 39.6862 6.30717H40.5451C40.896 6.30717 41.1806 6.58751 41.1806 6.93358V14.8826H51.4708C51.8217 14.8826 52.1063 15.1633 52.1063 15.509V16.0961C52.1063 16.4422 51.8217 16.7225 51.4708 16.7225H39.6862C39.3353 16.7225 39.0511 16.4422 39.0511 16.0961ZM75.5556 12.4H66.9683V14.8825H77.1163C77.4416 14.8825 77.7053 15.143 77.7053 15.4638V16.1415C77.7053 16.4624 77.4416 16.7229 77.1163 16.7229H65.4281C65.1028 16.7229 64.8387 16.4624 64.8387 16.1415V6.88802C64.8387 6.56717 65.1028 6.30709 65.4281 6.30709H77.1163C77.4416 6.30709 77.7053 6.56717 77.7053 6.88802V7.5657C77.7053 7.88697 77.4416 8.14704 77.1163 8.14704H66.9683V10.6816H75.5556C75.8809 10.6816 76.145 10.9417 76.145 11.2626V11.8187C76.145 12.1399 75.8809 12.4 75.5556 12.4ZM105.848 16.7227H104.809C104.675 16.7227 104.545 16.6809 104.437 16.6036L93.6006 8.83278V16.0991C93.6006 16.4436 93.3176 16.7227 92.9689 16.7227H92.1032C91.754 16.7227 91.4711 16.4436 91.4711 16.0991V6.9304C91.4711 6.58598 91.754 6.30688 92.1032 6.30688H93.2393C93.3717 6.30688 93.5008 6.34782 93.6082 6.42431L104.368 14.0512V6.94777C104.368 6.60334 104.651 6.32425 105 6.32425H105.848C106.197 6.32425 106.48 6.60334 106.48 6.94777V16.0991C106.48 16.4436 106.197 16.7227 105.848 16.7227Z" fill="#262626"/>
<path fill-rule="evenodd" clip-rule="evenodd" d="M120.939 7.57091C120.938 7.55808 120.938 7.54515 120.938 7.53213V6.92184C120.938 6.58238 121.217 6.30701 121.562 6.30701H130.386C133.852 6.30701 136 8.45954 136 11.5147C136 14.5698 133.852 16.7228 130.386 16.7228H121.562C121.217 16.7228 120.938 16.4474 120.938 16.1075V15.5105C120.938 15.1714 121.216 14.8965 121.56 14.8956L126.943 14.8828H130.244C130.277 14.8828 130.306 14.8762 130.338 14.8758L130.511 14.8754L130.511 14.863C132.413 14.7617 133.8 13.6035 133.8 11.5147C133.8 9.32742 132.286 8.14696 130.244 8.14696H123.068H122.884V9.41789C122.884 9.70815 122.645 9.94341 122.351 9.94341H121.471C121.177 9.94341 120.938 9.70815 120.938 9.41789V7.60854C120.938 7.59588 120.938 7.58334 120.939 7.57091ZM39.0748 16.0961V6.93358C39.0748 6.58751 39.359 6.30717 39.7099 6.30717H40.5688C40.9197 6.30717 41.2043 6.58751 41.2043 6.93358V14.8826H51.4945C51.8454 14.8826 52.13 15.1633 52.13 15.509V16.0961C52.13 16.4422 51.8454 16.7225 51.4945 16.7225H39.7099C39.359 16.7225 39.0748 16.4422 39.0748 16.0961ZM75.5793 12.4H66.992V14.8825H77.14C77.4653 14.8825 77.729 15.143 77.729 15.4638V16.1415C77.729 16.4624 77.4653 16.7229 77.14 16.7229H65.4518C65.1265 16.7229 64.8624 16.4624 64.8624 16.1415V6.88802C64.8624 6.56717 65.1265 6.30709 65.4518 6.30709H77.14C77.4653 6.30709 77.729 6.56717 77.729 6.88802V7.5657C77.729 7.88697 77.4653 8.14704 77.14 8.14704H66.992V10.6816H75.5793C75.9046 10.6816 76.1687 10.9417 76.1687 11.2626V11.8187C76.1687 12.1399 75.9046 12.4 75.5793 12.4ZM105.871 16.7227H104.833C104.699 16.7227 104.569 16.6809 104.461 16.6036L93.6243 8.83278V16.0991C93.6243 16.4436 93.3413 16.7227 92.9926 16.7227H92.1269C91.7777 16.7227 91.4947 16.4436 91.4947 16.0991V6.9304C91.4947 6.58598 91.7777 6.30688 92.1269 6.30688H93.263C93.3954 6.30688 93.5245 6.34782 93.6318 6.42431L104.392 14.0512V6.94777C104.392 6.60334 104.674 6.32425 105.024 6.32425H105.871C106.22 6.32425 106.503 6.60334 106.503 6.94777V16.0991C106.503 16.4436 106.22 16.7227 105.871 16.7227Z" fill="#262626"/>
<path fill-rule="evenodd" clip-rule="evenodd" d="M10.7183 9.41496C10.235 9.41496 9.84359 9.80656 9.84359 10.2901C9.84359 10.7732 10.235 11.1648 10.7183 11.1648H22.1766C22.6596 11.1648 23.0513 10.7732 23.0513 10.2901C23.0513 9.80656 22.6596 9.41496 22.1766 9.41496H10.7183ZM24.0022 9.66919C23.8386 9.83253 23.7471 10.0543 23.7471 10.2901C23.7471 10.5183 23.8386 10.7469 24.0022 10.9038C24.1654 11.0736 24.3868 11.1652 24.6217 11.1652C24.8506 11.1652 25.0787 11.0736 25.242 10.9103C25.3987 10.7469 25.4971 10.5183 25.4971 10.2901C25.4971 10.0611 25.3987 9.83253 25.242 9.66919C25.0797 9.50654 24.8513 9.42658 24.6231 9.42658C24.3926 9.42658 24.1627 9.50825 24.0022 9.66919ZM9.60656 6.09018C9.12328 6.09018 8.73153 6.48177 8.73153 6.96494C8.73153 7.44845 9.12328 7.84005 9.60656 7.84005H20.569C21.0523 7.84005 21.444 7.44845 21.444 6.96494C21.444 6.48177 21.0523 6.09018 20.569 6.09018H9.60656ZM6.10337 6.34441C5.94012 6.51423 5.84209 6.73634 5.84209 6.9646C5.84209 7.19354 5.94012 7.42214 6.10337 7.57864C6.2598 7.74881 6.48829 7.84005 6.71678 7.84005C6.95176 7.84005 7.17376 7.74881 7.33702 7.58548C7.50028 7.42214 7.59796 7.19354 7.59796 6.9646C7.59796 6.73634 7.50028 6.50774 7.33702 6.34441C7.17376 6.18107 6.94527 6.0994 6.71746 6.0994C6.49 6.0994 6.26321 6.18107 6.10337 6.34441ZM3.8854 0.140076C3.40212 0.140076 3.01072 0.531669 3.01072 1.01518C3.01072 1.49835 3.40212 1.88994 3.8854 1.88994H8.60516C9.0881 1.88994 9.47985 1.49835 9.47985 1.01518C9.47985 0.531669 9.0881 0.140076 8.60516 0.140076H3.8854ZM0.589531 0.392937C0.426275 0.563106 0.335083 0.785214 0.335083 1.01381C0.335083 1.24241 0.433105 1.47136 0.589531 1.63435C0.752788 1.79768 0.981621 1.88926 1.20977 1.88926C1.43894 1.88926 1.66709 1.79768 1.83035 1.63435C1.99327 1.47136 2.0848 1.24891 2.0848 1.01381C2.0848 0.785214 1.99327 0.556272 1.83035 0.392937C1.66709 0.233019 1.4386 0.15306 1.20977 0.15306C0.981279 0.15306 0.752788 0.233019 0.589531 0.392937ZM5.29802 3.1153C4.81508 3.1153 4.42333 3.50689 4.42333 3.98972C4.42333 4.47323 4.81508 4.86483 5.29802 4.86483H14.4708C14.9541 4.86483 15.3458 4.47323 15.3458 3.98972C15.3458 3.50689 14.9541 3.1153 14.4708 3.1153H5.29802ZM16.3144 3.37192C16.1512 3.53491 16.0593 3.75736 16.0593 3.9928C16.0593 4.22105 16.1512 4.45 16.3144 4.6065C16.4777 4.76983 16.6993 4.8679 16.9347 4.8679C17.1632 4.8679 17.3913 4.76983 17.5481 4.6065C17.7113 4.45 17.8094 4.22105 17.8094 3.9928C17.8094 3.76385 17.7178 3.53491 17.5481 3.37192C17.3848 3.20858 17.1563 3.12692 16.9289 3.12692C16.7011 3.12692 16.4743 3.20858 16.3144 3.37192ZM9.60656 12.7397C9.12328 12.7397 8.73153 13.1317 8.73153 13.6149C8.73153 14.0984 9.12328 14.4896 9.60656 14.4896H20.569C21.0523 14.4896 21.444 14.0984 21.444 13.6149C21.444 13.1317 21.0523 12.7397 20.569 12.7397H9.60656ZM6.10337 12.9943C5.94012 13.1577 5.84209 13.3863 5.84209 13.6149C5.84209 13.8435 5.94012 14.0724 6.10337 14.2357C6.2598 14.3991 6.48829 14.49 6.71678 14.49C6.95176 14.49 7.17376 14.3991 7.33702 14.2357C7.50028 14.0724 7.59796 13.8435 7.59796 13.6149C7.59796 13.3863 7.50028 13.1577 7.33702 12.9943C7.17479 12.8317 6.94766 12.7517 6.72122 12.7517C6.49239 12.7517 6.2639 12.8334 6.10337 12.9943ZM3.8854 18.6899C3.40212 18.6899 3.01072 19.0818 3.01072 19.565C3.01072 20.0481 3.40212 20.4397 3.8854 20.4397H8.60516C9.0881 20.4397 9.47985 20.0481 9.47985 19.565C9.47985 19.0818 9.0881 18.6899 8.60516 18.6899H3.8854ZM0.589531 18.9454C0.433105 19.1088 0.335083 19.337 0.335083 19.566C0.335083 19.7946 0.433105 20.0232 0.589531 20.1865C0.752788 20.3434 0.981621 20.4414 1.20977 20.4414C1.43894 20.4414 1.66709 20.3434 1.83035 20.1865C1.99327 20.0232 2.0848 19.7946 2.0848 19.566C2.0848 19.3309 1.99327 19.1088 1.83035 18.9454C1.66709 18.7825 1.4386 18.7008 1.20977 18.7008C0.981279 18.7008 0.752788 18.7825 0.589531 18.9454ZM5.29802 15.715C4.81508 15.715 4.42333 16.1066 4.42333 16.5897C4.42333 17.0729 4.81508 17.4648 5.29802 17.4648H14.4708C14.9541 17.4648 15.3458 17.0729 15.3458 16.5897C15.3458 16.1066 14.9541 15.715 14.4708 15.715H5.29802ZM16.3144 15.973C16.1512 16.1363 16.0593 16.3587 16.0593 16.5938C16.0593 16.8224 16.1512 17.0507 16.3144 17.2075C16.4777 17.3709 16.6993 17.4628 16.9347 17.4628C17.1632 17.4628 17.3913 17.3709 17.5481 17.2075C17.7113 17.0445 17.8094 16.8224 17.8094 16.5938C17.8094 16.3587 17.7113 16.1363 17.5481 15.973C17.3879 15.8096 17.1594 15.728 16.9313 15.728C16.7028 15.728 16.4743 15.8096 16.3144 15.973Z" fill="#3168FD"/>
</g>
<defs>
<clipPath id="clip0">
<rect width="136" height="20.9751" fill="white"/>
</clipPath>
</defs>
</svg>
