<svg width="168" height="168" viewBox="0 0 168 168" fill="none" xmlns="http://www.w3.org/2000/svg">
<rect width="168" height="168" fill="white"/>
<g clip-path="url(#clip0)">
<path d="M76.6471 34.1587L79.0057 24.8552L71.7988 18.5656L81.1023 18.0414L84.7712 9L88.5712 18.0414L97.8747 18.5656L90.6678 24.8552L93.0264 34.1587L84.7712 29.0483L76.6471 34.1587Z" fill="#A17A25"/>
<path d="M84.7712 22.7849L79.0057 24.8552L71.7988 18.5656L84.7712 22.7849Z" fill="#BF8E23"/>
<path d="M76.647 34.1587L79.0056 24.8552L84.7711 22.7848V9L88.8332 18.5656L84.7711 22.7848L76.647 34.1587Z" fill="#E1BE4C"/>
<path d="M97.8747 18.5655L84.7712 22.7848L71.7988 18.5655L81.1023 18.0413L84.7712 22.7848L88.5712 18.0413L97.8747 18.5655Z" fill="#F6E3A4"/>
<path d="M93.0267 34.1586L84.7715 22.811L90.668 24.8551L93.0267 34.1586Z" fill="#E1BE4C"/>
<path d="M84.7634 9V22.7996L81.1025 18.0414L84.7634 9Z" fill="#E1BE4C"/>
<path d="M84.7715 22.7721L93.0267 34.1586L84.7715 29.0484V22.7721V9L88.6239 18.0414L84.7715 22.7721Z" fill="#BF8E23"/>
<path d="M118.849 43.6329L113.722 35.5193L104.199 36.4197L110.221 29.309L106.186 20.4248L115.361 23.8899L122.143 17.5005L121.747 27.0579L130.12 31.749L120.732 34.2217L118.849 43.6329Z" fill="#A17A25"/>
<path d="M116.187 29.9112L110.231 29.3079L106.191 20.433L116.187 29.9112Z" fill="#BF8E23"/>
<path d="M120.73 34.2156L118.848 43.633L116.206 29.9293L106.185 20.4249L115.921 24.0605L116.206 29.9293L120.73 34.2156Z" fill="#E1BE4C"/>
<path d="M122.143 17.5005L116.187 29.9113L104.198 36.4198L110.221 29.309L116.187 29.9113L115.361 23.8899L122.143 17.5005Z" fill="#F6E3A4"/>
<path d="M130.12 31.7489L116.206 29.9126L119.62 25.872L130.12 31.7489Z" fill="#E1BE4C"/>
<path d="M116.178 29.9025L118.848 43.6329L113.709 35.5148L116.178 29.9025L122.143 17.5006L121.747 27.0579L116.178 29.9025Z" fill="#BF8E23"/>
<path d="M138.613 63.3254L137.299 53.8181L128.256 50.7007L136.679 46.716L136.678 36.9584L143.599 43.9069L152.417 40.8936L148.105 49.4318L153.789 57.1652L144.218 55.5349L138.613 63.3254Z" fill="#A17A25"/>
<path d="M138.613 63.3254L137.299 53.8181L141.872 49.7555L136.678 36.9584L136.607 46.8866L141.872 49.7555L138.613 63.3254Z" fill="#E1BE4C"/>
<path d="M152.417 40.8936L141.863 49.7313L128.256 50.7007L136.679 46.7159L141.863 49.7313L143.6 43.9068L152.417 40.8936Z" fill="#F6E3A4"/>
<path d="M153.789 57.1651L141.873 49.7554L148.105 49.4317L153.789 57.1651Z" fill="#E1BE4C"/>
<path d="M141.858 49.7193L153.789 57.1652L144.218 55.5349L141.858 49.7193L136.678 36.9584L143.599 43.9069L141.858 49.7193Z" fill="#BF8E23"/>
<path d="M50.7656 43.4705L48.9458 34.0469L39.749 31.4171L47.9473 26.9881L47.4253 17.2446L54.7079 23.8133L63.352 20.3332L59.5019 29.0897L65.5914 36.5084L55.947 35.3917L50.7656 43.4705Z" fill="#A17A25"/>
<path d="M53.2846 29.7221L48.9461 34.0468L39.749 31.417L53.2846 29.7221Z" fill="#BF8E23"/>
<path d="M50.7656 43.4704L48.9458 34.0467L53.2959 29.7457L47.4253 17.2444L55.1681 24.1762L53.2959 29.7457L50.7656 43.4704Z" fill="#E1BE4C"/>
<path fill-rule="evenodd" clip-rule="evenodd" d="M53.2846 29.7221L63.352 20.3331L54.7079 23.8132L53.2846 29.7221ZM53.2846 29.7221L47.9473 26.988L39.749 31.417L53.2846 29.7221ZM53.2959 29.7457L65.5916 36.5083L57.9539 27.2109L53.2959 29.7457Z" fill="#F6E3A4"/>
<path d="M50.7656 43.4704L53.2791 29.7105L63.352 20.3331L59.502 29.0897L53.2791 29.7105L55.947 35.3916L50.7656 43.4704Z" fill="#BF8E23"/>
<path d="M30.9858 63.2622L25.3295 55.5081L15.8877 57.0412L21.4226 49.545L16.8044 40.9494L26.19 43.7954L32.5318 36.9683L32.7734 46.5306L41.4405 50.6535L32.2375 53.7462L30.9858 63.2622Z" fill="#A17A25"/>
<path d="M27.4159 49.7484L25.3295 55.5081L15.8877 57.0412L27.4159 49.7484Z" fill="#BF8E23"/>
<path d="M32.2437 53.6977L30.9855 63.2619L27.4358 49.7651L16.8042 40.9493L26.7605 43.9283L27.4358 49.7651L32.2437 53.6977Z" fill="#E1BE4C"/>
<path fill-rule="evenodd" clip-rule="evenodd" d="M27.416 49.7483L32.5318 36.9683L26.19 43.7954L27.416 49.7483ZM27.416 49.7483L21.4226 49.545L15.8877 57.0412L27.416 49.7483ZM27.4361 49.7651L41.4407 50.6535L30.573 45.4892L27.4361 49.7651Z" fill="#F6E3A4"/>
<path d="M32.7731 46.5306L27.4058 49.7402L32.5315 36.9683L32.7731 46.5306Z" fill="#BF8E23"/>
<path d="M84.9022 156.152C115.297 156.152 139.937 131.512 139.937 101.117C139.937 70.7225 115.297 46.0828 84.9022 46.0828C54.5075 46.0828 29.8677 70.7225 29.8677 101.117C29.8677 131.512 54.5075 156.152 84.9022 156.152Z" fill="#663D0D"/>
<path d="M84.9022 46.0828C77.6748 46.0828 70.5185 47.5063 63.8412 50.2722C57.1643 53.0378 51.0974 57.0918 45.987 62.2021C40.8764 67.3124 36.8227 73.3793 34.0569 80.0566C31.2912 86.7336 29.8677 93.8902 29.8677 101.117H84.9022V46.0828Z" fill="url(#paint0_diamond)" fill-opacity="0.8"/>
<path d="M139.937 101.117C139.937 93.8902 138.513 86.7336 135.748 80.0566C132.982 73.3793 128.928 67.3124 123.817 62.2021C118.707 57.0915 112.64 53.0378 105.963 50.2719C99.286 47.5063 92.1294 46.0828 84.9023 46.0828V101.117H139.937Z" fill="url(#paint1_diamond)" fill-opacity="0.8"/>
<path d="M84.9022 156.152C115.297 156.152 139.937 131.512 139.937 101.117C139.937 70.7225 115.297 46.0828 84.9022 46.0828C54.5075 46.0828 29.8677 70.7225 29.8677 101.117C29.8677 131.512 54.5075 156.152 84.9022 156.152Z" fill="url(#paint2_diamond)" fill-opacity="0.8"/>
<path d="M84.9022 156.152C115.297 156.152 139.937 131.512 139.937 101.117C139.937 70.7225 115.297 46.0828 84.9022 46.0828C54.5075 46.0828 29.8677 70.7225 29.8677 101.117C29.8677 131.512 54.5075 156.152 84.9022 156.152Z" fill="url(#paint3_diamond)" fill-opacity="0.5"/>
<path fill-rule="evenodd" clip-rule="evenodd" d="M84.8367 158.117C116.064 158.117 141.378 132.568 141.378 101.052C141.378 69.5352 116.064 43.9861 84.8367 43.9861C53.6099 43.9861 28.2954 69.5352 28.2954 101.052C28.2954 132.568 53.6099 158.117 84.8367 158.117ZM84.7712 155.103C114.37 155.103 138.364 130.933 138.364 101.117C138.364 71.3016 114.37 47.131 84.7712 47.131C55.1726 47.131 31.1782 71.3016 31.1782 101.117C31.1782 130.933 55.1726 155.103 84.7712 155.103Z" fill="url(#paint4_radial)"/>
<path fill-rule="evenodd" clip-rule="evenodd" d="M60.6608 108.979L55.2884 142.393L84.9022 126.8L114.516 142.393L108.882 108.979L133.385 85.3931L99.5781 80.4138L84.7712 50.0138L70.2263 80.4138L36.4194 85.3931L60.6608 108.979ZM65.2798 107.432L60.9454 134.4L84.8367 121.815L108.728 134.4L104.182 107.432L123.95 88.3959L96.6764 84.3771L84.7308 59.8414L72.9967 84.3771L45.7229 88.3959L65.2798 107.432Z" fill="#FBDD43" fill-opacity="0.45"/>
<path d="M45.8537 93.3862C47.0767 93.3862 48.3433 93.5172 49.1033 94.028V96.6096C43.7571 94.5655 42.8399 96.4 41.7916 98.4965C40.9664 100.147 41.4163 104.533 44.2813 105.965C46.3778 107.014 49.5226 105.485 50.833 105.048L50.0468 107.931C50.0468 107.931 48.9985 108.586 45.8537 108.586C39.3541 108.586 37.2578 104.556 37.2578 101.117C37.2578 94.5655 42.4594 93.3862 45.8537 93.3862Z" fill="white"/>
<path fill-rule="evenodd" clip-rule="evenodd" d="M55.585 93.7793H60.792C60.792 93.7793 63.9146 102.297 65.5436 106.752C65.775 107.385 66.6883 108.141 66.6883 108.141H60.53C60.53 108.141 61.4766 107.309 61.2638 106.752L60.2155 103.869H56.0224L54.8955 106.752C54.6725 107.297 55.5114 108.141 55.5114 108.141H51.6196C51.6196 108.141 52.284 107.321 52.4732 106.752L56.3369 95.4303C56.5169 94.749 55.585 93.7793 55.585 93.7793ZM57.9093 97.3172L56.4679 102.034H59.6127L57.9093 97.3172Z" fill="white"/>
<path fill-rule="evenodd" clip-rule="evenodd" d="M107.344 93.7793H112.551C112.551 93.7793 115.673 102.297 117.302 106.752C117.534 107.385 118.447 108.141 118.447 108.141H112.289C112.289 108.141 113.235 107.309 113.023 106.752L111.974 103.869H107.781L106.654 106.752C106.431 107.297 107.27 108.141 107.27 108.141H103.378C103.378 108.141 104.043 107.321 104.232 106.752L108.096 95.4303C108.276 94.749 107.344 93.7793 107.344 93.7793ZM109.668 97.3172L108.227 102.034H111.372L109.668 97.3172Z" fill="white"/>
<path d="M87.9166 93.3862C89.3577 93.3862 90.3785 93.3862 91.7164 94.1724V96.531C91.7164 96.531 89.7624 95.4046 88.5715 95.5351C87.3582 95.668 86.6846 96.0378 86.6846 97.0551C86.6846 98.268 88.6952 98.6755 90.144 99.5448C92.5123 100.966 93.2267 101.641 93.2888 104C93.3512 106.359 91.4543 107.669 90.07 108.193C89.1845 108.529 84.9026 108.979 83.1991 107.669L82.5439 104.786C82.5439 104.786 84.6258 106.246 85.4267 106.359C86.2279 106.471 89.2241 106.709 89.3577 105.048C89.4917 103.388 87.9164 102.894 86.2129 102.165C84.1703 101.292 82.6346 99.9316 82.675 97.7103C82.7232 95.0571 84.8997 93.3862 87.9164 93.3862H87.9166Z" fill="white"/>
<path d="M71.6676 93.7793H67.1626C67.1626 93.7793 68.4816 94.9581 68.4816 95.8759V106.883C68.4816 107.454 67.7365 108.141 67.7365 108.141H71.5048C71.5048 108.141 70.7503 107.551 70.7503 106.883V99.1517L76.4634 106.673C77.5298 108.097 80.7561 108.796 80.7561 108.796V95.7448C80.7561 94.4298 81.6018 93.7793 81.6018 93.7793H77.5256C77.5256 93.7793 78.3503 94.1834 78.3503 95.7448V102.559L71.6676 93.7793Z" fill="white"/>
<path d="M94.7301 96.1379C94.1297 96.1379 93.2363 96.9241 93.2363 96.9241L94.0225 93.7793H104.558L103.719 96.7931C103.719 96.7931 103.518 96.1379 102.816 96.1379H100.758V106.228C100.758 107.412 101.739 108.193 101.739 108.193H96.2381C96.2381 108.193 96.8267 107.444 96.8267 106.883V96.1379H94.7301Z" fill="white"/>
<path fill-rule="evenodd" clip-rule="evenodd" d="M119.098 93.7793H126.833C126.833 93.7793 130.24 93.7793 130.24 97.7103C130.24 100.401 127.724 101.117 127.724 101.117L130.817 106.359C131.291 107.148 132.31 108.141 132.31 108.141C132.31 108.141 129.435 108.781 127.79 108.141C126.801 107.756 125.776 105.68 124.989 104.086C124.468 103.031 124.052 102.188 123.82 102.188V106.757C123.82 107.526 124.532 108.141 124.532 108.141H119.233C119.233 108.141 119.889 107.669 119.889 106.757V95.1355C119.889 94.3171 119.098 93.7793 119.098 93.7793ZM123.82 95.8761V100.986C123.82 100.986 126.257 100.609 126.257 97.9724C126.257 95.3365 123.82 95.8761 123.82 95.8761Z" fill="white"/>
<path fill-rule="evenodd" clip-rule="evenodd" d="M28.1807 102.428C28.9046 133.309 53.9346 158.117 84.7059 158.117C115.477 158.117 140.507 133.309 141.231 102.428H138.346C137.587 131.577 113.892 154.972 84.7715 154.972C55.6512 154.972 31.9555 131.577 31.1971 102.428H28.1807Z" fill="url(#paint5_radial)"/>
</g>
<defs>
<radialGradient id="paint0_diamond" cx="0" cy="0" r="1" gradientUnits="userSpaceOnUse" gradientTransform="translate(63.9366 65.7379) rotate(90) scale(48.4828)">
<stop stop-color="#FFE86D"/>
<stop offset="1" stop-color="#976B2B"/>
</radialGradient>
<radialGradient id="paint1_diamond" cx="0" cy="0" r="1" gradientUnits="userSpaceOnUse" gradientTransform="translate(105.868 65.7379) rotate(90) scale(48.4828)">
<stop stop-color="#FFE86F"/>
<stop offset="1" stop-color="#976B2B"/>
</radialGradient>
<radialGradient id="paint2_diamond" cx="0" cy="0" r="1" gradientUnits="userSpaceOnUse" gradientTransform="translate(84.9022 64.4276) rotate(90) scale(72.069)">
<stop stop-color="#FFF36D"/>
<stop offset="1" stop-color="#9C7232"/>
</radialGradient>
<radialGradient id="paint3_diamond" cx="0" cy="0" r="1" gradientUnits="userSpaceOnUse" gradientTransform="translate(84.9022 150.91) rotate(-90) scale(85.1724)">
<stop stop-color="#FFF069"/>
<stop offset="1" stop-color="#C8903E"/>
</radialGradient>
<radialGradient id="paint4_radial" cx="0" cy="0" r="1" gradientUnits="userSpaceOnUse" gradientTransform="translate(83.5919 44.7724) rotate(90) scale(40.6207 40.2475)">
<stop stop-color="#FEFDF8"/>
<stop offset="1" stop-color="#D3AC55"/>
</radialGradient>
<radialGradient id="paint5_radial" cx="0" cy="0" r="1" gradientUnits="userSpaceOnUse" gradientTransform="translate(86.0818 157.331) rotate(-90) scale(40.6207 40.2475)">
<stop stop-color="#FEFDF8"/>
<stop offset="1" stop-color="#D3AC55"/>
</radialGradient>
<clipPath id="clip0">
<rect width="152" height="149.379" fill="white" transform="translate(8 9)"/>
</clipPath>
</defs>
</svg>
