<svg width="168" height="168" viewBox="0 0 168 168" fill="none" xmlns="http://www.w3.org/2000/svg">
<rect width="168" height="168" fill="white"/>
<path d="M77.3966 79.741L75.9015 80.7377C75.9015 80.7377 75.3613 78.9311 73.0359 78.9312C70.7106 78.9312 69.672 81.5373 69.672 83.2295C69.672 85.0984 71.2917 87.2164 73.1605 87.2164C74.6556 87.2164 75.8807 86.0328 76.0884 85.4099L77.5212 86.2197C76.9254 87.2787 75.9015 88.8361 73.1605 88.8361C69.049 88.8361 67.9277 84.4754 67.9277 83.2295C67.9277 78.8689 70.9179 77.2491 73.4097 77.2491C75.5826 77.2491 76.9813 78.9104 77.3966 79.741Z" fill="#172C47"/>
<path d="M120.131 78.2459V88.8361" stroke="#0C223E" stroke-width="0.5"/>
<path fill-rule="evenodd" clip-rule="evenodd" d="M8 77.3115V88.836L11.7377 88.8361C15.2012 88.8361 17.3443 86.3442 17.3443 83.2295C17.3443 79.4918 15.3133 77.3115 12.1986 77.3115H8ZM9.68198 78.8688V87.1541H12.1692C14.038 87.1541 15.5377 85.4485 15.5377 83.2295C15.5377 79.3261 12.859 78.8688 11.6131 78.8688H9.68198Z" fill="#172C47"/>
<path d="M19.2131 77.3738H17.3442L21.3934 84.7247V88.7739H23.1377V84.7247L27.2492 77.3738H25.318L22.3278 82.9804L19.2131 77.3738Z" fill="#172C47"/>
<path d="M28.5576 88.8362V77.3738H29.9093L36.033 85.4099V77.3738H37.9019V88.8362H36.5314L30.2396 80.7378V88.8362L28.5576 88.8362Z" fill="#172C47"/>
<path fill-rule="evenodd" clip-rule="evenodd" d="M39.1475 88.8361L43.695 77.3738H45.1278L49.5507 88.8361H47.7442L46.4983 85.5968H42.2622L41.0786 88.8361H39.1475ZM44.3802 79.3673L42.636 84.3509H46.1868L44.3802 79.3673Z" fill="#172C47"/>
<path d="M50.8589 77.3738V88.8361H52.7277V80.7378L55.9671 86.8427H56.833L60.2032 80.7378V88.8362L61.8851 88.8361V77.3738H60.0163L56.4031 84.2263L52.7277 77.3738H50.8589Z" fill="#172C47"/>
<path d="M64.377 77.3738V88.8362H66.1212V77.3738H64.377Z" fill="#172C47"/>
<path d="M83.2524 77V90.7049" stroke="#0C223E" stroke-width="0.5"/>
<path d="M117.079 79.4295C116.664 79.0142 115.397 78.2459 113.902 78.2459C112.033 78.2459 110.787 79.4918 110.787 80.7377C110.787 81.9836 111.41 82.6689 113.902 83.2918C116.394 83.9148 117.515 84.3508 117.515 86.2197C117.515 87.4656 116.394 88.4623 113.902 88.4623C111.878 88.4623 110.787 87.5902 110.164 86.9672" stroke="#0C223E" stroke-width="0.5"/>
<path d="M149.721 79.4295C149.307 79.0142 148.039 78.2459 146.544 78.2459C144.675 78.2459 143.43 79.4918 143.43 80.7377C143.43 81.9836 144.053 82.6689 146.544 83.2918C149.036 83.9148 150.157 84.3508 150.157 86.2197C150.157 87.4656 149.036 88.4623 146.544 88.4623C144.521 88.4623 143.43 87.5902 142.807 86.9672" stroke="#0C223E" stroke-width="0.5"/>
<path d="M158.567 79.4295C158.152 79.0142 156.885 78.2459 155.39 78.2459C153.521 78.2459 152.275 79.4918 152.275 80.7377C152.275 81.9836 152.898 82.6689 155.39 83.2918C157.882 83.9148 159.003 84.3508 159.003 86.2197C159.003 87.4656 157.882 88.4623 155.39 88.4623C153.367 88.4623 152.275 87.5902 151.652 86.9672" stroke="#0C223E" stroke-width="0.5"/>
<path d="M95.213 83.2918H90.354M95.213 83.2918C95.836 83.2918 97.331 84.1833 97.331 85.9705C97.331 86.5935 97.0819 88.4623 95.213 88.4623C93.7179 88.4623 91.3922 88.4623 90.354 88.4623V83.2918H95.213ZM95.213 83.2918C95.836 83.2918 96.895 82.078 96.895 80.7377C96.895 79.3974 95.836 78.2459 94.5901 78.2459C93.5933 78.2459 91.5999 78.2459 90.354 78.2459V83.2918H95.213Z" stroke="#0C223E" stroke-width="0.5"/>
<path d="M99.9473 78.1213C99.9473 79.7825 99.9473 82.9803 99.9473 84.4754C99.9473 86.3443 101.442 88.4623 103.934 88.4623C106.426 88.4623 107.921 86.3443 107.921 84.4754C107.921 82.9803 107.921 79.5749 107.921 78.1213" stroke="#0C223E" stroke-width="0.5"/>
<path d="M123.308 77.9968V88.8361H124.056V79.4919L131.282 88.8361H131.967V77.9968H131.22V87.5279L123.869 77.9968H123.308Z" fill="#172C47"/>
<path d="M135.082 83.2295H140.689M141.436 78.3705H135.082V83.2295L141.436 78.3705ZM141.436 88.4H135.082V83.2295L141.436 88.4Z" stroke="#0C223E" stroke-width="0.5"/>
</svg>
