<svg width="168" height="168" viewBox="0 0 168 168" fill="none" xmlns="http://www.w3.org/2000/svg">
<rect width="168" height="168" fill="white"/>
<path d="M148.973 75.2345V75.7473H150.418L148.693 87.124L146.688 75.2345H145.243L143.518 87.4038L141.886 75.7007H143.518V75.1878H138.342V75.7007H139.461L141.746 90.6676H143.611L145.196 81.2026L146.921 90.6676H148.787L151.071 75.7473H152.563V75.2345H148.973ZM130.183 75.7007H131.675V90.1547H130.229V90.6676H137.829V86.6112H137.456C137.456 86.6112 137.363 88.2431 137.13 88.9424C136.897 89.4553 136.337 89.9682 135.778 90.1081C135.265 90.2013 134.286 90.2013 134.286 90.2013V82.5547C134.286 82.5547 135.452 82.5081 135.778 82.6946C136.291 83.1142 136.337 83.8602 136.431 84.6995H136.804V80.1768H136.384C136.384 80.7363 136.151 81.4823 135.731 81.8087C135.312 82.2283 134.239 82.0418 134.239 82.0418V75.7473C134.239 75.7473 135.685 75.7007 136.151 75.794C137.27 76.3535 137.317 77.6124 137.456 78.7314H137.829V75.2345H130.136L130.183 75.7007ZM127.852 75.7007H129.297V75.1878H124.215V75.7007H125.474V90.1547H123.982V90.6676H129.437V90.1547H127.898C127.852 90.1314 127.852 75.7007 127.852 75.7007ZM121.091 75.7007H122.396L120.112 89.1756C120.065 89.1756 117.827 75.7007 117.827 75.7007H119.179V75.1878H114.377V75.7007H115.123L117.967 90.621H120.438L123.096 75.7007H123.842V75.1878H121.184V75.7007H121.091ZM113.444 88.8492C112.885 90.1081 110.973 90.1547 110.087 90.1547V82.7878C110.087 82.7878 111.393 82.7878 111.719 82.9743C112.232 83.3473 112.372 84.0934 112.465 84.8394H112.838V80.1768H112.418C112.372 80.8762 112.325 81.7154 111.672 82.1817C111.299 82.4615 110.041 82.3216 110.041 82.3216V75.7473C110.553 75.7473 111.626 75.6541 112.092 75.8406C113.258 76.4001 113.304 77.7523 113.398 78.9179H113.817V75.1878H106.357V75.7007H107.523V90.2013H106.45V90.7142H114.144V86.6578H113.724C113.677 87.4504 113.631 88.1964 113.444 88.8492ZM105.331 90.0382C104.679 88.0799 104.492 86.1216 103.606 84.3032C103.047 83.1842 101.834 82.6713 100.715 82.578C102.021 82.4381 103.373 81.9253 104.026 80.5731C104.445 79.5473 104.539 77.8688 103.886 76.843C103.233 75.8173 102.254 75.2578 101.088 75.2111H95.027V75.724H96.519V90.178H94.9804V90.6443H100.482V90.1314H99.1301V82.7645H99.4564C100.109 82.8112 100.948 83.0443 101.228 83.5572C101.974 84.7228 102.58 88.9658 102.72 89.805C102.767 90.1314 102.72 90.4578 102.907 90.6909H106.217V90.178C106.077 90.178 105.518 90.178 105.331 90.0382ZM98.9902 82.275V75.7007C99.4098 75.7007 100.436 75.7007 100.715 75.8872C101.788 77.0062 101.694 78.9645 101.648 80.4565C101.555 81.1093 101.321 81.902 100.669 82.1817C100.296 82.3216 98.9902 82.275 98.9902 82.275ZM89.9914 86.751H89.4785C89.4785 87.4038 89.4785 88.1498 89.3387 88.7559C89.1055 89.3155 88.6393 90.0148 87.9865 90.1081H86.0282V75.6541H87.6601V75.1412H82.1583V75.6541H83.5104V90.1081H82.1117V90.621H89.9914C89.9914 89.4087 89.9448 88.0099 89.9914 86.751ZM77.5657 75.2345H75.281L72.7632 90.1547H71.5509V90.621H74.7681V90.1081H73.416L74.2086 85.3989H77.1926L78.1252 90.1081H76.6798V90.621H81.7154V90.1081H80.7362C80.7362 90.1314 77.5657 75.2345 77.5657 75.2345ZM75.7006 84.8394H74.2086L75.3742 77.5191L76.9595 84.8394H75.7006ZM71.038 75.7007V75.1878H65.7227V75.7007H67.0282V90.1547H65.6761V90.6676H70.9914V90.1547H69.7325V75.7007C69.7325 75.7007 71.038 75.7007 71.038 75.7007ZM62.5988 90.0848C62.0859 90.3645 61.1068 90.2713 60.7338 89.8517C59.9411 88.9191 59.4282 87.3339 59.335 86.075C59.0552 83.1842 59.0552 81.7854 59.4282 79.5007C59.6147 78.1952 59.9877 76.8897 60.8736 75.9572C61.4331 75.4443 62.4123 75.5375 63.0184 75.8639C64.2307 76.6565 64.1841 78.1486 64.2773 79.4541H64.7902V75.1645H64.3706C64.3706 75.3976 64.3706 75.5841 64.1841 75.724C63.7644 75.8173 63.5313 75.3044 63.2049 75.2111C62.319 74.6983 61.0601 74.8848 60.1742 75.351C58.1693 76.5167 56.8638 78.7081 56.7239 80.9461C56.3976 84.4431 56.9104 88.1265 59.8012 90.178C60.7338 90.5977 62.0393 91.1105 62.9718 90.4112C62.9718 90.4112 63.7178 89.6651 63.9976 89.6651C64.2773 89.6651 64.2773 90.178 64.2773 90.5044H64.6969V86.6811H64.1374C64.0442 87.9633 64.2307 88.9891 62.5988 90.0848ZM56.7706 75.7007V75.1878H53.6933V75.7007H54.8589V85.9584L50.7558 75.1878H47.119V75.7007H48.4246V90.1547H47.0724V90.6676H50.3828V90.1547H49.0773V77.9388L53.9264 90.7142H55.5583V75.794H56.8638L56.7706 75.7007ZM42.9227 75.2345H40.5448L37.9804 90.1547H36.6749V90.621H40.1718V90.1081H38.6798L39.4724 85.3056H42.2233L43.2025 90.1081H41.8037V90.621H46.6062V90.1081H45.9068C45.9534 90.1314 42.9227 75.2345 42.9227 75.2345ZM39.519 84.7461L40.6381 77.8921L42.0835 84.7461H39.519ZM37.3276 75.7007V75.1878H34.1571V75.7007H35.4626V86.3314L31.2663 75.2345H27.5828V75.7473H28.8884V90.2013H27.5362V90.6676H30.9865V90.1547H29.5877V78.2185L34.1571 90.7142H36.1154V75.794H37.3743C37.3276 75.7473 37.3276 75.7007 37.3276 75.7007ZM25.5313 75.7007H26.8835V75.1878H21.5215V75.7007H23.0135V90.1547H21.2884V90.6676H26.9767V90.1547H25.5313C25.5313 90.1314 25.5313 75.7007 25.5313 75.7007ZM12.6626 75.7007H14.6209V90.1547H12.6626V90.6676H18.7706V90.1547H17.1387V82.648H18.4908C19.1902 82.648 19.3301 83.9535 19.2835 84.6529H19.7963V79.897H19.2835C19.3301 80.6897 19.1436 82.1817 18.4908 82.1817H17.1853V75.6541C18.0246 75.7007 19.3301 75.7473 19.9362 76.4001C20.7289 77.1927 20.6822 78.3584 20.7755 79.4308H21.1485V75.2345H12.6626C12.6626 75.2345 12.6626 75.7007 12.6626 75.7007Z" fill="#0F6CC9"/>
</svg>
