<svg width="168" height="168" viewBox="0 0 168 168" fill="none" xmlns="http://www.w3.org/2000/svg">
<rect width="168" height="168" fill="white"/>
<g clip-path="url(#clip0)">
<path fill-rule="evenodd" clip-rule="evenodd" d="M82.1292 84.24C82.1292 104.807 65.5348 121.48 45.0646 121.48C24.5944 121.48 8 104.807 8 84.24C8 63.6729 24.5944 47 45.0646 47C65.5348 47 82.1292 63.6729 82.1292 84.24ZM57.389 95.7569C54.2522 99.0666 49.7864 101.135 44.8308 101.135C35.3383 101.135 27.6431 93.5447 27.6431 84.1815C27.6431 74.8181 35.3383 67.2276 44.8308 67.2276C52.2849 67.2276 58.6305 71.9081 61.0122 78.4523H47.7538V95.7569H57.389Z" fill="#010101"/>
<path fill-rule="evenodd" clip-rule="evenodd" d="M135.581 117.784C130.661 120.152 125.142 121.48 119.311 121.48C98.6468 121.48 81.8955 104.807 81.8955 84.24C81.8955 63.6729 98.6468 47 119.311 47C139.975 47 156.726 63.6729 156.726 84.24C156.726 92.2757 154.169 99.7171 149.82 105.802L158.831 118.674L137.317 119.843L135.581 117.784ZM136.041 88.8381C136.566 87.2571 136.849 85.5753 136.849 83.8308C136.849 74.5964 128.918 67.1107 119.136 67.1107C109.352 67.1107 101.422 74.5964 101.422 83.8308C101.422 93.0649 109.352 100.551 119.136 100.551C119.755 100.551 120.368 100.521 120.972 100.462L120.948 100.434L112.062 87.2215L134.043 86.4031L136.041 88.8381Z" fill="#010101"/>
<path d="M52.9677 83.3794H51.7665L51.538 84.0646H50.8096L52.0473 80.7395H52.6822L53.9267 84.0646H53.1983L52.9677 83.3794ZM51.9514 82.8245H52.7828L52.3649 81.58L51.9514 82.8245ZM56.7128 80.7395V82.9295C56.7128 83.2933 56.5987 83.5812 56.3704 83.7928C56.1434 84.0045 55.8328 84.1102 55.4386 84.1102C55.0504 84.1102 54.7422 84.0075 54.5137 83.802C54.2855 83.5964 54.1688 83.3139 54.1643 82.9547V80.7395H54.8495V82.9342C54.8495 83.1519 54.9012 83.3109 55.0048 83.4114C55.1098 83.5104 55.2543 83.5599 55.4386 83.5599C55.8237 83.5599 56.0194 83.3574 56.0255 82.9524V80.7395H56.7128ZM58.9989 83.1921C58.9989 83.0628 58.953 82.9639 58.8618 82.8953C58.7704 82.8252 58.606 82.7522 58.3684 82.676C58.1311 82.5984 57.943 82.5224 57.8044 82.4478C57.4269 82.2436 57.238 81.9688 57.238 81.6232C57.238 81.4436 57.2883 81.2837 57.3888 81.1438C57.4908 81.0021 57.6362 80.8917 57.825 80.8127C58.0153 80.7334 58.2283 80.6939 58.4645 80.6939C58.7019 80.6939 58.9135 80.7372 59.0992 80.8239C59.2851 80.9093 59.4289 81.0302 59.5309 81.1871C59.6345 81.344 59.6861 81.522 59.6861 81.7214H59.0012C59.0012 81.5692 58.953 81.4513 58.8571 81.3676C58.7613 81.2823 58.6266 81.2397 58.4531 81.2397C58.2856 81.2397 58.1554 81.2755 58.0625 81.347C57.9697 81.417 57.9232 81.5098 57.9232 81.6256C57.9232 81.7336 57.9772 81.8243 58.0855 81.8973C58.1949 81.9705 58.3556 82.039 58.5672 82.1028C58.957 82.22 59.2409 82.3654 59.4191 82.539C59.597 82.7127 59.6861 82.9288 59.6861 83.1876C59.6861 83.4753 59.5774 83.7014 59.3597 83.8658C59.142 84.0288 58.8487 84.1102 58.4804 84.1102C58.2246 84.1102 57.9917 84.0639 57.7817 83.9708C57.5715 83.8766 57.4108 83.7479 57.2997 83.585C57.1901 83.422 57.1353 83.2332 57.1353 83.0186H57.8226C57.8226 83.3855 58.042 83.569 58.4804 83.569C58.6434 83.569 58.7704 83.5363 58.8618 83.4708C58.953 83.4037 58.9989 83.3109 58.9989 83.1921ZM62.655 81.2944H61.6364V84.0646H60.9512V81.2944H59.9466V80.7395H62.655V81.2944ZM64.2786 82.8474H63.7328V84.0646H63.0477V80.7395H64.2831C64.6759 80.7395 64.979 80.827 65.192 81.0021C65.4053 81.1773 65.5117 81.4247 65.5117 81.7443C65.5117 81.9712 65.4624 82.1606 65.3635 82.3131C65.2659 82.4637 65.1174 82.5839 64.918 82.6737L65.6373 84.0325V84.0646H64.9021L64.2786 82.8474ZM63.7328 82.2925H64.2854C64.4575 82.2925 64.5908 82.249 64.6851 82.1622C64.7795 82.0738 64.8268 81.9529 64.8268 81.7991C64.8268 81.6424 64.7819 81.5189 64.6918 81.4291C64.6037 81.3393 64.4674 81.2944 64.2831 81.2944H63.7328V82.2925ZM67.9119 83.3794H66.7106L66.4824 84.0646H65.7537L66.9915 80.7395H67.6264L68.8711 84.0646H68.1425L67.9119 83.3794ZM66.8956 82.8245H67.7269L67.309 81.58L66.8956 82.8245ZM69.8666 83.5141H71.3214V84.0646H69.1817V80.7395H69.8666V83.5141ZM72.445 84.0646H71.7598V80.7395H72.445V84.0646ZM75.0005 83.3794H73.7992L73.5707 84.0646H72.8423L74.0801 80.7395H74.715L75.9595 84.0646H75.2311L75.0005 83.3794ZM73.9842 82.8245H74.8153L74.3974 81.58L73.9842 82.8245Z" fill="white"/>
</g>
<defs>
<clipPath id="clip0">
<rect width="152" height="74.8308" fill="white" transform="translate(8 47)"/>
</clipPath>
</defs>
</svg>
