<svg width="168" height="168" viewBox="0 0 168 168" fill="none" xmlns="http://www.w3.org/2000/svg">
<rect width="168" height="168" fill="white"/>
<g clip-path="url(#clip0)">
<path d="M8 72.3603H41.1282V95.8748H8V72.3603Z" fill="#EE3C28"/>
<path d="M28.0072 76.3877C29.0005 77.381 32.814 81.2595 32.814 81.2595H16.8345C15.5354 81.2595 14.626 82.7535 14.626 84.0526C14.626 85.3518 15.5354 86.7809 16.8345 86.7809H32.814C31.5149 88.08 28.5269 91.1979 27.8773 91.8476C27.2277 92.4971 27.0061 93.7676 27.8773 94.9655C28.9166 96.3944 30.4756 96.3944 31.5149 95.3553C32.5541 94.3159 40.6089 86.0014 41.2585 85.3518C41.9081 84.7022 41.9081 83.4031 41.2585 82.7535C40.6089 81.8441 32.814 74.0492 31.5149 72.7501C30.2157 71.4509 28.6568 72.1005 28.0072 72.75C27.3576 73.3996 27.0137 75.3943 28.0072 76.3877Z" stroke="white" stroke-width="0.5"/>
<path d="M64.643 79.5056H60.7456V89.8987C60.7456 93.1466 62.6943 95.7449 67.5012 95.7449C72.308 95.7449 74.2567 92.497 74.2567 90.5483V79.5056H72.4379C71.1388 79.5056 70.3593 80.1552 70.3593 81.4543V89.8987C70.3593 91.1979 68.8003 92.497 67.5012 92.497C66.202 92.497 64.643 91.4577 64.643 89.8987V79.5056Z" fill="#C4C4C4"/>
<path d="M82.1813 79.2457C86.0788 79.2457 88.807 81.1944 88.807 84.4423H85.4292C84.7796 82.1039 79.8429 81.6436 79.8429 84.0526C79.8429 86.0012 89.4565 84.7021 89.4565 90.5483C89.4565 94.4457 85.4419 96.0331 82.1813 96.0331C79.1684 96.0331 75.4258 94.4457 75.4258 90.2884H79.583C79.583 93.4064 85.2993 93.0166 85.2993 91.1978C85.2993 88.4149 75.6856 89.8987 75.8155 84.7021C75.9054 81.1063 78.2839 79.2457 82.1813 79.2457Z" fill="#C4C4C4"/>
<path d="M133.367 79.2457C137.265 79.2457 139.993 81.1944 139.993 84.4423H136.615C135.966 82.1039 131.029 81.6436 131.029 84.0526C131.029 86.0012 140.643 84.7021 140.643 90.5483C140.643 94.4457 136.628 96.0331 133.367 96.0331C130.354 96.0331 126.612 94.4457 126.612 90.2884H130.769C130.769 93.4064 136.485 93.0166 136.485 91.1978C136.485 88.4149 126.872 89.8987 127.002 84.7021C127.091 81.1063 129.47 79.2457 133.367 79.2457Z" fill="#C4C4C4"/>
<path d="M148.048 79.2457C151.945 79.2457 154.673 81.1944 154.673 84.4423H151.295C150.646 82.1039 145.709 81.6436 145.709 84.0526C145.709 86.0012 155.323 84.7021 155.323 90.5483C155.323 94.4457 151.308 96.0331 148.048 96.0331C145.035 96.0331 141.292 94.4457 141.292 90.2884H145.449C145.449 93.4064 151.165 93.0166 151.165 91.1978C151.165 88.4149 141.552 89.8987 141.682 84.7021C141.771 81.1063 144.15 79.2457 148.048 79.2457Z" fill="#C4C4C4"/>
<path d="M91.0151 95.3551V79.5056H93.2237C93.8733 79.5056 95.1724 80.415 95.1724 82.3637V95.3551H91.0151Z" fill="#C4C4C4"/>
<path d="M91.0151 74.9586V78.2065H95.1724V77.1672C95.1724 76.292 94.662 74.9586 92.9639 74.9586H91.0151Z" fill="#C4C4C4"/>
<path d="M96.4722 84.7022V95.3553H100.629V85.3518C100.629 83.4031 102.318 82.5586 103.617 82.5586C105.566 82.5586 106.216 84.0527 106.216 85.3518V92.4971C106.216 93.7963 106.865 95.3553 108.164 95.3553H110.373V85.3518C110.373 81.6781 107.862 79.2458 103.617 79.2458C99.72 79.2458 96.4722 81.4544 96.4722 84.7022Z" fill="#C4C4C4"/>
<path fill-rule="evenodd" clip-rule="evenodd" d="M118.557 79.2457C113.361 79.2457 111.542 82.9719 111.542 87.3004C111.542 92.7568 114.01 95.8747 118.557 95.8747C123.104 95.8747 125.703 92.3671 125.703 90.5483H121.805C121.805 91.4577 120.114 92.3671 118.557 92.3671C117.258 92.3671 115.569 91.5212 115.569 88.5995H125.833C125.703 80.1551 122.096 79.2457 118.557 79.2457ZM115.569 86.0012H121.805C121.805 84.7022 121.156 82.7534 118.557 82.7534C115.959 82.7534 115.569 84.9187 115.569 86.0012Z" fill="#C4C4C4"/>
<path fill-rule="evenodd" clip-rule="evenodd" d="M50.8071 78.2065V74.309H51.3268V78.2065H50.8071Z" fill="black"/>
<path d="M52.5602 73.9487H51.9106V74.5983H52.5602V73.9487Z" fill="black"/>
<path fill-rule="evenodd" clip-rule="evenodd" d="M60.0308 78.2065V74.309H60.5504V78.2065H60.0308Z" fill="black"/>
<path d="M61.7843 73.9487H61.1348V74.5983H61.7843V73.9487Z" fill="black"/>
<path fill-rule="evenodd" clip-rule="evenodd" d="M52.755 75.6082C52.755 75.4485 52.8171 75.2194 52.982 75.0335C53.1394 74.8559 53.4072 74.6988 53.8593 74.6988C54.3098 74.6988 54.5358 74.8539 54.6583 75.0171C54.7908 75.1938 54.8336 75.4231 54.8336 75.6082V78.2065H55.3533V75.6082C55.3533 75.3603 55.2986 75.0049 55.074 74.7053C54.8391 74.3922 54.4481 74.1791 53.8593 74.1791C53.3804 74.1791 53.0165 74.3195 52.755 74.5332V74.3091H52.2354V75.6082V78.2065H52.755V75.6082Z" fill="black"/>
<path fill-rule="evenodd" clip-rule="evenodd" d="M75.0675 75.2058C74.9491 75.3394 74.906 75.5053 74.906 75.6081V78.2064H73.8667V75.6081V74.0492H74.906V74.078C75.1469 73.9768 75.4284 73.9192 75.7503 73.9192C76.3061 73.9192 76.7304 74.0919 77.0243 74.3796C77.3392 74.098 77.781 73.9192 78.3486 73.9192C79.0065 73.9192 79.4802 74.1612 79.7712 74.5493C80.0421 74.9103 80.1025 75.3287 80.1025 75.6081V78.2064H79.0632V75.6081C79.0632 75.4544 79.0263 75.2882 78.9397 75.1729C78.8736 75.0846 78.7302 74.9585 78.3486 74.9585C77.9642 74.9585 77.7696 75.0886 77.6658 75.2058C77.5474 75.3394 77.5043 75.5053 77.5043 75.6081H77.5042V78.2064H76.4649V75.6081C76.4649 75.4544 76.428 75.2882 76.3414 75.1729C76.2753 75.0846 76.1319 74.9585 75.7503 74.9585C75.3659 74.9585 75.1713 75.0886 75.0675 75.2058Z" fill="black"/>
<path fill-rule="evenodd" clip-rule="evenodd" d="M84.5195 72.3603H85.5588V76.5176C85.5588 76.7802 85.7697 77.1641 86.403 77.6707L85.7538 78.4823C85.088 77.9497 84.5195 77.2942 84.5195 76.5176V72.3603Z" fill="black"/>
<path fill-rule="evenodd" clip-rule="evenodd" d="M86.8584 72.3603H87.8977V76.5176C87.8977 76.7802 88.1086 77.1641 88.7419 77.6707L88.0927 78.4823C87.4269 77.9497 86.8584 77.2942 86.8584 76.5176V72.3603Z" fill="black"/>
<path fill-rule="evenodd" clip-rule="evenodd" d="M57.4193 74.6286C56.9732 74.6902 56.718 74.94 56.718 75.2184C56.718 75.4466 56.8127 75.5935 56.9782 75.716C57.1595 75.8503 57.4129 75.9448 57.7095 76.0437C57.7412 76.0543 57.7737 76.0649 57.8066 76.0758C58.0607 76.1594 58.3427 76.2523 58.5637 76.3833C58.8274 76.5396 59.0565 76.7815 59.0565 77.1671C59.0565 77.6941 58.8612 78.0485 58.5243 78.2506C58.2154 78.4359 57.8276 78.4662 57.4975 78.4662C57.1714 78.4662 56.8536 78.3328 56.6037 78.1874C56.35 78.04 56.1374 77.8634 56.0146 77.7406L56.382 77.3731C56.4757 77.4668 56.6529 77.615 56.8648 77.7382C57.0803 77.8635 57.3039 77.9466 57.4975 77.9466C57.8168 77.9466 58.0787 77.9119 58.257 77.805C58.4073 77.7148 58.5368 77.5495 58.5368 77.1671C58.5368 77.033 58.4734 76.9339 58.2988 76.8304C58.1299 76.7303 57.9065 76.6564 57.6414 76.5686C57.6099 76.5582 57.5779 76.5476 57.5452 76.5367C57.2572 76.4407 56.9261 76.3241 56.6689 76.1336C56.3958 75.9314 56.1983 75.6398 56.1983 75.2184C56.1983 74.5586 56.7876 74.1912 57.3482 74.1139C57.9247 74.0343 58.6197 74.2248 59.0128 74.8144L58.5805 75.1027C58.324 74.718 57.8498 74.5692 57.4193 74.6286Z" fill="black"/>
<path fill-rule="evenodd" clip-rule="evenodd" d="M71.3497 74.9855C71.28 75.0419 71.2682 75.086 71.2682 75.1235C71.2682 75.2242 71.2986 75.2859 71.4119 75.3652C71.5558 75.466 71.7725 75.5456 72.0738 75.6405C72.1043 75.6501 72.136 75.6599 72.1689 75.6701C72.419 75.7478 72.7292 75.844 72.9754 75.9819C73.2768 76.1506 73.6067 76.4528 73.6067 76.9646C73.6067 77.2445 73.5535 77.5021 73.4331 77.7264C73.3108 77.9543 73.1348 78.1179 72.9372 78.2299C72.5668 78.4399 72.1217 78.4663 71.7879 78.4663C71.4027 78.4663 71.0419 78.3189 70.7744 78.1719C70.5004 78.0215 70.2701 77.8413 70.1318 77.7106L70.8456 76.9552C70.9238 77.0291 71.0832 77.1558 71.2747 77.261C71.4728 77.3698 71.6533 77.427 71.7879 77.427C72.1035 77.427 72.3079 77.392 72.4247 77.3258C72.4708 77.2997 72.4977 77.2715 72.5175 77.2347C72.5392 77.1944 72.5673 77.1144 72.5673 76.9646C72.5673 76.9633 72.5672 76.9621 72.5672 76.9611C72.5594 76.9517 72.5337 76.9257 72.4677 76.8887C72.3234 76.8079 72.1267 76.7463 71.8531 76.6605C71.8235 76.6512 71.7931 76.6417 71.7616 76.6318C71.4784 76.5426 71.1104 76.4227 70.816 76.2167C70.4907 75.9891 70.2289 75.6365 70.2289 75.1235C70.2289 74.7178 70.4282 74.3945 70.6954 74.1779C70.9545 73.9681 71.2825 73.8501 71.6069 73.8078C72.2427 73.7249 73.045 73.9172 73.5116 74.5784L72.6623 75.1776C72.4793 74.9182 72.1124 74.79 71.7414 74.8384C71.5623 74.8617 71.4276 74.9223 71.3497 74.9855Z" fill="black"/>
<path fill-rule="evenodd" clip-rule="evenodd" d="M63.7331 74.4108V72.3603H64.2527V78.2064H63.7331V78.1047C63.4887 78.3206 63.1482 78.4663 62.6937 78.4663C62.3237 78.4663 62.0246 78.373 61.7905 78.2039C61.558 78.0361 61.4101 77.8081 61.3157 77.5722C61.1346 77.1194 61.1346 76.5909 61.1348 76.2731C61.1348 76.2679 61.1348 76.2628 61.1348 76.2577C61.1348 76.2527 61.1348 76.2476 61.1348 76.2424C61.1346 75.9246 61.1346 75.3961 61.3157 74.9433C61.4101 74.7073 61.558 74.4794 61.7905 74.3115C62.0246 74.1425 62.3237 74.0492 62.6937 74.0492C63.1482 74.0492 63.4887 74.1949 63.7331 74.4108ZM63.7331 75.6081C63.7331 75.4332 63.6784 75.165 63.5222 74.948C63.3754 74.7443 63.1287 74.5688 62.6937 74.5688C62.414 74.5688 62.2261 74.6379 62.0947 74.7328C61.9618 74.8288 61.8662 74.9663 61.7982 75.1363C61.6574 75.4881 61.6544 75.9241 61.6544 76.2577C61.6544 76.5913 61.6574 77.0273 61.7982 77.3792C61.8662 77.5492 61.9618 77.6867 62.0947 77.7827C62.2261 77.8775 62.414 77.9466 62.6937 77.9466C63.1287 77.9466 63.3754 77.7712 63.5222 77.5674C63.6784 77.3504 63.7331 77.0823 63.7331 76.9073V75.6081Z" fill="black"/>
<path fill-rule="evenodd" clip-rule="evenodd" d="M65.3214 74.9846C65.5479 74.5508 65.9489 74.1791 66.5912 74.1791C67.1887 74.1791 67.6049 74.4111 67.8533 74.825C68.0859 75.2127 68.1502 75.7272 68.1502 76.2578V76.5176H65.5653C65.5914 76.7837 65.6582 77.0968 65.7861 77.3633C65.9562 77.7176 66.2079 77.9467 66.5912 77.9467C66.8832 77.9467 67.1345 77.8879 67.3194 77.7955C67.5059 77.7022 67.607 77.5851 67.6438 77.4748L68.1368 77.6391C68.0436 77.9185 67.8199 78.1262 67.5518 78.2603C67.2821 78.3951 66.9486 78.4663 66.5912 78.4663C65.935 78.4663 65.5372 78.0458 65.3176 77.5881C65.1008 77.1366 65.0322 76.6079 65.0322 76.2578C65.0322 75.907 65.1011 75.4071 65.3214 74.9846ZM65.5658 75.9979H67.6241C67.6043 75.6131 67.5368 75.3077 67.4077 75.0923C67.2662 74.8566 67.0329 74.6988 66.5912 74.6988C66.194 74.6988 65.9457 74.9118 65.7822 75.225C65.6582 75.4627 65.5923 75.7459 65.5658 75.9979Z" fill="black"/>
<path fill-rule="evenodd" clip-rule="evenodd" d="M44.5059 74.9586V89.2492C44.5059 93.7962 47.7537 95.8748 51.6512 95.8748C56.8477 95.8748 59.446 92.497 59.3161 87.3004C59.1537 80.8068 54.899 79.2458 52.9503 79.2458C50.5518 79.2458 49.2603 80.5742 48.565 81.2894C48.5071 81.349 48.4532 81.4044 48.4033 81.4543V77.2971C48.4033 75.3484 47.1041 74.9586 46.4546 74.9586H44.5059ZM51.911 92.2372C53.7047 92.2372 55.1588 90.4303 55.1588 87.5603C55.1588 84.6903 53.7047 82.7535 51.911 82.7535C49.7024 82.7535 48.4033 84.6903 48.4033 87.5603C48.4033 90.4303 49.7024 92.2372 51.911 92.2372Z" fill="#C4C4C4"/>
<path fill-rule="evenodd" clip-rule="evenodd" d="M82.4142 74.7687C82.0691 74.6954 81.6352 74.7886 81.3076 75.2566L80.4562 74.6606C81.038 73.8295 81.9032 73.5978 82.63 73.752C83.2974 73.8935 83.9999 74.4222 83.9999 75.2185V78.2054L83.0061 78.2065C82.7366 78.3001 82.4477 78.3364 82.1811 78.3364C81.7541 78.3364 81.3138 78.2666 80.9645 78.0437C80.5794 77.7979 80.3623 77.4016 80.3623 76.9074C80.3623 76.1744 80.9411 75.7073 81.5496 75.5314C81.9682 75.4104 82.4573 75.3998 82.9606 75.5186V75.2185C82.9606 75.1053 82.8186 74.8544 82.4142 74.7687ZM82.9606 76.6003C82.524 76.4461 82.1246 76.4471 81.8381 76.5298C81.4723 76.6356 81.4016 76.818 81.4016 76.9074C81.4016 77.0627 81.4509 77.1211 81.5236 77.1676C81.6324 77.237 81.8417 77.2971 82.1811 77.2971C82.4486 77.2971 82.6706 77.2417 82.8068 77.16C82.9189 77.0928 82.9606 77.0222 82.9606 76.9073V76.6003Z" fill="black"/>
<path fill-rule="evenodd" clip-rule="evenodd" d="M156.232 82.7275V83.0225H156.758V84.1868H157.083V83.0225H157.448V84.1868H157.773V83.4084L158.164 84.0099L158.299 84.2196L158.435 84.0099L158.826 83.4084V84.1868H159.151V82.8601V82.7275H158.881L158.852 82.7717L158.299 83.6233L157.747 82.7717L157.718 82.7275H156.232Z" fill="black"/>
</g>
<defs>
<clipPath id="clip0">
<rect width="152" height="24.6838" fill="white" transform="translate(8 72)"/>
</clipPath>
</defs>
</svg>
