<svg width="168" height="168" viewBox="0 0 168 168" fill="none" xmlns="http://www.w3.org/2000/svg">
<rect width="168" height="168" fill="white"/>
<g clip-path="url(#clip0)">
<path d="M35.5977 50.0761L35.3779 49.9118C35.651 49.5435 35.6887 49.3384 35.6978 48.9336H35.3779V48.0103H36.235V48.7205C36.235 49.3566 36.0224 49.6896 35.5977 50.0761Z" fill="#303030"/>
<path d="M20.8988 54.3679C21.2781 54.3679 21.5952 54.2613 21.8501 54.0483C22.1081 53.8323 22.2476 53.5538 22.2689 53.213H22.7924C22.7772 53.5142 22.6831 53.7897 22.5101 54.0392C22.3372 54.2857 22.1066 54.4789 21.8183 54.6189C21.533 54.7589 21.2266 54.8289 20.8988 54.8289C20.2525 54.8289 19.7396 54.6037 19.3603 54.1533C18.984 53.7029 18.7959 53.0973 18.7959 52.3365V52.1722C18.7959 51.6853 18.8809 51.2547 19.0508 50.8804C19.2207 50.5061 19.4635 50.217 19.7791 50.0131C20.0977 49.8092 20.4694 49.7072 20.8943 49.7072C21.4344 49.7072 21.879 49.8685 22.228 50.1911C22.5799 50.5137 22.7681 50.9382 22.7924 51.4647H22.2689C22.2446 51.0782 22.105 50.7662 21.8501 50.5289C21.5983 50.2915 21.2796 50.1728 20.8943 50.1728C20.4027 50.1728 20.0203 50.3509 19.7472 50.7069C19.4771 51.063 19.3421 51.562 19.3421 52.2041V52.3639C19.3421 52.9939 19.4771 53.4853 19.7472 53.8383C20.0203 54.1914 20.4042 54.3679 20.8988 54.3679Z" fill="#303030"/>
<path d="M13.6821 52.195C13.6821 51.7203 13.7732 51.2927 13.9552 50.9123C14.1403 50.5319 14.3998 50.2367 14.7336 50.0268C15.0704 49.8137 15.4513 49.7072 15.8761 49.7072C16.5315 49.7072 17.0626 49.9385 17.4692 50.4011C17.8758 50.8606 18.0791 51.4707 18.0791 52.2315V52.3457C18.0791 52.8234 17.9866 53.2541 17.8015 53.6375C17.6194 54.0179 17.3615 54.3116 17.0277 54.5185C16.6939 54.7254 16.3131 54.8289 15.8852 54.8289C15.2328 54.8289 14.7017 54.5991 14.2921 54.1396C13.8854 53.6771 13.6821 53.0654 13.6821 52.3046V52.195ZM14.2283 52.3457C14.2283 52.936 14.3801 53.4214 14.6835 53.8018C14.99 54.1792 15.3906 54.3679 15.8852 54.3679C16.3768 54.3679 16.7743 54.1792 17.0778 53.8018C17.3843 53.4214 17.5375 52.9208 17.5375 52.3V52.195C17.5375 51.8177 17.4677 51.4723 17.3281 51.1588C17.1885 50.8454 16.9928 50.6034 16.7409 50.433C16.4891 50.2596 16.2008 50.1728 15.8761 50.1728C15.3906 50.1728 14.9946 50.3646 14.6881 50.748C14.3816 51.1284 14.2283 51.6275 14.2283 52.2452V52.3457Z" fill="#303030"/>
<path d="M24.2475 50.8086C24.4529 50.5245 24.7158 50.3049 25.036 50.1496C25.3564 49.9944 25.7064 49.9168 26.0858 49.9168C26.6917 49.9168 27.1426 50.0603 27.4385 50.3473C27.7345 50.6343 27.8841 51.0649 27.8877 51.6389V54.7579H27.2662V51.6345C27.2626 51.2098 27.1548 50.8935 26.9424 50.6856C26.7335 50.4777 26.3975 50.3737 25.9344 50.3737C25.5479 50.3737 25.2049 50.4762 24.9055 50.6812C24.6096 50.8833 24.3902 51.1571 24.2475 51.5027V54.7579H23.626V48.0103H24.2475V50.8086Z" fill="#303030"/>
<path d="M9.77307 51.4372L8.7534 52.3593V54.7376H8.1416V48.0912H8.7534V51.6746L12.464 48.0912H13.2349L10.2008 51.0492L13.4687 54.7376H12.7226L9.77307 51.4372Z" fill="#303030"/>
<path d="M29.24 54.7376H28.6937V49.7985H29.24V54.7376ZM28.5981 48.3697C28.5981 48.2663 28.6315 48.1795 28.6983 48.1096C28.7651 48.0365 28.8561 48 28.9713 48C29.0867 48 29.1777 48.0365 29.2445 48.1096C29.3143 48.1795 29.3492 48.2663 29.3492 48.3697C29.3492 48.4732 29.3143 48.5599 29.2445 48.6299C29.1777 48.6999 29.0867 48.7349 28.9713 48.7349C28.8561 48.7349 28.7651 48.6999 28.6983 48.6299C28.6315 48.5599 28.5981 48.4732 28.5981 48.3697Z" fill="#303030"/>
<path d="M32.2261 54.8289C31.8075 54.8289 31.428 54.7254 31.0882 54.5185C30.7514 54.3116 30.4889 54.024 30.3008 53.6558C30.1126 53.2845 30.0186 52.8691 30.0186 52.4096V52.2133C30.0186 51.7385 30.1096 51.311 30.2917 50.9306C30.4768 50.5502 30.7332 50.2519 31.061 50.0359C31.3887 49.8168 31.7437 49.7072 32.1261 49.7072C32.7239 49.7072 33.1972 49.9126 33.5462 50.3235C33.8982 50.7313 34.0743 51.2897 34.0743 51.9987V52.3046H30.5602V52.4096C30.5602 52.9695 30.7195 53.4366 31.0381 53.811C31.3598 54.1822 31.7634 54.3679 32.249 54.3679C32.5402 54.3679 32.7966 54.3146 33.0182 54.2081C33.2428 54.1016 33.4461 53.9312 33.6281 53.6968L33.9696 53.957C33.569 54.5383 32.9878 54.8289 32.2261 54.8289ZM32.1261 50.1728C31.7164 50.1728 31.3705 50.3235 31.0882 50.6247C30.8091 50.926 30.6391 51.3308 30.5784 51.839H33.5326V51.7796C33.5174 51.3049 33.3823 50.9184 33.1275 50.6202C32.8725 50.3219 32.5388 50.1728 32.1261 50.1728Z" fill="#303030"/>
<path d="M39.5582 53.4823C39.5582 53.2115 39.449 52.9939 39.2305 52.8295C39.015 52.6652 38.6888 52.5374 38.2519 52.4461C37.8149 52.3517 37.4751 52.2452 37.2323 52.1266C36.9925 52.0048 36.8135 51.8572 36.6952 51.6838C36.5799 51.5103 36.5222 51.3003 36.5222 51.0538C36.5222 50.6643 36.6846 50.3432 37.0093 50.0907C37.3339 49.835 37.7497 49.7072 38.2564 49.7072C38.8057 49.7072 39.2457 49.8442 39.5764 50.1181C39.9102 50.3889 40.0771 50.7434 40.0771 51.1816H39.5309C39.5309 50.8925 39.4095 50.6521 39.1668 50.4604C38.9271 50.2687 38.6236 50.1728 38.2564 50.1728C37.8983 50.1728 37.6101 50.2535 37.3916 50.4148C37.1761 50.573 37.0684 50.7799 37.0684 51.0356C37.0684 51.2821 37.1579 51.4738 37.337 51.6107C37.519 51.7446 37.8483 51.8679 38.3247 51.9805C38.8042 52.0931 39.1622 52.2133 39.399 52.3411C39.6386 52.4689 39.8162 52.6226 39.9315 52.8021C40.0467 52.9817 40.1044 53.1993 40.1044 53.4549C40.1044 53.8718 39.9361 54.2051 39.5993 54.4546C39.2654 54.7041 38.8285 54.8289 38.2882 54.8289C37.7148 54.8289 37.2489 54.6904 36.8908 54.4135C36.5358 54.1335 36.3584 53.7805 36.3584 53.3545H36.9046C36.9258 53.674 37.0593 53.9236 37.3051 54.1031C37.5539 54.2796 37.8817 54.3679 38.2882 54.3679C38.6677 54.3679 38.9741 54.2842 39.2078 54.1168C39.4414 53.9494 39.5582 53.7379 39.5582 53.4823Z" fill="#303030"/>
<path d="M57.5476 118.924C56.7045 118.924 56.0321 118.619 55.5303 118.009C55.0485 117.373 54.8076 116.522 54.8076 115.454V95.0533C54.8076 94.0111 55.0485 93.1849 55.5303 92.5747C56.0321 91.9392 56.7045 91.6214 57.5476 91.6214C58.4107 91.6214 59.0933 91.9392 59.595 92.5747C60.0969 93.1849 60.3478 94.0111 60.3478 95.0533V115.454C60.3478 116.522 60.0969 117.373 59.595 118.009C59.0933 118.619 58.4107 118.924 57.5476 118.924Z" fill="#E1A20B"/>
<path d="M66.2769 118.695C65.4211 118.695 64.7635 118.415 64.3042 117.856C63.8449 117.297 63.6152 116.483 63.6152 115.416V95.0533C63.6152 94.0111 63.8658 93.1849 64.3669 92.5747C64.8888 91.9392 65.5881 91.6214 66.4649 91.6214C67.3625 91.6214 68.0724 91.9392 68.5943 92.5747C69.1162 93.1849 69.3772 94.0111 69.3772 95.0533V113.356H75.9031C77.3237 113.356 78.5311 114.458 78.5311 115.984C78.5311 117.51 77.2658 118.695 76.0451 118.695C74.5172 118.695 66.2769 118.695 66.2769 118.695Z" fill="#E1A20B"/>
<path d="M82.2952 118.695C81.3817 118.695 80.6796 118.415 80.1894 117.856C79.6991 117.297 79.4541 116.496 79.4541 115.454V95.0534C79.4541 94.0111 79.6991 93.2103 80.1894 92.6511C80.6796 92.0918 81.3817 91.8121 82.2952 91.8121H89.047C91.6542 91.8121 93.8937 92.3587 95.7654 93.4518C97.6596 94.5195 99.108 96.0574 100.111 98.0658C101.113 100.074 101.615 102.464 101.615 105.235C101.615 108.031 101.113 110.446 100.111 112.48C99.1303 114.488 97.693 116.026 95.7989 117.094C93.9271 118.161 91.6765 118.695 89.047 118.695H82.2952ZM88.6125 113.052C90.9077 113.052 92.6236 112.416 93.76 111.145C94.9188 109.849 95.4981 107.878 95.4981 105.235C95.4981 102.591 94.9188 100.633 93.76 99.3622C92.6236 98.0911 90.9077 97.4557 88.6125 97.4557H85.6043V113.052H88.6125Z" fill="#E1A20B"/>
<path d="M138.691 113.356C139.544 114.264 140.254 115.018 140.254 115.913C140.254 116.726 139.965 117.485 139.402 118.044C138.859 118.578 138.001 119.038 137.271 119.038C136.77 119.038 135.85 118.683 134.43 116.907C133.293 115.487 128.037 109.094 128.037 109.094C128.037 109.094 127.765 108.628 127.327 108.628H127.1V115.907C127.1 116.975 126.849 117.373 126.348 118.009C125.847 118.619 125.079 118.924 124.202 118.924C123.325 118.924 122.664 118.619 122.142 118.009C121.641 117.373 121.432 116.975 121.432 115.907V95.0534C121.432 94.0111 121.612 93.3172 122.071 92.7579C122.53 92.1986 123.237 91.8121 124.093 91.8121H130.949C133.621 91.8121 136.713 92.8715 137.981 94.1784C139.249 95.4854 140.112 97.5162 140.112 100.049C140.112 102.082 139.61 103.267 138.691 104.691C137.773 106.089 134.615 107.532 133.293 107.532L138.691 113.356ZM131.045 103.625C132.319 103.625 132.893 103.125 133.435 102.642C133.999 102.159 134.288 101.37 134.288 100.277C134.288 99.1589 133.857 98.4969 133.293 98.014C132.933 97.7053 132.319 97.2326 131.045 97.2326H127.037V103.625H131.045Z" fill="#E1A20B"/>
<path d="M109.13 86.6494C108.358 86.6494 107.765 86.3775 107.351 85.8338C106.936 85.29 106.658 84.5114 106.658 83.4981V63.6625C106.658 62.6492 106.936 61.8706 107.351 61.3268C107.765 60.783 108.358 60.5111 109.13 60.5111C109.13 60.5111 117.117 60.5111 118.094 60.5111C120.775 60.5112 121.006 62.2158 121.006 63.1063C121.006 64.886 119.732 65.6962 118.094 65.6962H112.127V70.8812H117.668C119.306 70.8812 120.651 71.6215 120.651 73.3763C120.651 74.6636 120.225 76.0663 117.668 76.0663C116.912 76.0663 112.127 76.0663 112.127 76.0663V81.4644H118.094C120.225 81.4644 121.361 82.2745 121.361 84.0541C121.361 84.8945 121.065 86.6494 118.094 86.6494C117.117 86.6494 109.13 86.6494 109.13 86.6494Z" fill="#303030"/>
<path d="M106.831 118.612C106.045 118.612 105.441 118.335 105.019 117.781C104.597 117.227 104.314 116.433 104.314 115.401V95.188C104.314 94.1553 104.597 93.3619 105.019 92.8077C105.441 92.2537 106.045 91.9766 106.831 91.9766C106.831 91.9766 114.964 91.9766 115.959 91.9766C118.69 91.9766 118.925 93.7138 118.925 94.6212C118.925 96.4347 117.628 97.2603 115.959 97.2603H109.884V102.544H115.525C117.194 102.544 118.563 103.298 118.563 105.086C118.563 106.398 118.129 107.828 115.525 107.828C114.756 107.828 109.884 107.828 109.884 107.828V113.328H115.959C118.129 113.328 119.287 114.154 119.287 115.967C119.287 116.824 118.986 118.612 115.959 118.612C114.964 118.612 106.831 118.612 106.831 118.612Z" fill="#E1A20B"/>
<path d="M101.047 60.2343C101.939 60.2343 102.301 60.5454 102.865 61.1676C103.452 61.7898 103.746 62.5987 103.746 63.5942V83.5664C103.746 84.5868 103.599 85.317 103.035 85.9392C102.472 86.5614 102.081 86.8626 101.189 86.8626C100.132 86.8626 99.3364 86.6148 98.7962 85.8682L87.1252 70.313V83.9504C87.1252 84.9708 86.8805 85.4082 86.3403 86.0304C85.8001 86.6526 85.129 86.8626 84.213 86.8626C83.3205 86.8626 82.8643 86.6526 82.3006 86.0304C81.737 85.4082 81.585 84.9708 81.585 83.9504V63.5942C81.585 62.5987 81.6605 61.7898 82.2242 61.1676C82.7879 60.5454 83.3205 60.2343 84.213 60.2343C85.223 60.2343 85.9222 60.6169 86.4859 61.3635L98.1345 76.9897V63.5942C98.1345 62.5737 98.302 61.7649 98.8422 61.1676C99.4059 60.5454 100.154 60.2343 101.047 60.2343Z" fill="#303030"/>
<path d="M75.7664 86.9636C74.9341 86.9636 74.2703 86.707 73.7749 86.1097C73.2993 85.4875 73.0615 85.2088 73.0615 84.1635V63.2102C73.0615 62.1899 73.2993 61.6767 73.7749 61.0794C74.2703 60.4572 74.9341 60.2343 75.7664 60.2343C76.6185 60.2343 77.2922 60.4572 77.7876 61.0794C78.2829 61.6767 78.5307 62.1899 78.5307 63.2102V84.1635C78.5307 85.2088 78.2829 85.4875 77.7876 86.1097C77.2922 86.707 76.6185 86.9636 75.7664 86.9636Z" fill="#303030"/>
<path d="M61.5947 87.0757C59.9198 87.0757 58.3598 86.8642 56.9151 86.4411C55.4913 85.9931 54.6634 85.7163 53.742 84.9448C52.8208 84.1733 52.7449 83.5605 52.7476 82.814C52.7505 82.0414 52.8992 81.501 53.4579 80.9673C53.972 80.4762 54.4581 80.424 55.1626 80.328C56.45 80.1526 57.5214 81.0025 58.3588 81.2514C59.2173 81.5003 60.1321 81.8119 61.2 81.8119C62.4353 81.8119 63.0578 81.6004 63.6859 81.1774C64.335 80.7293 64.9644 79.6826 64.9644 78.8364C64.9644 78.2641 64.7194 77.3302 64.1121 76.932C63.5258 76.5088 62.5474 76.0983 60.8724 75.7C58.7995 75.1773 57.1768 74.5551 56.0043 73.8335C54.8317 73.1117 54.0047 72.3491 53.5231 71.3785C53.0626 70.3829 52.8637 69.9529 52.8637 68.5592C52.8637 66.9665 53.2614 65.4278 54.0571 64.1336C54.8528 62.8395 55.9415 61.8722 57.3234 61.1504C58.7262 60.4038 60.2966 60.085 62.0344 60.085C63.5629 60.085 66.1174 60.6823 66.1174 60.6823C66.1174 60.6823 67.8193 61.3061 68.3738 62.2159C68.9542 63.1679 69.1672 64.065 68.6579 65.057C68.2012 65.9467 67.5165 66.3311 66.5271 66.4775C65.5547 66.6214 64.7822 65.9414 64.1121 65.7673C63.4631 65.5681 62.8406 65.3488 62.0658 65.3488C60.998 65.3488 60.1395 65.5976 59.4905 66.0954C58.8414 66.5683 58.643 67.0701 58.643 67.543C58.643 68.0159 58.8388 68.4518 59.0691 68.7504C59.2995 69.049 59.4349 69.1621 60.0631 69.4607C60.6913 69.7345 61.7099 70.1645 62.9453 70.4632C64.9554 70.9858 66.5362 71.6204 67.6877 72.367C68.8393 73.0888 69.6558 74.1723 70.1374 75.143C70.619 76.1136 70.8598 77.469 70.8598 78.7881C70.8598 80.4307 70.4724 81.8867 69.6978 83.1559C68.923 84.4002 67.8343 85.3709 66.4315 86.0678C65.0495 86.7397 63.4373 87.0757 61.5947 87.0757Z" fill="#303030"/>
<path d="M131.344 87.0757C129.669 87.0757 128.109 86.8642 126.665 86.4411C125.241 85.9931 124.413 85.7163 123.492 84.9448C122.57 84.1733 122.494 83.5605 122.497 82.814C122.5 82.0414 122.649 81.501 123.207 80.9673C123.722 80.4762 124.208 80.424 124.912 80.328C126.199 80.1526 127.271 81.0025 128.108 81.2514C128.967 81.5003 129.882 81.8119 130.949 81.8119C132.185 81.8119 132.807 81.6004 133.435 81.1774C134.085 80.7293 134.714 79.6826 134.714 78.8364C134.714 78.2641 134.469 77.3302 133.862 76.932C133.275 76.5088 132.297 76.0983 130.622 75.7C128.549 75.1773 126.926 74.5551 125.754 73.8335C124.581 73.1117 123.754 72.3491 123.273 71.3785C122.812 70.3829 122.613 69.9529 122.613 68.5592C122.613 66.9665 123.011 65.4278 123.807 64.1336C124.602 62.8395 125.691 61.8722 127.073 61.1504C128.476 60.4038 130.046 60.085 131.784 60.085C133.312 60.085 135.867 60.6823 135.867 60.6823C135.867 60.6823 137.569 61.3061 138.123 62.2159C138.704 63.1679 138.917 64.065 138.407 65.057C137.951 65.9467 137.266 66.3311 136.277 66.4775C135.304 66.6214 134.532 65.9414 133.862 65.7673C133.213 65.5681 132.59 65.3488 131.815 65.3488C130.747 65.3488 129.889 65.5976 129.24 66.0954C128.591 66.5683 128.392 67.0701 128.392 67.543C128.392 68.0159 128.588 68.4518 128.819 68.7504C129.049 69.049 129.184 69.1621 129.813 69.4607C130.441 69.7345 131.459 70.1645 132.695 70.4632C134.705 70.9858 136.286 71.6204 137.437 72.367C138.589 73.0888 139.405 74.1723 139.887 75.143C140.368 76.1136 140.609 77.469 140.609 78.7881C140.609 80.4307 140.222 81.8867 139.447 83.1559C138.672 84.4002 137.584 85.3709 136.181 86.0678C134.799 86.7397 133.187 87.0757 131.344 87.0757Z" fill="#303030"/>
<path d="M150.806 87.0757C149.131 87.0757 147.571 86.8642 146.127 86.4411C144.703 85.9931 143.875 85.7163 142.953 84.9448C142.032 84.1733 141.956 83.5605 141.959 82.814C141.962 82.0414 142.111 81.501 142.669 80.9673C143.183 80.4762 143.67 80.424 144.374 80.328C145.661 80.1526 146.733 81.0025 147.57 81.2514C148.429 81.5003 149.344 81.8119 150.411 81.8119C151.647 81.8119 152.269 81.6004 152.897 81.1774C153.547 80.7293 154.176 79.6826 154.176 78.8364C154.176 78.2641 153.93 77.3302 153.324 76.932C152.737 76.5088 151.759 76.0983 150.083 75.7C148.011 75.1773 146.388 74.5551 145.216 73.8335C144.043 73.1117 143.216 72.3491 142.735 71.3785C142.274 70.3829 142.075 69.9529 142.075 68.5592C142.075 66.9665 142.473 65.4278 143.269 64.1336C144.064 62.8395 145.153 61.8722 146.535 61.1504C147.938 60.4038 149.508 60.085 151.245 60.085C152.774 60.085 155.329 60.6823 155.329 60.6823C155.329 60.6823 157.031 61.3061 157.585 62.2159C158.166 63.1679 158.378 64.065 157.869 65.057C157.413 65.9467 156.727 66.3311 155.738 66.4775C154.765 66.6214 153.994 65.9414 153.324 65.7673C152.674 65.5681 152.052 65.3488 151.278 65.3488C150.21 65.3488 149.351 65.5976 148.702 66.0954C148.053 66.5683 147.854 67.0701 147.854 67.543C147.854 68.0159 148.05 68.4518 148.281 68.7504C148.511 69.049 148.646 69.1621 149.275 69.4607C149.903 69.7345 150.921 70.1645 152.157 70.4632C154.167 70.9858 155.747 71.6204 156.899 72.367C158.051 73.0888 158.868 74.1723 159.35 75.143C159.831 76.1136 160.071 77.469 160.071 78.7881C160.071 80.4307 159.683 81.8867 158.909 83.1559C158.135 84.4002 157.045 85.3709 155.643 86.0678C154.261 86.7397 152.649 87.0757 150.806 87.0757Z" fill="#303030"/>
<path d="M150.161 119.038C148.448 119.038 146.851 118.977 145.372 118.541C143.915 118.079 143.186 117.845 142.243 117.05C141.3 116.254 141.104 115.547 141.107 114.777C141.11 113.98 141.262 113.409 141.834 112.859C142.36 112.352 142.851 112.149 143.579 112.149C144.374 112.149 145.993 112.773 146.85 113.03C147.729 113.287 148.665 113.608 149.758 113.608C151.022 113.608 151.66 113.39 152.302 112.954C152.967 112.492 153.611 111.412 153.611 110.539C153.611 109.948 153.294 109.15 152.673 108.739C152.072 108.303 151.071 107.879 149.357 107.469C147.235 106.929 145.574 106.287 144.374 105.543C143.174 104.798 142.328 104.012 141.835 103.011C141.363 101.983 141.178 101.375 141.178 99.9372C141.178 98.2941 141.633 96.7068 142.447 95.3718C143.262 94.0367 144.376 93.0389 145.79 92.2944C147.226 91.5242 148.833 91.1953 150.612 91.1953C152.177 91.1953 153.253 91.3618 154.758 92.0349C155.757 92.4811 156.705 93.0149 157.068 93.6169C157.662 94.5991 157.965 95.5243 157.443 96.5477C156.976 97.4655 156.19 97.8621 155.179 98.0131C154.183 98.1616 153.392 97.5544 152.707 97.3747C152.042 97.1693 151.404 96.9486 150.612 96.9486C149.519 96.9486 148.641 97.2164 147.976 97.7299C147.312 98.2177 147.215 98.6244 147.215 99.1122C147.215 99.6001 147.341 99.8264 147.577 100.134C147.813 100.442 147.952 100.559 148.594 100.867C149.237 101.149 150.279 101.593 151.545 101.901C153.602 102.44 155.22 103.095 156.398 103.865C157.577 104.61 158.414 105.728 158.906 106.729C159.399 107.73 159.645 109.128 159.645 110.489C159.645 112.184 159.249 113.685 158.456 114.995C157.663 116.278 156.548 117.28 155.112 117.999C153.699 118.692 152.048 119.038 150.161 119.038Z" fill="#E1A20B"/>
<path d="M39.6252 87.0757C36.0434 87.0757 33.454 85.6075 31.5811 83.6663C29.7317 81.7251 28.6689 79.3853 28.6689 75.6522V63.5942C28.6689 62.5737 28.7464 61.7649 29.3082 61.1676C29.8935 60.5454 30.3371 60.2343 31.297 60.2343C32.2569 60.2343 32.866 60.5454 33.4278 61.1676C34.0131 61.7649 34.1381 62.5737 34.1381 63.5942V75.9135C34.1381 77.8049 35.3878 79.2609 36.1839 80.2813C36.9798 81.3017 38.1269 81.8119 39.6252 81.8119C41.1234 81.8119 42.2707 81.3017 43.0666 80.2813C43.8626 79.2609 45.0764 77.8049 45.0764 75.9135V63.5942C45.0764 62.5737 45.3669 61.7649 45.9288 61.1676C46.514 60.5454 46.9577 60.2343 47.9175 60.2343C48.8774 60.2343 49.4631 60.5454 50.0484 61.1676C50.6337 61.7649 50.6166 62.5737 50.6166 63.5942V75.6522C50.6166 79.3605 49.5297 81.7003 47.6334 83.6663C45.7606 85.6075 43.1837 87.0757 39.6252 87.0757Z" fill="#303030"/>
<path d="M21.1402 72.4872C22.872 72.4872 25.0795 74.023 25.757 75.1429C26.4345 76.238 26.8224 77.6448 26.8224 79.2626C26.8224 80.706 26.1872 82.2474 25.5509 83.3425C24.9351 84.4127 23.8019 85.2464 22.6318 85.8437C21.4822 86.4409 18.7937 86.7397 17.2336 86.7397H10.8411C9.9995 86.7397 9.16188 86.3446 8.71028 85.7971C8.25868 85.2497 8 84.5868 8 83.5664V63.5942C8 62.5738 8.06448 62.0754 8.71028 61.2925C9.35608 60.5095 10.3114 60.421 11.153 60.421H17.2336C19.5122 60.421 21.2299 60.9714 22.5642 62.2158C23.9189 63.4354 24.6916 65.1621 24.6916 67.2526C24.6916 68.5966 24.2215 69.6939 23.6262 70.7392C23.0308 71.7596 22.2076 72.0143 21.1402 72.4872ZM13.5116 70.7618H16.5234C17.5908 70.7618 17.8774 70.5626 18.3701 70.1644C18.8627 69.7662 19.2224 69.1317 19.2224 68.2606C19.2224 67.3398 19.0048 66.6677 18.5122 66.2447C18.0195 65.8216 17.5908 65.61 16.5234 65.61H13.5116V70.7618ZM18.0994 81.5505C19.2284 81.5505 19.7447 81.339 20.2168 80.9159C20.7095 80.4679 21.1402 79.7463 21.1402 78.7507C21.1402 77.7552 20.8515 77.0459 20.3589 76.6229C19.8868 76.1748 19.2284 75.9508 18.0994 75.9508H13.5116V81.5505H18.0994Z" fill="#303030"/>
<path d="M40.3706 119.038C36.6844 119.038 34.0196 117.546 32.0922 115.574C30.1889 113.601 29.0952 111.224 29.0952 107.43V95.1776C29.0952 94.1407 29.1749 93.3188 29.7531 92.7119C30.3554 92.0796 30.812 91.7635 31.7998 91.7635C32.7875 91.7635 33.4144 92.0796 33.9927 92.7119C34.5951 93.3188 34.7236 94.1407 34.7236 95.1776V107.696C34.7236 109.618 36.0098 111.097 36.8289 112.134C37.6481 113.171 38.8286 113.69 40.3706 113.69C41.9125 113.69 43.093 113.171 43.9122 112.134C44.7313 111.097 45.9806 109.618 45.9806 107.696V95.1776C45.9806 94.1407 46.2795 93.3188 46.8578 92.7119C47.4601 92.0796 47.9166 91.7635 48.9044 91.7635C49.8922 91.7635 50.495 92.0796 51.0973 92.7119C51.6996 93.3188 51.6821 94.1407 51.6821 95.1776V107.43C51.6821 111.199 50.5636 113.576 48.612 115.574C46.6846 117.546 44.0327 119.038 40.3706 119.038Z" fill="#E1A20B"/>
<path d="M21.4873 104.188C23.2649 104.188 25.5307 105.742 26.2261 106.876C26.9213 107.984 27.3196 109.408 27.3196 111.045C27.3196 112.506 26.6676 114.066 26.0144 115.174C25.3824 116.257 24.2193 117.101 23.0183 117.705C21.8384 118.31 19.0788 118.612 17.4776 118.612H10.9162C10.0523 118.612 9.19257 118.212 8.72904 117.658C8.26551 117.104 8 116.433 8 115.401V95.188C8 94.1553 8.06619 93.651 8.72904 92.8586C9.3919 92.0662 10.3725 91.9766 11.2363 91.9766H17.4776C19.8163 91.9766 21.5793 92.5337 22.9488 93.793C24.3394 95.0272 25.1325 96.7748 25.1325 98.8904C25.1325 100.251 24.65 101.361 24.039 102.419C23.4279 103.452 22.5829 103.709 21.4873 104.188ZM13.6572 102.442H16.7485C17.8441 102.442 18.1384 102.24 18.644 101.837C19.1497 101.434 19.5189 100.792 19.5189 99.9105C19.5189 98.9787 19.2955 98.2986 18.7898 97.8705C18.2842 97.4422 17.8441 97.2281 16.7485 97.2281H13.6572V102.442ZM18.3662 113.361C19.525 113.361 20.0549 113.146 20.5395 112.718C21.0452 112.265 21.4873 111.534 21.4873 110.527C21.4873 109.519 21.191 108.802 20.6853 108.374C20.2007 107.92 19.525 107.693 18.3662 107.693H13.6572V113.361H18.3662Z" fill="#E1A20B"/>
</g>
<defs>
<clipPath id="clip0">
<rect width="152" height="71.028" fill="white" transform="translate(8 48)"/>
</clipPath>
</defs>
</svg>
