<svg width="40" height="40" viewBox="0 0 40 40" fill="none" xmlns="http://www.w3.org/2000/svg">
<path d="M23.314 3.33659C23.1295 3.34759 22.9427 3.37815 22.7573 3.42773L9.32633 7.02799C7.843 7.42633 6.96511 8.94961 7.36344 10.4329L13.8381 34.6061C14.2347 36.0895 15.7597 36.9689 17.243 36.5723L30.6707 32.972C32.1541 32.5753 33.0335 31.0504 32.6369 29.5671L26.1623 5.39388C25.8152 4.09596 24.605 3.25957 23.314 3.33659ZM24.1961 8.79883L29.2319 27.6009L15.8042 31.2012L10.7684 12.3991L24.1961 8.79883ZM34.5835 8.89648L31.3641 9.75911L34.9611 23.1901L38.1805 22.3275L34.5835 8.89648ZM5.03923 16.8131L1.81982 17.6758L5.41683 31.1035L8.63623 30.2409L5.03923 16.8131Z" fill="white"/>
</svg>
