<svg width="89" height="104" viewBox="0 0 89 104" fill="none" xmlns="http://www.w3.org/2000/svg">
<path d="M27.5088 0H11.7083C5.24199 0 0 5.24199 0 11.7083C0 13.9508 0.643967 16.146 1.85534 18.0331L15.6776 39.5658C20.7484 47.4653 20.7484 57.596 15.6776 65.4954L1.72532 87.2306C0.598839 88.9855 0 91.0269 0 93.1122C0 99.1254 4.87463 104 10.8878 104H27.3774C32.6596 104 37.7942 102.257 41.9853 99.0424L78.9227 70.7068C91.5232 61.0406 91.4298 42.0213 78.7348 32.4794L41.9287 4.81499C37.7708 1.68981 32.7102 0 27.5088 0Z" fill="#304FF8"/>
</svg>
