<svg width="208" height="87" viewBox="0 0 208 87" fill="none" xmlns="http://www.w3.org/2000/svg">
<path d="M28.4184 82.5V77.3461H29.6945L30.4609 80.8617L31.2203 77.3461H32.5V82.5H31.709V78.443L30.8688 82.5H30.0461L29.2129 78.443V82.5H28.4184Z" fill="white"/>
<path d="M33.182 79.9547C33.182 79.3406 33.2723 78.8356 33.4527 78.4395C33.6356 78.041 33.8734 77.7445 34.1664 77.55C34.4594 77.3555 34.8145 77.2582 35.2316 77.2582C35.8363 77.2582 36.3285 77.4891 36.7082 77.9508C37.0902 78.4125 37.2813 79.0699 37.2813 79.9231C37.2813 80.7856 37.0797 81.4594 36.6766 81.9445C36.3227 82.3734 35.8422 82.5879 35.2352 82.5879C34.6234 82.5879 34.1406 82.3758 33.7867 81.9516C33.3836 81.4664 33.182 80.8008 33.182 79.9547ZM34.0609 79.9195C34.0609 80.5125 34.1734 80.9578 34.3984 81.2555C34.6234 81.5508 34.9023 81.6984 35.2352 81.6984C35.5703 81.6984 35.8481 81.552 36.0684 81.259C36.2887 80.9637 36.3988 80.5113 36.3988 79.902C36.3988 79.3043 36.291 78.8625 36.0754 78.5766C35.8621 78.2906 35.582 78.1477 35.2352 78.1477C34.8883 78.1477 34.6059 78.2918 34.3879 78.5801C34.1699 78.8684 34.0609 79.3148 34.0609 79.9195Z" fill="white"/>
<path d="M37.9527 82.5V77.3461H39.7492C40.2086 77.3461 40.5367 77.393 40.7336 77.4867C40.9305 77.5781 41.0922 77.7387 41.2188 77.9684C41.3453 78.1957 41.4086 78.4688 41.4086 78.7875C41.4086 79.1906 41.3113 79.5152 41.1168 79.7613C40.9246 80.0074 40.6504 80.1621 40.2941 80.2254C40.477 80.3566 40.6281 80.5008 40.7477 80.6578C40.8672 80.8125 41.0301 81.0914 41.2363 81.4945L41.7496 82.5H40.7336L40.1148 81.3785C39.8922 80.9731 39.741 80.7199 39.6613 80.6191C39.5816 80.516 39.4973 80.4457 39.4082 80.4082C39.3191 80.3684 39.1762 80.3484 38.9793 80.3484H38.8035V82.5H37.9527ZM38.8035 79.5258H39.4363C39.8231 79.5258 40.0691 79.5094 40.1746 79.4766C40.2801 79.4414 40.3656 79.3723 40.4313 79.2691C40.4969 79.166 40.5297 79.0289 40.5297 78.8578C40.5297 78.6938 40.4969 78.5625 40.4313 78.4641C40.3656 78.3633 40.2766 78.2941 40.1641 78.2566C40.0844 78.2309 39.8535 78.218 39.4715 78.218H38.8035V79.5258Z" fill="white"/>
<path d="M43.1629 82.5V78.218H41.9078V77.3461H45.2652V78.218H44.0137V82.5H43.1629Z" fill="white"/>
<path d="M47.7859 80.6051V79.7367H49.6246V81.7898C49.4395 82.0078 49.177 82.1953 48.8371 82.3523C48.4973 82.5094 48.1563 82.5879 47.8141 82.5879C47.3969 82.5879 47.0289 82.4859 46.7102 82.282C46.3914 82.0758 46.1383 81.7688 45.9508 81.3609C45.7656 80.9508 45.6731 80.4691 45.6731 79.916C45.6731 79.3488 45.7668 78.8637 45.9543 78.4606C46.1441 78.0574 46.3891 77.7563 46.6891 77.557C46.9914 77.3578 47.3523 77.2582 47.7719 77.2582C48.2758 77.2582 48.6789 77.3871 48.9813 77.6449C49.2859 77.9004 49.4816 78.2766 49.5684 78.7734L48.7246 78.9668C48.6613 78.702 48.5453 78.4992 48.3766 78.3586C48.2078 78.218 48.0063 78.1477 47.7719 78.1477C47.4086 78.1477 47.1145 78.2895 46.8895 78.5731C46.6645 78.8543 46.552 79.2844 46.552 79.8633C46.552 80.4844 46.6738 80.9566 46.9176 81.2801C47.1262 81.559 47.4086 81.6984 47.7648 81.6984C47.9313 81.6984 48.1035 81.6598 48.2816 81.5824C48.4621 81.5027 48.6227 81.3949 48.7633 81.259V80.6051H47.7859Z" fill="white"/>
<path d="M54.2266 82.5H53.2984L52.9293 81.3293H51.2418L50.8938 82.5H49.9867L51.632 77.3461H52.5356L54.2266 82.5ZM52.6551 80.4609L52.075 78.5484L51.502 80.4609H52.6551Z" fill="white"/>
<path d="M56.6453 80.6051V79.7367H58.484V81.7898C58.2988 82.0078 58.0363 82.1953 57.6965 82.3523C57.3566 82.5094 57.0156 82.5879 56.6734 82.5879C56.2563 82.5879 55.8883 82.4859 55.5695 82.282C55.2508 82.0758 54.9977 81.7688 54.8102 81.3609C54.625 80.9508 54.5324 80.4691 54.5324 79.916C54.5324 79.3488 54.6262 78.8637 54.8137 78.4606C55.0035 78.0574 55.2484 77.7563 55.5484 77.557C55.8508 77.3578 56.2117 77.2582 56.6313 77.2582C57.1352 77.2582 57.5383 77.3871 57.8406 77.6449C58.1453 77.9004 58.341 78.2766 58.4277 78.7734L57.584 78.9668C57.5207 78.702 57.4047 78.4992 57.2359 78.3586C57.0672 78.218 56.8656 78.1477 56.6313 78.1477C56.268 78.1477 55.9738 78.2895 55.7488 78.5731C55.5238 78.8543 55.4113 79.2844 55.4113 79.8633C55.4113 80.4844 55.5332 80.9566 55.777 81.2801C55.9856 81.559 56.268 81.6984 56.6242 81.6984C56.7906 81.6984 56.9629 81.6598 57.141 81.5824C57.3215 81.5027 57.482 81.3949 57.6227 81.259V80.6051H56.6453Z" fill="white"/>
<path d="M59.2785 82.5V77.3461H62.4145V78.218H60.1293V79.3606H62.2527V80.2289H60.1293V81.6316H62.4918V82.5H59.2785Z" fill="white"/>
<path d="M68.5984 81.8707L68.1063 82.6336C67.8672 82.493 67.6363 82.2961 67.4137 82.043C67.2379 82.2375 67.0527 82.3781 66.8582 82.4648C66.666 82.5492 66.4422 82.5914 66.1867 82.5914C65.6781 82.5914 65.3008 82.4367 65.0547 82.1273C64.8109 81.818 64.6891 81.4711 64.6891 81.0867C64.6891 80.4234 65.0102 79.8973 65.6524 79.5082C65.3641 79.0957 65.2199 78.7184 65.2199 78.3762C65.2199 78.0457 65.3277 77.7773 65.5434 77.5711C65.759 77.3625 66.0449 77.2582 66.4012 77.2582C66.7457 77.2582 67.0258 77.3672 67.2414 77.5852C67.4594 77.8008 67.5684 78.082 67.5684 78.4289C67.5684 78.6516 67.5133 78.8566 67.4031 79.0441C67.2953 79.2293 67.0938 79.4356 66.7984 79.6629L67.3856 80.6086C67.4512 80.4633 67.5109 80.2676 67.5648 80.0215L68.2961 80.2254C68.1836 80.727 68.0617 81.0809 67.9305 81.2871C68.0195 81.3879 68.1356 81.5004 68.2785 81.6246C68.4238 81.7488 68.5305 81.8309 68.5984 81.8707ZM66.3941 79.0688L66.6121 78.8648C66.7738 78.7125 66.8547 78.5625 66.8547 78.4148C66.8547 78.2789 66.8137 78.1688 66.7316 78.0844C66.6496 77.9977 66.5465 77.9543 66.4223 77.9543C66.3004 77.9543 66.2008 77.9918 66.1234 78.0668C66.0484 78.1418 66.0109 78.2332 66.0109 78.341C66.0109 78.4652 66.0719 78.6141 66.1938 78.7875L66.3941 79.0688ZM66.0742 80.141C65.8938 80.2535 65.7555 80.3906 65.6594 80.5523C65.5656 80.7117 65.5188 80.8793 65.5188 81.0551C65.5188 81.2754 65.5774 81.4512 65.6945 81.5824C65.8141 81.7113 65.9664 81.7758 66.1516 81.7758C66.393 81.7758 66.6426 81.6445 66.9004 81.382L66.0742 80.141Z" fill="white"/>
<path d="M70.7711 82.5V77.3461H73.668V78.218H71.6219V79.4379H73.3902V80.3098H71.6219V82.5H70.7711Z" fill="white"/>
<path d="M74.3465 82.5V77.3461H75.1973V82.5H74.3465Z" fill="white"/>
<path d="M76.027 82.5V77.3461H76.8566L78.5863 80.7879V77.3461H79.3809V82.5H78.5231L76.8215 79.1391V82.5H76.027Z" fill="white"/>
<path d="M84.0883 82.5H83.1602L82.791 81.3293H81.1035L80.7555 82.5H79.8484L81.4938 77.3461H82.3973L84.0883 82.5ZM82.5168 80.4609L81.9367 78.5484L81.3637 80.4609H82.5168Z" fill="white"/>
<path d="M84.5488 82.5V77.3461H85.3785L87.1082 80.7879V77.3461H87.9027V82.5H87.0449L85.3434 79.1391V82.5H84.5488Z" fill="white"/>
<path d="M91.5063 80.6051L92.3324 80.925C92.2035 81.5016 91.9891 81.9234 91.6891 82.1906C91.3891 82.4555 91.0199 82.5879 90.5816 82.5879C90.0309 82.5879 89.5844 82.3758 89.2422 81.9516C88.8484 81.4617 88.6516 80.8008 88.6516 79.9688C88.6516 79.0898 88.8496 78.402 89.2457 77.9051C89.5902 77.4738 90.0531 77.2582 90.6344 77.2582C91.1078 77.2582 91.5039 77.4199 91.8227 77.7434C92.05 77.9731 92.2164 78.3141 92.3219 78.7664L91.4781 79.0125C91.4242 78.7336 91.3164 78.5203 91.1547 78.3727C90.9953 78.2227 90.8066 78.1477 90.5887 78.1477C90.277 78.1477 90.0227 78.2836 89.8258 78.5555C89.6289 78.8273 89.5305 79.2762 89.5305 79.902C89.5305 80.5512 89.6266 81.0129 89.8188 81.2871C90.0109 81.5613 90.2605 81.6984 90.5676 81.6984C90.7926 81.6984 90.9871 81.6117 91.1512 81.4383C91.3152 81.2625 91.4336 80.9848 91.5063 80.6051Z" fill="white"/>
<path d="M93.0637 82.5V77.3461H96.1996V78.218H93.9145V79.3606H96.0379V80.2289H93.9145V81.6316H96.277V82.5H93.0637Z" fill="white"/>
<path d="M102.236 82.5H101.308L100.939 81.3293H99.2512L98.9031 82.5H97.9961L99.6414 77.3461H100.545L102.236 82.5ZM100.664 80.4609L100.084 78.5484L99.5113 80.4609H100.664Z" fill="white"/>
<path d="M102.471 80.8231L103.305 80.7246C103.398 81.3832 103.705 81.7125 104.226 81.7125C104.484 81.7125 104.686 81.6457 104.834 81.5121C104.982 81.3762 105.055 81.2086 105.055 81.0094C105.055 80.8922 105.03 80.7926 104.978 80.7106C104.927 80.6285 104.848 80.5617 104.743 80.5102C104.637 80.4563 104.382 80.3672 103.976 80.243C103.613 80.1328 103.347 80.0133 103.178 79.8844C103.009 79.7555 102.875 79.5867 102.774 79.3781C102.675 79.1672 102.626 78.941 102.626 78.6996C102.626 78.4184 102.689 78.1652 102.816 77.9402C102.945 77.7152 103.122 77.5453 103.347 77.4305C103.572 77.3156 103.85 77.2582 104.18 77.2582C104.677 77.2582 105.065 77.393 105.344 77.6625C105.623 77.932 105.77 78.3176 105.787 78.8191L104.932 78.8648C104.895 78.5883 104.814 78.3949 104.69 78.2848C104.566 78.1746 104.389 78.1195 104.159 78.1195C103.929 78.1195 103.752 78.1676 103.628 78.2637C103.504 78.3598 103.442 78.4793 103.442 78.6223C103.442 78.7629 103.498 78.8813 103.611 78.9773C103.723 79.0734 103.982 79.1789 104.388 79.2938C104.816 79.418 105.126 79.5492 105.316 79.6875C105.508 79.8234 105.654 80.0004 105.755 80.2184C105.856 80.434 105.906 80.6965 105.906 81.0059C105.906 81.4535 105.768 81.8297 105.491 82.1344C105.217 82.4391 104.787 82.5914 104.201 82.5914C103.165 82.5914 102.589 82.002 102.471 80.8231Z" fill="white"/>
<path d="M106.409 80.8231L107.242 80.7246C107.336 81.3832 107.643 81.7125 108.163 81.7125C108.421 81.7125 108.624 81.6457 108.771 81.5121C108.919 81.3762 108.993 81.2086 108.993 81.0094C108.993 80.8922 108.967 80.7926 108.916 80.7106C108.864 80.6285 108.786 80.5617 108.68 80.5102C108.575 80.4563 108.319 80.3672 107.914 80.243C107.55 80.1328 107.284 80.0133 107.116 79.8844C106.947 79.7555 106.812 79.5867 106.711 79.3781C106.613 79.1672 106.564 78.941 106.564 78.6996C106.564 78.4184 106.627 78.1652 106.754 77.9402C106.882 77.7152 107.059 77.5453 107.284 77.4305C107.509 77.3156 107.787 77.2582 108.118 77.2582C108.614 77.2582 109.002 77.393 109.281 77.6625C109.56 77.932 109.708 78.3176 109.724 78.8191L108.87 78.8648C108.832 78.5883 108.752 78.3949 108.627 78.2848C108.503 78.1746 108.326 78.1195 108.096 78.1195C107.867 78.1195 107.69 78.1676 107.566 78.2637C107.441 78.3598 107.379 78.4793 107.379 78.6223C107.379 78.7629 107.436 78.8813 107.548 78.9773C107.661 79.0734 107.92 79.1789 108.325 79.2938C108.754 79.418 109.063 79.5492 109.253 79.6875C109.445 79.8234 109.592 80.0004 109.693 80.2184C109.793 80.434 109.844 80.6965 109.844 81.0059C109.844 81.4535 109.705 81.8297 109.429 82.1344C109.155 82.4391 108.725 82.5914 108.139 82.5914C107.103 82.5914 106.526 82.002 106.409 80.8231Z" fill="white"/>
<path d="M110.392 79.9547C110.392 79.3406 110.482 78.8356 110.663 78.4395C110.846 78.041 111.084 77.7445 111.377 77.55C111.67 77.3555 112.025 77.2582 112.442 77.2582C113.046 77.2582 113.539 77.4891 113.918 77.9508C114.3 78.4125 114.491 79.0699 114.491 79.9231C114.491 80.7856 114.29 81.4594 113.887 81.9445C113.533 82.3734 113.052 82.5879 112.445 82.5879C111.834 82.5879 111.351 82.3758 110.997 81.9516C110.594 81.4664 110.392 80.8008 110.392 79.9547ZM111.271 79.9195C111.271 80.5125 111.384 80.9578 111.609 81.2555C111.834 81.5508 112.113 81.6984 112.445 81.6984C112.78 81.6984 113.058 81.552 113.279 81.259C113.499 80.9637 113.609 80.5113 113.609 79.902C113.609 79.3043 113.501 78.8625 113.286 78.5766C113.072 78.2906 112.792 78.1477 112.445 78.1477C112.098 78.1477 111.816 78.2918 111.598 78.5801C111.38 78.8684 111.271 79.3148 111.271 79.9195Z" fill="white"/>
<path d="M117.866 80.6051L118.693 80.925C118.564 81.5016 118.349 81.9234 118.049 82.1906C117.749 82.4555 117.38 82.5879 116.942 82.5879C116.391 82.5879 115.945 82.3758 115.602 81.9516C115.209 81.4617 115.012 80.8008 115.012 79.9688C115.012 79.0898 115.21 78.402 115.606 77.9051C115.95 77.4738 116.413 77.2582 116.995 77.2582C117.468 77.2582 117.864 77.4199 118.183 77.7434C118.41 77.9731 118.577 78.3141 118.682 78.7664L117.838 79.0125C117.784 78.7336 117.677 78.5203 117.515 78.3727C117.355 78.2227 117.167 78.1477 116.949 78.1477C116.637 78.1477 116.383 78.2836 116.186 78.5555C115.989 78.8273 115.891 79.2762 115.891 79.902C115.891 80.5512 115.987 81.0129 116.179 81.2871C116.371 81.5613 116.621 81.6984 116.928 81.6984C117.153 81.6984 117.347 81.6117 117.511 81.4383C117.675 81.2625 117.794 80.9848 117.866 80.6051Z" fill="white"/>
<path d="M119.396 82.5V77.3461H120.246V82.5H119.396Z" fill="white"/>
<path d="M124.877 82.5H123.948L123.579 81.3293H121.892L121.544 82.5H120.637L122.282 77.3461H123.186L124.877 82.5ZM123.305 80.4609L122.725 78.5484L122.152 80.4609H123.305Z" fill="white"/>
<path d="M125.843 82.5V78.218H124.588V77.3461H127.946V78.218H126.694V82.5H125.843Z" fill="white"/>
<path d="M128.473 82.5V77.3461H129.324V82.5H128.473Z" fill="white"/>
<path d="M129.974 79.9547C129.974 79.3406 130.064 78.8356 130.245 78.4395C130.428 78.041 130.666 77.7445 130.959 77.55C131.252 77.3555 131.607 77.2582 132.024 77.2582C132.629 77.2582 133.121 77.4891 133.5 77.9508C133.882 78.4125 134.073 79.0699 134.073 79.9231C134.073 80.7856 133.872 81.4594 133.469 81.9445C133.115 82.3734 132.634 82.5879 132.027 82.5879C131.416 82.5879 130.933 82.3758 130.579 81.9516C130.176 81.4664 129.974 80.8008 129.974 79.9547ZM130.853 79.9195C130.853 80.5125 130.966 80.9578 131.191 81.2555C131.416 81.5508 131.695 81.6984 132.027 81.6984C132.362 81.6984 132.64 81.552 132.861 81.259C133.081 80.9637 133.191 80.5113 133.191 79.902C133.191 79.3043 133.083 78.8625 132.868 78.5766C132.654 78.2906 132.374 78.1477 132.027 78.1477C131.68 78.1477 131.398 78.2918 131.18 78.5801C130.962 78.8684 130.853 79.3148 130.853 79.9195Z" fill="white"/>
<path d="M134.752 82.5V77.3461H135.582L137.311 80.7879V77.3461H138.106V82.5H137.248L135.546 79.1391V82.5H134.752Z" fill="white"/>
<path d="M140.479 79.9547C140.479 79.3406 140.569 78.8356 140.75 78.4395C140.932 78.041 141.17 77.7445 141.463 77.55C141.756 77.3555 142.111 77.2582 142.529 77.2582C143.133 77.2582 143.625 77.4891 144.005 77.9508C144.387 78.4125 144.578 79.0699 144.578 79.9231C144.578 80.7856 144.377 81.4594 143.973 81.9445C143.62 82.3734 143.139 82.5879 142.532 82.5879C141.92 82.5879 141.438 82.3758 141.084 81.9516C140.68 81.4664 140.479 80.8008 140.479 79.9547ZM141.358 79.9195C141.358 80.5125 141.47 80.9578 141.695 81.2555C141.92 81.5508 142.199 81.6984 142.532 81.6984C142.867 81.6984 143.145 81.552 143.365 81.259C143.586 80.9637 143.696 80.5113 143.696 79.902C143.696 79.3043 143.588 78.8625 143.372 78.5766C143.159 78.2906 142.879 78.1477 142.532 78.1477C142.185 78.1477 141.903 78.2918 141.685 78.5801C141.467 78.8684 141.358 79.3148 141.358 79.9195Z" fill="white"/>
<path d="M145.253 82.5V77.3461H148.15V78.218H146.104V79.4379H147.872V80.3098H146.104V82.5H145.253Z" fill="white"/>
<path d="M154.091 82.5H153.163L152.794 81.3293H151.107L150.759 82.5H149.852L151.497 77.3461H152.4L154.091 82.5ZM152.52 80.4609L151.94 78.5484L151.367 80.4609H152.52Z" fill="white"/>
<path d="M154.534 77.3461H155.385V80.1375C155.385 80.5711 155.396 80.8535 155.417 80.9848C155.454 81.2121 155.543 81.3879 155.684 81.5121C155.827 81.6363 156.014 81.6984 156.246 81.6984C156.443 81.6984 156.604 81.6551 156.728 81.5684C156.852 81.4793 156.937 81.3574 156.981 81.2027C157.028 81.0457 157.052 80.7106 157.052 80.1973V77.3461H157.906V80.0531C157.906 80.7445 157.868 81.2449 157.793 81.5543C157.721 81.8613 157.554 82.1109 157.294 82.3031C157.036 82.493 156.695 82.5879 156.271 82.5879C155.83 82.5879 155.486 82.5094 155.238 82.3523C154.991 82.193 154.812 81.9703 154.7 81.6844C154.589 81.3961 154.534 80.8664 154.534 80.0953V77.3461Z" fill="white"/>
<path d="M158.588 80.8231L159.421 80.7246C159.515 81.3832 159.822 81.7125 160.342 81.7125C160.6 81.7125 160.803 81.6457 160.95 81.5121C161.098 81.3762 161.172 81.2086 161.172 81.0094C161.172 80.8922 161.146 80.7926 161.095 80.7106C161.043 80.6285 160.964 80.5617 160.859 80.5102C160.754 80.4563 160.498 80.3672 160.093 80.243C159.729 80.1328 159.463 80.0133 159.295 79.8844C159.126 79.7555 158.991 79.5867 158.89 79.3781C158.792 79.1672 158.743 78.941 158.743 78.6996C158.743 78.4184 158.806 78.1652 158.932 77.9402C159.061 77.7152 159.238 77.5453 159.463 77.4305C159.688 77.3156 159.966 77.2582 160.296 77.2582C160.793 77.2582 161.181 77.393 161.46 77.6625C161.739 77.932 161.887 78.3176 161.903 78.8191L161.049 78.8648C161.011 78.5883 160.93 78.3949 160.806 78.2848C160.682 78.1746 160.505 78.1195 160.275 78.1195C160.046 78.1195 159.869 78.1676 159.745 78.2637C159.62 78.3598 159.558 78.4793 159.558 78.6223C159.558 78.7629 159.614 78.8813 159.727 78.9773C159.839 79.0734 160.098 79.1789 160.504 79.2938C160.933 79.418 161.242 79.5492 161.432 79.6875C161.624 79.8234 161.771 80.0004 161.871 80.2184C161.972 80.434 162.023 80.6965 162.023 81.0059C162.023 81.4535 161.884 81.8297 161.608 82.1344C161.334 82.4391 160.904 82.5914 160.318 82.5914C159.282 82.5914 158.705 82.002 158.588 80.8231Z" fill="white"/>
<path d="M163.693 82.5V78.218H162.437V77.3461H165.795V78.218H164.543V82.5H163.693Z" fill="white"/>
<path d="M166.35 82.5V77.3461H168.147C168.606 77.3461 168.934 77.393 169.131 77.4867C169.328 77.5781 169.49 77.7387 169.616 77.9684C169.743 78.1957 169.806 78.4688 169.806 78.7875C169.806 79.1906 169.709 79.5152 169.514 79.7613C169.322 80.0074 169.048 80.1621 168.692 80.2254C168.875 80.3566 169.026 80.5008 169.145 80.6578C169.265 80.8125 169.428 81.0914 169.634 81.4945L170.147 82.5H169.131L168.512 81.3785C168.29 80.9731 168.139 80.7199 168.059 80.6191C167.979 80.516 167.895 80.4457 167.806 80.4082C167.717 80.3684 167.574 80.3484 167.377 80.3484H167.201V82.5H166.35ZM167.201 79.5258H167.834C168.221 79.5258 168.467 79.5094 168.572 79.4766C168.678 79.4414 168.763 79.3723 168.829 79.2691C168.895 79.166 168.927 79.0289 168.927 78.8578C168.927 78.6938 168.895 78.5625 168.829 78.4641C168.763 78.3633 168.674 78.2941 168.562 78.2566C168.482 78.2309 168.251 78.218 167.869 78.218H167.201V79.5258Z" fill="white"/>
<path d="M174.419 82.5H173.491L173.121 81.3293H171.434L171.086 82.5H170.179L171.824 77.3461H172.728L174.419 82.5ZM172.847 80.4609L172.267 78.5484L171.694 80.4609H172.847Z" fill="white"/>
<path d="M174.893 82.5V77.3883H175.744V81.6316H177.868V82.5H174.893Z" fill="white"/>
<path d="M178.451 82.5V77.3461H179.302V82.5H178.451Z" fill="white"/>
<path d="M183.932 82.5H183.004L182.635 81.3293H180.947L180.599 82.5H179.692L181.337 77.3461H182.241L183.932 82.5ZM182.361 80.4609L181.78 78.5484L181.207 80.4609H182.361Z" fill="white"/>
<path fill-rule="evenodd" clip-rule="evenodd" d="M35 71.5H28V41H37.5L44.5 59.5L51.5 41H61V71.5H54V52L47 71.5H41.5L35 52V71.5ZM63.5 41V71.5H70.5V59.5H80L82 54H70.5V47H84L86.5 41H63.5ZM78.5 71.5L90 41H96.5L104.5 61.5L112 41H119L130.5 71.5H123.5L121 65H110.5L108 71.5H101L98.5 65H88L85.5 71.5H78.5ZM112 59.5L115.5 49.5L119 59.5H112ZM93 49.5L89.5 59.5H96.5L93 49.5Z" fill="white"/>
<path d="M130 37.5C123.6 27.9 117.333 11.1667 115 4C128.2 29.2 139.167 36.8333 143 37.5H130Z" fill="white"/>
<path d="M146.5 8C139.3 17.6 132.5 31.6667 130 37.5H143.5C149.1 21.5 157.833 11.1667 161.5 8H146.5Z" fill="url(#paint0_linear)"/>
<path d="M169 59.5C161.4 27.9 150.833 12 146.5 8H162C176 29.2 182.5 51.1667 184 59.5H169Z" fill="white"/>
<path d="M111 37.5C104.6 27.9 98.3333 11.1667 96 4C109.2 29.2 120.167 36.8333 124 37.5H111Z" fill="white"/>
<path d="M127.5 8C120.3 17.6 113.5 31.6667 111 37.5H124.5C130.1 21.5 138.833 11.1667 142.5 8H127.5Z" fill="url(#paint1_linear)"/>
<path d="M150 59.5C142.4 27.9 131.833 12 127.5 8H143C157 29.2 163.5 51.1667 165 59.5H150Z" fill="white"/>
<path d="M92 37.5C85.6 27.9 79.3333 11.1667 77 4C90.2 29.2 101.167 36.8333 105 37.5H92Z" fill="white"/>
<path d="M108.5 8C101.3 17.6 94.5 31.6667 92 37.5H105.5C111.1 21.5 119.833 11.1667 123.5 8H108.5Z" fill="url(#paint2_linear)"/>
<path d="M131 59.5C123.4 27.9 112.833 12 108.5 8H124C138 29.2 144.5 51.1667 146 59.5H131Z" fill="white"/>
<defs>
<linearGradient id="paint0_linear" x1="145.75" y1="8" x2="145.75" y2="37.5" gradientUnits="userSpaceOnUse">
<stop stop-color="#DCDCDC"/>
<stop offset="0.3125" stop-color="#FCFCFC"/>
<stop offset="0.609375" stop-color="white"/>
<stop offset="1" stop-color="#E9E9E9"/>
</linearGradient>
<linearGradient id="paint1_linear" x1="126.75" y1="8" x2="126.75" y2="37.5" gradientUnits="userSpaceOnUse">
<stop stop-color="#DCDCDC"/>
<stop offset="0.3125" stop-color="#FCFCFC"/>
<stop offset="0.609375" stop-color="white"/>
<stop offset="1" stop-color="#E9E9E9"/>
</linearGradient>
<linearGradient id="paint2_linear" x1="107.75" y1="8" x2="107.75" y2="37.5" gradientUnits="userSpaceOnUse">
<stop stop-color="#DCDCDC"/>
<stop offset="0.3125" stop-color="#FCFCFC"/>
<stop offset="0.609375" stop-color="white"/>
<stop offset="1" stop-color="#E9E9E9"/>
</linearGradient>
</defs>
</svg>
