<?xml version="1.0" encoding="UTF-8"?>
<svg width="172px" height="60px" viewBox="0 0 172 60" version="1.1" xmlns="http://www.w3.org/2000/svg" xmlns:xlink="http://www.w3.org/1999/xlink">
    <!-- Generator: Sketch 51.2 (57519) - http://www.bohemiancoding.com/sketch -->
    <title>Artboard 2</title>
    <desc>Created with Sketch.</desc>
    <defs></defs>
    <g id="Artboard-2" stroke="none" stroke-width="1" fill="none" fill-rule="evenodd">
        <g id="Group-2" transform="translate(17.000000, 5.000000)">
            <g id="Group">
                <path d="M4.26325641e-14,6.91366415 C0.97199524,31.9367919 8.21308743,46.3822087 21.7232766,50.2499146 C36.0801789,46.2012457 43.25863,31.7558289 43.25863,6.91366415 C32.1811525,6.88431062 25.0027013,4.5797559 21.7232766,0 C18.3330952,4.60910943 11.092003,6.91366415 4.26325641e-14,6.91366415 Z" id="Path-8" fill="#F4DF3A"></path>
                <path d="M21.7232766,50.2499146 C36.0801789,46.2012457 43.25863,31.7558289 43.25863,6.91366415 C32.1811525,6.88431062 25.0027013,4.5797559 21.7232766,0 C21.7232766,50.2499146 21.7232766,0 21.7232766,50.2499146 Z" id="Path-8" fill="#F4B400"></path>
                <path d="M17.804,19.874 L15.968,19.874 L15.968,19.46 C15.968,19.0399979 15.869001,18.6770015 15.671,18.371 C15.472999,18.0649985 15.1400023,17.912 14.672,17.912 C14.4199987,17.912 14.2160008,17.9599995 14.06,18.056 C13.9039992,18.1520005 13.7780005,18.2719993 13.682,18.416 C13.5859995,18.5720008 13.5200002,18.748999 13.484,18.947 C13.4479998,19.145001 13.43,19.3519989 13.43,19.568 C13.43,19.8200013 13.4389999,20.0299992 13.457,20.198 C13.4750001,20.3660008 13.5199996,20.5159993 13.592,20.648 C13.6640004,20.7800007 13.7689993,20.8939995 13.907,20.99 C14.0450007,21.0860005 14.2339988,21.1819995 14.474,21.278 L15.878,21.836 C16.286002,21.9920008 16.6159987,22.174999 16.868,22.385 C17.1200013,22.5950011 17.3179993,22.8379986 17.462,23.114 C17.5940007,23.4020014 17.6839998,23.7289982 17.732,24.095 C17.7800002,24.4610018 17.804,24.8779977 17.804,25.346 C17.804,25.8860027 17.7500005,26.3869977 17.642,26.849 C17.5339995,27.3110023 17.3600012,27.7039984 17.12,28.028 C16.8679987,28.3640017 16.538002,28.627999 16.13,28.82 C15.721998,29.012001 15.2240029,29.108 14.636,29.108 C14.1919978,29.108 13.7780019,29.0300008 13.394,28.874 C13.0099981,28.7179992 12.6800014,28.5020014 12.404,28.226 C12.1279986,27.9499986 11.9090008,27.6290018 11.747,27.263 C11.5849992,26.8969982 11.504,26.4980022 11.504,26.066 L11.504,25.382 L13.34,25.382 L13.34,25.958 C13.34,26.2940017 13.438999,26.5969987 13.637,26.867 C13.835001,27.1370014 14.1679977,27.272 14.636,27.272 C14.9480016,27.272 15.1909991,27.2270005 15.365,27.137 C15.5390009,27.0469996 15.6739995,26.9180008 15.77,26.75 C15.8660005,26.5819992 15.9229999,26.3810012 15.941,26.147 C15.9590001,25.9129988 15.968,25.6520014 15.968,25.364 C15.968,25.0279983 15.9560001,24.7520011 15.932,24.536 C15.9079999,24.3199989 15.8600004,24.1460007 15.788,24.014 C15.7039996,23.8819993 15.5930007,23.7740004 15.455,23.69 C15.3169993,23.6059996 15.1340011,23.5160005 14.906,23.42 L13.592,22.88 C12.799996,22.5559984 12.2690014,22.1270027 11.999,21.593 C11.7289987,21.0589973 11.594,20.390004 11.594,19.586 C11.594,19.1059976 11.6599993,18.6500022 11.792,18.218 C11.9240007,17.7859978 12.1219987,17.4140016 12.386,17.102 C12.6380013,16.7899984 12.9589981,16.5410009 13.349,16.355 C13.739002,16.1689991 14.2039973,16.076 14.744,16.076 C15.2000023,16.076 15.6169981,16.1599992 15.995,16.328 C16.3730019,16.4960008 16.6999986,16.7179986 16.976,16.994 C17.5280028,17.5700029 17.804,18.2299963 17.804,18.974 L17.804,19.874 Z M25.112,19.874 L23.276,19.874 L23.276,19.46 C23.276,19.0399979 23.177001,18.6770015 22.979,18.371 C22.780999,18.0649985 22.4480023,17.912 21.98,17.912 C21.7279987,17.912 21.5240008,17.9599995 21.368,18.056 C21.2119992,18.1520005 21.0860005,18.2719993 20.99,18.416 C20.8939995,18.5720008 20.8280002,18.748999 20.792,18.947 C20.7559998,19.145001 20.738,19.3519989 20.738,19.568 C20.738,19.8200013 20.7469999,20.0299992 20.765,20.198 C20.7830001,20.3660008 20.8279996,20.5159993 20.9,20.648 C20.9720004,20.7800007 21.0769993,20.8939995 21.215,20.99 C21.3530007,21.0860005 21.5419988,21.1819995 21.782,21.278 L23.186,21.836 C23.594002,21.9920008 23.9239987,22.174999 24.176,22.385 C24.4280013,22.5950011 24.6259993,22.8379986 24.77,23.114 C24.9020007,23.4020014 24.9919998,23.7289982 25.04,24.095 C25.0880002,24.4610018 25.112,24.8779977 25.112,25.346 C25.112,25.8860027 25.0580005,26.3869977 24.95,26.849 C24.8419995,27.3110023 24.6680012,27.7039984 24.428,28.028 C24.1759987,28.3640017 23.846002,28.627999 23.438,28.82 C23.029998,29.012001 22.5320029,29.108 21.944,29.108 C21.4999978,29.108 21.0860019,29.0300008 20.702,28.874 C20.3179981,28.7179992 19.9880014,28.5020014 19.712,28.226 C19.4359986,27.9499986 19.2170008,27.6290018 19.055,27.263 C18.8929992,26.8969982 18.812,26.4980022 18.812,26.066 L18.812,25.382 L20.648,25.382 L20.648,25.958 C20.648,26.2940017 20.746999,26.5969987 20.945,26.867 C21.143001,27.1370014 21.4759977,27.272 21.944,27.272 C22.2560016,27.272 22.4989991,27.2270005 22.673,27.137 C22.8470009,27.0469996 22.9819995,26.9180008 23.078,26.75 C23.1740005,26.5819992 23.2309999,26.3810012 23.249,26.147 C23.2670001,25.9129988 23.276,25.6520014 23.276,25.364 C23.276,25.0279983 23.2640001,24.7520011 23.24,24.536 C23.2159999,24.3199989 23.1680004,24.1460007 23.096,24.014 C23.0119996,23.8819993 22.9010007,23.7740004 22.763,23.69 C22.6249993,23.6059996 22.4420011,23.5160005 22.214,23.42 L20.9,22.88 C20.107996,22.5559984 19.5770014,22.1270027 19.307,21.593 C19.0369987,21.0589973 18.902,20.390004 18.902,19.586 C18.902,19.1059976 18.9679993,18.6500022 19.1,18.218 C19.2320007,17.7859978 19.4299987,17.4140016 19.694,17.102 C19.9460013,16.7899984 20.2669981,16.5410009 20.657,16.355 C21.047002,16.1689991 21.5119973,16.076 22.052,16.076 C22.5080023,16.076 22.9249981,16.1599992 23.303,16.328 C23.6810019,16.4960008 24.0079986,16.7179986 24.284,16.994 C24.8360028,17.5700029 25.112,18.2299963 25.112,18.974 L25.112,19.874 Z M26.48,29 L26.48,16.184 L28.316,16.184 L28.316,27.164 L31.952,27.164 L31.952,29 L26.48,29 Z" id="SSL" fill="#FFFFFF"></path>
                <path d="M4,10.5034236 C12.9743966,10.5034236 18.833071,8.66894907 21.5760231,5 C24.2293634,8.64558304 30.0373557,10.4800576 39,10.5034236 C39,30.2783148 33.1920077,41.7771736 21.5760231,45 C10.6451032,41.9212239 4.78642882,30.4223651 4,10.5034236 Z M7,12.6779101 C7.65161245,29.6090104 12.5059426,39.3830404 21.5629906,42 C31.1876635,39.2605975 36,29.4865675 36,12.6779101 C28.573809,12.6580489 23.7614725,11.0987456 21.5629906,8 C19.2902588,11.1186067 14.4359286,12.6779101 7,12.6779101 Z" id="Combined-Shape" fill="#FFFFFF"></path>
            </g>
            <path d="M62.0839844,27 L49.5537109,27 C49.6972663,25.7626891 50.133053,24.5988824 50.861084,23.5085449 C51.589115,22.4182074 52.9545798,21.1313551 54.9575195,19.6479492 C56.1811585,18.738765 56.9638655,18.0483422 57.3056641,17.5766602 C57.6474626,17.1049781 57.8183594,16.6572287 57.8183594,16.2333984 C57.8183594,15.7753883 57.6491716,15.3840348 57.310791,15.0593262 C56.9724104,14.7346175 56.5468776,14.5722656 56.0341797,14.5722656 C55.5009739,14.5722656 55.0651872,14.7397444 54.7268066,15.074707 C54.388426,15.4096696 54.1611334,16.0009723 54.0449219,16.8486328 L49.8613281,16.5102539 C50.0253914,15.3344668 50.3261697,14.4167513 50.7636719,13.7570801 C51.2011741,13.0974088 51.8181113,12.5915545 52.614502,12.239502 C53.4108927,11.8874494 54.5131766,11.7114258 55.9213867,11.7114258 C57.3911206,11.7114258 58.5344197,11.8789046 59.3513184,12.2138672 C60.168217,12.5488298 60.8107887,13.063229 61.2790527,13.7570801 C61.7473168,14.4509312 61.9814453,15.2285113 61.9814453,16.0898438 C61.9814453,17.005864 61.7131374,17.8808552 61.1765137,18.7148438 C60.6398899,19.5488323 59.6640696,20.4648388 58.2490234,21.4628906 C57.4081989,22.0439482 56.8459487,22.4506824 56.5622559,22.6831055 C56.278563,22.9155285 55.9453144,23.2197247 55.5625,23.5957031 L62.0839844,23.5957031 L62.0839844,27 Z M65.5600586,11.9677734 L75.4755859,11.9677734 L75.4755859,15.300293 L68.7592773,15.300293 L68.4003906,17.5561523 C68.8652367,17.3374012 69.3249489,17.1733404 69.779541,17.0639648 C70.2341331,16.9545893 70.6835915,16.8999023 71.1279297,16.8999023 C72.6318435,16.8999023 73.8520461,17.3544876 74.7885742,18.2636719 C75.7251023,19.1728561 76.1933594,20.3178642 76.1933594,21.6987305 C76.1933594,22.6694384 75.952395,23.6025346 75.470459,24.4980469 C74.988523,25.3935592 74.3049361,26.0771461 73.4196777,26.5488281 C72.5344194,27.0205102 71.4013741,27.2563477 70.0205078,27.2563477 C69.0292919,27.2563477 68.1799352,27.1623545 67.4724121,26.9743652 C66.764889,26.786376 66.1633326,26.5061054 65.6677246,26.1335449 C65.1721167,25.7609845 64.7705094,25.3388695 64.4628906,24.8671875 C64.1552719,24.3955055 63.8989268,23.8076207 63.6938477,23.1035156 L67.918457,22.6420898 C68.0209966,23.318851 68.260252,23.8332502 68.6362305,24.1853027 C69.0122089,24.5373553 69.4599583,24.7133789 69.9794922,24.7133789 C70.5605498,24.7133789 71.0407696,24.4929221 71.420166,24.052002 C71.7995624,23.6110818 71.9892578,22.9531294 71.9892578,22.078125 C71.9892578,21.1826127 71.7978535,20.5263693 71.4150391,20.109375 C71.0322246,19.6923807 70.5229524,19.4838867 69.887207,19.4838867 C69.4838847,19.4838867 69.0942402,19.5830068 68.7182617,19.78125 C68.4379869,19.9248054 68.1303728,20.1845684 67.7954102,20.5605469 L64.2373047,20.0478516 L65.5600586,11.9677734 Z M89.9643555,15.3515625 L85.8115234,15.8642578 C85.7021479,15.2832002 85.5192884,14.8730481 85.2629395,14.6337891 C85.0065905,14.3945301 84.6904316,14.2749023 84.3144531,14.2749023 C83.6376919,14.2749023 83.11133,14.6166958 82.7353516,15.300293 C82.4619127,15.7924829 82.2602546,16.8452068 82.1303711,18.4584961 C82.629397,17.9526342 83.1420872,17.5783704 83.668457,17.3356934 C84.1948269,17.0930164 84.8032192,16.9716797 85.4936523,16.9716797 C86.8335028,16.9716797 87.9665481,17.4501905 88.8928223,18.4072266 C89.8190964,19.3642626 90.2822266,20.5776294 90.2822266,22.0473633 C90.2822266,23.0385792 90.048098,23.9443318 89.579834,24.7646484 C89.1115699,25.584965 88.4621624,26.2053202 87.6315918,26.6257324 C86.8010212,27.0461447 85.7602602,27.2563477 84.5092773,27.2563477 C83.0053636,27.2563477 81.7988327,27.0000026 80.8896484,26.4873047 C79.9804642,25.9746068 79.2541531,25.1560115 78.7106934,24.0314941 C78.1672336,22.9069768 77.8955078,21.4184663 77.8955078,19.565918 C77.8955078,16.8520372 78.4663029,14.8645083 79.6079102,13.6032715 C80.7495174,12.3420347 82.3320211,11.7114258 84.3554688,11.7114258 C85.5517638,11.7114258 86.4968227,11.8498521 87.1906738,12.126709 C87.884525,12.4035658 88.4604469,12.8085911 88.918457,13.3417969 C89.3764671,13.8750027 89.7250965,14.5449178 89.9643555,15.3515625 Z M82.2739258,22.0473633 C82.2739258,22.8608439 82.4790019,23.4982887 82.8891602,23.9597168 C83.2993185,24.4211449 83.8017548,24.6518555 84.3964844,24.6518555 C84.9433621,24.6518555 85.4013653,24.4433615 85.7705078,24.0263672 C86.1396503,23.6093729 86.3242188,22.9873088 86.3242188,22.1601562 C86.3242188,21.3124958 86.1328144,20.6665061 85.75,20.222168 C85.3671856,19.7778298 84.8920927,19.5556641 84.324707,19.5556641 C83.7436494,19.5556641 83.2565938,19.7709939 82.8635254,20.2016602 C82.470457,20.6323264 82.2739258,21.2475546 82.2739258,22.0473633 Z M99.5722656,11.9677734 L108.267578,11.9677734 C109.716804,11.9677734 110.829342,12.3266566 111.605225,13.0444336 C112.381107,13.7622106 112.769043,14.6508736 112.769043,15.7104492 C112.769043,16.5991255 112.49219,17.3613249 111.938477,17.9970703 C111.569334,18.4209006 111.0293,18.7558581 110.318359,19.0019531 C111.398443,19.26172 112.193113,19.7077605 112.702393,20.3400879 C113.211672,20.9724153 113.466309,21.7670851 113.466309,22.7241211 C113.466309,23.5034219 113.285158,24.2040985 112.922852,24.8261719 C112.560545,25.4482453 112.064945,25.9404279 111.436035,26.3027344 C111.046385,26.5283214 110.4585,26.6923823 109.672363,26.7949219 C108.62646,26.9316413 107.932619,27 107.59082,27 L99.5722656,27 L99.5722656,11.9677734 Z M104.258301,17.8637695 L106.27832,17.8637695 C107.002933,17.8637695 107.507079,17.7390149 107.790771,17.489502 C108.074464,17.239989 108.216309,16.8793969 108.216309,16.4077148 C108.216309,15.9702127 108.074464,15.6284192 107.790771,15.3823242 C107.507079,15.1362292 107.013187,15.0131836 106.309082,15.0131836 L104.258301,15.0131836 L104.258301,17.8637695 Z M104.258301,23.7700195 L106.626953,23.7700195 C107.426762,23.7700195 107.990721,23.6281752 108.318848,23.3444824 C108.646974,23.0607896 108.811035,22.6796899 108.811035,22.2011719 C108.811035,21.7568337 108.648683,21.3996596 108.323975,21.1296387 C107.999266,20.8596178 107.43018,20.7246094 106.616699,20.7246094 L104.258301,20.7246094 L104.258301,23.7700195 Z M116.081055,11.9677734 L120.736328,11.9677734 L120.736328,27 L116.081055,27 L116.081055,11.9677734 Z M123.012695,11.9677734 L137.132324,11.9677734 L137.132324,15.6796875 L132.39502,15.6796875 L132.39502,27 L127.75,27 L127.75,15.6796875 L123.012695,15.6796875 L123.012695,11.9677734 Z" id="256-BIT" fill="#2C2C2C"></path>
            <path d="M49.1918,41 L49.1918,32.3978 L54.5726,32.3978 L54.5726,33.2356 L50.1004,33.2356 L50.1004,36.2092 L54.195,36.2092 L54.195,37.047 L50.1004,37.047 L50.1004,40.1622 L54.6198,40.1622 L54.6198,41 L49.1918,41 Z M62.6084,32.3978 L63.4934,32.3978 L63.4934,41 L62.514,41 L57.381,33.684 L57.381,41 L56.4842,41 L56.4842,32.3978 L57.5344,32.3978 L62.6084,39.6312 L62.6084,32.3978 Z M69.5822,41.0944 C68.378594,41.0944 67.3638041,40.6892707 66.5378,39.879 C66.1523314,39.4935314 65.8494678,39.033336 65.6292,38.4984 C65.4010655,37.9319972 65.287,37.3420031 65.287,36.7284 C65.287,36.0833301 65.4049988,35.4854694 65.641,34.9348 C65.8848679,34.3683972 66.1955981,33.9003352 66.5732,33.5306 C67.4149375,32.7124626 68.4297274,32.3034 69.6176,32.3034 C70.5144045,32.3034 71.2774635,32.5236645 71.9068,32.9642 C72.174268,33.1372675 72.4259988,33.357532 72.662,33.625 C73.0553353,34.0812689 73.3227993,34.5847306 73.4644,35.1354 L72.603,35.4422 C72.5164662,35.1117983 72.3473346,34.7656685 72.0956,34.4038 C71.9146658,34.1599321 71.7298009,33.9593341 71.541,33.802 C71.3207322,33.6131991 71.0454017,33.4637339 70.715,33.3536 C70.3845983,33.2277327 70.0109354,33.1648 69.594,33.1648 C68.6657287,33.1648 67.8790699,33.4873301 67.234,34.1324 C66.56533,34.80107 66.231,35.6467282 66.231,36.6694 C66.231,37.3538034 66.3765319,37.963464 66.6676,38.4984 C66.9508014,39.0412027 67.3559307,39.4659985 67.883,39.7728 C68.3864692,40.0796015 68.9607301,40.233 69.6058,40.233 C70.3610038,40.233 70.9903308,40.032402 71.4938,39.6312 C71.7219345,39.4581325 71.9107326,39.2614678 72.0602,39.0412 C72.2096674,38.8445323 72.3315995,38.6478676 72.426,38.4512 C72.5046671,38.2623991 72.5715331,38.0893341 72.6266,37.932 L73.488,38.2388 C73.3463993,38.7501359 73.0828686,39.2378643 72.6974,39.702 C72.4928656,39.9458679 72.2450681,40.1779322 71.954,40.3982 C71.3010634,40.8623357 70.5104713,41.0944 69.5822,41.0944 Z M81.4058,41 L80.3084,41 L77.7596,37.519 L76.0132,37.519 L76.0132,41 L75.1046,41 L75.1046,32.3978 L78.09,32.3978 C79.1205385,32.3978 79.8875308,32.6495308 80.391,33.153 C80.8708691,33.6328691 81.1108,34.2189299 81.1108,34.9112 C81.1108,35.6034701 80.8866022,36.1639645 80.4382,36.5927 C79.9897978,37.0214355 79.4273367,37.2790662 78.7508,37.3656 L81.4058,41 Z M76.0132,33.2474 L76.0132,36.693 L78.0074,36.693 C78.7626038,36.693 79.3250648,36.5081352 79.6948,36.1384 C80.0252017,35.8079983 80.1904,35.4068024 80.1904,34.9348 C80.1904,34.4549309 80.0193017,34.0537349 79.6771,33.7312 C79.3348983,33.4086651 78.7862038,33.2474 78.031,33.2474 L76.0132,33.2474 Z M85.229,36.516 L87.9784,32.3978 L89.005,32.3978 L85.6774,37.3656 L85.6774,41 L84.757,41 L84.757,37.3774 L81.4294,32.3978 L82.515,32.3978 L85.229,36.516 Z M93.2176,37.637 L91.3886,37.637 L91.3886,41 L90.48,41 L90.48,32.3978 L93.3592,32.3978 C94.350405,32.3899333 95.1016641,32.6377308 95.613,33.1412 C96.1243359,33.6446692 96.38,34.258263 96.38,34.982 C96.38,35.7293371 96.1164693,36.3547308 95.5894,36.8582 C95.0308639,37.3774026 94.2402718,37.637 93.2176,37.637 Z M93.2884,33.2474 L91.3886,33.2474 L91.3886,36.7992 L93.2412,36.7992 C94.0121372,36.7992 94.5824648,36.6064686 94.9522,36.221 C95.2904684,35.8827316 95.4596,35.4776024 95.4596,35.0056 C95.4596,34.5178642 95.2904684,34.1029017 94.9522,33.7607 C94.6139316,33.4184983 94.0593372,33.2474 93.2884,33.2474 Z M100.7814,33.2474 L100.7814,41 L99.8846,41 L99.8846,33.2474 L97.0054,33.2474 L97.0054,32.3978 L103.6606,32.3978 L103.6606,33.2474 L100.7814,33.2474 Z M105.0884,41 L105.0884,32.3978 L105.997,32.3978 L105.997,41 L105.0884,41 Z M116.4282,36.6812 C116.4282,37.4914707 116.243335,38.2348633 115.8736,38.9114 C115.495998,39.58007 114.976803,40.1110647 114.316,40.5044 C113.639463,40.8977353 112.896071,41.0944 112.0858,41.0944 C111.495797,41.0944 110.925469,40.9803345 110.3748,40.7522 C109.831997,40.5240655 109.375735,40.2133353 109.006,39.82 C108.636265,39.4502648 108.337334,38.9900694 108.1092,38.4394 C107.888932,37.8729972 107.7788,37.3026695 107.7788,36.7284 C107.7788,35.9102626 107.967598,35.16687 108.3452,34.4982 C108.714935,33.8137966 109.23413,33.2788686 109.9028,32.8934 C110.555737,32.5079314 111.295196,32.3152 112.1212,32.3152 C112.726936,32.3152 113.297264,32.4253322 113.8322,32.6456 C114.367136,32.8816012 114.823398,33.1883981 115.201,33.566 C115.594335,33.9829354 115.893266,34.4470641 116.0978,34.9584 C116.318068,35.493336 116.4282,36.0675969 116.4282,36.6812 Z M115.496,36.7284 C115.496,35.7450617 115.181336,34.9072701 114.552,34.215 C113.90693,33.5069965 113.084872,33.153 112.0858,33.153 C111.46433,33.153 110.886136,33.3103318 110.3512,33.625 C109.831997,33.9554017 109.430801,34.3841307 109.1476,34.9112 C108.864399,35.4540027 108.7228,36.0439968 108.7228,36.6812 C108.7228,37.672405 109.037464,38.5062633 109.6668,39.1828 C110.31187,39.8908035 111.129995,40.2448 112.1212,40.2448 C112.750536,40.2448 113.328731,40.0835349 113.8558,39.761 C114.375003,39.4620652 114.780132,39.0372694 115.0712,38.4866 C115.354401,37.951664 115.496,37.3656032 115.496,36.7284 Z M124.3342,32.3978 L125.2192,32.3978 L125.2192,41 L124.2398,41 L119.1068,33.684 L119.1068,41 L118.21,41 L118.21,32.3978 L119.2602,32.3978 L124.3342,39.6312 L124.3342,32.3978 Z" id="ENCRYPTION" fill="#2C2C2C"></path>
        </g>
    </g>
</svg>