<svg width="208" height="87" viewBox="0 0 208 87" fill="none" xmlns="http://www.w3.org/2000/svg">
<path d="M104.457 77.9807C76.0471 77.9807 47.6167 77.9807 19.2067 77.9807C16.3112 78.0587 13.4582 77.2721 11.0118 75.7212C8.56542 74.1704 6.63668 71.9257 5.47181 69.2738C4.45393 67.2321 3.94883 64.9732 4.00021 62.6925C4.00021 50.1635 4.00021 37.6344 4.00021 25.1259C3.95414 22.271 4.74424 19.4649 6.27319 17.0535C7.80213 14.642 10.0031 12.7305 12.605 11.5545C14.7045 10.486 17.0354 9.95237 19.3907 10.0011H188.604C190.514 9.91155 192.426 10.1324 194.265 10.6552C196.224 11.2686 198.039 12.2708 199.602 13.6018C201.165 14.9328 202.443 16.5652 203.361 18.4015C204.48 20.6464 205.041 23.1286 204.996 25.6369C204.996 37.9002 204.996 50.0204 204.996 62.2019C205.124 66.2426 203.656 70.1712 200.908 73.1367C199.535 74.6701 197.852 75.8947 195.97 76.7297C194.089 77.5647 192.052 77.9911 189.994 77.9807H104.457ZM104.457 74.9558H187.234C188.031 74.9558 188.849 74.9558 189.646 74.9558C192.024 74.9294 194.343 74.2121 196.321 72.8911C198.299 71.5702 199.85 69.7027 200.785 67.516C201.658 65.4931 202.063 63.2994 201.971 61.0982V29.275C201.971 27.9669 201.971 26.6588 201.971 25.3507C201.953 23.4573 201.498 21.5936 200.64 19.9057C199.781 18.2178 198.544 16.7515 197.025 15.6218C194.475 13.7834 191.375 12.868 188.236 13.0261H20.8214C19.1209 12.9673 17.4223 13.1882 15.7934 13.6801C13.3597 14.4412 11.219 15.9326 9.66177 17.9519C7.80867 20.503 6.88536 23.6119 7.0456 26.761C7.0456 38.2476 7.0456 49.7342 7.0456 61.2209C7.04098 62.8699 7.25402 64.5124 7.6792 66.1057C8.22894 68.0539 9.26921 69.8285 10.7006 71.2599C12.1319 72.6913 13.9066 73.7315 15.8547 74.2813C17.6145 74.7802 19.4442 74.9874 21.271 74.8944L104.457 74.9558Z" fill="white"/>
<path d="M28.9354 67.0652H18.716C17.4896 67.0652 16.9173 66.2681 17.5509 65.2053C18.5618 63.5048 19.703 61.8853 20.9642 60.3613C21.5179 59.8791 22.172 59.5262 22.8791 59.3282C23.5861 59.1302 24.3284 59.0921 25.052 59.2167C28.9763 59.2167 32.9005 59.2167 36.8043 59.2167C37.5053 59.2852 38.2109 59.1453 38.8327 58.8144C39.4544 58.4835 39.9646 57.9765 40.2994 57.3568C40.5964 56.593 40.7622 55.7845 40.7899 54.9654C41.0352 52.6559 41.1987 50.3054 41.4031 47.9754C41.4031 46.9125 41.5666 45.9315 41.5666 44.8073C41.6197 44.1948 41.4537 43.5833 41.0981 43.0818C40.7425 42.5802 40.2205 42.2211 39.6249 42.0685C38.9086 41.8715 38.1771 41.7347 37.4379 41.6598C36.6613 41.6598 35.8846 41.6598 35.1283 41.6598C34.3721 41.6598 34.1268 41.3532 34.1677 40.7605C34.1677 38.8596 34.3312 36.9588 34.4947 35.058C34.5104 34.7652 34.6379 34.4896 34.8509 34.288C35.0639 34.0865 35.3461 33.9743 35.6393 33.9748C38.7278 33.6329 41.8519 33.8195 44.8777 34.5266C46.6244 35.0801 48.1545 36.1657 49.2539 37.6316C50.3533 39.0974 50.9671 40.8703 51.0093 42.7021C51.0297 44.2508 50.9683 45.7995 50.8254 47.3418C50.5597 50.5302 50.3348 53.7595 49.9056 56.948C49.7171 59.0002 48.9535 60.9576 47.7025 62.5954C46.4516 64.2332 44.7641 65.4849 42.8338 66.2068C41.1189 66.8622 39.2939 67.1814 37.4584 67.147H28.9354V67.0652Z" fill="white"/>
<path d="M40.9738 20.7917H50.8662C51.4385 20.7917 52.2356 20.6691 52.4196 21.3231C52.5439 21.9664 52.4352 22.633 52.113 23.2035C51.4052 24.3998 50.6271 25.5532 49.783 26.6577C49.3711 27.2697 48.809 27.7659 48.1506 28.0987C47.4921 28.4315 46.7593 28.5898 46.0222 28.5585C41.9345 28.5585 38.0307 28.5585 34.0246 28.5585C33.4594 28.4695 32.8816 28.5046 32.3312 28.6613C31.7809 28.818 31.2712 29.0925 30.8376 29.4659C30.404 29.8392 30.0568 30.3024 29.82 30.8234C29.5833 31.3443 29.4628 31.9105 29.4668 32.4827C29.1193 36.0391 28.8945 39.6159 28.7105 43.1927C28.6647 43.4987 28.682 43.8109 28.7613 44.11C28.8407 44.4092 28.9804 44.6889 29.1718 44.932C29.3632 45.1752 29.6024 45.3766 29.8746 45.5238C30.1467 45.6711 30.4462 45.7611 30.7544 45.7884C31.8722 45.9417 32.9986 46.0236 34.1268 46.0337C35.6393 46.0337 36.1707 46.6673 36.1707 48.0776C36.1707 49.4878 35.8641 51.1025 35.6802 52.615C35.5576 53.5552 35.2714 53.8209 34.3108 53.8209C32.2669 53.8209 30.3865 53.9231 28.4448 53.8209C26.2412 53.7847 24.1124 53.0152 22.3949 51.6339C21.4893 50.8849 20.7557 49.9495 20.2443 48.8914C19.7328 47.8332 19.4556 46.6773 19.4313 45.5023C19.3253 41.511 19.5578 37.518 20.1262 33.566C20.2964 31.8193 20.6109 30.0897 21.0664 28.395C21.7601 26.1996 23.134 24.2818 24.9895 22.9187C26.8449 21.5556 29.0857 20.8179 31.388 20.8122C34.5765 20.8122 37.7649 20.8122 40.9738 20.8122V20.7917Z" fill="white"/>
<path d="M170.924 59.7277C170.924 61.0358 170.924 62.3439 170.924 63.6519C170.945 63.9501 170.89 64.2488 170.765 64.5203C170.64 64.7918 170.449 65.0274 170.209 65.2053C168.628 66.4303 166.741 67.195 164.753 67.415C162.766 67.635 160.757 67.3018 158.947 66.4521C157.914 65.9491 157.023 65.1957 156.355 64.2604C155.688 63.3251 155.265 62.2377 155.125 61.0971C154.852 59.7512 154.709 58.3824 154.696 57.0093C154.513 54.4141 154.699 51.8061 155.247 49.263C155.666 47.4578 156.708 45.8582 158.191 44.746C159.252 44.0489 160.45 43.5861 161.705 43.3888C162.96 43.1914 164.242 43.2639 165.467 43.6015C166.383 43.7579 167.249 44.1282 167.994 44.6822C168.74 45.2362 169.345 45.9584 169.759 46.7899C170.244 47.9464 170.627 49.1433 170.904 50.3667C171.026 50.8777 170.72 51.2251 170.168 51.2251C169.173 51.2251 168.172 51.2251 167.163 51.2251C167.046 51.2393 166.927 51.2297 166.814 51.197C166.701 51.1643 166.595 51.1091 166.504 51.0347C166.412 50.9603 166.336 50.8683 166.281 50.7641C166.226 50.6598 166.192 50.5455 166.182 50.428C166.182 50.1214 166.039 49.8353 165.978 49.5287C165.858 48.9254 165.543 48.3783 165.081 47.9719C164.619 47.5655 164.037 47.3225 163.423 47.2804C162.79 47.2199 162.154 47.3587 161.605 47.6776C161.055 47.9965 160.619 48.4794 160.357 49.0586C159.993 49.9601 159.766 50.9107 159.683 51.8792C159.683 54.3318 159.683 56.7845 159.683 59.2167C159.755 60.0622 159.984 60.8868 160.357 61.6489C160.536 62.1115 160.842 62.5141 161.24 62.8106C161.638 63.1071 162.111 63.2853 162.605 63.3249C162.939 63.3454 163.273 63.3454 163.607 63.3249C165.876 63.3249 166.243 62.9162 166.243 60.6474C166.243 58.3787 166.509 58.6036 164.2 58.6036C162.973 58.6036 162.83 58.4196 162.851 57.1933C162.851 56.7027 162.851 56.2122 162.851 55.7217C162.851 55.129 163.014 54.7611 163.648 54.7611H170.147C170.822 54.7611 171.087 55.129 171.067 55.8034C171.067 57.1115 171.067 58.4196 171.067 59.7481L170.924 59.7277Z" fill="white"/>
<path d="M174.664 55.4969V51.8587C174.669 49.7793 175.391 47.7652 176.708 46.1563C177.757 44.9501 179.136 44.0777 180.676 43.6472C182.215 43.2167 183.847 43.2469 185.369 43.7341C186.892 44.2213 188.238 45.144 189.241 46.3882C190.245 47.6325 190.862 49.1436 191.015 50.7346C191.261 53.9934 191.261 57.266 191.015 60.5248C190.952 61.845 190.517 63.1206 189.762 64.2051C189.006 65.2897 187.96 66.1393 186.744 66.6565C181.797 68.7003 175.85 66.9222 174.807 60.5248C174.626 58.8618 174.537 57.1901 174.542 55.5173L174.664 55.4969ZM179.508 55.4969C179.43 56.8583 179.43 58.2232 179.508 59.5846C179.62 60.5514 179.949 61.4805 180.469 62.303C180.781 62.6654 181.17 62.9543 181.607 63.1492C182.044 63.3441 182.518 63.44 182.997 63.4303C183.475 63.4205 183.945 63.3052 184.374 63.0927C184.803 62.8802 185.179 62.5756 185.476 62.2008C185.959 61.3822 186.259 60.4688 186.355 59.5233C186.478 56.9889 186.478 54.434 186.355 51.8996C186.266 50.8773 186.01 49.8763 185.599 48.936C185.362 48.4136 184.97 47.9767 184.477 47.6842C183.983 47.3918 183.412 47.258 182.84 47.3009C182.296 47.2517 181.75 47.3728 181.277 47.6474C180.805 47.922 180.43 48.3366 180.203 48.8338C179.813 49.6454 179.557 50.5152 179.447 51.4091C179.406 52.758 179.508 54.107 179.508 55.4355V55.4969Z" fill="white"/>
<path d="M74.5753 59.7481C75.0249 59.7481 75.8629 59.5642 76.3126 59.8912C76.7622 60.2182 76.8236 61.0562 77.028 61.6694C77.1952 62.0962 77.4531 62.4817 77.7839 62.7992C78.1146 63.1167 78.5103 63.3586 78.9437 63.5082C79.377 63.6578 79.8377 63.7116 80.2938 63.6659C80.75 63.6201 81.1908 63.4759 81.5858 63.2432C81.7996 63.102 81.9696 62.9038 82.0763 62.6709C82.2948 62.2542 82.4248 61.7969 82.4581 61.3277C82.4915 60.8584 82.4274 60.3873 82.2701 59.944C82.1127 59.5006 81.8654 59.0946 81.5436 58.7514C81.2219 58.4082 80.8326 58.1352 80.4004 57.9495C78.8414 57.2757 77.32 56.5183 75.8425 55.6808C74.6703 55.0071 73.7349 53.9877 73.1642 52.7621C72.5934 51.5365 72.4153 50.1645 72.654 48.8338C72.7815 47.8385 73.1674 46.894 73.7735 46.0944C74.3795 45.2947 75.1845 44.6677 76.1082 44.2759C77.4337 43.5905 78.9199 43.2761 80.4094 43.3661C81.899 43.456 83.3365 43.9469 84.5699 44.7869C85.3478 45.3627 85.9969 46.0946 86.4756 46.9358C86.9543 47.777 87.2519 48.7089 87.3496 49.6718C87.4722 50.1828 87.1656 50.4689 86.6546 50.4689H83.4253C82.71 50.4689 82.5056 49.9579 82.3421 49.3652C82.2687 48.8068 81.9972 48.2932 81.5771 47.9181C81.1569 47.543 80.616 47.3312 80.0529 47.3213C79.586 47.2436 79.1065 47.3166 78.6839 47.5297C78.2612 47.7429 77.9175 48.0851 77.7024 48.5068C77.4485 48.9719 77.3328 49.4999 77.369 50.0286C77.4053 50.5573 77.5918 51.0647 77.9068 51.4908C78.7308 52.421 79.7792 53.1246 80.9522 53.5347C82.6048 54.1859 84.1276 55.1272 85.4487 56.3144C86.1009 56.9887 86.6066 57.7904 86.9341 58.6694C87.2617 59.5483 87.404 60.4855 87.3522 61.4221C87.3003 62.3586 87.0555 63.2744 86.633 64.1118C86.2105 64.9493 85.6194 65.6904 84.8969 66.2886C83.9628 66.9184 82.9026 67.3369 81.7902 67.5149C80.3799 67.8478 78.9077 67.8121 77.5152 67.4112C76.1227 67.0103 74.8568 66.2576 73.8395 65.2257C72.6939 64.0787 72.035 62.5339 72 60.9131C72 60.2591 72.2453 59.973 72.8993 59.9934L74.5753 59.7481Z" fill="white"/>
<path d="M91.1512 55.4355V44.93C91.1512 43.9693 91.2942 43.8058 92.2753 43.8058H103.19C104.355 43.8058 104.498 43.9898 104.477 45.1752C104.477 45.7475 104.477 46.2994 104.477 46.8717C104.477 47.4439 104.171 47.8527 103.496 47.8527H97.5485H96.7105C96.6059 47.846 96.5011 47.8624 96.4035 47.9007C96.306 47.939 96.218 47.9982 96.1458 48.0743C96.0737 48.1503 96.0191 48.2413 95.986 48.3407C95.9529 48.4402 95.9421 48.5457 95.9543 48.6498C95.9543 49.9579 95.9543 51.2864 95.9543 52.5945C95.9543 53.1259 96.3018 53.2281 96.731 53.2486H100.349C100.962 53.2486 101.595 53.2486 102.209 53.2486C102.822 53.2486 103.292 53.5143 103.271 54.3931C103.251 55.272 103.271 55.6195 103.271 56.2326C103.271 56.8458 102.944 57.2137 102.29 57.1933H97.569C97.3033 57.1933 97.058 57.1933 96.7923 57.1933C96.6831 57.1861 96.5736 57.2034 96.4719 57.2439C96.3702 57.2844 96.2788 57.347 96.2044 57.4273C96.13 57.5076 96.0744 57.6035 96.0418 57.708C96.0091 57.8124 96.0002 57.9229 96.0156 58.0313C96.0156 59.462 96.0156 60.8723 96.0156 62.2825C96.0156 63.0388 96.3222 63.284 97.0171 63.284H103.374C104.477 63.284 104.682 63.4271 104.682 64.5512C104.682 65.2462 104.682 65.9411 104.682 66.5951C104.682 67.2492 104.457 67.3514 103.925 67.3309H92.0505C91.3351 67.3309 91.1103 67.0243 91.1103 66.125C91.1103 64.5104 91.1103 62.8753 91.1103 61.2606C91.1103 59.6459 91.1103 57.4998 91.1103 55.6195L91.1512 55.4355Z" fill="white"/>
<path d="M112.326 55.456C112.326 56.7027 112.326 57.9291 112.326 59.1758C112.295 59.5567 112.295 59.9395 112.326 60.3204C112.326 60.8769 112.47 61.4238 112.745 61.9076C113.02 62.3914 113.416 62.7953 113.894 63.0798C114.373 63.3643 114.917 63.5195 115.473 63.5302C116.029 63.5409 116.579 63.4068 117.068 63.141C117.61 62.8277 118.066 62.3854 118.396 61.8533C118.568 61.5387 118.665 61.1893 118.682 60.8314C119.009 59.2372 119.009 59.2167 120.726 59.2167H123.056C123.547 59.2167 123.894 59.4415 123.792 59.973C123.614 62.0933 122.695 64.0833 121.196 65.5936C120.276 66.4309 119.133 66.9845 117.906 67.1879C116.232 67.5268 114.502 67.4638 112.857 67.0039C111.507 66.5902 110.308 65.7882 109.41 64.6979C108.512 63.6075 107.956 62.277 107.809 60.8723C107.226 57.3261 107.226 53.7085 107.809 50.1623C107.929 49.0013 108.312 47.883 108.928 46.8916C109.544 45.9002 110.378 45.0617 111.365 44.4394C112.348 43.8419 113.44 43.4489 114.578 43.2838C115.716 43.1188 116.876 43.1851 117.987 43.4788C121.932 44.3577 123.363 47.4644 123.812 50.7755C123.812 51.2865 123.649 51.5726 123.138 51.593H119.766C119.173 51.593 118.907 51.1843 118.825 50.6528C118.744 50.1214 118.682 49.6718 118.56 49.2017C118.441 48.6194 118.123 48.0968 117.66 47.7237C117.198 47.3507 116.619 47.1506 116.025 47.1578C115.437 47.0677 114.836 47.163 114.305 47.4304C113.774 47.6978 113.339 48.124 113.062 48.6498C112.669 49.5667 112.421 50.5388 112.326 51.5317C112.203 52.8194 112.326 54.1479 112.326 55.456Z" fill="white"/>
<path d="M136.26 57.5612C136.26 60.4431 136.26 63.3249 136.26 66.2068C136.26 66.963 135.974 67.2287 135.258 67.1879C134.543 67.147 133.46 67.1879 132.54 67.1879C131.62 67.1879 131.313 66.963 131.313 65.9615V58.7058C131.313 55.456 131.313 52.2062 131.313 48.9769C131.313 47.9754 131.313 47.8732 130.21 47.8527C129.106 47.8323 127.839 47.8527 126.653 47.8527C125.897 47.8527 125.55 47.5257 125.57 46.7695C125.591 46.0132 125.57 45.4409 125.57 44.7256C125.551 44.6112 125.558 44.4938 125.591 44.3826C125.625 44.2715 125.683 44.1694 125.762 44.0845C125.841 43.9995 125.939 43.9338 126.047 43.8926C126.156 43.8514 126.272 43.8357 126.388 43.8467H127.716H140.531C141.594 43.8467 141.799 44.0307 141.778 45.1139C141.778 45.7271 141.778 46.3403 141.778 46.9534C141.778 47.5666 141.451 47.9345 140.777 47.914H137.547C136.382 47.914 136.219 47.914 136.219 49.2017V57.7042L136.26 57.5612Z" fill="white"/>
<path d="M167.838 28.9264V21.8954C167.838 20.9348 167.96 20.8326 168.901 20.8326C170.168 20.8326 171.435 20.8326 172.702 20.8326C173.597 20.8779 174.483 21.0359 175.339 21.3027C175.918 21.5226 176.444 21.8636 176.88 22.3029C177.317 22.7422 177.655 23.2696 177.872 23.8501C178.089 24.4305 178.179 25.0504 178.137 25.6685C178.095 26.2867 177.921 26.8887 177.628 27.4343C177.46 27.7262 177.254 27.9942 177.015 28.2314C176.381 28.8855 176.422 28.8651 177.015 29.4578C177.442 29.8812 177.776 30.3895 177.996 30.9498C178.313 31.9611 178.313 33.0452 177.996 34.0565C177.844 34.7813 177.482 35.4453 176.955 35.9653C176.428 36.4852 175.759 36.838 175.032 36.9793C174.361 37.1287 173.676 37.2041 172.988 37.2041C171.639 37.2041 170.27 37.2041 168.901 37.2041C167.919 37.2041 167.715 37.2041 167.695 36.1004C167.695 33.6682 167.695 31.2564 167.695 28.8242L167.838 28.9264ZM172.539 34.6492C173.377 34.547 174.215 34.6492 174.583 33.8726C174.836 33.4997 174.976 33.0612 174.985 32.6104C174.994 32.1596 174.873 31.7158 174.635 31.3328C174.397 30.9498 174.053 30.6441 173.644 30.4528C173.236 30.2614 172.781 30.1927 172.334 30.2549H172.028C171.906 30.2379 171.781 30.2495 171.664 30.2887C171.548 30.3279 171.441 30.3936 171.354 30.4808C171.267 30.5679 171.201 30.6741 171.162 30.7909C171.123 30.9078 171.111 31.0321 171.128 31.1542C171.128 32.0944 171.128 33.055 171.128 33.9952C171.128 34.1996 171.414 34.4653 171.619 34.547C171.918 34.6287 172.229 34.6632 172.539 34.6492ZM171.19 25.8401C171.19 27.7614 171.374 27.884 173.234 27.6183C174.153 27.4956 174.603 26.9234 174.623 25.8197C174.644 24.716 174.174 24.021 173.274 23.7758C171.231 23.4488 171.087 23.7758 171.108 25.6562L171.19 25.8401Z" fill="white"/>
<path d="M123.772 28.9468C123.772 26.5759 123.772 24.205 123.772 21.8341C123.772 20.9348 123.915 20.8326 124.834 20.8326C126.286 20.8326 127.757 20.8326 129.229 20.8326C130.098 20.888 130.951 21.1028 131.743 21.4662C132.381 21.7282 132.936 22.16 133.347 22.7148C133.758 23.2697 134.009 23.9264 134.073 24.6138C134.303 25.5696 134.271 26.5699 133.979 27.5089C133.688 28.4479 133.148 29.2907 132.417 29.9483C132.24 30.1025 132.124 30.3152 132.09 30.5478C132.056 30.7803 132.107 31.0173 132.233 31.2155C132.887 32.7552 133.569 34.2882 134.277 35.8143C134.809 36.9588 134.625 37.1223 133.378 37.245C133.016 37.3384 132.638 37.3519 132.27 37.2844C131.902 37.2169 131.553 37.0701 131.248 36.8542C130.942 36.6383 130.688 36.3584 130.501 36.0341C130.315 35.7098 130.202 35.3488 130.169 34.9763C129.894 34.0931 129.552 33.2322 129.147 32.401C129.147 32.1761 128.943 31.8696 128.738 31.7469C128.411 31.5128 128.033 31.3588 127.635 31.2973C127.491 31.2973 127.205 31.8491 127.205 32.1557C127.205 33.4025 127.205 34.6697 127.205 35.9369C127.205 37.2041 127.021 37.1837 126.02 37.2041H125.325C123.894 37.2041 123.772 37.2041 123.772 35.7325V28.9468ZM130.721 26.1262C130.721 24.7364 130.373 24.0824 129.515 23.9393C129.008 23.8579 128.495 23.8169 127.982 23.8167C127.369 23.8167 127.103 24.1232 127.103 24.7364C127.103 25.7379 127.103 26.7803 127.103 27.7409C127.103 27.9657 127.369 28.3541 127.573 28.3745C129.515 28.6607 130.864 28.395 130.721 26.1262Z" fill="white"/>
<path d="M148.523 28.9877V21.875C148.523 20.9348 148.625 20.8326 149.606 20.8326C150.587 20.8326 151.875 20.8326 152.999 20.8326C154.625 20.8326 156.185 21.4786 157.335 22.6285C158.485 23.7784 159.131 25.338 159.131 26.9642C159.223 28.5026 159.223 30.0451 159.131 31.5834C159.118 33.0215 158.56 34.4011 157.57 35.4442C156.58 36.4873 155.232 37.1162 153.796 37.2041C152.365 37.2041 150.914 37.2041 149.463 37.3267C148.768 37.3267 148.605 36.9179 148.605 36.3252C148.605 35.0989 148.605 33.8521 148.605 32.6258V28.9877H148.523ZM151.855 29.2738C151.855 30.8067 151.855 32.3192 151.855 33.8317C151.855 34.3631 152.079 34.5675 152.57 34.6288C152.939 34.7186 153.323 34.721 153.693 34.6356C154.062 34.5503 154.407 34.3796 154.699 34.1373C154.991 33.895 155.222 33.5878 155.374 33.2401C155.526 32.8925 155.595 32.5141 155.574 32.1353C155.574 30.214 155.574 28.2723 155.574 26.3511C155.574 24.4298 154.798 23.8575 152.999 23.8167C152.12 23.8167 151.895 24.0006 151.875 24.8795C151.834 26.3511 151.855 27.8227 151.855 29.2738Z" fill="white"/>
<path d="M120.828 27.5365C120.828 29.1716 120.828 30.7863 120.828 32.401C120.859 33.0489 120.758 33.6964 120.534 34.3048C120.309 34.9133 119.964 35.4705 119.52 35.9432C119.076 36.4159 118.541 36.7947 117.948 37.0569C117.355 37.3191 116.715 37.4596 116.066 37.4698C115.302 37.6319 114.511 37.613 113.756 37.4148C113 37.2165 112.302 36.8443 111.716 36.328C111.13 35.8116 110.673 35.1654 110.382 34.441C110.09 33.7165 109.972 32.9339 110.037 32.1557C110.037 28.7833 110.037 25.4109 110.037 22.0385C110.037 21.0574 110.2 20.8939 111.202 20.8326C113.491 20.8326 113.552 20.8326 113.532 23.0604C113.532 26.1058 113.532 29.1921 113.532 32.2375C113.521 32.4213 113.521 32.6055 113.532 32.7893C113.654 34.5062 114.411 35.1193 116.414 34.6492C116.611 34.5665 116.789 34.444 116.937 34.2892C117.084 34.1345 117.199 33.9509 117.272 33.7499C117.448 33.2443 117.531 32.7112 117.517 32.1761C117.517 28.7629 117.517 25.37 117.517 21.9567C117.517 20.9552 117.681 20.8121 118.703 20.8121C120.931 20.8121 120.931 20.8121 120.91 23.04V27.5365H120.828Z" fill="white"/>
<path d="M145.518 55.5173V45.0117C145.518 43.9898 145.662 43.8263 146.663 43.8058C147.665 43.7854 148.421 43.8058 149.3 43.8058C150.179 43.8058 150.383 44.1329 150.362 44.8687C150.342 45.6045 150.362 46.0541 150.362 46.6468C150.362 53.1055 150.362 59.5846 150.362 66.0433C150.362 67.0652 150.199 67.2287 149.197 67.2287H146.663C145.723 67.2287 145.58 67.0652 145.58 66.0637V55.5173H145.518Z" fill="white"/>
<path d="M77.1915 20.7304C78.0696 20.6596 78.9505 20.8296 79.7392 21.2222C80.5279 21.6147 81.1946 22.2149 81.6676 22.9582C81.9844 23.5443 82.1987 24.1803 82.3012 24.8386C82.3305 24.9383 82.3356 25.0435 82.3162 25.1456C82.2967 25.2476 82.2532 25.3436 82.1893 25.4255C82.1254 25.5074 82.0428 25.5729 81.9486 25.6166C81.8543 25.6602 81.751 25.6808 81.6471 25.6766C80.967 25.7335 80.2834 25.7335 79.6033 25.6766C79.3376 25.6766 79.0923 25.3291 78.8879 25.1043C78.6835 24.8795 78.7653 24.7568 78.6835 24.5933C78.5854 24.2405 78.3744 23.9296 78.0828 23.708C77.7912 23.4865 77.435 23.3665 77.0688 23.3665C76.7026 23.3665 76.3465 23.4865 76.0549 23.708C75.7633 23.9296 75.5523 24.2405 75.4542 24.5933C75.312 24.918 75.2852 25.2816 75.3781 25.6236C75.4711 25.9656 75.6782 26.2656 75.9651 26.4737C76.6882 26.9597 77.4389 27.4033 78.2134 27.8022C79.2965 28.334 80.2951 29.0227 81.177 29.8461C81.75 30.4602 82.1413 31.2214 82.3074 32.0448C82.4734 32.8681 82.4076 33.7214 82.1173 34.5096C81.827 35.2978 81.3237 35.99 80.6633 36.509C80.0029 37.028 79.2114 37.3536 78.3769 37.4494C77.2182 37.7162 76.0052 37.6156 74.9063 37.1614C73.8075 36.7072 72.8774 35.922 72.2453 34.9149C71.9487 34.3509 71.7418 33.7441 71.6321 33.1163C71.5095 32.6258 71.7547 32.3192 72.2861 32.2783H73.2059C74.6775 32.2783 74.9432 32.2783 75.2498 33.7295C75.4337 34.6697 76.3126 35.0376 77.6411 34.8536C78.5404 34.731 78.8061 34.3835 78.8879 33.3207C78.9974 32.8204 78.926 32.2974 78.6866 31.8447C78.4471 31.392 78.055 31.0387 77.5798 30.8476C76.5351 30.4053 75.5181 29.9002 74.5344 29.3351C73.6558 28.8314 72.9615 28.0597 72.5533 27.1328C72.145 26.206 72.0443 25.1728 72.2657 24.1846C72.5704 23.1898 73.1848 22.3182 74.0193 21.6969C74.8538 21.0756 75.8649 20.737 76.9053 20.7304H77.1915Z" fill="white"/>
<path d="M136.852 29.0286V21.8545C136.852 20.9348 136.995 20.8326 137.895 20.8326H145.151C146.07 20.8326 146.295 20.9961 146.295 21.8954C146.295 24.2459 146.295 23.9393 144.435 23.9393H141.165C140.572 23.9393 140.245 24.2254 140.266 24.8386C140.286 25.4518 140.266 26.1671 140.266 26.8825C140.266 27.5978 140.593 27.7 141.145 27.7H144.415C145.314 27.7 145.478 27.9249 145.478 28.9264C145.478 29.9279 145.478 30.2345 144.435 30.2753C143.393 30.3162 142.391 30.2753 141.267 30.2753C140.143 30.2753 140.184 30.5615 140.245 31.3381C140.307 32.1614 140.307 32.988 140.245 33.8112C140.245 34.5266 140.531 34.731 141.145 34.731C142.453 34.731 143.781 34.731 145.089 34.731C145.498 34.731 146.213 34.9763 146.234 35.1806C146.304 35.8662 146.249 36.5589 146.07 37.2245C146.07 37.3472 145.539 37.4289 145.232 37.4289H138.079C137.159 37.4289 136.955 37.4289 136.934 36.4274C136.934 33.9952 136.934 31.5834 136.934 29.1512L136.852 29.0286Z" fill="white"/>
<path d="M84.9787 28.9672V22.018C84.9787 20.9756 85.1217 20.8326 86.1232 20.853H93.1542C94.2579 20.853 94.4418 21.0778 94.4418 22.202C94.4418 22.4064 94.4418 22.6108 94.4418 22.8151C94.4418 23.5714 94.0944 23.878 93.3586 23.8575C92.0709 23.8575 90.7833 23.8575 89.4956 23.8575C88.5555 23.8575 88.3511 24.0006 88.3511 24.9612C88.3511 25.5948 88.3511 26.2489 88.3511 26.8825C88.3511 27.5161 88.6372 27.6591 89.1686 27.6387C90.211 27.6387 91.2125 27.6387 92.3366 27.6387C93.4608 27.6387 93.3586 27.8431 93.4199 29.3351C93.4199 30.1527 92.9294 30.1936 92.3571 30.214C91.4578 30.214 90.5585 30.214 89.6592 30.214C88.3715 30.214 88.2693 30.214 88.3102 31.5221C88.3713 32.2634 88.3713 33.0086 88.3102 33.7499C88.208 34.6084 88.6372 34.731 89.2913 34.7105H92.2344H92.9907C93.259 34.676 93.5317 34.7205 93.7751 34.8386C94.0185 34.9567 94.2222 35.1434 94.3611 35.3756C94.4999 35.6078 94.568 35.8755 94.557 36.1458C94.5459 36.4162 94.4562 36.6774 94.2988 36.8975C94.1748 37.0342 94.0233 37.1431 93.8542 37.2171C93.6851 37.2911 93.5023 37.3284 93.3177 37.3267C91.4986 37.3267 89.6796 37.3267 87.8401 37.3267H86.1437C85.1217 37.3267 84.8765 37.0814 84.8765 36.0391C84.8765 34.9967 84.8765 33.9952 84.8765 33.0346V28.9468L84.9787 28.9672Z" fill="white"/>
<path d="M96.1792 29.0899C96.3427 27.7 96.4449 26.392 96.6697 25.1247C96.8743 23.894 97.512 22.777 98.4676 21.975C99.4233 21.1729 100.634 20.7388 101.882 20.7508C103.1 20.6248 104.326 20.8974 105.377 21.5275C106.061 21.9703 106.626 22.5748 107.022 23.2878C107.418 24.0007 107.632 24.8 107.645 25.6153C107.645 26.2898 107.38 26.5759 106.726 26.5146H106.194C104.375 26.5146 104.334 26.3715 104.15 24.9204C104.05 24.4931 103.815 24.1094 103.48 23.826C103.146 23.5426 102.728 23.3745 102.29 23.3466C101.861 23.3367 101.438 23.4536 101.075 23.6826C100.711 23.9116 100.423 24.2426 100.246 24.6342C100.082 25.0165 99.9848 25.4246 99.9603 25.8401C99.9603 28.1293 99.8581 30.4184 99.9603 32.6871C100.063 34.9558 101.636 35.1398 103.312 34.731C104.048 34.5062 104.13 33.7908 104.314 33.1776C104.661 31.9922 104.661 31.9922 105.888 32.0126H106.501C107.564 32.0126 107.727 32.0126 107.707 33.1368C107.648 34.054 107.317 34.9328 106.757 35.661C106.196 36.3892 105.431 36.9336 104.559 37.2245C103.327 37.6329 102.011 37.7174 100.737 37.4698C99.7629 37.3047 98.8634 36.8432 98.1612 36.1483C97.4589 35.4533 96.9881 34.5587 96.8128 33.5864C96.4244 32.0126 96.3631 30.4388 96.1792 29.0899Z" fill="white"/>
<path d="M185.272 27.6387C185.421 27.4293 185.545 27.2029 185.64 26.9642C186.212 25.2474 186.723 23.5305 187.316 21.8341C187.393 21.6401 187.509 21.4639 187.657 21.3163C187.804 21.1687 187.98 21.0528 188.174 20.9757C188.982 20.8228 189.808 20.7816 190.627 20.853C191.281 20.853 191.179 21.4866 191.036 21.8954C190.893 22.3042 190.504 23.1626 190.218 23.7962C189.278 26.0036 188.297 28.1906 187.439 30.4184C187.228 31.0786 187.132 31.7697 187.152 32.4623C187.152 33.6682 187.152 34.8741 187.152 36.08C187.152 36.8362 186.846 37.1837 186.11 37.1837H184.332C183.596 37.1837 183.371 36.7749 183.392 36.1004C183.392 34.7514 183.392 33.4229 183.392 32.0126C183.322 30.7461 182.973 29.5105 182.37 28.395C181.573 26.4737 180.694 24.5729 179.876 22.6721C179.059 20.7713 179.304 20.7713 181.082 20.7917H182.084C182.86 20.7917 183.187 21.3231 183.371 22.018C183.903 23.7553 184.454 25.4926 185.006 27.2299C185.027 27.4139 185.129 27.4752 185.272 27.6387Z" fill="white"/>
<path d="M62.5981 43.9898V66.1046C62.5981 66.2885 62.5981 66.5134 62.5981 66.636C62.5981 66.7586 62.2711 67.1061 62.1076 67.1061C61.9774 67.0842 61.8534 67.0346 61.744 66.9605C61.6347 66.8865 61.5426 66.7897 61.474 66.6769C61.421 66.4001 61.421 66.1157 61.474 65.8389C61.474 51.4908 61.474 37.136 61.474 22.7743C61.4231 22.3397 61.4231 21.9007 61.474 21.4662C61.474 21.2414 61.8215 21.0574 62.0259 20.8735C62.2505 21.0641 62.4559 21.2763 62.639 21.5071C62.639 21.5071 62.639 21.8136 62.639 21.9567V43.9898H62.5981Z" fill="white"/>
</svg>
