<?xml version="1.0" encoding="UTF-8" standalone="no"?>
<svg width="154px" height="48px" viewBox="0 0 154 48" version="1.1" xmlns="http://www.w3.org/2000/svg" xmlns:xlink="http://www.w3.org/1999/xlink">
    <!-- Generator: Sketch 41 (35326) - http://www.bohemiancoding.com/sketch -->
    <title>Group 7</title>
    <desc>Created with Sketch.</desc>
    <defs></defs>
    <g id="Page-1" stroke="none" stroke-width="1" fill="none" fill-rule="evenodd">
        <g id="Desktop-HD-Copy-2" transform="translate(-890.000000, -61.000000)">
            <g id="Group-3" transform="translate(890.000000, 54.000000)">
                <g id="Group-7" transform="translate(0.000000, 7.500000)">
                    <g id="reviewsio" transform="translate(10.000000, 0.000000)">
                        <g id="logo">
                            <g id="Page-1">
                                <g id="Artboard-Copy-3">
                                    <g id="Group-21">
                                        <g id="Group-20">
                                            <g id="logo">
                                                <g id="reviews-logo">
                                                    <path d="M10.9747573,0 C4.89320388,0 0,4.88125 0,10.8625 C0,16.84375 4.89320388,21.725 10.9747573,21.725 C17.0563107,21.725 22.0194175,16.84375 22.0194175,10.8625 C22.0194175,4.88125 17.1262136,0 10.9747573,0 Z M16.2174757,18.49375 L11.0446602,14.575 L5.87184466,18.49375 L7.89902913,12.1 L2.7961165,8.18125 L9.01747573,8.18125 L10.9747573,2.0625 L13.0718447,8.18125 L19.2932039,8.18125 L14.1902913,12.1 L16.2174757,18.49375 Z" id="Shape" fill="#12CF6C"></path>
                                                    <g id="Group" transform="translate(26.563107, 1.375000)" fill="#000000">
                                                        <path d="M0.489320388,1.71875 C0.489320388,1.16875 0.978640777,0.6875 1.46796117,0.6875 L8.10873786,0.6875 C10.2757282,0.6875 12.023301,1.30625 13.1417476,2.40625 C13.9805825,3.23125 14.5398058,4.46875 14.5398058,5.84375 L14.5398058,5.9125 C14.5398058,8.8 12.5825243,10.45 9.78640777,11 L14.1902913,16.56875 C14.4,16.775 14.5398058,17.05 14.5398058,17.325 C14.5398058,17.875 14.0504854,18.2875 13.4912621,18.2875 C13.0718447,18.2875 12.792233,18.08125 12.5825243,17.7375 L7.54951456,11.34375 L2.44660194,11.34375 L2.44660194,17.25625 C2.44660194,17.80625 1.95728155,18.2875 1.39805825,18.2875 C0.838834951,18.2875 0.419417476,17.80625 0.419417476,17.25625 L0.419417476,1.71875 L0.489320388,1.71875 Z M7.96893204,9.625 C10.6252427,9.625 12.5126214,8.25 12.5126214,6.05 L12.5126214,5.98125 C12.5126214,3.85 10.8349515,2.54375 7.96893204,2.54375 L2.51650485,2.54375 L2.51650485,9.625 L7.96893204,9.625 Z" id="Shape"></path>
                                                        <path d="M18.5941748,17.1875 L18.5941748,1.71875 C18.5941748,1.16875 19.0135922,0.6875 19.5728155,0.6875 L30.6174757,0.6875 C31.1067961,0.6875 31.5262136,1.1 31.5262136,1.58125 C31.5262136,2.0625 31.1067961,2.475 30.6174757,2.475 L20.5514563,2.475 L20.5514563,8.45625 L29.4291262,8.45625 C29.9184466,8.45625 30.3378641,8.86875 30.3378641,9.35 C30.3378641,9.83125 29.9184466,10.24375 29.4291262,10.24375 L20.5514563,10.24375 L20.5514563,16.3625 L30.7572816,16.3625 C31.2466019,16.3625 31.6660194,16.775 31.6660194,17.25625 C31.6660194,17.7375 31.2466019,18.15 30.7572816,18.15 L19.5728155,18.15 C19.0135922,18.15 18.5941748,17.7375 18.5941748,17.1875 Z" id="Shape"></path>
                                                        <path d="M41.0330097,17.53125 L34.1825243,1.99375 C34.1126214,1.85625 34.1126214,1.71875 34.1126214,1.5125 C34.1126214,1.03125 34.6019417,0.55 35.161165,0.55 C35.6504854,0.55 36,0.89375 36.2097087,1.30625 L42.361165,15.8125 L48.5126214,1.30625 C48.7223301,0.9625 49.0718447,0.61875 49.4912621,0.61875 C50.0504854,0.61875 50.4699029,1.1 50.4699029,1.58125 C50.4699029,1.71875 50.4699029,1.85625 50.4,1.99375 L43.5495146,17.6 C43.3398058,18.08125 42.9902913,18.425 42.361165,18.425 L42.2912621,18.425 C41.592233,18.35625 41.2427184,18.08125 41.0330097,17.53125 Z" id="Shape"></path>
                                                        <path d="M54.1048544,1.58125 C54.1048544,1.03125 54.5941748,0.55 55.0834951,0.55 C55.6427184,0.55 56.1320388,1.03125 56.1320388,1.58125 L56.1320388,17.325 C56.1320388,17.875 55.6427184,18.35625 55.0834951,18.35625 C54.5242718,18.35625 54.1048544,17.875 54.1048544,17.325 L54.1048544,1.58125 Z" id="Shape"></path>
                                                        <path d="M61.0951456,17.1875 L61.0951456,1.71875 C61.0951456,1.16875 61.584466,0.6875 62.0737864,0.6875 L73.1184466,0.6875 C73.607767,0.6875 74.0271845,1.1 74.0271845,1.58125 C74.0271845,2.0625 73.607767,2.475 73.1184466,2.475 L63.1223301,2.475 L63.1223301,8.45625 L72,8.45625 C72.4893204,8.45625 72.9087379,8.86875 72.9087379,9.35 C72.9087379,9.83125 72.4893204,10.24375 72,10.24375 L63.1223301,10.24375 L63.1223301,16.3625 L73.2582524,16.3625 C73.7475728,16.3625 74.1669903,16.775 74.1669903,17.25625 C74.1669903,17.7375 73.7475728,18.15 73.2582524,18.15 L62.0737864,18.15 C61.5145631,18.15 61.0951456,17.7375 61.0951456,17.1875 Z" id="Shape"></path>
                                                        <path d="M76.7533981,2.0625 C76.6834951,1.925 76.6834951,1.7875 76.6834951,1.58125 C76.6834951,1.03125 77.1728155,0.55 77.7320388,0.55 C78.2213592,0.55 78.6407767,0.89375 78.7805825,1.375 L83.6737864,15.2625 L88.2873786,1.375 C88.4271845,0.89375 88.776699,0.61875 89.2660194,0.61875 L89.4058252,0.61875 C89.8951456,0.61875 90.2446602,0.9625 90.384466,1.375 L94.9980583,15.33125 L99.961165,1.375 C100.100971,0.89375 100.450485,0.61875 100.939806,0.61875 C101.499029,0.61875 101.98835,1.1 101.98835,1.58125 C101.98835,1.71875 101.918447,1.925 101.848544,2.0625 L96.1864078,17.6 C95.976699,18.08125 95.6271845,18.425 95.1378641,18.425 L94.9980583,18.425 C94.5087379,18.425 94.1592233,18.08125 93.9495146,17.6 L89.2660194,4.125 L84.6524272,17.53125 C84.4427184,18.0125 84.0932039,18.35625 83.6038835,18.35625 L83.4640777,18.35625 C82.9747573,18.35625 82.6252427,18.0125 82.415534,17.53125 L76.7533981,2.0625 Z" id="Shape"></path>
                                                        <path d="M104.434951,16.0875 C104.225243,15.95 104.085437,15.675 104.085437,15.33125 C104.085437,14.78125 104.504854,14.36875 105.064078,14.36875 C105.343689,14.36875 105.553398,14.4375 105.693204,14.575 C107.370874,15.95 109.048544,16.6375 111.285437,16.6375 C113.662136,16.6375 115.269903,15.4 115.269903,13.68125 L115.269903,13.6125 C115.269903,11.9625 114.361165,11.06875 110.656311,10.3125 C106.601942,9.41875 104.714563,8.1125 104.714563,5.29375 L104.714563,5.225 C104.714563,2.475 107.161165,0.48125 110.586408,0.48125 C112.893204,0.48125 114.640777,1.03125 116.248544,2.2 C116.458252,2.3375 116.667961,2.6125 116.667961,3.025 C116.667961,3.575 116.248544,3.9875 115.68932,3.9875 C115.479612,3.9875 115.269903,3.91875 115.130097,3.78125 C113.662136,2.68125 112.194175,2.26875 110.516505,2.26875 C108.209709,2.26875 106.741748,3.50625 106.741748,5.0875 L106.741748,5.15625 C106.741748,6.80625 107.650485,7.7 111.565049,8.525 C115.549515,9.35 117.36699,10.79375 117.36699,13.475 L117.36699,13.54375 C117.36699,16.56875 114.850485,18.49375 111.285437,18.49375 C108.559223,18.425 106.392233,17.66875 104.434951,16.0875 Z" id="Shape"></path>
                                                    </g>
                                                </g>
                                            </g>
                                        </g>
                                    </g>
                                </g>
                            </g>
                        </g>
                    </g>
                    <g id="Group-6" transform="translate(0.000000, 28.000000)">
                        <text id="4.75-/-5" font-family="Gordita-Medium, Gordita" font-size="10" font-weight="400" fill="#494949">
                            <tspan x="116.190647" y="13.75">4.75 / 5</tspan>
                        </text>
                        <g id="Group-2" transform="translate(0.000000, 0.625000)">
                            <polygon id="Star" fill="#F6A623" points="9.9111765 15.1009963 4.08553312 18.2119726 5.198132 11.622819 0.485087506 6.95635453 6.99835481 5.99500998 9.9111765 0 12.8239982 5.99500998 19.3372655 6.95635453 14.624221 11.622819 15.7368199 18.2119726"></polygon>
                            <polygon id="Star-Copy" fill="#F6A623" points="31.7665914 15.1009963 25.940948 18.2119726 27.0535469 11.622819 22.3405024 6.95635453 28.8537697 5.99500998 31.7665914 0 34.679413 5.99500998 41.1926804 6.95635453 36.4796359 11.622819 37.5922347 18.2119726"></polygon>
                            <polygon id="Star-Copy-2" fill="#F6A623" points="53.6220062 15.1009963 47.7963628 18.2119726 48.9089617 11.622819 44.1959172 6.95635453 50.7091845 5.99500998 53.6220062 0 56.5348279 5.99500998 63.0480952 6.95635453 58.3350507 11.622819 59.4476496 18.2119726"></polygon>
                            <polygon id="Star-Copy-3" fill="#F6A623" points="75.4774211 15.1009963 69.6517777 18.2119726 70.7643766 11.622819 66.0513321 6.95635453 72.5645994 5.99500998 75.4774211 0 78.3902428 5.99500998 84.9035101 6.95635453 80.1904656 11.622819 81.3030644 18.2119726"></polygon>
                            <g id="Group" transform="translate(87.421659, 0.000000)">
                                <polygon id="Star-Copy-4" fill="#FFFFFF" points="9.9111765 15.1009963 4.08553312 18.2119726 5.198132 11.622819 0.485087506 6.95635453 6.99835481 5.99500998 9.9111765 0 12.8239982 5.99500998 19.3372655 6.95635453 14.624221 11.622819 15.7368199 18.2119726"></polygon>
                                <path d="M12.7066365,5.75346266 L9.9111765,0 L6.99835481,5.99500998 L0.485087506,6.95635453 L5.198132,11.622819 L4.08553312,18.2119726 L9.9111765,15.1009963 L12.7066365,16.5938116 L12.7066365,5.75346266 Z" id="Combined-Shape" fill="#F6A623"></path>
                            </g>
                        </g>
                    </g>
                </g>
            </g>
        </g>
    </g>
</svg>