<svg width="353" height="718" viewBox="0 0 353 718" fill="none" xmlns="http://www.w3.org/2000/svg">
<path d="M353 51.6C353 22.8 329.8 0 301 0H52.3C23.5 0 0 22.9 0 51.6V145.9V665.4C0 694.2 23.5 718 52.3 718H301C329.8 718 353 694.2 353 665.4V51.6ZM214.1 19.1C216.5 19.1 218.5 21.1 218.5 23.5C218.5 25.9 216.5 27.9 214.1 27.9C211.7 27.9 209.7 25.9 209.7 23.5C209.7 21.1 211.7 19.1 214.1 19.1ZM159 22H198C199.7 22 201 23 201 24.5C201 26 199.7 27 198 27H159C157.3 27 156 26 156 24.5C156 23 157.3 22 159 22ZM334 663.1C334 680.6 320.3 695 302.9 695H53.9C36.4 695 22 680.6 22 663.1V49.8C22 32.4 36.4 19 53.9 19H82.7C88.8 19 91 18.6 91.4 26.3C91.8 34.3 97.3 39.5 104.7 41.8C107.2 42.6 110 43 112.7 43H118.1H238.8H244.2C246.9 43 249.7 42.4 252.2 41.6C259.6 39.3 265.2 34.5 265.5 26.5C265.9 18.8 268.1 19 274.2 19H302.7C320.2 19 333.8 32.4 333.8 49.8V663.1H334Z" fill="#2A2C2B"/>
</svg>
