<svg width="375" height="812" viewBox="0 0 375 812" fill="none" xmlns="http://www.w3.org/2000/svg">
<rect width="375" height="812" fill="white"/>
<path fill-rule="evenodd" clip-rule="evenodd" d="M183.375 62.8123C182.636 62.8123 182.038 63.4284 182.038 64.1891C182.038 64.9493 182.636 65.5654 183.375 65.5654H200.88C201.618 65.5654 202.216 64.9493 202.216 64.1891C202.216 63.4284 201.618 62.8123 200.88 62.8123H183.375ZM203.669 63.2123C203.419 63.4693 203.279 63.8182 203.279 64.1891C203.279 64.5482 203.419 64.9079 203.669 65.1547C203.918 65.4218 204.257 65.5659 204.616 65.5659C204.965 65.5659 205.314 65.4218 205.563 65.1649C205.803 64.9079 205.953 64.5482 205.953 64.1891C205.953 63.8289 205.803 63.4693 205.563 63.2123C205.315 62.9564 204.966 62.8306 204.618 62.8306C204.265 62.8306 203.914 62.9591 203.669 63.2123ZM181.676 57.5815C180.938 57.5815 180.34 58.1976 180.34 58.9577C180.34 59.7184 180.938 60.3345 181.676 60.3345H198.424C199.162 60.3345 199.761 59.7184 199.761 58.9577C199.761 58.1976 199.162 57.5815 198.424 57.5815H181.676ZM176.324 57.9814C176.075 58.2486 175.925 58.5981 175.925 58.9572C175.925 59.3174 176.075 59.677 176.324 59.9233C176.563 60.191 176.912 60.3345 177.262 60.3345C177.621 60.3345 177.96 60.191 178.209 59.934C178.458 59.677 178.608 59.3174 178.608 58.9572C178.608 58.5981 178.458 58.2384 178.209 57.9814C177.96 57.7245 177.611 57.596 177.263 57.596C176.915 57.596 176.569 57.7245 176.324 57.9814ZM172.936 48.2202C172.198 48.2202 171.6 48.8363 171.6 49.597C171.6 50.3572 172.198 50.9733 172.936 50.9733H180.146C180.884 50.9733 181.483 50.3572 181.483 49.597C181.483 48.8363 180.884 48.2202 180.146 48.2202H172.936ZM167.901 48.618C167.651 48.8858 167.512 49.2352 167.512 49.5949C167.512 49.9545 167.662 50.3147 167.901 50.5711C168.15 50.8281 168.5 50.9722 168.848 50.9722C169.198 50.9722 169.547 50.8281 169.796 50.5711C170.045 50.3147 170.185 49.9647 170.185 49.5949C170.185 49.2352 170.045 48.875 169.796 48.618C169.547 48.3664 169.198 48.2406 168.848 48.2406C168.499 48.2406 168.15 48.3664 167.901 48.618ZM175.094 52.9011C174.356 52.9011 173.758 53.5172 173.758 54.2768C173.758 55.0375 174.356 55.6536 175.094 55.6536H189.108C189.846 55.6536 190.444 55.0375 190.444 54.2768C190.444 53.5172 189.846 52.9011 189.108 52.9011H175.094ZM191.924 53.3048C191.675 53.5613 191.534 53.9113 191.534 54.2817C191.534 54.6408 191.675 55.001 191.924 55.2472C192.174 55.5042 192.512 55.6585 192.872 55.6585C193.221 55.6585 193.569 55.5042 193.809 55.2472C194.058 55.001 194.208 54.6408 194.208 54.2817C194.208 53.9215 194.068 53.5613 193.809 53.3048C193.559 53.0479 193.21 52.9194 192.863 52.9194C192.515 52.9194 192.168 53.0479 191.924 53.3048ZM181.676 68.0432C180.938 68.0432 180.34 68.6598 180.34 69.42C180.34 70.1807 180.938 70.7962 181.676 70.7962H198.424C199.162 70.7962 199.761 70.1807 199.761 69.42C199.761 68.6598 199.162 68.0432 198.424 68.0432H181.676ZM176.324 68.4437C176.075 68.7007 175.925 69.0603 175.925 69.42C175.925 69.7796 176.075 70.1398 176.324 70.3968C176.563 70.6538 176.912 70.7968 177.262 70.7968C177.621 70.7968 177.96 70.6538 178.209 70.3968C178.458 70.1398 178.608 69.7796 178.608 69.42C178.608 69.0603 178.458 68.7007 178.209 68.4437C177.961 68.1878 177.614 68.062 177.268 68.062C176.919 68.062 176.57 68.1905 176.324 68.4437ZM172.936 77.4044C172.198 77.4044 171.6 78.0211 171.6 78.7812C171.6 79.5414 172.198 80.1575 172.936 80.1575H180.146C180.884 80.1575 181.483 79.5414 181.483 78.7812C181.483 78.0211 180.884 77.4044 180.146 77.4044H172.936ZM167.901 77.8066C167.662 78.0635 167.512 78.4226 167.512 78.7828C167.512 79.1425 167.662 79.5022 167.901 79.7591C168.15 80.0059 168.5 80.1602 168.848 80.1602C169.198 80.1602 169.547 80.0059 169.796 79.7591C170.045 79.5022 170.185 79.1425 170.185 78.7828C170.185 78.413 170.045 78.0635 169.796 77.8066C169.547 77.5501 169.198 77.4216 168.848 77.4216C168.499 77.4216 168.15 77.5501 167.901 77.8066ZM175.094 72.7241C174.356 72.7241 173.758 73.3402 173.758 74.1003C173.758 74.8605 174.356 75.4771 175.094 75.4771H189.108C189.846 75.4771 190.444 74.8605 190.444 74.1003C190.444 73.3402 189.846 72.7241 189.108 72.7241H175.094ZM191.924 73.13C191.675 73.3869 191.534 73.7369 191.534 74.1068C191.534 74.4664 191.675 74.8256 191.924 75.0723C192.174 75.3293 192.512 75.4739 192.872 75.4739C193.221 75.4739 193.569 75.3293 193.809 75.0723C194.058 74.8159 194.208 74.4664 194.208 74.1068C194.208 73.7369 194.058 73.3869 193.809 73.13C193.564 72.873 193.215 72.7445 192.867 72.7445C192.517 72.7445 192.168 72.873 191.924 73.13Z" fill="#304FF8"/>
<path d="M44.512 183.04V192H40.224V183.04L31.792 168.864H35.584C35.9573 168.864 36.2507 168.955 36.464 169.136C36.688 169.317 36.8747 169.547 37.024 169.824L41.248 177.552C41.4933 178.011 41.7067 178.443 41.888 178.848C42.08 179.253 42.2507 179.659 42.4 180.064C42.5387 179.659 42.6987 179.253 42.88 178.848C43.0613 178.443 43.2693 178.011 43.504 177.552L47.712 169.824C47.8293 169.589 48.0053 169.371 48.24 169.168C48.4747 168.965 48.7733 168.864 49.136 168.864H52.944L44.512 183.04ZM58.341 175.328C59.557 175.328 60.661 175.525 61.653 175.92C62.6557 176.315 63.509 176.875 64.213 177.6C64.9277 178.325 65.477 179.211 65.861 180.256C66.245 181.301 66.437 182.469 66.437 183.76C66.437 185.061 66.245 186.235 65.861 187.28C65.477 188.325 64.9277 189.216 64.213 189.952C63.509 190.688 62.6557 191.253 61.653 191.648C60.661 192.043 59.557 192.24 58.341 192.24C57.1143 192.24 55.9997 192.043 54.997 191.648C53.9943 191.253 53.1357 190.688 52.421 189.952C51.717 189.216 51.1677 188.325 50.773 187.28C50.389 186.235 50.197 185.061 50.197 183.76C50.197 182.469 50.389 181.301 50.773 180.256C51.1677 179.211 51.717 178.325 52.421 177.6C53.1357 176.875 53.9943 176.315 54.997 175.92C55.9997 175.525 57.1143 175.328 58.341 175.328ZM58.341 189.2C59.7063 189.2 60.7143 188.741 61.365 187.824C62.0263 186.907 62.357 185.563 62.357 183.792C62.357 182.021 62.0263 180.672 61.365 179.744C60.7143 178.816 59.7063 178.352 58.341 178.352C56.9543 178.352 55.925 178.821 55.253 179.76C54.5917 180.688 54.261 182.032 54.261 183.792C54.261 185.552 54.5917 186.896 55.253 187.824C55.925 188.741 56.9543 189.2 58.341 189.2ZM83.596 175.584V192H81.18C80.6573 192 80.3267 191.76 80.188 191.28L79.916 189.968C79.244 190.651 78.5027 191.205 77.692 191.632C76.8813 192.048 75.9267 192.256 74.828 192.256C73.932 192.256 73.1373 192.107 72.444 191.808C71.7613 191.499 71.1853 191.067 70.716 190.512C70.2467 189.957 69.8893 189.301 69.644 188.544C69.4093 187.776 69.292 186.933 69.292 186.016V175.584H73.244V186.016C73.244 187.019 73.4733 187.797 73.932 188.352C74.4013 188.896 75.1 189.168 76.028 189.168C76.7107 189.168 77.3507 189.019 77.948 188.72C78.5453 188.411 79.1107 187.989 79.644 187.456V175.584H83.596ZM91.2425 178.432C91.7545 177.451 92.3625 176.683 93.0665 176.128C93.7705 175.563 94.6025 175.28 95.5625 175.28C96.3198 175.28 96.9278 175.445 97.3865 175.776L97.1305 178.736C97.0772 178.928 96.9972 179.067 96.8905 179.152C96.7945 179.227 96.6612 179.264 96.4905 179.264C96.3305 179.264 96.0905 179.237 95.7705 179.184C95.4612 179.131 95.1572 179.104 94.8585 179.104C94.4212 179.104 94.0318 179.168 93.6905 179.296C93.3492 179.424 93.0398 179.611 92.7625 179.856C92.4958 180.091 92.2558 180.379 92.0425 180.72C91.8398 181.061 91.6478 181.451 91.4665 181.888V192H87.5145V175.584H89.8345C90.2398 175.584 90.5225 175.659 90.6825 175.808C90.8425 175.947 90.9492 176.203 91.0025 176.576L91.2425 178.432ZM106.546 192V175.584H108.962C109.474 175.584 109.81 175.824 109.97 176.304L110.226 177.52C110.514 177.2 110.812 176.907 111.122 176.64C111.442 176.373 111.778 176.144 112.13 175.952C112.492 175.76 112.876 175.611 113.282 175.504C113.698 175.387 114.151 175.328 114.642 175.328C115.676 175.328 116.524 175.611 117.186 176.176C117.858 176.731 118.359 177.472 118.69 178.4C118.946 177.856 119.266 177.392 119.65 177.008C120.034 176.613 120.455 176.293 120.914 176.048C121.372 175.803 121.858 175.621 122.37 175.504C122.892 175.387 123.415 175.328 123.938 175.328C124.844 175.328 125.65 175.467 126.354 175.744C127.058 176.021 127.65 176.427 128.13 176.96C128.61 177.493 128.972 178.144 129.218 178.912C129.474 179.68 129.602 180.56 129.602 181.552V192H125.65V181.552C125.65 180.507 125.42 179.723 124.962 179.2C124.503 178.667 123.831 178.4 122.946 178.4C122.54 178.4 122.162 178.469 121.81 178.608C121.468 178.747 121.164 178.949 120.898 179.216C120.642 179.472 120.439 179.797 120.29 180.192C120.14 180.587 120.066 181.04 120.066 181.552V192H116.098V181.552C116.098 180.453 115.874 179.653 115.426 179.152C114.988 178.651 114.343 178.4 113.49 178.4C112.914 178.4 112.375 178.544 111.874 178.832C111.383 179.109 110.924 179.493 110.498 179.984V192H106.546ZM142.03 184.992C140.889 185.045 139.929 185.147 139.15 185.296C138.372 185.435 137.748 185.616 137.278 185.84C136.809 186.064 136.473 186.325 136.27 186.624C136.068 186.923 135.966 187.248 135.966 187.6C135.966 188.293 136.169 188.789 136.574 189.088C136.99 189.387 137.529 189.536 138.19 189.536C139.001 189.536 139.7 189.392 140.286 189.104C140.884 188.805 141.465 188.357 142.03 187.76V184.992ZM132.974 177.872C134.862 176.144 137.134 175.28 139.79 175.28C140.75 175.28 141.609 175.44 142.366 175.76C143.124 176.069 143.764 176.507 144.286 177.072C144.809 177.627 145.204 178.293 145.47 179.072C145.748 179.851 145.886 180.704 145.886 181.632V192H144.094C143.721 192 143.433 191.947 143.23 191.84C143.028 191.723 142.868 191.493 142.75 191.152L142.398 189.968C141.982 190.341 141.577 190.672 141.182 190.96C140.788 191.237 140.377 191.472 139.95 191.664C139.524 191.856 139.065 192 138.574 192.096C138.094 192.203 137.561 192.256 136.974 192.256C136.281 192.256 135.641 192.165 135.054 191.984C134.468 191.792 133.961 191.509 133.534 191.136C133.108 190.763 132.777 190.299 132.542 189.744C132.308 189.189 132.19 188.544 132.19 187.808C132.19 187.392 132.26 186.981 132.398 186.576C132.537 186.16 132.761 185.765 133.07 185.392C133.39 185.019 133.801 184.667 134.302 184.336C134.804 184.005 135.417 183.717 136.142 183.472C136.878 183.227 137.732 183.029 138.702 182.88C139.673 182.72 140.782 182.624 142.03 182.592V181.632C142.03 180.533 141.796 179.723 141.326 179.2C140.857 178.667 140.18 178.4 139.294 178.4C138.654 178.4 138.121 178.475 137.694 178.624C137.278 178.773 136.91 178.944 136.59 179.136C136.27 179.317 135.977 179.483 135.71 179.632C135.454 179.781 135.166 179.856 134.846 179.856C134.569 179.856 134.334 179.787 134.142 179.648C133.95 179.499 133.796 179.328 133.678 179.136L132.974 177.872ZM154.862 192.256C153.432 192.256 152.334 191.856 151.566 191.056C150.808 190.245 150.43 189.131 150.43 187.712V178.544H148.75C148.536 178.544 148.355 178.475 148.206 178.336C148.056 178.197 147.982 177.989 147.982 177.712V176.144L150.622 175.712L151.454 171.232C151.507 171.019 151.608 170.853 151.758 170.736C151.907 170.619 152.099 170.56 152.334 170.56H154.382V175.728H158.766V178.544H154.382V187.44C154.382 187.952 154.504 188.352 154.75 188.64C155.006 188.928 155.352 189.072 155.79 189.072C156.035 189.072 156.238 189.045 156.398 188.992C156.568 188.928 156.712 188.864 156.83 188.8C156.958 188.736 157.07 188.677 157.166 188.624C157.262 188.56 157.358 188.528 157.454 188.528C157.571 188.528 157.667 188.56 157.742 188.624C157.816 188.677 157.896 188.763 157.982 188.88L159.166 190.8C158.59 191.28 157.928 191.643 157.182 191.888C156.435 192.133 155.662 192.256 154.862 192.256ZM172.931 179.056C172.813 179.205 172.696 179.323 172.579 179.408C172.472 179.493 172.312 179.536 172.099 179.536C171.896 179.536 171.699 179.477 171.507 179.36C171.315 179.232 171.085 179.093 170.819 178.944C170.552 178.784 170.232 178.645 169.859 178.528C169.496 178.4 169.043 178.336 168.499 178.336C167.805 178.336 167.197 178.464 166.675 178.72C166.152 178.965 165.715 179.323 165.363 179.792C165.021 180.261 164.765 180.832 164.595 181.504C164.424 182.165 164.339 182.917 164.339 183.76C164.339 184.635 164.429 185.413 164.611 186.096C164.803 186.779 165.075 187.355 165.427 187.824C165.779 188.283 166.205 188.635 166.707 188.88C167.208 189.115 167.773 189.232 168.403 189.232C169.032 189.232 169.539 189.157 169.923 189.008C170.317 188.848 170.648 188.677 170.915 188.496C171.181 188.304 171.411 188.133 171.603 187.984C171.805 187.824 172.029 187.744 172.275 187.744C172.595 187.744 172.835 187.867 172.995 188.112L174.131 189.552C173.693 190.064 173.219 190.496 172.707 190.848C172.195 191.189 171.661 191.467 171.107 191.68C170.563 191.883 169.997 192.027 169.411 192.112C168.835 192.197 168.259 192.24 167.683 192.24C166.669 192.24 165.715 192.053 164.819 191.68C163.923 191.296 163.139 190.741 162.467 190.016C161.795 189.291 161.261 188.405 160.867 187.36C160.483 186.304 160.291 185.104 160.291 183.76C160.291 182.555 160.461 181.44 160.803 180.416C161.155 179.381 161.667 178.491 162.339 177.744C163.011 176.987 163.843 176.395 164.835 175.968C165.827 175.541 166.968 175.328 168.259 175.328C169.485 175.328 170.557 175.525 171.475 175.92C172.403 176.315 173.235 176.88 173.971 177.616L172.931 179.056ZM180.56 177.344C181.2 176.747 181.904 176.261 182.672 175.888C183.44 175.515 184.342 175.328 185.376 175.328C186.272 175.328 187.067 175.483 187.76 175.792C188.454 176.091 189.03 176.517 189.488 177.072C189.958 177.616 190.31 178.272 190.544 179.04C190.79 179.797 190.912 180.635 190.912 181.552V192H186.96V181.552C186.96 180.549 186.731 179.776 186.272 179.232C185.814 178.677 185.115 178.4 184.176 178.4C183.494 178.4 182.854 178.555 182.256 178.864C181.659 179.173 181.094 179.595 180.56 180.128V192H176.608V168.224H180.56V177.344ZM205.247 181.904C205.247 181.392 205.172 180.912 205.023 180.464C204.884 180.005 204.671 179.605 204.383 179.264C204.095 178.923 203.727 178.656 203.279 178.464C202.841 178.261 202.329 178.16 201.743 178.16C200.601 178.16 199.7 178.485 199.039 179.136C198.388 179.787 197.972 180.709 197.791 181.904H205.247ZM197.711 184.288C197.775 185.131 197.924 185.861 198.159 186.48C198.393 187.088 198.703 187.595 199.087 188C199.471 188.395 199.924 188.693 200.447 188.896C200.98 189.088 201.567 189.184 202.207 189.184C202.847 189.184 203.396 189.109 203.855 188.96C204.324 188.811 204.729 188.645 205.071 188.464C205.423 188.283 205.727 188.117 205.983 187.968C206.249 187.819 206.505 187.744 206.751 187.744C207.081 187.744 207.327 187.867 207.487 188.112L208.623 189.552C208.185 190.064 207.695 190.496 207.151 190.848C206.607 191.189 206.036 191.467 205.439 191.68C204.852 191.883 204.249 192.027 203.631 192.112C203.023 192.197 202.431 192.24 201.855 192.24C200.713 192.24 199.652 192.053 198.671 191.68C197.689 191.296 196.836 190.736 196.111 190C195.385 189.253 194.815 188.336 194.399 187.248C193.983 186.149 193.775 184.88 193.775 183.44C193.775 182.32 193.956 181.269 194.319 180.288C194.681 179.296 195.199 178.437 195.871 177.712C196.553 176.976 197.38 176.395 198.351 175.968C199.332 175.541 200.436 175.328 201.663 175.328C202.697 175.328 203.652 175.493 204.527 175.824C205.401 176.155 206.153 176.64 206.783 177.28C207.412 177.909 207.903 178.688 208.255 179.616C208.617 180.533 208.799 181.584 208.799 182.768C208.799 183.365 208.735 183.771 208.607 183.984C208.479 184.187 208.233 184.288 207.871 184.288H197.711ZM221.781 178.784C221.674 178.955 221.562 179.077 221.445 179.152C221.327 179.216 221.178 179.248 220.997 179.248C220.805 179.248 220.597 179.195 220.373 179.088C220.159 178.981 219.909 178.864 219.621 178.736C219.333 178.597 219.002 178.475 218.628 178.368C218.266 178.261 217.834 178.208 217.333 178.208C216.554 178.208 215.941 178.373 215.493 178.704C215.055 179.035 214.837 179.467 214.837 180C214.837 180.352 214.949 180.651 215.173 180.896C215.407 181.131 215.711 181.339 216.085 181.52C216.469 181.701 216.901 181.867 217.381 182.016C217.861 182.155 218.346 182.309 218.837 182.48C219.338 182.651 219.829 182.848 220.309 183.072C220.789 183.285 221.215 183.563 221.589 183.904C221.973 184.235 222.277 184.635 222.501 185.104C222.735 185.573 222.853 186.139 222.853 186.8C222.853 187.589 222.709 188.32 222.421 188.992C222.143 189.653 221.727 190.229 221.173 190.72C220.618 191.2 219.93 191.579 219.109 191.856C218.298 192.123 217.359 192.256 216.293 192.256C215.727 192.256 215.173 192.203 214.629 192.096C214.095 192 213.578 191.861 213.077 191.68C212.586 191.499 212.127 191.285 211.701 191.04C211.285 190.795 210.917 190.528 210.597 190.24L211.509 188.736C211.626 188.555 211.765 188.416 211.924 188.32C212.084 188.224 212.287 188.176 212.533 188.176C212.778 188.176 213.007 188.245 213.221 188.384C213.445 188.523 213.701 188.672 213.989 188.832C214.277 188.992 214.613 189.141 214.997 189.28C215.391 189.419 215.887 189.488 216.485 189.488C216.954 189.488 217.354 189.435 217.685 189.328C218.026 189.211 218.303 189.061 218.517 188.88C218.741 188.699 218.9 188.491 218.997 188.256C219.103 188.011 219.157 187.76 219.157 187.504C219.157 187.12 219.039 186.805 218.805 186.56C218.581 186.315 218.277 186.101 217.892 185.92C217.519 185.739 217.087 185.579 216.597 185.44C216.117 185.291 215.621 185.131 215.109 184.96C214.607 184.789 214.111 184.592 213.621 184.368C213.141 184.133 212.709 183.84 212.325 183.488C211.951 183.136 211.647 182.704 211.413 182.192C211.189 181.68 211.077 181.061 211.077 180.336C211.077 179.664 211.21 179.024 211.477 178.416C211.743 177.808 212.133 177.28 212.645 176.832C213.167 176.373 213.813 176.011 214.581 175.744C215.359 175.467 216.255 175.328 217.269 175.328C218.399 175.328 219.429 175.515 220.357 175.888C221.285 176.261 222.058 176.752 222.677 177.36L221.781 178.784Z" fill="#2A2C2B"/>
<g filter="url(#filter0_d)">
<rect x="20" y="240" width="336" height="64" rx="4" fill="white"/>
</g>
<rect x="288" y="256" width="56" height="32" rx="4" fill="white"/>
<path d="M305.878 269.836C305.834 269.908 305.788 269.962 305.74 269.998C305.692 270.03 305.632 270.046 305.56 270.046C305.484 270.046 305.398 270.014 305.302 269.95C305.21 269.886 305.094 269.816 304.954 269.74C304.818 269.66 304.656 269.588 304.468 269.524C304.28 269.456 304.056 269.422 303.796 269.422C303.556 269.422 303.344 269.452 303.16 269.512C302.98 269.572 302.828 269.656 302.704 269.764C302.58 269.872 302.486 270 302.422 270.148C302.362 270.292 302.332 270.45 302.332 270.622C302.332 270.842 302.39 271.026 302.506 271.174C302.622 271.318 302.774 271.442 302.962 271.546C303.154 271.65 303.372 271.742 303.616 271.822C303.86 271.898 304.108 271.98 304.36 272.068C304.616 272.156 304.866 272.256 305.11 272.368C305.354 272.48 305.57 272.622 305.758 272.794C305.95 272.966 306.104 273.176 306.22 273.424C306.336 273.672 306.394 273.974 306.394 274.33C306.394 274.714 306.328 275.074 306.196 275.41C306.064 275.746 305.872 276.04 305.62 276.292C305.372 276.54 305.064 276.736 304.696 276.88C304.332 277.024 303.916 277.096 303.448 277.096C303.172 277.096 302.902 277.068 302.638 277.012C302.378 276.96 302.128 276.886 301.888 276.79C301.652 276.69 301.43 276.57 301.222 276.43C301.014 276.29 300.828 276.134 300.664 275.962L301.072 275.29C301.108 275.234 301.154 275.19 301.21 275.158C301.266 275.126 301.328 275.11 301.396 275.11C301.488 275.11 301.59 275.154 301.702 275.242C301.814 275.326 301.948 275.42 302.104 275.524C302.264 275.624 302.456 275.718 302.68 275.806C302.904 275.89 303.172 275.932 303.484 275.932C303.992 275.932 304.384 275.808 304.66 275.56C304.94 275.312 305.08 274.97 305.08 274.534C305.08 274.29 305.022 274.092 304.906 273.94C304.79 273.784 304.636 273.654 304.444 273.55C304.256 273.446 304.04 273.358 303.796 273.286C303.552 273.214 303.304 273.138 303.052 273.058C302.8 272.974 302.552 272.878 302.308 272.77C302.064 272.658 301.846 272.514 301.654 272.338C301.466 272.158 301.314 271.938 301.198 271.678C301.082 271.414 301.024 271.086 301.024 270.694C301.024 270.382 301.084 270.08 301.204 269.788C301.328 269.496 301.506 269.238 301.738 269.014C301.974 268.786 302.264 268.604 302.608 268.468C302.952 268.332 303.344 268.264 303.784 268.264C304.28 268.264 304.734 268.342 305.146 268.498C305.562 268.654 305.92 268.876 306.22 269.164L305.878 269.836ZM311.661 273.25C311.661 273.034 311.629 272.834 311.565 272.65C311.505 272.462 311.415 272.3 311.295 272.164C311.175 272.024 311.025 271.916 310.845 271.84C310.669 271.76 310.465 271.72 310.233 271.72C309.765 271.72 309.397 271.854 309.129 272.122C308.861 272.39 308.691 272.766 308.619 273.25H311.661ZM308.583 274.042C308.599 274.39 308.653 274.692 308.745 274.948C308.837 275.2 308.959 275.41 309.111 275.578C309.267 275.746 309.451 275.872 309.663 275.956C309.879 276.036 310.119 276.076 310.383 276.076C310.635 276.076 310.853 276.048 311.037 275.992C311.221 275.932 311.381 275.868 311.517 275.8C311.653 275.728 311.769 275.664 311.865 275.608C311.961 275.548 312.049 275.518 312.129 275.518C312.233 275.518 312.313 275.558 312.369 275.638L312.735 276.112C312.583 276.292 312.411 276.444 312.219 276.568C312.027 276.692 311.823 276.794 311.607 276.874C311.391 276.95 311.169 277.004 310.941 277.036C310.713 277.072 310.491 277.09 310.275 277.09C309.851 277.09 309.457 277.02 309.093 276.88C308.733 276.736 308.419 276.526 308.151 276.25C307.887 275.974 307.679 275.632 307.527 275.224C307.379 274.816 307.305 274.346 307.305 273.814C307.305 273.39 307.371 272.994 307.503 272.626C307.639 272.258 307.831 271.938 308.079 271.666C308.331 271.394 308.635 271.18 308.991 271.024C309.351 270.864 309.757 270.784 310.209 270.784C310.585 270.784 310.933 270.846 311.253 270.97C311.573 271.09 311.849 271.268 312.081 271.504C312.313 271.74 312.493 272.03 312.621 272.374C312.753 272.714 312.819 273.102 312.819 273.538C312.819 273.738 312.797 273.872 312.753 273.94C312.709 274.008 312.629 274.042 312.513 274.042H308.583ZM315.336 268.12V277H314.046V268.12H315.336ZM320.943 273.25C320.943 273.034 320.911 272.834 320.847 272.65C320.787 272.462 320.697 272.3 320.577 272.164C320.457 272.024 320.307 271.916 320.127 271.84C319.951 271.76 319.747 271.72 319.515 271.72C319.047 271.72 318.679 271.854 318.411 272.122C318.143 272.39 317.973 272.766 317.901 273.25H320.943ZM317.865 274.042C317.881 274.39 317.935 274.692 318.027 274.948C318.119 275.2 318.241 275.41 318.393 275.578C318.549 275.746 318.733 275.872 318.945 275.956C319.161 276.036 319.401 276.076 319.665 276.076C319.917 276.076 320.135 276.048 320.319 275.992C320.503 275.932 320.663 275.868 320.799 275.8C320.935 275.728 321.051 275.664 321.147 275.608C321.243 275.548 321.331 275.518 321.411 275.518C321.515 275.518 321.595 275.558 321.651 275.638L322.017 276.112C321.865 276.292 321.693 276.444 321.501 276.568C321.309 276.692 321.105 276.794 320.889 276.874C320.673 276.95 320.451 277.004 320.223 277.036C319.995 277.072 319.773 277.09 319.557 277.09C319.133 277.09 318.739 277.02 318.375 276.88C318.015 276.736 317.701 276.526 317.433 276.25C317.169 275.974 316.961 275.632 316.809 275.224C316.661 274.816 316.587 274.346 316.587 273.814C316.587 273.39 316.653 272.994 316.785 272.626C316.921 272.258 317.113 271.938 317.361 271.666C317.613 271.394 317.917 271.18 318.273 271.024C318.633 270.864 319.039 270.784 319.491 270.784C319.867 270.784 320.215 270.846 320.535 270.97C320.855 271.09 321.131 271.268 321.363 271.504C321.595 271.74 321.775 272.03 321.903 272.374C322.035 272.714 322.101 273.102 322.101 273.538C322.101 273.738 322.079 273.872 322.035 273.94C321.991 274.008 321.911 274.042 321.795 274.042H317.865ZM327.63 272.08C327.59 272.132 327.552 272.172 327.516 272.2C327.48 272.228 327.428 272.242 327.36 272.242C327.292 272.242 327.22 272.218 327.144 272.17C327.072 272.122 326.984 272.07 326.88 272.014C326.78 271.954 326.658 271.9 326.514 271.852C326.37 271.804 326.19 271.78 325.974 271.78C325.694 271.78 325.448 271.83 325.236 271.93C325.028 272.03 324.852 272.174 324.708 272.362C324.568 272.546 324.462 272.772 324.39 273.04C324.322 273.304 324.288 273.602 324.288 273.934C324.288 274.278 324.326 274.584 324.402 274.852C324.478 275.12 324.586 275.346 324.726 275.53C324.87 275.714 325.042 275.854 325.242 275.95C325.446 276.046 325.674 276.094 325.926 276.094C326.174 276.094 326.376 276.064 326.532 276.004C326.688 275.944 326.818 275.878 326.922 275.806C327.026 275.734 327.114 275.668 327.186 275.608C327.262 275.548 327.342 275.518 327.426 275.518C327.53 275.518 327.61 275.558 327.666 275.638L328.032 276.112C327.884 276.292 327.72 276.444 327.54 276.568C327.36 276.692 327.17 276.794 326.97 276.874C326.77 276.95 326.562 277.004 326.346 277.036C326.13 277.072 325.912 277.09 325.692 277.09C325.312 277.09 324.956 277.02 324.624 276.88C324.296 276.736 324.008 276.53 323.76 276.262C323.516 275.99 323.322 275.66 323.178 275.272C323.038 274.88 322.968 274.434 322.968 273.934C322.968 273.482 323.032 273.064 323.16 272.68C323.288 272.292 323.474 271.958 323.718 271.678C323.966 271.398 324.272 271.18 324.636 271.024C325 270.864 325.42 270.784 325.896 270.784C326.34 270.784 326.73 270.856 327.066 271C327.406 271.144 327.708 271.348 327.972 271.612L327.63 272.08ZM331.031 277.096C330.523 277.096 330.131 276.954 329.855 276.67C329.583 276.382 329.447 275.978 329.447 275.458V271.894H328.775C328.703 271.894 328.641 271.872 328.589 271.828C328.537 271.78 328.511 271.71 328.511 271.618V271.096L329.501 270.952L329.783 269.182C329.803 269.114 329.837 269.06 329.885 269.02C329.933 268.976 329.997 268.954 330.077 268.954H330.737V270.964H332.435V271.894H330.737V275.368C330.737 275.588 330.791 275.756 330.899 275.872C331.007 275.988 331.151 276.046 331.331 276.046C331.431 276.046 331.517 276.034 331.589 276.01C331.661 275.982 331.723 275.954 331.775 275.926C331.827 275.894 331.871 275.866 331.907 275.842C331.947 275.814 331.985 275.8 332.021 275.8C332.093 275.8 332.151 275.84 332.195 275.92L332.579 276.55C332.379 276.726 332.143 276.862 331.871 276.958C331.599 277.05 331.319 277.096 331.031 277.096Z" fill="#7D8380"/>
<path fill-rule="evenodd" clip-rule="evenodd" d="M53.362 262.5C52.5432 262.5 51.7747 262.659 51.0563 262.977C50.338 263.294 49.6693 263.771 49.051 264.406V262.86H45.6553V282H49.051V275.393C49.7196 276.045 50.3921 276.515 51.0685 276.803C51.7459 277.09 52.4764 277.235 53.2621 277.235C55.024 277.235 56.549 276.532 57.8355 275.129C59.122 273.725 59.7652 271.98 59.7652 269.893C59.7652 267.729 59.1435 265.956 57.8984 264.574C56.6539 263.192 55.1416 262.501 53.362 262.501V262.5ZM55.2859 272.842C54.5715 273.624 53.6922 274.015 52.6476 274.015C51.5698 274.015 50.6759 273.631 49.9663 272.862C49.2563 272.094 48.9013 271.087 48.9013 269.841C48.9013 268.622 49.2563 267.635 49.9663 266.879C50.6759 266.124 51.5698 265.746 52.6481 265.746C53.7171 265.746 54.6027 266.131 55.3045 266.899C56.0062 267.667 56.3569 268.653 56.3569 269.854C56.3569 271.065 55.9994 272.061 55.2859 272.842ZM65.3521 263.041C64.8254 263.401 64.404 263.93 64.0861 264.626V262.861H61.1537V276.874H64.5499V271.207L64.5372 270.524C64.5372 268.566 64.7191 267.252 65.0824 266.582C65.4457 265.913 65.891 265.578 66.4172 265.578C66.6761 265.578 67.0058 265.681 67.4072 265.887L68.4722 262.86C67.9875 262.62 67.5237 262.5 67.0814 262.5C66.4639 262.497 65.8604 262.686 65.3521 263.041V263.041ZM103.665 262.5C102.846 262.5 102.077 262.659 101.359 262.977C100.641 263.294 99.9723 263.771 99.3539 264.406V262.86H95.9582V282H99.3539V275.393C100.022 276.045 100.695 276.515 101.371 276.803C102.048 277.09 102.779 277.235 103.565 277.235C105.327 277.235 106.851 276.532 108.138 275.129C109.424 273.725 110.068 271.98 110.068 269.893C110.068 267.729 109.445 265.956 108.201 264.574C106.956 263.192 105.444 262.501 103.665 262.501V262.5ZM105.588 272.842C104.874 273.624 103.995 274.015 102.95 274.015C101.872 274.015 100.979 273.631 100.269 272.862C99.5588 272.094 99.2037 271.087 99.2037 269.841C99.2037 268.622 99.5588 267.635 100.269 266.879C100.979 266.124 101.873 265.746 102.95 265.746C104.02 265.746 104.905 266.131 105.607 266.899C106.309 267.667 106.66 268.653 106.66 269.854C106.66 271.065 106.303 272.061 105.588 272.842ZM79.5532 263.492C78.4213 262.83 77.2124 262.5 75.9259 262.5C74.1464 262.5 72.5712 263.136 71.2013 264.406C69.6393 265.866 68.858 267.69 68.858 269.881C68.858 271.924 69.5495 273.661 70.9321 275.09C72.3147 276.519 73.9835 277.235 75.9381 277.235C77.2665 277.235 78.4818 276.91 79.5849 276.262C80.6876 275.614 81.5586 274.715 82.1974 273.564C82.8315 272.433 83.162 271.155 83.1562 269.854C83.1562 268.541 82.8382 267.317 82.2038 266.184C81.5688 265.05 80.6852 264.153 79.5532 263.492ZM78.6442 272.817C77.9322 273.581 77.0412 273.963 75.9698 273.963C74.8989 273.963 74.0142 273.585 73.3154 272.83C72.616 272.074 72.2669 271.087 72.2669 269.867C72.2669 268.683 72.6204 267.71 73.328 266.95C74.0347 266.19 74.9198 265.81 75.983 265.81C77.0705 265.81 77.9634 266.186 78.6628 266.937C79.3611 267.689 79.7103 268.665 79.7103 269.867C79.7103 271.07 79.3543 272.053 78.6442 272.817ZM119.248 262.587C115.33 262.587 112.154 265.852 112.154 269.879C112.154 273.399 114.996 276.513 118.222 277.198L122.198 272.813L118.222 268.31V273.206C116.849 272.758 115.853 271.439 115.853 269.879C115.853 267.952 117.373 266.389 119.248 266.389C121.072 266.389 122.554 267.8 122.635 269.857L122.64 269.847V269.973C122.64 269.993 122.642 270.011 122.642 270.032C122.642 270.049 122.64 270.066 122.64 270.084V276.522C122.641 276.522 122.642 276.521 122.642 276.521V277.029H126.33V270.301C126.335 270.169 126.345 270.044 126.345 269.909V269.895C126.33 265.195 123.167 262.587 119.248 262.587ZM90.447 268.373L89.1937 267.729C88.6509 267.454 88.31 267.238 88.1725 267.079C88.0345 266.92 87.9657 266.747 87.9657 266.557C87.9657 266.308 88.0744 266.1 88.2915 265.933C88.509 265.765 88.8094 265.681 89.1937 265.681C89.8959 265.681 90.6762 266.119 91.5369 266.995L93.6549 264.819C93.1117 264.071 92.4499 263.498 91.6691 263.099C90.8945 262.702 90.0374 262.496 89.1688 262.501C87.8735 262.501 86.8109 262.893 85.9794 263.678C85.1484 264.464 84.7324 265.411 84.7324 266.519C84.7324 268.236 85.8355 269.665 88.0408 270.807L89.1937 271.4C90.1875 271.915 90.6845 272.443 90.6845 272.985C90.6845 273.276 90.547 273.533 90.2714 273.757C89.9959 273.98 89.6326 274.092 89.1815 274.092C88.763 274.092 88.2851 273.944 87.7462 273.647C87.2084 273.352 86.7303 272.956 86.3368 272.482L84.2311 274.839C85.4176 276.436 87.005 277.235 88.9932 277.235C90.4884 277.235 91.6813 276.818 92.5708 275.986C93.4608 275.153 93.9056 274.113 93.9056 272.868C93.9056 271.933 93.6593 271.117 93.1663 270.421C92.6728 269.726 91.7666 269.043 90.447 268.373Z" fill="#39B672"/>
<g filter="url(#filter1_d)">
<rect x="20" y="312" width="336" height="64" rx="4" fill="white"/>
</g>
<rect x="288" y="328" width="56" height="32" rx="4" fill="white"/>
<path d="M305.878 341.836C305.834 341.908 305.788 341.962 305.74 341.998C305.692 342.03 305.632 342.046 305.56 342.046C305.484 342.046 305.398 342.014 305.302 341.95C305.21 341.886 305.094 341.816 304.954 341.74C304.818 341.66 304.656 341.588 304.468 341.524C304.28 341.456 304.056 341.422 303.796 341.422C303.556 341.422 303.344 341.452 303.16 341.512C302.98 341.572 302.828 341.656 302.704 341.764C302.58 341.872 302.486 342 302.422 342.148C302.362 342.292 302.332 342.45 302.332 342.622C302.332 342.842 302.39 343.026 302.506 343.174C302.622 343.318 302.774 343.442 302.962 343.546C303.154 343.65 303.372 343.742 303.616 343.822C303.86 343.898 304.108 343.98 304.36 344.068C304.616 344.156 304.866 344.256 305.11 344.368C305.354 344.48 305.57 344.622 305.758 344.794C305.95 344.966 306.104 345.176 306.22 345.424C306.336 345.672 306.394 345.974 306.394 346.33C306.394 346.714 306.328 347.074 306.196 347.41C306.064 347.746 305.872 348.04 305.62 348.292C305.372 348.54 305.064 348.736 304.696 348.88C304.332 349.024 303.916 349.096 303.448 349.096C303.172 349.096 302.902 349.068 302.638 349.012C302.378 348.96 302.128 348.886 301.888 348.79C301.652 348.69 301.43 348.57 301.222 348.43C301.014 348.29 300.828 348.134 300.664 347.962L301.072 347.29C301.108 347.234 301.154 347.19 301.21 347.158C301.266 347.126 301.328 347.11 301.396 347.11C301.488 347.11 301.59 347.154 301.702 347.242C301.814 347.326 301.948 347.42 302.104 347.524C302.264 347.624 302.456 347.718 302.68 347.806C302.904 347.89 303.172 347.932 303.484 347.932C303.992 347.932 304.384 347.808 304.66 347.56C304.94 347.312 305.08 346.97 305.08 346.534C305.08 346.29 305.022 346.092 304.906 345.94C304.79 345.784 304.636 345.654 304.444 345.55C304.256 345.446 304.04 345.358 303.796 345.286C303.552 345.214 303.304 345.138 303.052 345.058C302.8 344.974 302.552 344.878 302.308 344.77C302.064 344.658 301.846 344.514 301.654 344.338C301.466 344.158 301.314 343.938 301.198 343.678C301.082 343.414 301.024 343.086 301.024 342.694C301.024 342.382 301.084 342.08 301.204 341.788C301.328 341.496 301.506 341.238 301.738 341.014C301.974 340.786 302.264 340.604 302.608 340.468C302.952 340.332 303.344 340.264 303.784 340.264C304.28 340.264 304.734 340.342 305.146 340.498C305.562 340.654 305.92 340.876 306.22 341.164L305.878 341.836ZM311.661 345.25C311.661 345.034 311.629 344.834 311.565 344.65C311.505 344.462 311.415 344.3 311.295 344.164C311.175 344.024 311.025 343.916 310.845 343.84C310.669 343.76 310.465 343.72 310.233 343.72C309.765 343.72 309.397 343.854 309.129 344.122C308.861 344.39 308.691 344.766 308.619 345.25H311.661ZM308.583 346.042C308.599 346.39 308.653 346.692 308.745 346.948C308.837 347.2 308.959 347.41 309.111 347.578C309.267 347.746 309.451 347.872 309.663 347.956C309.879 348.036 310.119 348.076 310.383 348.076C310.635 348.076 310.853 348.048 311.037 347.992C311.221 347.932 311.381 347.868 311.517 347.8C311.653 347.728 311.769 347.664 311.865 347.608C311.961 347.548 312.049 347.518 312.129 347.518C312.233 347.518 312.313 347.558 312.369 347.638L312.735 348.112C312.583 348.292 312.411 348.444 312.219 348.568C312.027 348.692 311.823 348.794 311.607 348.874C311.391 348.95 311.169 349.004 310.941 349.036C310.713 349.072 310.491 349.09 310.275 349.09C309.851 349.09 309.457 349.02 309.093 348.88C308.733 348.736 308.419 348.526 308.151 348.25C307.887 347.974 307.679 347.632 307.527 347.224C307.379 346.816 307.305 346.346 307.305 345.814C307.305 345.39 307.371 344.994 307.503 344.626C307.639 344.258 307.831 343.938 308.079 343.666C308.331 343.394 308.635 343.18 308.991 343.024C309.351 342.864 309.757 342.784 310.209 342.784C310.585 342.784 310.933 342.846 311.253 342.97C311.573 343.09 311.849 343.268 312.081 343.504C312.313 343.74 312.493 344.03 312.621 344.374C312.753 344.714 312.819 345.102 312.819 345.538C312.819 345.738 312.797 345.872 312.753 345.94C312.709 346.008 312.629 346.042 312.513 346.042H308.583ZM315.336 340.12V349H314.046V340.12H315.336ZM320.943 345.25C320.943 345.034 320.911 344.834 320.847 344.65C320.787 344.462 320.697 344.3 320.577 344.164C320.457 344.024 320.307 343.916 320.127 343.84C319.951 343.76 319.747 343.72 319.515 343.72C319.047 343.72 318.679 343.854 318.411 344.122C318.143 344.39 317.973 344.766 317.901 345.25H320.943ZM317.865 346.042C317.881 346.39 317.935 346.692 318.027 346.948C318.119 347.2 318.241 347.41 318.393 347.578C318.549 347.746 318.733 347.872 318.945 347.956C319.161 348.036 319.401 348.076 319.665 348.076C319.917 348.076 320.135 348.048 320.319 347.992C320.503 347.932 320.663 347.868 320.799 347.8C320.935 347.728 321.051 347.664 321.147 347.608C321.243 347.548 321.331 347.518 321.411 347.518C321.515 347.518 321.595 347.558 321.651 347.638L322.017 348.112C321.865 348.292 321.693 348.444 321.501 348.568C321.309 348.692 321.105 348.794 320.889 348.874C320.673 348.95 320.451 349.004 320.223 349.036C319.995 349.072 319.773 349.09 319.557 349.09C319.133 349.09 318.739 349.02 318.375 348.88C318.015 348.736 317.701 348.526 317.433 348.25C317.169 347.974 316.961 347.632 316.809 347.224C316.661 346.816 316.587 346.346 316.587 345.814C316.587 345.39 316.653 344.994 316.785 344.626C316.921 344.258 317.113 343.938 317.361 343.666C317.613 343.394 317.917 343.18 318.273 343.024C318.633 342.864 319.039 342.784 319.491 342.784C319.867 342.784 320.215 342.846 320.535 342.97C320.855 343.09 321.131 343.268 321.363 343.504C321.595 343.74 321.775 344.03 321.903 344.374C322.035 344.714 322.101 345.102 322.101 345.538C322.101 345.738 322.079 345.872 322.035 345.94C321.991 346.008 321.911 346.042 321.795 346.042H317.865ZM327.63 344.08C327.59 344.132 327.552 344.172 327.516 344.2C327.48 344.228 327.428 344.242 327.36 344.242C327.292 344.242 327.22 344.218 327.144 344.17C327.072 344.122 326.984 344.07 326.88 344.014C326.78 343.954 326.658 343.9 326.514 343.852C326.37 343.804 326.19 343.78 325.974 343.78C325.694 343.78 325.448 343.83 325.236 343.93C325.028 344.03 324.852 344.174 324.708 344.362C324.568 344.546 324.462 344.772 324.39 345.04C324.322 345.304 324.288 345.602 324.288 345.934C324.288 346.278 324.326 346.584 324.402 346.852C324.478 347.12 324.586 347.346 324.726 347.53C324.87 347.714 325.042 347.854 325.242 347.95C325.446 348.046 325.674 348.094 325.926 348.094C326.174 348.094 326.376 348.064 326.532 348.004C326.688 347.944 326.818 347.878 326.922 347.806C327.026 347.734 327.114 347.668 327.186 347.608C327.262 347.548 327.342 347.518 327.426 347.518C327.53 347.518 327.61 347.558 327.666 347.638L328.032 348.112C327.884 348.292 327.72 348.444 327.54 348.568C327.36 348.692 327.17 348.794 326.97 348.874C326.77 348.95 326.562 349.004 326.346 349.036C326.13 349.072 325.912 349.09 325.692 349.09C325.312 349.09 324.956 349.02 324.624 348.88C324.296 348.736 324.008 348.53 323.76 348.262C323.516 347.99 323.322 347.66 323.178 347.272C323.038 346.88 322.968 346.434 322.968 345.934C322.968 345.482 323.032 345.064 323.16 344.68C323.288 344.292 323.474 343.958 323.718 343.678C323.966 343.398 324.272 343.18 324.636 343.024C325 342.864 325.42 342.784 325.896 342.784C326.34 342.784 326.73 342.856 327.066 343C327.406 343.144 327.708 343.348 327.972 343.612L327.63 344.08ZM331.031 349.096C330.523 349.096 330.131 348.954 329.855 348.67C329.583 348.382 329.447 347.978 329.447 347.458V343.894H328.775C328.703 343.894 328.641 343.872 328.589 343.828C328.537 343.78 328.511 343.71 328.511 343.618V343.096L329.501 342.952L329.783 341.182C329.803 341.114 329.837 341.06 329.885 341.02C329.933 340.976 329.997 340.954 330.077 340.954H330.737V342.964H332.435V343.894H330.737V347.368C330.737 347.588 330.791 347.756 330.899 347.872C331.007 347.988 331.151 348.046 331.331 348.046C331.431 348.046 331.517 348.034 331.589 348.01C331.661 347.982 331.723 347.954 331.775 347.926C331.827 347.894 331.871 347.866 331.907 347.842C331.947 347.814 331.985 347.8 332.021 347.8C332.093 347.8 332.151 347.84 332.195 347.92L332.579 348.55C332.379 348.726 332.143 348.862 331.871 348.958C331.599 349.05 331.319 349.096 331.031 349.096Z" fill="#7D8380"/>
<path d="M81.3078 346.277C80.8803 346.903 80.3212 347.38 79.6303 347.708C78.9394 348.036 78.1913 348.2 77.3861 348.2C76.1336 348.2 75.0873 347.788 74.2473 346.963C73.4073 346.138 72.9873 345.129 72.9873 343.936C72.9873 342.743 73.4098 341.721 74.2548 340.871C75.0997 340.022 76.1932 339.597 77.5352 339.597C78.3305 339.597 79.0636 339.771 79.7346 340.118C80.4057 340.466 80.93 340.954 81.3078 341.58L80.3385 342.191C79.6129 341.247 78.6635 340.775 77.4905 340.775C76.566 340.775 75.7906 341.07 75.1643 341.662C74.5381 342.253 74.2249 342.986 74.2249 343.861C74.2249 344.736 74.5331 345.487 75.1494 346.113C75.7658 346.739 76.5461 347.052 77.4905 347.052C78.6238 347.052 79.5781 346.575 80.3535 345.621L81.3078 346.277ZM91.9494 347.932H90.7416V346.739C89.8569 347.713 88.838 348.2 87.6848 348.2C86.5317 348.2 85.5451 347.775 84.7249 346.925C83.9048 346.076 83.4948 345.062 83.4948 343.884C83.4948 342.706 83.9073 341.697 84.7324 340.857C85.5575 340.017 86.564 339.597 87.7519 339.597C88.9399 339.597 89.9364 340.079 90.7416 341.043V339.805H91.9494V347.932ZM87.7743 347.052C88.5994 347.052 89.3101 346.754 89.9066 346.158C90.503 345.561 90.8013 344.818 90.8013 343.928C90.8013 343.039 90.508 342.293 89.9215 341.692C89.335 341.09 88.6168 340.789 87.7668 340.789C86.9169 340.789 86.1987 341.1 85.6122 341.721C85.0256 342.343 84.7324 343.076 84.7324 343.921C84.7324 344.766 85.0306 345.499 85.6271 346.12C86.2235 346.742 86.9393 347.052 87.7743 347.052ZM96.1196 341.043C96.9248 340.079 97.9189 339.597 99.1019 339.597C100.285 339.597 101.289 340.017 102.114 340.857C102.939 341.697 103.352 342.708 103.352 343.891C103.352 345.074 102.944 346.088 102.129 346.933C101.314 347.778 100.33 348.2 99.1764 348.2C98.0233 348.2 97.0044 347.713 96.1196 346.739V350.81H94.8969V339.805H96.1196V341.043ZM99.1019 347.052C99.917 347.052 100.625 346.747 101.227 346.135C101.828 345.524 102.129 344.786 102.129 343.921C102.129 343.056 101.833 342.318 101.242 341.707C100.65 341.095 99.927 340.789 99.072 340.789C98.2171 340.789 97.4989 341.09 96.9174 341.692C96.3358 342.293 96.0451 343.036 96.0451 343.921C96.0451 344.806 96.3433 345.549 96.9397 346.15C97.5362 346.751 98.2569 347.052 99.1019 347.052ZM106.359 336.749C106.627 336.749 106.853 336.84 107.037 337.024C107.221 337.208 107.313 337.432 107.313 337.695C107.313 337.959 107.221 338.182 107.037 338.366C106.853 338.55 106.63 338.642 106.366 338.642C106.103 338.642 105.879 338.548 105.695 338.359C105.511 338.17 105.419 337.949 105.419 337.695C105.419 337.442 105.511 337.221 105.695 337.032C105.879 336.843 106.1 336.749 106.359 336.749ZM106.985 347.932H105.747V339.805H106.985V347.932ZM123.72 347.932H122.513V346.739C121.628 347.713 120.609 348.2 119.456 348.2C118.303 348.2 117.316 347.775 116.496 346.925C115.676 346.076 115.266 345.062 115.266 343.884C115.266 342.706 115.678 341.697 116.503 340.857C117.328 340.017 118.335 339.597 119.523 339.597C120.711 339.597 121.707 340.079 122.513 341.043V339.805H123.72V347.932ZM119.545 347.052C120.37 347.052 121.081 346.754 121.677 346.158C122.274 345.561 122.572 344.818 122.572 343.928C122.572 343.039 122.279 342.293 121.692 341.692C121.106 341.09 120.388 340.789 119.538 340.789C118.688 340.789 117.97 341.1 117.383 341.721C116.797 342.343 116.503 343.076 116.503 343.921C116.503 344.766 116.802 345.499 117.398 346.12C117.994 346.742 118.71 347.052 119.545 347.052ZM127.726 347.932H126.504V336.749H127.726V347.932Z" fill="#1B3642"/>
<path fill-rule="evenodd" clip-rule="evenodd" d="M106.359 336.997C106.169 336.997 106.011 337.063 105.873 337.205C105.732 337.35 105.668 337.509 105.668 337.695C105.668 337.881 105.732 338.041 105.873 338.186C106.01 338.326 106.17 338.394 106.366 338.394C106.565 338.394 106.725 338.327 106.861 338.191C106.998 338.054 107.064 337.894 107.064 337.695C107.064 337.497 106.998 337.337 106.861 337.2C106.726 337.064 106.564 336.997 106.359 336.997ZM105.517 336.858C105.747 336.623 106.032 336.5 106.359 336.5C106.691 336.5 106.981 336.616 107.213 336.849C107.444 337.08 107.562 337.367 107.562 337.695C107.562 338.024 107.444 338.311 107.213 338.542C106.982 338.773 106.695 338.891 106.366 338.891C106.036 338.891 105.748 338.769 105.517 338.532C105.29 338.299 105.171 338.016 105.171 337.695C105.171 337.374 105.29 337.092 105.517 336.858ZM126.255 336.5H127.975V348.18H126.255V336.5ZM126.752 336.997V347.683H127.478V336.997H126.752ZM77.5352 339.845C76.2507 339.845 75.2235 340.249 74.431 341.047C73.6321 341.85 73.2358 342.809 73.2358 343.936C73.2358 345.063 73.6297 346.008 74.4214 346.785C75.2118 347.562 76.1941 347.952 77.3861 347.952C78.1564 347.952 78.8678 347.795 79.5237 347.484C80.0992 347.211 80.576 346.829 80.9568 346.337L80.3975 345.953C79.6054 346.844 78.633 347.301 77.4905 347.301C76.485 347.301 75.6391 346.965 74.9723 346.287C74.3104 345.615 73.9764 344.802 73.9764 343.861C73.9764 342.919 74.3168 342.12 74.9937 341.481C75.6697 340.843 76.5076 340.526 77.4905 340.526C78.6664 340.526 79.6394 340.976 80.3929 341.863L80.9625 341.504C80.6226 341.015 80.1765 340.628 79.6202 340.339C78.9864 340.01 78.2928 339.845 77.5352 339.845ZM74.0785 340.696C74.9759 339.794 76.1357 339.348 77.5352 339.348C78.3682 339.348 79.1408 339.531 79.849 339.898C80.5593 340.266 81.1183 340.785 81.5206 341.451L81.6464 341.66L80.2795 342.522L80.1415 342.343C79.462 341.458 78.5849 341.023 77.4905 341.023C76.6243 341.023 75.9115 341.298 75.335 341.842C74.7593 342.386 74.4734 343.054 74.4734 343.861C74.4734 344.67 74.7557 345.358 75.3266 345.938C75.8924 346.513 76.6072 346.804 77.4905 346.804C78.5419 346.804 79.4278 346.366 80.1606 345.464L80.3052 345.286L81.6527 346.212L81.513 346.417C81.0605 347.08 80.4672 347.586 79.7368 347.933C79.0109 348.277 78.2262 348.449 77.3861 348.449C76.073 348.449 74.9628 348.014 74.0731 347.14C73.1849 346.268 72.7388 345.194 72.7388 343.936C72.7388 342.677 73.1875 341.593 74.0785 340.696ZM87.7519 339.845C86.63 339.845 85.6876 340.239 84.9097 341.031C84.1303 341.824 83.7433 342.771 83.7433 343.884C83.7433 344.997 84.1282 345.949 84.9038 346.753C85.6783 347.556 86.6009 347.952 87.6848 347.952C88.7577 347.952 89.7127 347.502 90.5576 346.572L90.9901 346.096V347.683H91.7009V340.054H90.9901V341.728L90.5509 341.202C89.7898 340.291 88.8615 339.845 87.7519 339.845ZM84.5551 340.682C85.4274 339.794 86.498 339.348 87.7519 339.348C88.8087 339.348 89.7251 339.709 90.4931 340.42V339.557H92.198V348.18H90.4931V347.336C89.6684 348.072 88.7308 348.449 87.6848 348.449C86.4624 348.449 85.4118 347.995 84.5461 347.098C83.6814 346.202 83.2462 345.126 83.2462 343.884C83.2462 342.64 83.6843 341.569 84.5551 340.682ZM99.1019 339.845C97.9976 339.845 97.0717 340.291 96.3104 341.202L95.8711 341.728V340.054H95.1454V350.561H95.8711V346.096L96.3036 346.572C97.1486 347.502 98.1036 347.952 99.1764 347.952C100.261 347.952 101.181 347.558 101.95 346.76C102.72 345.962 103.103 345.01 103.103 343.891C103.103 342.773 102.716 341.824 101.937 341.031C101.159 340.239 100.218 339.845 99.1019 339.845ZM96.3681 340.42C97.1352 339.709 98.0491 339.348 99.1019 339.348C100.351 339.348 101.419 339.795 102.291 340.682C103.162 341.569 103.6 342.643 103.6 343.891C103.6 345.138 103.168 346.214 102.308 347.105C101.447 347.998 100.398 348.449 99.1764 348.449C98.1305 348.449 97.1928 348.072 96.3681 347.336V351.058H94.6484V339.557H96.3681V340.42ZM119.523 339.845C118.401 339.845 117.458 340.239 116.681 341.031C115.901 341.824 115.514 342.771 115.514 343.884C115.514 344.997 115.899 345.949 116.675 346.753C117.449 347.556 118.372 347.952 119.456 347.952C120.529 347.952 121.484 347.502 122.329 346.572L122.761 346.096V347.683H123.472V340.054H122.761V341.728L122.322 341.202C121.561 340.291 120.632 339.845 119.523 339.845ZM116.326 340.682C117.198 339.794 118.269 339.348 119.523 339.348C120.58 339.348 121.496 339.709 122.264 340.42V339.557H123.969V348.18H122.264V347.336C121.439 348.072 120.502 348.449 119.456 348.449C118.233 348.449 117.183 347.995 116.317 347.098C115.452 346.202 115.017 345.126 115.017 343.884C115.017 342.64 115.455 341.569 116.326 340.682ZM105.499 339.557H107.233V348.18H105.499V339.557ZM105.996 340.054V347.683H106.736V340.054H105.996ZM85.4314 341.551C86.0646 340.88 86.8481 340.541 87.7668 340.541C88.6829 340.541 89.4655 340.868 90.0994 341.518C90.7341 342.169 91.0498 342.978 91.0498 343.928C91.0498 344.88 90.7281 345.687 90.0823 346.333C89.4404 346.975 88.6669 347.301 87.7743 347.301C86.8692 347.301 86.0894 346.961 85.4478 346.292C84.8078 345.626 84.4839 344.831 84.4839 343.921C84.4839 343.012 84.8019 342.218 85.4314 341.551ZM87.7668 341.038C86.9857 341.038 86.3327 341.32 85.7929 341.892C85.2494 342.468 84.9809 343.14 84.9809 343.921C84.9809 344.7 85.2534 345.372 85.8063 345.948C86.3576 346.522 87.0093 346.804 87.7743 346.804C88.5318 346.804 89.1798 346.533 89.7309 345.982C90.2779 345.435 90.5527 344.756 90.5527 343.928C90.5527 343.099 90.2819 342.417 89.7436 341.865C89.2045 341.312 88.5507 341.038 87.7668 341.038ZM96.7387 341.519C97.3682 340.868 98.1514 340.541 99.072 340.541C99.9939 340.541 100.782 340.874 101.42 341.534C102.057 342.192 102.377 342.993 102.377 343.921C102.377 344.85 102.051 345.651 101.404 346.309C100.758 346.966 99.9874 347.301 99.1019 347.301C98.1904 347.301 97.4063 346.973 96.7633 346.325C96.1184 345.675 95.7965 344.868 95.7965 343.921C95.7965 342.976 96.1096 342.169 96.7387 341.519ZM99.072 341.038C98.2828 341.038 97.6296 341.313 97.096 341.864C96.5621 342.417 96.2936 343.096 96.2936 343.921C96.2936 344.743 96.5681 345.422 97.1162 345.975C97.6661 346.53 98.3233 346.804 99.1019 346.804C99.8466 346.804 100.492 346.527 101.05 345.961C101.605 345.396 101.88 344.721 101.88 343.921C101.88 343.119 101.609 342.443 101.063 341.879C100.519 341.317 99.86 341.038 99.072 341.038ZM117.202 341.551C117.836 340.88 118.619 340.541 119.538 340.541C120.454 340.541 121.236 340.868 121.87 341.518C122.505 342.169 122.821 342.978 122.821 343.928C122.821 344.88 122.499 345.687 121.853 346.333C121.211 346.975 120.438 347.301 119.545 347.301C118.64 347.301 117.86 346.961 117.219 346.292C116.579 345.626 116.255 344.831 116.255 343.921C116.255 343.012 116.573 342.218 117.202 341.551ZM119.538 341.038C118.757 341.038 118.104 341.32 117.564 341.892C117.02 342.468 116.752 343.14 116.752 343.921C116.752 344.7 117.024 345.372 117.577 345.948C118.128 346.522 118.78 346.804 119.545 346.804C120.303 346.804 120.951 346.533 121.502 345.982C122.049 345.435 122.324 344.756 122.324 343.928C122.324 343.099 122.053 342.417 121.514 341.865C120.975 341.312 120.322 341.038 119.538 341.038Z" fill="#1B3642"/>
<path fill-rule="evenodd" clip-rule="evenodd" d="M108.118 339.557V341.227H109.572V346.128C109.94 347.354 110.596 348.051 111.54 348.219C112.485 348.387 113.245 348.387 113.82 348.219C114.657 347.808 115.075 347.471 115.075 347.208C115.075 346.946 114.805 346.586 114.264 346.128C113.864 346.58 113.428 346.806 112.957 346.806C112.251 346.806 111.472 346.596 111.416 346.128C111.379 345.817 111.379 344.183 111.416 341.227H114.264V339.557H111.416V337.395H109.572V339.557H108.118Z" fill="#1B3642"/>
<path d="M50.6081 344.55L53.1132 345.307C52.9449 346.01 52.6799 346.597 52.3181 347.068C51.9563 347.539 51.5062 347.894 50.9678 348.134C50.4335 348.374 49.752 348.494 48.9233 348.494C47.9179 348.494 47.0955 348.349 46.456 348.058C45.8208 347.764 45.2718 347.249 44.8091 346.512C44.3464 345.776 44.115 344.834 44.115 343.686C44.115 342.154 44.5209 340.978 45.3328 340.158C46.1489 339.334 47.3016 338.921 48.7908 338.921C49.956 338.921 50.871 339.157 51.5357 339.628C52.2045 340.099 52.7009 340.823 53.0248 341.799L50.5008 342.36C50.4125 342.079 50.3199 341.872 50.2232 341.742C50.0633 341.523 49.8677 341.355 49.6363 341.237C49.405 341.119 49.1462 341.061 48.8602 341.061C48.2123 341.061 47.716 341.321 47.371 341.843C47.1102 342.23 46.9798 342.838 46.9798 343.667C46.9798 344.693 47.1354 345.398 47.4467 345.78C47.758 346.159 48.1955 346.348 48.7592 346.348C49.3061 346.348 49.7184 346.195 49.996 345.888C50.2779 345.581 50.4819 345.135 50.6081 344.55Z" fill="#00B7C1"/>
<path d="M54.5014 339.079H62.1619V341.054H57.3662V342.524H61.8148V344.411H57.3662V346.235H62.3007V348.33H54.5014V339.079Z" fill="#00B7C1"/>
<path d="M63.1967 339.079H71.8857V341.363H68.9705V348.33H66.112V341.363H63.1967V339.079Z" fill="#00B7C1"/>
<path fill-rule="evenodd" clip-rule="evenodd" d="M48.4087 343.359V345.348H53.3791L51.9924 343.359H48.4087Z" fill="#1B3642"/>
<g filter="url(#filter2_d)">
<rect x="20" y="384" width="336" height="64" rx="4" fill="white"/>
</g>
<rect x="288" y="400" width="56" height="32" rx="4" fill="white"/>
<path d="M305.878 413.836C305.834 413.908 305.788 413.962 305.74 413.998C305.692 414.03 305.632 414.046 305.56 414.046C305.484 414.046 305.398 414.014 305.302 413.95C305.21 413.886 305.094 413.816 304.954 413.74C304.818 413.66 304.656 413.588 304.468 413.524C304.28 413.456 304.056 413.422 303.796 413.422C303.556 413.422 303.344 413.452 303.16 413.512C302.98 413.572 302.828 413.656 302.704 413.764C302.58 413.872 302.486 414 302.422 414.148C302.362 414.292 302.332 414.45 302.332 414.622C302.332 414.842 302.39 415.026 302.506 415.174C302.622 415.318 302.774 415.442 302.962 415.546C303.154 415.65 303.372 415.742 303.616 415.822C303.86 415.898 304.108 415.98 304.36 416.068C304.616 416.156 304.866 416.256 305.11 416.368C305.354 416.48 305.57 416.622 305.758 416.794C305.95 416.966 306.104 417.176 306.22 417.424C306.336 417.672 306.394 417.974 306.394 418.33C306.394 418.714 306.328 419.074 306.196 419.41C306.064 419.746 305.872 420.04 305.62 420.292C305.372 420.54 305.064 420.736 304.696 420.88C304.332 421.024 303.916 421.096 303.448 421.096C303.172 421.096 302.902 421.068 302.638 421.012C302.378 420.96 302.128 420.886 301.888 420.79C301.652 420.69 301.43 420.57 301.222 420.43C301.014 420.29 300.828 420.134 300.664 419.962L301.072 419.29C301.108 419.234 301.154 419.19 301.21 419.158C301.266 419.126 301.328 419.11 301.396 419.11C301.488 419.11 301.59 419.154 301.702 419.242C301.814 419.326 301.948 419.42 302.104 419.524C302.264 419.624 302.456 419.718 302.68 419.806C302.904 419.89 303.172 419.932 303.484 419.932C303.992 419.932 304.384 419.808 304.66 419.56C304.94 419.312 305.08 418.97 305.08 418.534C305.08 418.29 305.022 418.092 304.906 417.94C304.79 417.784 304.636 417.654 304.444 417.55C304.256 417.446 304.04 417.358 303.796 417.286C303.552 417.214 303.304 417.138 303.052 417.058C302.8 416.974 302.552 416.878 302.308 416.77C302.064 416.658 301.846 416.514 301.654 416.338C301.466 416.158 301.314 415.938 301.198 415.678C301.082 415.414 301.024 415.086 301.024 414.694C301.024 414.382 301.084 414.08 301.204 413.788C301.328 413.496 301.506 413.238 301.738 413.014C301.974 412.786 302.264 412.604 302.608 412.468C302.952 412.332 303.344 412.264 303.784 412.264C304.28 412.264 304.734 412.342 305.146 412.498C305.562 412.654 305.92 412.876 306.22 413.164L305.878 413.836ZM311.661 417.25C311.661 417.034 311.629 416.834 311.565 416.65C311.505 416.462 311.415 416.3 311.295 416.164C311.175 416.024 311.025 415.916 310.845 415.84C310.669 415.76 310.465 415.72 310.233 415.72C309.765 415.72 309.397 415.854 309.129 416.122C308.861 416.39 308.691 416.766 308.619 417.25H311.661ZM308.583 418.042C308.599 418.39 308.653 418.692 308.745 418.948C308.837 419.2 308.959 419.41 309.111 419.578C309.267 419.746 309.451 419.872 309.663 419.956C309.879 420.036 310.119 420.076 310.383 420.076C310.635 420.076 310.853 420.048 311.037 419.992C311.221 419.932 311.381 419.868 311.517 419.8C311.653 419.728 311.769 419.664 311.865 419.608C311.961 419.548 312.049 419.518 312.129 419.518C312.233 419.518 312.313 419.558 312.369 419.638L312.735 420.112C312.583 420.292 312.411 420.444 312.219 420.568C312.027 420.692 311.823 420.794 311.607 420.874C311.391 420.95 311.169 421.004 310.941 421.036C310.713 421.072 310.491 421.09 310.275 421.09C309.851 421.09 309.457 421.02 309.093 420.88C308.733 420.736 308.419 420.526 308.151 420.25C307.887 419.974 307.679 419.632 307.527 419.224C307.379 418.816 307.305 418.346 307.305 417.814C307.305 417.39 307.371 416.994 307.503 416.626C307.639 416.258 307.831 415.938 308.079 415.666C308.331 415.394 308.635 415.18 308.991 415.024C309.351 414.864 309.757 414.784 310.209 414.784C310.585 414.784 310.933 414.846 311.253 414.97C311.573 415.09 311.849 415.268 312.081 415.504C312.313 415.74 312.493 416.03 312.621 416.374C312.753 416.714 312.819 417.102 312.819 417.538C312.819 417.738 312.797 417.872 312.753 417.94C312.709 418.008 312.629 418.042 312.513 418.042H308.583ZM315.336 412.12V421H314.046V412.12H315.336ZM320.943 417.25C320.943 417.034 320.911 416.834 320.847 416.65C320.787 416.462 320.697 416.3 320.577 416.164C320.457 416.024 320.307 415.916 320.127 415.84C319.951 415.76 319.747 415.72 319.515 415.72C319.047 415.72 318.679 415.854 318.411 416.122C318.143 416.39 317.973 416.766 317.901 417.25H320.943ZM317.865 418.042C317.881 418.39 317.935 418.692 318.027 418.948C318.119 419.2 318.241 419.41 318.393 419.578C318.549 419.746 318.733 419.872 318.945 419.956C319.161 420.036 319.401 420.076 319.665 420.076C319.917 420.076 320.135 420.048 320.319 419.992C320.503 419.932 320.663 419.868 320.799 419.8C320.935 419.728 321.051 419.664 321.147 419.608C321.243 419.548 321.331 419.518 321.411 419.518C321.515 419.518 321.595 419.558 321.651 419.638L322.017 420.112C321.865 420.292 321.693 420.444 321.501 420.568C321.309 420.692 321.105 420.794 320.889 420.874C320.673 420.95 320.451 421.004 320.223 421.036C319.995 421.072 319.773 421.09 319.557 421.09C319.133 421.09 318.739 421.02 318.375 420.88C318.015 420.736 317.701 420.526 317.433 420.25C317.169 419.974 316.961 419.632 316.809 419.224C316.661 418.816 316.587 418.346 316.587 417.814C316.587 417.39 316.653 416.994 316.785 416.626C316.921 416.258 317.113 415.938 317.361 415.666C317.613 415.394 317.917 415.18 318.273 415.024C318.633 414.864 319.039 414.784 319.491 414.784C319.867 414.784 320.215 414.846 320.535 414.97C320.855 415.09 321.131 415.268 321.363 415.504C321.595 415.74 321.775 416.03 321.903 416.374C322.035 416.714 322.101 417.102 322.101 417.538C322.101 417.738 322.079 417.872 322.035 417.94C321.991 418.008 321.911 418.042 321.795 418.042H317.865ZM327.63 416.08C327.59 416.132 327.552 416.172 327.516 416.2C327.48 416.228 327.428 416.242 327.36 416.242C327.292 416.242 327.22 416.218 327.144 416.17C327.072 416.122 326.984 416.07 326.88 416.014C326.78 415.954 326.658 415.9 326.514 415.852C326.37 415.804 326.19 415.78 325.974 415.78C325.694 415.78 325.448 415.83 325.236 415.93C325.028 416.03 324.852 416.174 324.708 416.362C324.568 416.546 324.462 416.772 324.39 417.04C324.322 417.304 324.288 417.602 324.288 417.934C324.288 418.278 324.326 418.584 324.402 418.852C324.478 419.12 324.586 419.346 324.726 419.53C324.87 419.714 325.042 419.854 325.242 419.95C325.446 420.046 325.674 420.094 325.926 420.094C326.174 420.094 326.376 420.064 326.532 420.004C326.688 419.944 326.818 419.878 326.922 419.806C327.026 419.734 327.114 419.668 327.186 419.608C327.262 419.548 327.342 419.518 327.426 419.518C327.53 419.518 327.61 419.558 327.666 419.638L328.032 420.112C327.884 420.292 327.72 420.444 327.54 420.568C327.36 420.692 327.17 420.794 326.97 420.874C326.77 420.95 326.562 421.004 326.346 421.036C326.13 421.072 325.912 421.09 325.692 421.09C325.312 421.09 324.956 421.02 324.624 420.88C324.296 420.736 324.008 420.53 323.76 420.262C323.516 419.99 323.322 419.66 323.178 419.272C323.038 418.88 322.968 418.434 322.968 417.934C322.968 417.482 323.032 417.064 323.16 416.68C323.288 416.292 323.474 415.958 323.718 415.678C323.966 415.398 324.272 415.18 324.636 415.024C325 414.864 325.42 414.784 325.896 414.784C326.34 414.784 326.73 414.856 327.066 415C327.406 415.144 327.708 415.348 327.972 415.612L327.63 416.08ZM331.031 421.096C330.523 421.096 330.131 420.954 329.855 420.67C329.583 420.382 329.447 419.978 329.447 419.458V415.894H328.775C328.703 415.894 328.641 415.872 328.589 415.828C328.537 415.78 328.511 415.71 328.511 415.618V415.096L329.501 414.952L329.783 413.182C329.803 413.114 329.837 413.06 329.885 413.02C329.933 412.976 329.997 412.954 330.077 412.954H330.737V414.964H332.435V415.894H330.737V419.368C330.737 419.588 330.791 419.756 330.899 419.872C331.007 419.988 331.151 420.046 331.331 420.046C331.431 420.046 331.517 420.034 331.589 420.01C331.661 419.982 331.723 419.954 331.775 419.926C331.827 419.894 331.871 419.866 331.907 419.842C331.947 419.814 331.985 419.8 332.021 419.8C332.093 419.8 332.151 419.84 332.195 419.92L332.579 420.55C332.379 420.726 332.143 420.862 331.871 420.958C331.599 421.05 331.319 421.096 331.031 421.096Z" fill="#7D8380"/>
<path fill-rule="evenodd" clip-rule="evenodd" d="M68.3431 419.174C68.7535 419.607 69.234 419.955 69.7853 420.219C70.3363 420.482 70.9167 420.614 71.5266 420.614C72.2888 420.614 72.8808 420.441 73.3029 420.096C73.725 419.751 73.9359 419.297 73.9359 418.735C73.9359 418.442 73.8859 418.193 73.7865 417.988C73.6869 417.784 73.5491 417.608 73.3732 417.461C73.1973 417.315 72.9921 417.184 72.7576 417.067C72.5231 416.95 72.2709 416.826 72.0016 416.697L70.3482 415.978C70.0782 415.861 69.8055 415.72 69.5302 415.556C69.2547 415.392 69.0028 415.193 68.774 414.959C68.5454 414.725 68.3607 414.447 68.2201 414.125C68.0792 413.803 68.0092 413.431 68.0092 413.01C68.0092 412.577 68.0995 412.173 68.2818 411.798C68.4635 411.424 68.7185 411.098 69.0467 410.824C69.3749 410.549 69.7591 410.335 70.1985 410.182C70.6383 410.03 71.1221 409.954 71.6495 409.954C72.3414 409.954 72.9776 410.086 73.5582 410.349C74.1383 410.613 74.6335 410.955 75.0442 411.377L74.2703 412.325C73.9185 411.985 73.5253 411.719 73.092 411.526C72.658 411.333 72.1772 411.236 71.6495 411.236C70.9927 411.236 70.4683 411.385 70.0756 411.684C69.6825 411.982 69.4864 412.395 69.4864 412.922C69.4864 413.203 69.545 413.44 69.6623 413.633C69.7793 413.827 69.9288 413.996 70.1106 414.143C70.2922 414.289 70.4977 414.418 70.7262 414.529C70.955 414.64 71.1805 414.742 71.4033 414.836L73.0567 415.539C73.3846 415.679 73.6957 415.84 73.9888 416.021C74.2817 416.203 74.5341 416.414 74.7453 416.654C74.956 416.894 75.1231 417.175 75.2463 417.497C75.3693 417.819 75.431 418.191 75.431 418.612C75.431 419.068 75.3402 419.496 75.1586 419.894C74.9763 420.292 74.7158 420.64 74.3759 420.939C74.0355 421.237 73.6223 421.472 73.1358 421.641C72.6491 421.811 72.101 421.896 71.4913 421.896C70.6824 421.896 69.9349 421.743 69.249 421.439C68.5631 421.135 67.9677 420.719 67.4636 420.192L68.3431 419.174Z" fill="#3E3D3D"/>
<path fill-rule="evenodd" clip-rule="evenodd" d="M78.6316 419.788C79.0187 420.116 79.3936 420.348 79.7573 420.482C80.1208 420.617 80.4432 420.684 80.7247 420.684C81.0765 420.684 81.4018 420.605 81.7007 420.447C81.9998 420.289 82.2575 420.067 82.4746 419.78C82.6912 419.493 82.8614 419.139 82.9846 418.717C83.1079 418.296 83.1691 417.821 83.1691 417.295C83.1691 416.826 83.1281 416.399 83.0461 416.013C82.9639 415.627 82.8323 415.296 82.6502 415.02C82.4684 414.746 82.2341 414.531 81.9469 414.38C81.6595 414.228 81.3167 414.151 80.918 414.151C80.5545 414.151 80.1882 414.251 79.8188 414.45C79.4494 414.649 79.0537 414.936 78.6316 415.31V419.788ZM78.6316 422.405V424.737H77.1895V413.15H78.3854L78.5087 414.134H78.5616C78.9481 413.806 79.3731 413.525 79.8364 413.291C80.2995 413.057 80.7831 412.94 81.2874 412.94C81.8385 412.94 82.3252 413.042 82.7472 413.247C83.1691 413.451 83.5211 413.745 83.8024 414.125C84.0838 414.505 84.2976 414.962 84.4445 415.494C84.591 416.028 84.6644 416.627 84.6644 417.295C84.6644 418.021 84.5646 418.668 84.3651 419.235C84.1656 419.803 83.8963 420.286 83.5562 420.684C83.2161 421.082 82.8233 421.384 82.3778 421.588C81.9321 421.793 81.4631 421.896 80.9709 421.896C80.5719 421.896 80.1763 421.808 79.7838 421.633C79.3907 421.457 78.9949 421.217 78.5966 420.912L78.6316 422.405Z" fill="#3E3D3D"/>
<path fill-rule="evenodd" clip-rule="evenodd" d="M87.4953 417.435C87.4953 417.927 87.554 418.372 87.6712 418.77C87.7885 419.168 87.9556 419.511 88.1725 419.797C88.3893 420.084 88.6501 420.307 88.9552 420.465C89.26 420.623 89.5941 420.702 89.9578 420.702C90.3211 420.702 90.6552 420.623 90.9601 420.465C91.2649 420.307 91.5259 420.084 91.7428 419.797C91.9599 419.511 92.127 419.168 92.2442 418.77C92.3612 418.372 92.4199 417.927 92.4199 417.435C92.4199 416.944 92.3612 416.496 92.2442 416.092C92.127 415.688 91.9599 415.34 91.7428 415.047C91.5259 414.754 91.2649 414.529 90.9601 414.371C90.6552 414.213 90.3211 414.134 89.9578 414.134C89.5941 414.134 89.26 414.213 88.9552 414.371C88.6501 414.529 88.3893 414.754 88.1725 415.047C87.9556 415.34 87.7885 415.688 87.6712 416.092C87.554 416.496 87.4953 416.944 87.4953 417.435ZM86.0005 417.435C86.0005 416.721 86.1089 416.086 86.3258 415.53C86.5429 414.974 86.833 414.503 87.1965 414.116C87.5599 413.73 87.9792 413.437 88.4539 413.238C88.9289 413.039 89.4302 412.94 89.9578 412.94C90.4855 412.94 90.9865 413.039 91.4615 413.238C91.9365 413.437 92.3553 413.73 92.719 414.116C93.0825 414.503 93.3725 414.974 93.5896 415.53C93.8063 416.086 93.915 416.721 93.915 417.435C93.915 418.138 93.8063 418.767 93.5896 419.323C93.3725 419.879 93.0825 420.348 92.719 420.728C92.3553 421.109 91.9365 421.398 91.4615 421.598C90.9865 421.797 90.4855 421.896 89.9578 421.896C89.4302 421.896 88.9289 421.797 88.4539 421.598C87.9792 421.398 87.5599 421.109 87.1965 420.728C86.833 420.348 86.5429 419.879 86.3258 419.323C86.1089 418.767 86.0005 418.138 86.0005 417.435Z" fill="#3E3D3D"/>
<path fill-rule="evenodd" clip-rule="evenodd" d="M96.0956 414.327H94.8293V413.238L96.1662 413.151L96.3421 410.762H97.5555V413.151H99.8597V414.327H97.5555V419.069C97.5555 419.595 97.6522 420.002 97.8455 420.289C98.0393 420.576 98.382 420.719 98.8746 420.719C99.0267 420.719 99.1909 420.696 99.3671 420.649C99.5429 420.603 99.7012 420.55 99.8418 420.491L100.123 421.58C99.8885 421.662 99.6335 421.735 99.3582 421.799C99.0825 421.863 98.8098 421.896 98.5405 421.896C98.0831 421.896 97.6989 421.826 97.3884 421.685C97.0776 421.545 96.8257 421.351 96.6321 421.106C96.4388 420.86 96.3008 420.561 96.2189 420.21C96.1366 419.859 96.0956 419.472 96.0956 419.051V414.327Z" fill="#3E3D3D"/>
<path fill-rule="evenodd" clip-rule="evenodd" d="M100.668 417.435C100.668 416.721 100.78 416.086 101.003 415.53C101.225 414.974 101.524 414.503 101.9 414.116C102.275 413.73 102.711 413.437 103.21 413.238C103.708 413.039 104.233 412.94 104.784 412.94C105.347 412.94 105.831 413.043 106.235 413.247C106.64 413.452 106.988 413.689 107.281 413.958L106.56 414.889C106.302 414.667 106.036 414.485 105.76 414.345C105.485 414.204 105.177 414.134 104.837 414.134C104.45 414.134 104.092 414.213 103.764 414.371C103.436 414.529 103.154 414.754 102.92 415.047C102.685 415.34 102.5 415.688 102.366 416.092C102.231 416.496 102.163 416.944 102.163 417.435C102.163 417.927 102.228 418.372 102.357 418.77C102.486 419.168 102.665 419.511 102.893 419.797C103.122 420.084 103.4 420.307 103.729 420.465C104.057 420.623 104.415 420.702 104.801 420.702C105.212 420.702 105.584 420.617 105.919 420.447C106.252 420.277 106.548 420.076 106.807 419.841L107.457 420.79C107.071 421.129 106.64 421.398 106.165 421.598C105.69 421.797 105.194 421.896 104.678 421.896C104.116 421.896 103.588 421.797 103.095 421.598C102.603 421.398 102.178 421.109 101.821 420.728C101.463 420.348 101.181 419.879 100.976 419.323C100.771 418.767 100.668 418.138 100.668 417.435Z" fill="#3E3D3D"/>
<path fill-rule="evenodd" clip-rule="evenodd" d="M109.832 419.367C109.832 419.859 109.975 420.21 110.263 420.421C110.55 420.632 110.905 420.737 111.327 420.737C111.737 420.737 112.127 420.641 112.496 420.447C112.866 420.254 113.255 419.97 113.666 419.595V417.225C112.951 417.319 112.347 417.43 111.855 417.558C111.362 417.687 110.966 417.839 110.667 418.015C110.368 418.191 110.154 418.392 110.025 418.621C109.896 418.849 109.832 419.098 109.832 419.367ZM108.407 419.472C108.407 418.536 108.826 417.819 109.665 417.321C110.503 416.824 111.837 416.476 113.666 416.276C113.666 416.007 113.64 415.744 113.587 415.486C113.534 415.229 113.44 415 113.306 414.801C113.171 414.602 112.992 414.441 112.769 414.318C112.546 414.195 112.259 414.134 111.907 414.134C111.403 414.134 110.937 414.228 110.509 414.415C110.081 414.602 109.697 414.813 109.357 415.047L108.777 414.046C109.175 413.789 109.662 413.54 110.236 413.3C110.811 413.06 111.444 412.94 112.136 412.94C113.179 412.94 113.936 413.259 114.405 413.897C114.874 414.535 115.108 415.387 115.108 416.452V421.685H113.912L113.789 420.667H113.754C113.343 421.006 112.901 421.297 112.426 421.536C111.951 421.776 111.45 421.896 110.922 421.896C110.195 421.896 109.594 421.685 109.12 421.264C108.645 420.842 108.407 420.245 108.407 419.472Z" fill="#3E3D3D"/>
<path fill-rule="evenodd" clip-rule="evenodd" d="M118.411 419.788C118.798 420.116 119.173 420.348 119.537 420.482C119.9 420.617 120.223 420.684 120.504 420.684C120.856 420.684 121.181 420.605 121.48 420.447C121.779 420.289 122.037 420.067 122.254 419.78C122.471 419.493 122.641 419.139 122.764 418.717C122.887 418.296 122.949 417.821 122.949 417.295C122.949 416.826 122.908 416.399 122.826 416.013C122.743 415.627 122.612 415.296 122.43 415.02C122.248 414.746 122.014 414.531 121.726 414.38C121.439 414.228 121.096 414.151 120.698 414.151C120.334 414.151 119.968 414.251 119.598 414.45C119.229 414.649 118.833 414.936 118.411 415.31V419.788ZM118.411 422.405V424.737H116.969V413.15H118.165L118.288 414.134H118.341C118.728 413.806 119.153 413.525 119.616 413.291C120.079 413.057 120.563 412.94 121.067 412.94C121.618 412.94 122.105 413.042 122.527 413.247C122.949 413.451 123.301 413.745 123.582 414.125C123.863 414.505 124.077 414.962 124.224 415.494C124.371 416.028 124.444 416.627 124.444 417.295C124.444 418.021 124.344 418.668 124.145 419.235C123.945 419.803 123.676 420.286 123.336 420.684C122.996 421.082 122.603 421.384 122.157 421.588C121.712 421.793 121.243 421.896 120.75 421.896C120.351 421.896 119.956 421.808 119.563 421.633C119.17 421.457 118.774 421.217 118.376 420.912L118.411 422.405Z" fill="#3E3D3D"/>
<path fill-rule="evenodd" clip-rule="evenodd" d="M56.551 416.998C54.9351 418.016 52.327 417.758 51.0259 416.326C49.45 414.591 50.1829 412.257 51.8031 410.811C54.4792 408.422 59.173 408.804 62.0316 410.571C63.4917 411.474 64.8295 409.176 63.3747 408.277C58.6155 405.335 51.11 405.878 48.2521 411.171C45.0513 417.099 52.5937 422.63 57.8941 419.292C59.3386 418.382 58.0051 416.082 56.551 416.998Z" fill="#04A0D9"/>
<path fill-rule="evenodd" clip-rule="evenodd" d="M54.8904 414.965C56.5063 413.947 59.1144 414.205 60.4155 415.637C61.9914 417.372 61.2585 419.706 59.6383 421.152C56.9623 423.541 52.2684 423.159 49.4098 421.392C47.9498 420.489 46.612 422.787 48.0668 423.686C52.8259 426.628 60.3314 426.085 63.1893 420.792C66.3902 414.864 58.8477 409.333 53.5474 412.671C52.1028 413.581 53.4363 415.881 54.8904 414.965Z" fill="#0277BF"/>
<g filter="url(#filter3_d)">
<rect x="20" y="456" width="336" height="64" rx="4" fill="white"/>
</g>
<rect x="288" y="472" width="56" height="32" rx="4" fill="white"/>
<path d="M305.878 485.836C305.834 485.908 305.788 485.962 305.74 485.998C305.692 486.03 305.632 486.046 305.56 486.046C305.484 486.046 305.398 486.014 305.302 485.95C305.21 485.886 305.094 485.816 304.954 485.74C304.818 485.66 304.656 485.588 304.468 485.524C304.28 485.456 304.056 485.422 303.796 485.422C303.556 485.422 303.344 485.452 303.16 485.512C302.98 485.572 302.828 485.656 302.704 485.764C302.58 485.872 302.486 486 302.422 486.148C302.362 486.292 302.332 486.45 302.332 486.622C302.332 486.842 302.39 487.026 302.506 487.174C302.622 487.318 302.774 487.442 302.962 487.546C303.154 487.65 303.372 487.742 303.616 487.822C303.86 487.898 304.108 487.98 304.36 488.068C304.616 488.156 304.866 488.256 305.11 488.368C305.354 488.48 305.57 488.622 305.758 488.794C305.95 488.966 306.104 489.176 306.22 489.424C306.336 489.672 306.394 489.974 306.394 490.33C306.394 490.714 306.328 491.074 306.196 491.41C306.064 491.746 305.872 492.04 305.62 492.292C305.372 492.54 305.064 492.736 304.696 492.88C304.332 493.024 303.916 493.096 303.448 493.096C303.172 493.096 302.902 493.068 302.638 493.012C302.378 492.96 302.128 492.886 301.888 492.79C301.652 492.69 301.43 492.57 301.222 492.43C301.014 492.29 300.828 492.134 300.664 491.962L301.072 491.29C301.108 491.234 301.154 491.19 301.21 491.158C301.266 491.126 301.328 491.11 301.396 491.11C301.488 491.11 301.59 491.154 301.702 491.242C301.814 491.326 301.948 491.42 302.104 491.524C302.264 491.624 302.456 491.718 302.68 491.806C302.904 491.89 303.172 491.932 303.484 491.932C303.992 491.932 304.384 491.808 304.66 491.56C304.94 491.312 305.08 490.97 305.08 490.534C305.08 490.29 305.022 490.092 304.906 489.94C304.79 489.784 304.636 489.654 304.444 489.55C304.256 489.446 304.04 489.358 303.796 489.286C303.552 489.214 303.304 489.138 303.052 489.058C302.8 488.974 302.552 488.878 302.308 488.77C302.064 488.658 301.846 488.514 301.654 488.338C301.466 488.158 301.314 487.938 301.198 487.678C301.082 487.414 301.024 487.086 301.024 486.694C301.024 486.382 301.084 486.08 301.204 485.788C301.328 485.496 301.506 485.238 301.738 485.014C301.974 484.786 302.264 484.604 302.608 484.468C302.952 484.332 303.344 484.264 303.784 484.264C304.28 484.264 304.734 484.342 305.146 484.498C305.562 484.654 305.92 484.876 306.22 485.164L305.878 485.836ZM311.661 489.25C311.661 489.034 311.629 488.834 311.565 488.65C311.505 488.462 311.415 488.3 311.295 488.164C311.175 488.024 311.025 487.916 310.845 487.84C310.669 487.76 310.465 487.72 310.233 487.72C309.765 487.72 309.397 487.854 309.129 488.122C308.861 488.39 308.691 488.766 308.619 489.25H311.661ZM308.583 490.042C308.599 490.39 308.653 490.692 308.745 490.948C308.837 491.2 308.959 491.41 309.111 491.578C309.267 491.746 309.451 491.872 309.663 491.956C309.879 492.036 310.119 492.076 310.383 492.076C310.635 492.076 310.853 492.048 311.037 491.992C311.221 491.932 311.381 491.868 311.517 491.8C311.653 491.728 311.769 491.664 311.865 491.608C311.961 491.548 312.049 491.518 312.129 491.518C312.233 491.518 312.313 491.558 312.369 491.638L312.735 492.112C312.583 492.292 312.411 492.444 312.219 492.568C312.027 492.692 311.823 492.794 311.607 492.874C311.391 492.95 311.169 493.004 310.941 493.036C310.713 493.072 310.491 493.09 310.275 493.09C309.851 493.09 309.457 493.02 309.093 492.88C308.733 492.736 308.419 492.526 308.151 492.25C307.887 491.974 307.679 491.632 307.527 491.224C307.379 490.816 307.305 490.346 307.305 489.814C307.305 489.39 307.371 488.994 307.503 488.626C307.639 488.258 307.831 487.938 308.079 487.666C308.331 487.394 308.635 487.18 308.991 487.024C309.351 486.864 309.757 486.784 310.209 486.784C310.585 486.784 310.933 486.846 311.253 486.97C311.573 487.09 311.849 487.268 312.081 487.504C312.313 487.74 312.493 488.03 312.621 488.374C312.753 488.714 312.819 489.102 312.819 489.538C312.819 489.738 312.797 489.872 312.753 489.94C312.709 490.008 312.629 490.042 312.513 490.042H308.583ZM315.336 484.12V493H314.046V484.12H315.336ZM320.943 489.25C320.943 489.034 320.911 488.834 320.847 488.65C320.787 488.462 320.697 488.3 320.577 488.164C320.457 488.024 320.307 487.916 320.127 487.84C319.951 487.76 319.747 487.72 319.515 487.72C319.047 487.72 318.679 487.854 318.411 488.122C318.143 488.39 317.973 488.766 317.901 489.25H320.943ZM317.865 490.042C317.881 490.39 317.935 490.692 318.027 490.948C318.119 491.2 318.241 491.41 318.393 491.578C318.549 491.746 318.733 491.872 318.945 491.956C319.161 492.036 319.401 492.076 319.665 492.076C319.917 492.076 320.135 492.048 320.319 491.992C320.503 491.932 320.663 491.868 320.799 491.8C320.935 491.728 321.051 491.664 321.147 491.608C321.243 491.548 321.331 491.518 321.411 491.518C321.515 491.518 321.595 491.558 321.651 491.638L322.017 492.112C321.865 492.292 321.693 492.444 321.501 492.568C321.309 492.692 321.105 492.794 320.889 492.874C320.673 492.95 320.451 493.004 320.223 493.036C319.995 493.072 319.773 493.09 319.557 493.09C319.133 493.09 318.739 493.02 318.375 492.88C318.015 492.736 317.701 492.526 317.433 492.25C317.169 491.974 316.961 491.632 316.809 491.224C316.661 490.816 316.587 490.346 316.587 489.814C316.587 489.39 316.653 488.994 316.785 488.626C316.921 488.258 317.113 487.938 317.361 487.666C317.613 487.394 317.917 487.18 318.273 487.024C318.633 486.864 319.039 486.784 319.491 486.784C319.867 486.784 320.215 486.846 320.535 486.97C320.855 487.09 321.131 487.268 321.363 487.504C321.595 487.74 321.775 488.03 321.903 488.374C322.035 488.714 322.101 489.102 322.101 489.538C322.101 489.738 322.079 489.872 322.035 489.94C321.991 490.008 321.911 490.042 321.795 490.042H317.865ZM327.63 488.08C327.59 488.132 327.552 488.172 327.516 488.2C327.48 488.228 327.428 488.242 327.36 488.242C327.292 488.242 327.22 488.218 327.144 488.17C327.072 488.122 326.984 488.07 326.88 488.014C326.78 487.954 326.658 487.9 326.514 487.852C326.37 487.804 326.19 487.78 325.974 487.78C325.694 487.78 325.448 487.83 325.236 487.93C325.028 488.03 324.852 488.174 324.708 488.362C324.568 488.546 324.462 488.772 324.39 489.04C324.322 489.304 324.288 489.602 324.288 489.934C324.288 490.278 324.326 490.584 324.402 490.852C324.478 491.12 324.586 491.346 324.726 491.53C324.87 491.714 325.042 491.854 325.242 491.95C325.446 492.046 325.674 492.094 325.926 492.094C326.174 492.094 326.376 492.064 326.532 492.004C326.688 491.944 326.818 491.878 326.922 491.806C327.026 491.734 327.114 491.668 327.186 491.608C327.262 491.548 327.342 491.518 327.426 491.518C327.53 491.518 327.61 491.558 327.666 491.638L328.032 492.112C327.884 492.292 327.72 492.444 327.54 492.568C327.36 492.692 327.17 492.794 326.97 492.874C326.77 492.95 326.562 493.004 326.346 493.036C326.13 493.072 325.912 493.09 325.692 493.09C325.312 493.09 324.956 493.02 324.624 492.88C324.296 492.736 324.008 492.53 323.76 492.262C323.516 491.99 323.322 491.66 323.178 491.272C323.038 490.88 322.968 490.434 322.968 489.934C322.968 489.482 323.032 489.064 323.16 488.68C323.288 488.292 323.474 487.958 323.718 487.678C323.966 487.398 324.272 487.18 324.636 487.024C325 486.864 325.42 486.784 325.896 486.784C326.34 486.784 326.73 486.856 327.066 487C327.406 487.144 327.708 487.348 327.972 487.612L327.63 488.08ZM331.031 493.096C330.523 493.096 330.131 492.954 329.855 492.67C329.583 492.382 329.447 491.978 329.447 491.458V487.894H328.775C328.703 487.894 328.641 487.872 328.589 487.828C328.537 487.78 328.511 487.71 328.511 487.618V487.096L329.501 486.952L329.783 485.182C329.803 485.114 329.837 485.06 329.885 485.02C329.933 484.976 329.997 484.954 330.077 484.954H330.737V486.964H332.435V487.894H330.737V491.368C330.737 491.588 330.791 491.756 330.899 491.872C331.007 491.988 331.151 492.046 331.331 492.046C331.431 492.046 331.517 492.034 331.589 492.01C331.661 491.982 331.723 491.954 331.775 491.926C331.827 491.894 331.871 491.866 331.907 491.842C331.947 491.814 331.985 491.8 332.021 491.8C332.093 491.8 332.151 491.84 332.195 491.92L332.579 492.55C332.379 492.726 332.143 492.862 331.871 492.958C331.599 493.05 331.319 493.096 331.031 493.096Z" fill="#7D8380"/>
<path fill-rule="evenodd" clip-rule="evenodd" d="M56.395 489.146C56.395 489.752 56.1701 490.213 55.72 490.528C55.27 490.843 54.7151 491 54.055 491H51.175V484.439H54.019C54.7271 484.439 55.279 484.643 55.675 485.051C55.9691 485.357 56.116 485.732 56.116 486.176C56.116 486.824 55.7681 487.292 55.072 487.58V487.607C55.4801 487.667 55.804 487.841 56.044 488.129C56.278 488.411 56.395 488.75 56.395 489.146ZM54.469 486.437C54.469 486.047 54.2171 485.852 53.713 485.852H52.786V487.04H53.731C53.965 487.04 54.1465 486.988 54.2755 486.883C54.4045 486.778 54.469 486.629 54.469 486.437ZM54.748 488.957C54.748 488.759 54.676 488.606 54.532 488.498C54.394 488.396 54.217 488.345 54.001 488.345H52.786V489.578H54.001C54.223 489.578 54.403 489.523 54.541 489.412C54.679 489.301 54.748 489.149 54.748 488.957ZM61.111 484.439H62.785V488.39C62.785 489.236 62.5541 489.899 62.092 490.379C61.636 490.853 60.9491 491.09 60.031 491.09C59.083 491.09 58.3901 490.838 57.952 490.334C57.526 489.854 57.313 489.212 57.313 488.408V484.439H58.978V488.381C58.978 488.729 59.068 489.011 59.248 489.227C59.4281 489.443 59.695 489.551 60.049 489.551C60.4511 489.551 60.733 489.431 60.895 489.191C61.0391 488.981 61.111 488.723 61.111 488.417V484.439ZM66.385 491.09C65.587 491.09 64.9601 490.901 64.504 490.523C64.042 490.145 63.754 489.635 63.64 488.993L65.125 488.642C65.155 488.882 65.233 489.085 65.359 489.25C65.485 489.415 65.641 489.533 65.827 489.605C66.007 489.671 66.196 489.704 66.394 489.704C66.664 489.704 66.868 489.641 67.006 489.515C67.1381 489.383 67.204 489.236 67.204 489.074C67.204 488.798 67.0181 488.624 66.646 488.552L65.737 488.381C65.179 488.261 64.732 488.039 64.396 487.715C64.06 487.367 63.892 486.944 63.892 486.446C63.892 485.834 64.135 485.324 64.621 484.916C65.0891 484.526 65.653 484.331 66.313 484.331C66.9431 484.331 67.456 484.469 67.852 484.745C68.032 484.871 68.188 485.018 68.32 485.186C68.5601 485.492 68.704 485.837 68.752 486.221L67.303 486.635C67.261 486.353 67.153 486.13 66.979 485.965C66.805 485.8 66.5801 485.717 66.304 485.717C66.07 485.717 65.884 485.78 65.746 485.906C65.608 486.032 65.539 486.17 65.539 486.32C65.539 486.62 65.701 486.8 66.025 486.86L66.97 487.04C67.5761 487.154 68.047 487.388 68.383 487.742C68.7131 488.09 68.878 488.513 68.878 489.011C68.878 489.551 68.6591 490.031 68.2211 490.451C67.765 490.877 67.1531 491.09 66.385 491.09ZM69.886 491V484.439H71.551V491H69.886ZM76.969 491L74.557 487.112H74.548V491H72.901V484.439H74.755L77.14 488.273H77.149V484.439H78.796V491H76.969ZM80.146 491V484.439H84.736V485.906H81.784V486.977H84.466V488.39H81.784V489.524H84.7541V491H80.146ZM88.1921 491.09C87.394 491.09 86.7671 490.901 86.3111 490.523C85.849 490.145 85.5611 489.635 85.447 488.993L86.932 488.642C86.962 488.882 87.0401 489.085 87.166 489.25C87.292 489.415 87.448 489.533 87.634 489.605C87.814 489.671 88.003 489.704 88.201 489.704C88.4711 489.704 88.675 489.641 88.813 489.515C88.945 489.383 89.0111 489.236 89.0111 489.074C89.0111 488.798 88.8251 488.624 88.453 488.552L87.544 488.381C86.986 488.261 86.5391 488.039 86.203 487.715C85.867 487.367 85.6991 486.944 85.6991 486.446C85.6991 485.834 85.942 485.324 86.4281 484.916C86.8961 484.526 87.46 484.331 88.12 484.331C88.7501 484.331 89.263 484.469 89.659 484.745C89.8391 484.871 89.995 485.018 90.127 485.186C90.3671 485.492 90.511 485.837 90.559 486.221L89.1101 486.635C89.0681 486.353 88.96 486.13 88.786 485.965C88.612 485.8 88.3871 485.717 88.111 485.717C87.877 485.717 87.6911 485.78 87.5531 485.906C87.4151 486.032 87.3461 486.17 87.3461 486.32C87.3461 486.62 87.508 486.8 87.8321 486.86L88.7771 487.04C89.3831 487.154 89.854 487.388 90.19 487.742C90.5201 488.09 90.6851 488.513 90.6851 489.011C90.6851 489.551 90.4661 490.031 90.028 490.451C89.572 490.877 88.9601 491.09 88.1921 491.09ZM94.0061 491.09C93.208 491.09 92.5811 490.901 92.125 490.523C91.663 490.145 91.3751 489.635 91.2611 488.993L92.746 488.642C92.776 488.882 92.854 489.085 92.98 489.25C93.106 489.415 93.2621 489.533 93.4481 489.605C93.6281 489.671 93.817 489.704 94.015 489.704C94.285 489.704 94.489 489.641 94.627 489.515C94.759 489.383 94.8251 489.236 94.8251 489.074C94.8251 488.798 94.639 488.624 94.267 488.552L93.3581 488.381C92.8 488.261 92.3531 488.039 92.017 487.715C91.681 487.367 91.5131 486.944 91.5131 486.446C91.5131 485.834 91.756 485.324 92.2421 484.916C92.7101 484.526 93.274 484.331 93.934 484.331C94.5641 484.331 95.077 484.469 95.473 484.745C95.653 484.871 95.8091 485.018 95.9411 485.186C96.1811 485.492 96.3251 485.837 96.3731 486.221L94.924 486.635C94.882 486.353 94.774 486.13 94.6 485.965C94.426 485.8 94.201 485.717 93.925 485.717C93.691 485.717 93.5051 485.78 93.3671 485.906C93.229 486.032 93.16 486.17 93.16 486.32C93.16 486.62 93.322 486.8 93.646 486.86L94.591 487.04C95.1971 487.154 95.668 487.388 96.0041 487.742C96.3341 488.09 96.4991 488.513 96.4991 489.011C96.4991 489.551 96.2801 490.031 95.842 490.451C95.386 490.877 94.7741 491.09 94.0061 491.09ZM104.032 485.942H101.116V487.13H103.753V488.579H101.116V491H99.4691V484.439H104.032V485.942ZM108.784 484.439H110.458V488.39C110.458 489.236 110.227 489.899 109.765 490.379C109.309 490.853 108.622 491.09 107.704 491.09C106.756 491.09 106.063 490.838 105.625 490.334C105.199 489.854 104.986 489.212 104.986 488.408V484.439H106.651V488.381C106.651 488.729 106.741 489.011 106.921 489.227C107.101 489.443 107.368 489.551 107.722 489.551C108.124 489.551 108.406 489.431 108.568 489.191C108.712 488.981 108.784 488.723 108.784 488.417V484.439ZM111.745 491V484.439H116.335V485.906H113.383V486.977H116.065V488.39H113.383V489.524H116.353V491H111.745ZM121.888 491H117.478V484.439H119.134V489.497H121.888V491Z" fill="#3C3C3B"/>
<path fill-rule="evenodd" clip-rule="evenodd" d="M47.5 494H125.5V482H47.5V494ZM47 481.5H126V494.5H47V481.5Z" fill="#FF7800"/>
<g filter="url(#filter4_d)">
<rect x="20" y="528" width="336" height="64" rx="4" fill="white"/>
</g>
<rect x="288" y="544" width="56" height="32" rx="4" fill="white"/>
<path d="M305.878 557.836C305.834 557.908 305.788 557.962 305.74 557.998C305.692 558.03 305.632 558.046 305.56 558.046C305.484 558.046 305.398 558.014 305.302 557.95C305.21 557.886 305.094 557.816 304.954 557.74C304.818 557.66 304.656 557.588 304.468 557.524C304.28 557.456 304.056 557.422 303.796 557.422C303.556 557.422 303.344 557.452 303.16 557.512C302.98 557.572 302.828 557.656 302.704 557.764C302.58 557.872 302.486 558 302.422 558.148C302.362 558.292 302.332 558.45 302.332 558.622C302.332 558.842 302.39 559.026 302.506 559.174C302.622 559.318 302.774 559.442 302.962 559.546C303.154 559.65 303.372 559.742 303.616 559.822C303.86 559.898 304.108 559.98 304.36 560.068C304.616 560.156 304.866 560.256 305.11 560.368C305.354 560.48 305.57 560.622 305.758 560.794C305.95 560.966 306.104 561.176 306.22 561.424C306.336 561.672 306.394 561.974 306.394 562.33C306.394 562.714 306.328 563.074 306.196 563.41C306.064 563.746 305.872 564.04 305.62 564.292C305.372 564.54 305.064 564.736 304.696 564.88C304.332 565.024 303.916 565.096 303.448 565.096C303.172 565.096 302.902 565.068 302.638 565.012C302.378 564.96 302.128 564.886 301.888 564.79C301.652 564.69 301.43 564.57 301.222 564.43C301.014 564.29 300.828 564.134 300.664 563.962L301.072 563.29C301.108 563.234 301.154 563.19 301.21 563.158C301.266 563.126 301.328 563.11 301.396 563.11C301.488 563.11 301.59 563.154 301.702 563.242C301.814 563.326 301.948 563.42 302.104 563.524C302.264 563.624 302.456 563.718 302.68 563.806C302.904 563.89 303.172 563.932 303.484 563.932C303.992 563.932 304.384 563.808 304.66 563.56C304.94 563.312 305.08 562.97 305.08 562.534C305.08 562.29 305.022 562.092 304.906 561.94C304.79 561.784 304.636 561.654 304.444 561.55C304.256 561.446 304.04 561.358 303.796 561.286C303.552 561.214 303.304 561.138 303.052 561.058C302.8 560.974 302.552 560.878 302.308 560.77C302.064 560.658 301.846 560.514 301.654 560.338C301.466 560.158 301.314 559.938 301.198 559.678C301.082 559.414 301.024 559.086 301.024 558.694C301.024 558.382 301.084 558.08 301.204 557.788C301.328 557.496 301.506 557.238 301.738 557.014C301.974 556.786 302.264 556.604 302.608 556.468C302.952 556.332 303.344 556.264 303.784 556.264C304.28 556.264 304.734 556.342 305.146 556.498C305.562 556.654 305.92 556.876 306.22 557.164L305.878 557.836ZM311.661 561.25C311.661 561.034 311.629 560.834 311.565 560.65C311.505 560.462 311.415 560.3 311.295 560.164C311.175 560.024 311.025 559.916 310.845 559.84C310.669 559.76 310.465 559.72 310.233 559.72C309.765 559.72 309.397 559.854 309.129 560.122C308.861 560.39 308.691 560.766 308.619 561.25H311.661ZM308.583 562.042C308.599 562.39 308.653 562.692 308.745 562.948C308.837 563.2 308.959 563.41 309.111 563.578C309.267 563.746 309.451 563.872 309.663 563.956C309.879 564.036 310.119 564.076 310.383 564.076C310.635 564.076 310.853 564.048 311.037 563.992C311.221 563.932 311.381 563.868 311.517 563.8C311.653 563.728 311.769 563.664 311.865 563.608C311.961 563.548 312.049 563.518 312.129 563.518C312.233 563.518 312.313 563.558 312.369 563.638L312.735 564.112C312.583 564.292 312.411 564.444 312.219 564.568C312.027 564.692 311.823 564.794 311.607 564.874C311.391 564.95 311.169 565.004 310.941 565.036C310.713 565.072 310.491 565.09 310.275 565.09C309.851 565.09 309.457 565.02 309.093 564.88C308.733 564.736 308.419 564.526 308.151 564.25C307.887 563.974 307.679 563.632 307.527 563.224C307.379 562.816 307.305 562.346 307.305 561.814C307.305 561.39 307.371 560.994 307.503 560.626C307.639 560.258 307.831 559.938 308.079 559.666C308.331 559.394 308.635 559.18 308.991 559.024C309.351 558.864 309.757 558.784 310.209 558.784C310.585 558.784 310.933 558.846 311.253 558.97C311.573 559.09 311.849 559.268 312.081 559.504C312.313 559.74 312.493 560.03 312.621 560.374C312.753 560.714 312.819 561.102 312.819 561.538C312.819 561.738 312.797 561.872 312.753 561.94C312.709 562.008 312.629 562.042 312.513 562.042H308.583ZM315.336 556.12V565H314.046V556.12H315.336ZM320.943 561.25C320.943 561.034 320.911 560.834 320.847 560.65C320.787 560.462 320.697 560.3 320.577 560.164C320.457 560.024 320.307 559.916 320.127 559.84C319.951 559.76 319.747 559.72 319.515 559.72C319.047 559.72 318.679 559.854 318.411 560.122C318.143 560.39 317.973 560.766 317.901 561.25H320.943ZM317.865 562.042C317.881 562.39 317.935 562.692 318.027 562.948C318.119 563.2 318.241 563.41 318.393 563.578C318.549 563.746 318.733 563.872 318.945 563.956C319.161 564.036 319.401 564.076 319.665 564.076C319.917 564.076 320.135 564.048 320.319 563.992C320.503 563.932 320.663 563.868 320.799 563.8C320.935 563.728 321.051 563.664 321.147 563.608C321.243 563.548 321.331 563.518 321.411 563.518C321.515 563.518 321.595 563.558 321.651 563.638L322.017 564.112C321.865 564.292 321.693 564.444 321.501 564.568C321.309 564.692 321.105 564.794 320.889 564.874C320.673 564.95 320.451 565.004 320.223 565.036C319.995 565.072 319.773 565.09 319.557 565.09C319.133 565.09 318.739 565.02 318.375 564.88C318.015 564.736 317.701 564.526 317.433 564.25C317.169 563.974 316.961 563.632 316.809 563.224C316.661 562.816 316.587 562.346 316.587 561.814C316.587 561.39 316.653 560.994 316.785 560.626C316.921 560.258 317.113 559.938 317.361 559.666C317.613 559.394 317.917 559.18 318.273 559.024C318.633 558.864 319.039 558.784 319.491 558.784C319.867 558.784 320.215 558.846 320.535 558.97C320.855 559.09 321.131 559.268 321.363 559.504C321.595 559.74 321.775 560.03 321.903 560.374C322.035 560.714 322.101 561.102 322.101 561.538C322.101 561.738 322.079 561.872 322.035 561.94C321.991 562.008 321.911 562.042 321.795 562.042H317.865ZM327.63 560.08C327.59 560.132 327.552 560.172 327.516 560.2C327.48 560.228 327.428 560.242 327.36 560.242C327.292 560.242 327.22 560.218 327.144 560.17C327.072 560.122 326.984 560.07 326.88 560.014C326.78 559.954 326.658 559.9 326.514 559.852C326.37 559.804 326.19 559.78 325.974 559.78C325.694 559.78 325.448 559.83 325.236 559.93C325.028 560.03 324.852 560.174 324.708 560.362C324.568 560.546 324.462 560.772 324.39 561.04C324.322 561.304 324.288 561.602 324.288 561.934C324.288 562.278 324.326 562.584 324.402 562.852C324.478 563.12 324.586 563.346 324.726 563.53C324.87 563.714 325.042 563.854 325.242 563.95C325.446 564.046 325.674 564.094 325.926 564.094C326.174 564.094 326.376 564.064 326.532 564.004C326.688 563.944 326.818 563.878 326.922 563.806C327.026 563.734 327.114 563.668 327.186 563.608C327.262 563.548 327.342 563.518 327.426 563.518C327.53 563.518 327.61 563.558 327.666 563.638L328.032 564.112C327.884 564.292 327.72 564.444 327.54 564.568C327.36 564.692 327.17 564.794 326.97 564.874C326.77 564.95 326.562 565.004 326.346 565.036C326.13 565.072 325.912 565.09 325.692 565.09C325.312 565.09 324.956 565.02 324.624 564.88C324.296 564.736 324.008 564.53 323.76 564.262C323.516 563.99 323.322 563.66 323.178 563.272C323.038 562.88 322.968 562.434 322.968 561.934C322.968 561.482 323.032 561.064 323.16 560.68C323.288 560.292 323.474 559.958 323.718 559.678C323.966 559.398 324.272 559.18 324.636 559.024C325 558.864 325.42 558.784 325.896 558.784C326.34 558.784 326.73 558.856 327.066 559C327.406 559.144 327.708 559.348 327.972 559.612L327.63 560.08ZM331.031 565.096C330.523 565.096 330.131 564.954 329.855 564.67C329.583 564.382 329.447 563.978 329.447 563.458V559.894H328.775C328.703 559.894 328.641 559.872 328.589 559.828C328.537 559.78 328.511 559.71 328.511 559.618V559.096L329.501 558.952L329.783 557.182C329.803 557.114 329.837 557.06 329.885 557.02C329.933 556.976 329.997 556.954 330.077 556.954H330.737V558.964H332.435V559.894H330.737V563.368C330.737 563.588 330.791 563.756 330.899 563.872C331.007 563.988 331.151 564.046 331.331 564.046C331.431 564.046 331.517 564.034 331.589 564.01C331.661 563.982 331.723 563.954 331.775 563.926C331.827 563.894 331.871 563.866 331.907 563.842C331.947 563.814 331.985 563.8 332.021 563.8C332.093 563.8 332.151 563.84 332.195 563.92L332.579 564.55C332.379 564.726 332.143 564.862 331.871 564.958C331.599 565.05 331.319 565.096 331.031 565.096Z" fill="#7D8380"/>
<path fill-rule="evenodd" clip-rule="evenodd" d="M56.9141 560L53.6702 565.154L50.4263 560H47.5V572.188H50.1621V564.283L53.5996 569.437H53.6702L57.1433 564.231V572.188H59.8404V560H56.9141Z" fill="#00AA8F"/>
<path fill-rule="evenodd" clip-rule="evenodd" d="M74.2683 566.536C74.2683 568.691 72.7467 570.45 70.5529 570.45C68.3591 570.45 66.8021 568.655 66.8021 566.5V566.464C66.8021 564.31 68.3237 562.55 70.5175 562.55C72.7115 562.55 74.2683 564.345 74.2683 566.5V566.536ZM70.5529 560C66.7312 560 63.9536 562.927 63.9536 566.5V566.536C63.9536 570.109 66.6958 573 70.5175 573C74.3391 573 77.1167 570.073 77.1167 566.5V566.464C77.1167 562.891 74.3745 560 70.5529 560Z" fill="#00AA8F"/>
<path fill-rule="evenodd" clip-rule="evenodd" d="M114.921 567.597L116.571 563.411L118.221 567.597H114.921ZM117.866 560H115.347L110.025 573H112.81L113.945 570.105H119.196L120.332 573H123.188L117.866 560Z" fill="#00AA8F"/>
<path fill-rule="evenodd" clip-rule="evenodd" d="M123.667 560.356C123.828 560.356 123.923 560.278 123.923 560.157V560.15C123.923 560.023 123.828 559.952 123.667 559.952H123.347V560.356H123.667ZM123.102 559.733H123.678C123.848 559.733 123.981 559.784 124.07 559.871C124.138 559.935 124.175 560.026 124.175 560.137V560.144C124.175 560.349 124.052 560.477 123.875 560.528L124.223 561.009H123.93L123.616 560.568H123.609H123.347V561.009H123.102V559.733ZM124.704 560.406V560.399C124.704 559.797 124.23 559.309 123.603 559.309C122.972 559.309 122.495 559.804 122.495 560.406V560.413C122.495 561.016 122.969 561.504 123.596 561.504C124.226 561.504 124.704 561.009 124.704 560.406ZM122.365 560.413V560.406C122.365 559.743 122.911 559.188 123.603 559.188C124.294 559.188 124.833 559.736 124.833 560.399V560.406C124.833 561.07 124.288 561.625 123.596 561.625C122.904 561.625 122.365 561.076 122.365 560.413Z" fill="#00AA8F"/>
<path fill-rule="evenodd" clip-rule="evenodd" d="M101.278 569.75V561.332C101.278 560.596 100.662 560 99.9018 560H98.5073V572.188H107.557V569.75H101.278Z" fill="#00AA8F"/>
<path fill-rule="evenodd" clip-rule="evenodd" d="M87.8088 569.844C86.062 569.844 84.8263 568.878 84.6243 567.132H91.0091C90.8296 568.881 89.5727 569.844 87.8088 569.844ZM97.6682 551.322C97.5216 549.201 96.4411 547.95 96.3183 547.814L95.8356 547.281C95.7017 547.105 95.4873 547 95.2618 547C95.0852 547 94.9157 547.063 94.7847 547.178L94.709 547.288C94.7042 547.292 94.6989 547.295 94.6946 547.3L88.828 555.88L90.7169 557.088L94.9679 550.87C95.2549 552.243 94.9436 554.488 92.1795 557.378C92.0452 557.515 91.9069 557.653 91.7608 557.793L91.0404 558.466V559.42L90.9577 559.42C90.102 559.446 89.4318 560.114 89.4318 560.94V561.94H91.0404V564.612H84.5844V561.94H86.1928L86.1925 560.881C86.1606 560.087 85.4931 559.445 84.6666 559.42H84.5844V558.466L83.8648 557.794C83.7186 557.654 83.5802 557.516 83.4455 557.379C80.6805 554.488 80.3695 552.243 80.6565 550.87L84.9075 557.088L86.7964 555.88L80.8808 547.228L80.8567 547.2C80.5935 546.949 80.1697 546.927 79.8693 547.192L79.3063 547.814C79.1835 547.95 78.103 549.201 77.9564 551.322C77.7239 554.673 80.0022 557.628 81.9785 559.534V559.768V566.958L81.9879 567.132H81.9971C82.2035 570.347 84.4104 572.188 87.7723 572.188C91.1303 572.188 93.38 570.347 93.6203 567.132H93.6458V559.768V559.534C95.6224 557.629 97.9004 554.673 97.6682 551.322Z" fill="#00AA8F"/>
<defs>
<filter id="filter0_d" x="12" y="234" width="352" height="80" filterUnits="userSpaceOnUse" color-interpolation-filters="sRGB">
<feFlood flood-opacity="0" result="BackgroundImageFix"/>
<feColorMatrix in="SourceAlpha" type="matrix" values="0 0 0 0 0 0 0 0 0 0 0 0 0 0 0 0 0 0 127 0"/>
<feOffset dy="2"/>
<feGaussianBlur stdDeviation="4"/>
<feColorMatrix type="matrix" values="0 0 0 0 0 0 0 0 0 0 0 0 0 0 0 0 0 0 0.1 0"/>
<feBlend mode="normal" in2="BackgroundImageFix" result="effect1_dropShadow"/>
<feBlend mode="normal" in="SourceGraphic" in2="effect1_dropShadow" result="shape"/>
</filter>
<filter id="filter1_d" x="12" y="306" width="352" height="80" filterUnits="userSpaceOnUse" color-interpolation-filters="sRGB">
<feFlood flood-opacity="0" result="BackgroundImageFix"/>
<feColorMatrix in="SourceAlpha" type="matrix" values="0 0 0 0 0 0 0 0 0 0 0 0 0 0 0 0 0 0 127 0"/>
<feOffset dy="2"/>
<feGaussianBlur stdDeviation="4"/>
<feColorMatrix type="matrix" values="0 0 0 0 0 0 0 0 0 0 0 0 0 0 0 0 0 0 0.1 0"/>
<feBlend mode="normal" in2="BackgroundImageFix" result="effect1_dropShadow"/>
<feBlend mode="normal" in="SourceGraphic" in2="effect1_dropShadow" result="shape"/>
</filter>
<filter id="filter2_d" x="12" y="378" width="352" height="80" filterUnits="userSpaceOnUse" color-interpolation-filters="sRGB">
<feFlood flood-opacity="0" result="BackgroundImageFix"/>
<feColorMatrix in="SourceAlpha" type="matrix" values="0 0 0 0 0 0 0 0 0 0 0 0 0 0 0 0 0 0 127 0"/>
<feOffset dy="2"/>
<feGaussianBlur stdDeviation="4"/>
<feColorMatrix type="matrix" values="0 0 0 0 0 0 0 0 0 0 0 0 0 0 0 0 0 0 0.1 0"/>
<feBlend mode="normal" in2="BackgroundImageFix" result="effect1_dropShadow"/>
<feBlend mode="normal" in="SourceGraphic" in2="effect1_dropShadow" result="shape"/>
</filter>
<filter id="filter3_d" x="12" y="450" width="352" height="80" filterUnits="userSpaceOnUse" color-interpolation-filters="sRGB">
<feFlood flood-opacity="0" result="BackgroundImageFix"/>
<feColorMatrix in="SourceAlpha" type="matrix" values="0 0 0 0 0 0 0 0 0 0 0 0 0 0 0 0 0 0 127 0"/>
<feOffset dy="2"/>
<feGaussianBlur stdDeviation="4"/>
<feColorMatrix type="matrix" values="0 0 0 0 0 0 0 0 0 0 0 0 0 0 0 0 0 0 0.1 0"/>
<feBlend mode="normal" in2="BackgroundImageFix" result="effect1_dropShadow"/>
<feBlend mode="normal" in="SourceGraphic" in2="effect1_dropShadow" result="shape"/>
</filter>
<filter id="filter4_d" x="12" y="522" width="352" height="80" filterUnits="userSpaceOnUse" color-interpolation-filters="sRGB">
<feFlood flood-opacity="0" result="BackgroundImageFix"/>
<feColorMatrix in="SourceAlpha" type="matrix" values="0 0 0 0 0 0 0 0 0 0 0 0 0 0 0 0 0 0 127 0"/>
<feOffset dy="2"/>
<feGaussianBlur stdDeviation="4"/>
<feColorMatrix type="matrix" values="0 0 0 0 0 0 0 0 0 0 0 0 0 0 0 0 0 0 0.1 0"/>
<feBlend mode="normal" in2="BackgroundImageFix" result="effect1_dropShadow"/>
<feBlend mode="normal" in="SourceGraphic" in2="effect1_dropShadow" result="shape"/>
</filter>
</defs>
</svg>
