<svg width="375" height="812" viewBox="0 0 375 812" fill="none" xmlns="http://www.w3.org/2000/svg">
<rect width="375" height="812" fill="white"/>
<path fill-rule="evenodd" clip-rule="evenodd" d="M183.374 62.8123C182.636 62.8123 182.038 63.4284 182.038 64.1891C182.038 64.9493 182.636 65.5654 183.374 65.5654H200.88C201.618 65.5654 202.216 64.9493 202.216 64.1891C202.216 63.4284 201.618 62.8123 200.88 62.8123H183.374ZM203.669 63.2123C203.419 63.4693 203.279 63.8182 203.279 64.1891C203.279 64.5482 203.419 64.9079 203.669 65.1547C203.918 65.4218 204.256 65.5659 204.615 65.5659C204.965 65.5659 205.313 65.4218 205.563 65.1649C205.802 64.9079 205.953 64.5482 205.953 64.1891C205.953 63.8289 205.802 63.4693 205.563 63.2123C205.315 62.9564 204.966 62.8306 204.617 62.8306C204.265 62.8306 203.914 62.9591 203.669 63.2123ZM181.676 57.5815C180.938 57.5815 180.339 58.1976 180.339 58.9577C180.339 59.7184 180.938 60.3345 181.676 60.3345H198.424C199.162 60.3345 199.761 59.7184 199.761 58.9577C199.761 58.1976 199.162 57.5815 198.424 57.5815H181.676ZM176.324 57.9814C176.075 58.2486 175.925 58.5981 175.925 58.9572C175.925 59.3174 176.075 59.677 176.324 59.9233C176.563 60.191 176.912 60.3345 177.261 60.3345C177.62 60.3345 177.959 60.191 178.209 59.934C178.458 59.677 178.607 59.3174 178.607 58.9572C178.607 58.5981 178.458 58.2384 178.209 57.9814C177.959 57.7245 177.61 57.596 177.262 57.596C176.915 57.596 176.568 57.7245 176.324 57.9814ZM172.936 48.2202C172.197 48.2202 171.599 48.8363 171.599 49.597C171.599 50.3572 172.197 50.9733 172.936 50.9733H180.146C180.884 50.9733 181.483 50.3572 181.483 49.597C181.483 48.8363 180.884 48.2202 180.146 48.2202H172.936ZM167.9 48.618C167.651 48.8858 167.512 49.2352 167.512 49.5949C167.512 49.9545 167.661 50.3147 167.9 50.5711C168.15 50.8281 168.499 50.9722 168.848 50.9722C169.198 50.9722 169.547 50.8281 169.796 50.5711C170.045 50.3147 170.185 49.9647 170.185 49.5949C170.185 49.2352 170.045 48.875 169.796 48.618C169.547 48.3664 169.198 48.2406 168.848 48.2406C168.499 48.2406 168.15 48.3664 167.9 48.618ZM175.094 52.9011C174.356 52.9011 173.757 53.5172 173.757 54.2768C173.757 55.0375 174.356 55.6536 175.094 55.6536H189.107C189.846 55.6536 190.444 55.0375 190.444 54.2768C190.444 53.5172 189.846 52.9011 189.107 52.9011H175.094ZM191.924 53.3048C191.675 53.5613 191.534 53.9113 191.534 54.2817C191.534 54.6408 191.675 55.001 191.924 55.2472C192.173 55.5042 192.512 55.6585 192.872 55.6585C193.221 55.6585 193.569 55.5042 193.809 55.2472C194.058 55.001 194.208 54.6408 194.208 54.2817C194.208 53.9215 194.068 53.5613 193.809 53.3048C193.559 53.0479 193.21 52.9194 192.863 52.9194C192.515 52.9194 192.168 53.0479 191.924 53.3048ZM181.676 68.0432C180.938 68.0432 180.339 68.6598 180.339 69.42C180.339 70.1807 180.938 70.7962 181.676 70.7962H198.424C199.162 70.7962 199.761 70.1807 199.761 69.42C199.761 68.6598 199.162 68.0432 198.424 68.0432H181.676ZM176.324 68.4437C176.075 68.7007 175.925 69.0603 175.925 69.42C175.925 69.7796 176.075 70.1398 176.324 70.3968C176.563 70.6538 176.912 70.7968 177.261 70.7968C177.62 70.7968 177.959 70.6538 178.209 70.3968C178.458 70.1398 178.607 69.7796 178.607 69.42C178.607 69.0603 178.458 68.7007 178.209 68.4437C177.961 68.1878 177.614 68.062 177.268 68.062C176.918 68.062 176.569 68.1905 176.324 68.4437ZM172.936 77.4044C172.197 77.4044 171.599 78.0211 171.599 78.7812C171.599 79.5414 172.197 80.1575 172.936 80.1575H180.146C180.884 80.1575 181.483 79.5414 181.483 78.7812C181.483 78.0211 180.884 77.4044 180.146 77.4044H172.936ZM167.9 77.8066C167.661 78.0635 167.512 78.4226 167.512 78.7828C167.512 79.1425 167.661 79.5022 167.9 79.7591C168.15 80.0059 168.499 80.1602 168.848 80.1602C169.198 80.1602 169.547 80.0059 169.796 79.7591C170.045 79.5022 170.185 79.1425 170.185 78.7828C170.185 78.413 170.045 78.0635 169.796 77.8066C169.547 77.5501 169.198 77.4216 168.848 77.4216C168.499 77.4216 168.15 77.5501 167.9 77.8066ZM175.094 72.7241C174.356 72.7241 173.757 73.3402 173.757 74.1003C173.757 74.8605 174.356 75.4771 175.094 75.4771H189.107C189.846 75.4771 190.444 74.8605 190.444 74.1003C190.444 73.3402 189.846 72.7241 189.107 72.7241H175.094ZM191.924 73.13C191.675 73.3869 191.534 73.7369 191.534 74.1068C191.534 74.4664 191.675 74.8256 191.924 75.0723C192.173 75.3293 192.512 75.4739 192.872 75.4739C193.221 75.4739 193.569 75.3293 193.809 75.0723C194.058 74.8159 194.208 74.4664 194.208 74.1068C194.208 73.7369 194.058 73.3869 193.809 73.13C193.564 72.873 193.215 72.7445 192.866 72.7445C192.517 72.7445 192.168 72.873 191.924 73.13Z" fill="#304FF8"/>
<path d="M44.512 183.04V192H40.224V183.04L31.792 168.864H35.584C35.9573 168.864 36.2507 168.955 36.464 169.136C36.688 169.317 36.8747 169.547 37.024 169.824L41.248 177.552C41.4933 178.011 41.7067 178.443 41.888 178.848C42.08 179.253 42.2507 179.659 42.4 180.064C42.5387 179.659 42.6987 179.253 42.88 178.848C43.0613 178.443 43.2693 178.011 43.504 177.552L47.712 169.824C47.8293 169.589 48.0053 169.371 48.24 169.168C48.4747 168.965 48.7733 168.864 49.136 168.864H52.944L44.512 183.04ZM58.341 175.328C59.557 175.328 60.661 175.525 61.653 175.92C62.6557 176.315 63.509 176.875 64.213 177.6C64.9277 178.325 65.477 179.211 65.861 180.256C66.245 181.301 66.437 182.469 66.437 183.76C66.437 185.061 66.245 186.235 65.861 187.28C65.477 188.325 64.9277 189.216 64.213 189.952C63.509 190.688 62.6557 191.253 61.653 191.648C60.661 192.043 59.557 192.24 58.341 192.24C57.1143 192.24 55.9997 192.043 54.997 191.648C53.9943 191.253 53.1357 190.688 52.421 189.952C51.717 189.216 51.1677 188.325 50.773 187.28C50.389 186.235 50.197 185.061 50.197 183.76C50.197 182.469 50.389 181.301 50.773 180.256C51.1677 179.211 51.717 178.325 52.421 177.6C53.1357 176.875 53.9943 176.315 54.997 175.92C55.9997 175.525 57.1143 175.328 58.341 175.328ZM58.341 189.2C59.7063 189.2 60.7143 188.741 61.365 187.824C62.0263 186.907 62.357 185.563 62.357 183.792C62.357 182.021 62.0263 180.672 61.365 179.744C60.7143 178.816 59.7063 178.352 58.341 178.352C56.9543 178.352 55.925 178.821 55.253 179.76C54.5917 180.688 54.261 182.032 54.261 183.792C54.261 185.552 54.5917 186.896 55.253 187.824C55.925 188.741 56.9543 189.2 58.341 189.2ZM83.596 175.584V192H81.18C80.6573 192 80.3267 191.76 80.188 191.28L79.916 189.968C79.244 190.651 78.5027 191.205 77.692 191.632C76.8813 192.048 75.9267 192.256 74.828 192.256C73.932 192.256 73.1373 192.107 72.444 191.808C71.7613 191.499 71.1853 191.067 70.716 190.512C70.2467 189.957 69.8893 189.301 69.644 188.544C69.4093 187.776 69.292 186.933 69.292 186.016V175.584H73.244V186.016C73.244 187.019 73.4733 187.797 73.932 188.352C74.4013 188.896 75.1 189.168 76.028 189.168C76.7107 189.168 77.3507 189.019 77.948 188.72C78.5453 188.411 79.1107 187.989 79.644 187.456V175.584H83.596ZM91.2425 178.432C91.7545 177.451 92.3625 176.683 93.0665 176.128C93.7705 175.563 94.6025 175.28 95.5625 175.28C96.3198 175.28 96.9278 175.445 97.3865 175.776L97.1305 178.736C97.0772 178.928 96.9972 179.067 96.8905 179.152C96.7945 179.227 96.6612 179.264 96.4905 179.264C96.3305 179.264 96.0905 179.237 95.7705 179.184C95.4612 179.131 95.1572 179.104 94.8585 179.104C94.4212 179.104 94.0318 179.168 93.6905 179.296C93.3492 179.424 93.0398 179.611 92.7625 179.856C92.4958 180.091 92.2558 180.379 92.0425 180.72C91.8398 181.061 91.6478 181.451 91.4665 181.888V192H87.5145V175.584H89.8345C90.2398 175.584 90.5225 175.659 90.6825 175.808C90.8425 175.947 90.9492 176.203 91.0025 176.576L91.2425 178.432ZM110.498 187.744C110.946 188.288 111.431 188.672 111.954 188.896C112.487 189.12 113.047 189.232 113.634 189.232C114.242 189.232 114.786 189.125 115.266 188.912C115.756 188.688 116.172 188.347 116.514 187.888C116.855 187.419 117.116 186.827 117.298 186.112C117.479 185.387 117.57 184.523 117.57 183.52C117.57 181.717 117.271 180.416 116.674 179.616C116.076 178.805 115.218 178.4 114.098 178.4C113.34 178.4 112.679 178.576 112.114 178.928C111.548 179.269 111.01 179.755 110.498 180.384V187.744ZM110.498 177.6C111.159 176.907 111.89 176.357 112.69 175.952C113.5 175.536 114.423 175.328 115.458 175.328C116.407 175.328 117.26 175.515 118.018 175.888C118.786 176.261 119.436 176.8 119.97 177.504C120.514 178.197 120.93 179.04 121.218 180.032C121.506 181.024 121.65 182.139 121.65 183.376C121.65 184.709 121.484 185.92 121.154 187.008C120.823 188.096 120.348 189.029 119.73 189.808C119.122 190.576 118.386 191.173 117.522 191.6C116.658 192.027 115.698 192.24 114.642 192.24C114.13 192.24 113.666 192.187 113.25 192.08C112.834 191.984 112.45 191.845 112.098 191.664C111.746 191.483 111.42 191.264 111.122 191.008C110.834 190.741 110.556 190.448 110.29 190.128L110.114 191.232C110.05 191.509 109.938 191.707 109.778 191.824C109.628 191.941 109.42 192 109.154 192H106.546V168.224H110.498V177.6ZM138.846 175.584V192H136.43C135.907 192 135.577 191.76 135.438 191.28L135.166 189.968C134.494 190.651 133.753 191.205 132.942 191.632C132.131 192.048 131.177 192.256 130.078 192.256C129.182 192.256 128.387 192.107 127.694 191.808C127.011 191.499 126.435 191.067 125.966 190.512C125.497 189.957 125.139 189.301 124.894 188.544C124.659 187.776 124.542 186.933 124.542 186.016V175.584H128.494V186.016C128.494 187.019 128.723 187.797 129.182 188.352C129.651 188.896 130.35 189.168 131.278 189.168C131.961 189.168 132.601 189.019 133.198 188.72C133.795 188.411 134.361 187.989 134.894 187.456V175.584H138.846ZM152.781 178.784C152.674 178.955 152.562 179.077 152.445 179.152C152.327 179.216 152.178 179.248 151.997 179.248C151.805 179.248 151.597 179.195 151.373 179.088C151.159 178.981 150.909 178.864 150.621 178.736C150.333 178.597 150.002 178.475 149.628 178.368C149.266 178.261 148.834 178.208 148.333 178.208C147.554 178.208 146.941 178.373 146.493 178.704C146.055 179.035 145.837 179.467 145.837 180C145.837 180.352 145.949 180.651 146.173 180.896C146.407 181.131 146.711 181.339 147.085 181.52C147.469 181.701 147.901 181.867 148.381 182.016C148.861 182.155 149.346 182.309 149.837 182.48C150.338 182.651 150.829 182.848 151.309 183.072C151.789 183.285 152.215 183.563 152.589 183.904C152.973 184.235 153.277 184.635 153.501 185.104C153.735 185.573 153.853 186.139 153.853 186.8C153.853 187.589 153.709 188.32 153.421 188.992C153.143 189.653 152.727 190.229 152.173 190.72C151.618 191.2 150.93 191.579 150.109 191.856C149.298 192.123 148.359 192.256 147.293 192.256C146.727 192.256 146.173 192.203 145.629 192.096C145.095 192 144.578 191.861 144.077 191.68C143.586 191.499 143.127 191.285 142.701 191.04C142.285 190.795 141.917 190.528 141.597 190.24L142.509 188.736C142.626 188.555 142.765 188.416 142.924 188.32C143.084 188.224 143.287 188.176 143.533 188.176C143.778 188.176 144.007 188.245 144.221 188.384C144.445 188.523 144.701 188.672 144.989 188.832C145.277 188.992 145.613 189.141 145.997 189.28C146.391 189.419 146.887 189.488 147.485 189.488C147.954 189.488 148.354 189.435 148.685 189.328C149.026 189.211 149.303 189.061 149.517 188.88C149.741 188.699 149.9 188.491 149.997 188.256C150.103 188.011 150.157 187.76 150.157 187.504C150.157 187.12 150.039 186.805 149.805 186.56C149.581 186.315 149.277 186.101 148.892 185.92C148.519 185.739 148.087 185.579 147.597 185.44C147.117 185.291 146.621 185.131 146.109 184.96C145.607 184.789 145.111 184.592 144.621 184.368C144.141 184.133 143.709 183.84 143.325 183.488C142.951 183.136 142.647 182.704 142.413 182.192C142.189 181.68 142.077 181.061 142.077 180.336C142.077 179.664 142.21 179.024 142.477 178.416C142.743 177.808 143.133 177.28 143.645 176.832C144.167 176.373 144.813 176.011 145.581 175.744C146.359 175.467 147.255 175.328 148.269 175.328C149.399 175.328 150.429 175.515 151.357 175.888C152.285 176.261 153.058 176.752 153.677 177.36L152.781 178.784ZM160.923 175.584V192H156.955V175.584H160.923ZM161.467 170.8C161.467 171.141 161.398 171.461 161.259 171.76C161.12 172.059 160.934 172.32 160.699 172.544C160.475 172.768 160.208 172.949 159.899 173.088C159.59 173.216 159.259 173.28 158.907 173.28C158.566 173.28 158.24 173.216 157.931 173.088C157.632 172.949 157.371 172.768 157.147 172.544C156.923 172.32 156.742 172.059 156.603 171.76C156.475 171.461 156.411 171.141 156.411 170.8C156.411 170.448 156.475 170.117 156.603 169.808C156.742 169.499 156.923 169.232 157.147 169.008C157.371 168.784 157.632 168.608 157.931 168.48C158.24 168.341 158.566 168.272 158.907 168.272C159.259 168.272 159.59 168.341 159.899 168.48C160.208 168.608 160.475 168.784 160.699 169.008C160.934 169.232 161.12 169.499 161.259 169.808C161.398 170.117 161.467 170.448 161.467 170.8ZM168.648 177.6C168.979 177.269 169.325 176.965 169.688 176.688C170.061 176.4 170.451 176.16 170.856 175.968C171.272 175.765 171.715 175.611 172.184 175.504C172.653 175.387 173.165 175.328 173.72 175.328C174.616 175.328 175.411 175.483 176.104 175.792C176.797 176.091 177.373 176.517 177.832 177.072C178.301 177.616 178.653 178.272 178.888 179.04C179.133 179.797 179.256 180.635 179.256 181.552V192H175.304V181.552C175.304 180.549 175.075 179.776 174.616 179.232C174.157 178.677 173.459 178.4 172.52 178.4C171.837 178.4 171.197 178.555 170.6 178.864C170.003 179.173 169.437 179.595 168.904 180.128V192H164.952V175.584H167.368C167.88 175.584 168.216 175.824 168.376 176.304L168.648 177.6ZM193.591 181.904C193.591 181.392 193.516 180.912 193.367 180.464C193.228 180.005 193.015 179.605 192.727 179.264C192.439 178.923 192.071 178.656 191.623 178.464C191.185 178.261 190.673 178.16 190.087 178.16C188.945 178.16 188.044 178.485 187.383 179.136C186.732 179.787 186.316 180.709 186.135 181.904H193.591ZM186.055 184.288C186.119 185.131 186.268 185.861 186.503 186.48C186.737 187.088 187.047 187.595 187.431 188C187.815 188.395 188.268 188.693 188.791 188.896C189.324 189.088 189.911 189.184 190.551 189.184C191.191 189.184 191.74 189.109 192.199 188.96C192.668 188.811 193.073 188.645 193.415 188.464C193.767 188.283 194.071 188.117 194.327 187.968C194.593 187.819 194.849 187.744 195.095 187.744C195.425 187.744 195.671 187.867 195.831 188.112L196.967 189.552C196.529 190.064 196.039 190.496 195.495 190.848C194.951 191.189 194.38 191.467 193.783 191.68C193.196 191.883 192.593 192.027 191.975 192.112C191.367 192.197 190.775 192.24 190.199 192.24C189.057 192.24 187.996 192.053 187.015 191.68C186.033 191.296 185.18 190.736 184.455 190C183.729 189.253 183.159 188.336 182.743 187.248C182.327 186.149 182.118 184.88 182.118 183.44C182.118 182.32 182.3 181.269 182.663 180.288C183.025 179.296 183.543 178.437 184.215 177.712C184.897 176.976 185.724 176.395 186.695 175.968C187.676 175.541 188.78 175.328 190.007 175.328C191.041 175.328 191.996 175.493 192.871 175.824C193.745 176.155 194.497 176.64 195.127 177.28C195.756 177.909 196.247 178.688 196.599 179.616C196.961 180.533 197.142 181.584 197.142 182.768C197.142 183.365 197.079 183.771 196.951 183.984C196.823 184.187 196.577 184.288 196.215 184.288H186.055ZM210.124 178.784C210.018 178.955 209.906 179.077 209.788 179.152C209.671 179.216 209.522 179.248 209.34 179.248C209.148 179.248 208.94 179.195 208.716 179.088C208.503 178.981 208.252 178.864 207.964 178.736C207.676 178.597 207.346 178.475 206.972 178.368C206.61 178.261 206.178 178.208 205.676 178.208C204.898 178.208 204.284 178.373 203.836 178.704C203.399 179.035 203.18 179.467 203.18 180C203.18 180.352 203.292 180.651 203.516 180.896C203.751 181.131 204.055 181.339 204.428 181.52C204.812 181.701 205.244 181.867 205.724 182.016C206.204 182.155 206.69 182.309 207.18 182.48C207.682 182.651 208.172 182.848 208.652 183.072C209.132 183.285 209.559 183.563 209.932 183.904C210.316 184.235 210.62 184.635 210.844 185.104C211.079 185.573 211.196 186.139 211.196 186.8C211.196 187.589 211.052 188.32 210.764 188.992C210.487 189.653 210.071 190.229 209.516 190.72C208.962 191.2 208.274 191.579 207.452 191.856C206.642 192.123 205.703 192.256 204.636 192.256C204.071 192.256 203.516 192.203 202.972 192.096C202.439 192 201.922 191.861 201.42 191.68C200.93 191.499 200.471 191.285 200.044 191.04C199.628 190.795 199.26 190.528 198.94 190.24L199.852 188.736C199.97 188.555 200.108 188.416 200.268 188.32C200.428 188.224 200.631 188.176 200.876 188.176C201.122 188.176 201.351 188.245 201.564 188.384C201.788 188.523 202.044 188.672 202.332 188.832C202.62 188.992 202.956 189.141 203.34 189.28C203.735 189.419 204.231 189.488 204.828 189.488C205.298 189.488 205.698 189.435 206.028 189.328C206.37 189.211 206.647 189.061 206.86 188.88C207.084 188.699 207.244 188.491 207.34 188.256C207.447 188.011 207.5 187.76 207.5 187.504C207.5 187.12 207.383 186.805 207.148 186.56C206.924 186.315 206.62 186.101 206.236 185.92C205.863 185.739 205.431 185.579 204.94 185.44C204.46 185.291 203.964 185.131 203.452 184.96C202.951 184.789 202.455 184.592 201.964 184.368C201.484 184.133 201.052 183.84 200.668 183.488C200.295 183.136 199.991 182.704 199.756 182.192C199.532 181.68 199.42 181.061 199.42 180.336C199.42 179.664 199.554 179.024 199.82 178.416C200.087 177.808 200.476 177.28 200.988 176.832C201.511 176.373 202.156 176.011 202.924 175.744C203.703 175.467 204.599 175.328 205.612 175.328C206.743 175.328 207.772 175.515 208.7 175.888C209.628 176.261 210.402 176.752 211.02 177.36L210.124 178.784ZM224.187 178.784C224.08 178.955 223.968 179.077 223.851 179.152C223.733 179.216 223.584 179.248 223.403 179.248C223.211 179.248 223.003 179.195 222.779 179.088C222.565 178.981 222.315 178.864 222.027 178.736C221.739 178.597 221.408 178.475 221.035 178.368C220.672 178.261 220.24 178.208 219.739 178.208C218.96 178.208 218.347 178.373 217.899 178.704C217.461 179.035 217.243 179.467 217.243 180C217.243 180.352 217.355 180.651 217.579 180.896C217.813 181.131 218.117 181.339 218.491 181.52C218.875 181.701 219.307 181.867 219.787 182.016C220.267 182.155 220.752 182.309 221.243 182.48C221.744 182.651 222.235 182.848 222.715 183.072C223.195 183.285 223.621 183.563 223.995 183.904C224.379 184.235 224.683 184.635 224.907 185.104C225.141 185.573 225.259 186.139 225.259 186.8C225.259 187.589 225.115 188.32 224.827 188.992C224.549 189.653 224.133 190.229 223.579 190.72C223.024 191.2 222.336 191.579 221.515 191.856C220.704 192.123 219.765 192.256 218.699 192.256C218.133 192.256 217.579 192.203 217.035 192.096C216.501 192 215.984 191.861 215.483 191.68C214.992 191.499 214.533 191.285 214.107 191.04C213.691 190.795 213.323 190.528 213.003 190.24L213.915 188.736C214.032 188.555 214.171 188.416 214.331 188.32C214.491 188.224 214.693 188.176 214.939 188.176C215.184 188.176 215.413 188.245 215.627 188.384C215.851 188.523 216.107 188.672 216.395 188.832C216.683 188.992 217.019 189.141 217.403 189.28C217.797 189.419 218.293 189.488 218.891 189.488C219.36 189.488 219.76 189.435 220.091 189.328C220.432 189.211 220.709 189.061 220.923 188.88C221.147 188.699 221.307 188.491 221.403 188.256C221.509 188.011 221.563 187.76 221.563 187.504C221.563 187.12 221.445 186.805 221.211 186.56C220.987 186.315 220.683 186.101 220.299 185.92C219.925 185.739 219.493 185.579 219.003 185.44C218.523 185.291 218.027 185.131 217.515 184.96C217.013 184.789 216.517 184.592 216.027 184.368C215.547 184.133 215.115 183.84 214.731 183.488C214.357 183.136 214.053 182.704 213.819 182.192C213.595 181.68 213.483 181.061 213.483 180.336C213.483 179.664 213.616 179.024 213.883 178.416C214.149 177.808 214.539 177.28 215.051 176.832C215.573 176.373 216.219 176.011 216.987 175.744C217.765 175.467 218.661 175.328 219.675 175.328C220.805 175.328 221.835 175.515 222.763 175.888C223.691 176.261 224.464 176.752 225.083 177.36L224.187 178.784ZM239.743 178.432C240.255 177.451 240.863 176.683 241.567 176.128C242.271 175.563 243.103 175.28 244.062 175.28C244.82 175.28 245.428 175.445 245.887 175.776L245.631 178.736C245.577 178.928 245.497 179.067 245.391 179.152C245.295 179.227 245.161 179.264 244.991 179.264C244.831 179.264 244.591 179.237 244.271 179.184C243.961 179.131 243.657 179.104 243.359 179.104C242.921 179.104 242.532 179.168 242.191 179.296C241.849 179.424 241.54 179.611 241.263 179.856C240.996 180.091 240.756 180.379 240.543 180.72C240.34 181.061 240.148 181.451 239.967 181.888V192H236.015V175.584H238.335C238.74 175.584 239.023 175.659 239.183 175.808C239.343 175.947 239.449 176.203 239.503 176.576L239.743 178.432ZM258.059 181.904C258.059 181.392 257.985 180.912 257.835 180.464C257.697 180.005 257.483 179.605 257.195 179.264C256.907 178.923 256.539 178.656 256.091 178.464C255.654 178.261 255.142 178.16 254.555 178.16C253.414 178.16 252.513 178.485 251.851 179.136C251.201 179.787 250.785 180.709 250.603 181.904H258.059ZM250.523 184.288C250.587 185.131 250.737 185.861 250.971 186.48C251.206 187.088 251.515 187.595 251.899 188C252.283 188.395 252.737 188.693 253.259 188.896C253.793 189.088 254.379 189.184 255.019 189.184C255.659 189.184 256.209 189.109 256.667 188.96C257.137 188.811 257.542 188.645 257.883 188.464C258.235 188.283 258.539 188.117 258.795 187.968C259.062 187.819 259.318 187.744 259.563 187.744C259.894 187.744 260.139 187.867 260.299 188.112L261.435 189.552C260.998 190.064 260.507 190.496 259.963 190.848C259.419 191.189 258.849 191.467 258.251 191.68C257.665 191.883 257.062 192.027 256.443 192.112C255.835 192.197 255.243 192.24 254.667 192.24C253.526 192.24 252.465 192.053 251.483 191.68C250.502 191.296 249.649 190.736 248.923 190C248.198 189.253 247.627 188.336 247.211 187.248C246.795 186.149 246.587 184.88 246.587 183.44C246.587 182.32 246.769 181.269 247.131 180.288C247.494 179.296 248.011 178.437 248.683 177.712C249.366 176.976 250.193 176.395 251.163 175.968C252.145 175.541 253.249 175.328 254.475 175.328C255.51 175.328 256.465 175.493 257.339 175.824C258.214 176.155 258.966 176.64 259.595 177.28C260.225 177.909 260.715 178.688 261.067 179.616C261.43 180.533 261.611 181.584 261.611 182.768C261.611 183.365 261.547 183.771 261.419 183.984C261.291 184.187 261.046 184.288 260.683 184.288H250.523ZM274.593 178.784C274.486 178.955 274.374 179.077 274.257 179.152C274.14 179.216 273.99 179.248 273.809 179.248C273.617 179.248 273.409 179.195 273.185 179.088C272.972 178.981 272.721 178.864 272.433 178.736C272.145 178.597 271.814 178.475 271.441 178.368C271.078 178.261 270.646 178.208 270.145 178.208C269.366 178.208 268.753 178.373 268.305 178.704C267.868 179.035 267.649 179.467 267.649 180C267.649 180.352 267.761 180.651 267.985 180.896C268.22 181.131 268.524 181.339 268.897 181.52C269.281 181.701 269.713 181.867 270.193 182.016C270.673 182.155 271.158 182.309 271.649 182.48C272.15 182.651 272.641 182.848 273.121 183.072C273.601 183.285 274.028 183.563 274.401 183.904C274.785 184.235 275.089 184.635 275.313 185.104C275.548 185.573 275.665 186.139 275.665 186.8C275.665 187.589 275.521 188.32 275.233 188.992C274.956 189.653 274.54 190.229 273.985 190.72C273.43 191.2 272.742 191.579 271.921 191.856C271.11 192.123 270.172 192.256 269.105 192.256C268.54 192.256 267.985 192.203 267.441 192.096C266.908 192 266.39 191.861 265.889 191.68C265.398 191.499 264.94 191.285 264.513 191.04C264.097 190.795 263.729 190.528 263.409 190.24L264.321 188.736C264.438 188.555 264.577 188.416 264.737 188.32C264.897 188.224 265.1 188.176 265.345 188.176C265.59 188.176 265.82 188.245 266.033 188.384C266.257 188.523 266.513 188.672 266.801 188.832C267.089 188.992 267.425 189.141 267.809 189.28C268.204 189.419 268.7 189.488 269.297 189.488C269.766 189.488 270.166 189.435 270.497 189.328C270.838 189.211 271.116 189.061 271.329 188.88C271.553 188.699 271.713 188.491 271.809 188.256C271.916 188.011 271.969 187.76 271.969 187.504C271.969 187.12 271.852 186.805 271.617 186.56C271.393 186.315 271.089 186.101 270.705 185.92C270.332 185.739 269.9 185.579 269.409 185.44C268.929 185.291 268.433 185.131 267.921 184.96C267.42 184.789 266.924 184.592 266.433 184.368C265.953 184.133 265.521 183.84 265.137 183.488C264.764 183.136 264.46 182.704 264.225 182.192C264.001 181.68 263.889 181.061 263.889 180.336C263.889 179.664 264.022 179.024 264.289 178.416C264.556 177.808 264.945 177.28 265.457 176.832C265.98 176.373 266.625 176.011 267.393 175.744C268.172 175.467 269.068 175.328 270.081 175.328C271.212 175.328 272.241 175.515 273.169 175.888C274.097 176.261 274.87 176.752 275.489 177.36L274.593 178.784ZM292.784 175.584V192H290.368C289.845 192 289.514 191.76 289.376 191.28L289.104 189.968C288.432 190.651 287.69 191.205 286.88 191.632C286.069 192.048 285.114 192.256 284.016 192.256C283.12 192.256 282.325 192.107 281.632 191.808C280.949 191.499 280.373 191.067 279.904 190.512C279.434 189.957 279.077 189.301 278.832 188.544C278.597 187.776 278.48 186.933 278.48 186.016V175.584H282.432V186.016C282.432 187.019 282.661 187.797 283.12 188.352C283.589 188.896 284.288 189.168 285.216 189.168C285.898 189.168 286.538 189.019 287.136 188.72C287.733 188.411 288.298 187.989 288.832 187.456V175.584H292.784ZM300.702 168.224V192H296.75V168.224H300.702ZM310.112 192.256C308.682 192.256 307.584 191.856 306.816 191.056C306.058 190.245 305.68 189.131 305.68 187.712V178.544H304C303.786 178.544 303.605 178.475 303.456 178.336C303.306 178.197 303.232 177.989 303.232 177.712V176.144L305.872 175.712L306.704 171.232C306.757 171.019 306.858 170.853 307.008 170.736C307.157 170.619 307.349 170.56 307.584 170.56H309.632V175.728H314.016V178.544H309.632V187.44C309.632 187.952 309.754 188.352 310 188.64C310.256 188.928 310.602 189.072 311.04 189.072C311.285 189.072 311.488 189.045 311.648 188.992C311.818 188.928 311.962 188.864 312.08 188.8C312.208 188.736 312.32 188.677 312.416 188.624C312.512 188.56 312.608 188.528 312.704 188.528C312.821 188.528 312.917 188.56 312.992 188.624C313.066 188.677 313.146 188.763 313.232 188.88L314.416 190.8C313.84 191.28 313.178 191.643 312.432 191.888C311.685 192.133 310.912 192.256 310.112 192.256ZM326.562 178.784C326.455 178.955 326.343 179.077 326.226 179.152C326.108 179.216 325.959 179.248 325.778 179.248C325.586 179.248 325.378 179.195 325.154 179.088C324.94 178.981 324.69 178.864 324.402 178.736C324.114 178.597 323.783 178.475 323.41 178.368C323.047 178.261 322.615 178.208 322.114 178.208C321.335 178.208 320.722 178.373 320.274 178.704C319.836 179.035 319.618 179.467 319.618 180C319.618 180.352 319.73 180.651 319.954 180.896C320.188 181.131 320.492 181.339 320.866 181.52C321.25 181.701 321.682 181.867 322.162 182.016C322.642 182.155 323.127 182.309 323.618 182.48C324.119 182.651 324.61 182.848 325.09 183.072C325.57 183.285 325.996 183.563 326.37 183.904C326.754 184.235 327.058 184.635 327.282 185.104C327.516 185.573 327.634 186.139 327.634 186.8C327.634 187.589 327.49 188.32 327.202 188.992C326.924 189.653 326.508 190.229 325.954 190.72C325.399 191.2 324.711 191.579 323.89 191.856C323.079 192.123 322.14 192.256 321.074 192.256C320.508 192.256 319.954 192.203 319.41 192.096C318.876 192 318.359 191.861 317.858 191.68C317.367 191.499 316.908 191.285 316.482 191.04C316.066 190.795 315.698 190.528 315.378 190.24L316.29 188.736C316.407 188.555 316.546 188.416 316.706 188.32C316.866 188.224 317.068 188.176 317.314 188.176C317.559 188.176 317.788 188.245 318.002 188.384C318.226 188.523 318.482 188.672 318.77 188.832C319.058 188.992 319.394 189.141 319.778 189.28C320.172 189.419 320.668 189.488 321.266 189.488C321.735 189.488 322.135 189.435 322.466 189.328C322.807 189.211 323.084 189.061 323.298 188.88C323.522 188.699 323.682 188.491 323.778 188.256C323.884 188.011 323.938 187.76 323.938 187.504C323.938 187.12 323.82 186.805 323.586 186.56C323.362 186.315 323.058 186.101 322.674 185.92C322.3 185.739 321.868 185.579 321.378 185.44C320.898 185.291 320.402 185.131 319.89 184.96C319.388 184.789 318.892 184.592 318.402 184.368C317.922 184.133 317.49 183.84 317.106 183.488C316.732 183.136 316.428 182.704 316.194 182.192C315.97 181.68 315.858 181.061 315.858 180.336C315.858 179.664 315.991 179.024 316.258 178.416C316.524 177.808 316.914 177.28 317.426 176.832C317.948 176.373 318.594 176.011 319.362 175.744C320.14 175.467 321.036 175.328 322.05 175.328C323.18 175.328 324.21 175.515 325.138 175.888C326.066 176.261 326.839 176.752 327.458 177.36L326.562 178.784Z" fill="#2A2C2B"/>
<g filter="url(#filter0_d)">
<rect x="20" y="160" width="336" height="492" rx="8" fill="white"/>
</g>
<path d="M110.139 232.432V234H103.483V222.48H105.355V232.432H110.139ZM114.617 225.712C115.219 225.712 115.763 225.811 116.249 226.008C116.739 226.205 117.155 226.485 117.497 226.848C117.843 227.211 118.11 227.651 118.297 228.168C118.483 228.685 118.577 229.267 118.577 229.912C118.577 230.557 118.483 231.139 118.297 231.656C118.11 232.173 117.843 232.616 117.497 232.984C117.155 233.347 116.739 233.627 116.249 233.824C115.763 234.021 115.219 234.12 114.617 234.12C114.009 234.12 113.459 234.021 112.969 233.824C112.483 233.627 112.067 233.347 111.721 232.984C111.374 232.616 111.107 232.173 110.921 231.656C110.734 231.139 110.641 230.557 110.641 229.912C110.641 229.267 110.734 228.685 110.921 228.168C111.107 227.651 111.374 227.211 111.721 226.848C112.067 226.485 112.483 226.205 112.969 226.008C113.459 225.811 114.009 225.712 114.617 225.712ZM114.617 232.776C115.353 232.776 115.899 232.531 116.257 232.04C116.619 231.544 116.801 230.837 116.801 229.92C116.801 229.003 116.619 228.296 116.257 227.8C115.899 227.299 115.353 227.048 114.617 227.048C113.87 227.048 113.315 227.299 112.953 227.8C112.59 228.296 112.409 229.003 112.409 229.92C112.409 230.837 112.59 231.544 112.953 232.04C113.315 232.531 113.87 232.776 114.617 232.776ZM124.749 230.432C124.136 230.453 123.619 230.504 123.197 230.584C122.776 230.659 122.435 230.757 122.173 230.88C121.912 230.997 121.723 231.139 121.605 231.304C121.493 231.469 121.437 231.651 121.437 231.848C121.437 232.04 121.467 232.205 121.525 232.344C121.589 232.477 121.675 232.589 121.781 232.68C121.893 232.765 122.021 232.829 122.165 232.872C122.315 232.909 122.477 232.928 122.653 232.928C123.101 232.928 123.485 232.845 123.805 232.68C124.131 232.509 124.445 232.264 124.749 231.944V230.432ZM120.189 226.976C121.112 226.117 122.211 225.688 123.485 225.688C123.955 225.688 124.371 225.765 124.733 225.92C125.101 226.069 125.408 226.283 125.653 226.56C125.904 226.837 126.093 227.168 126.221 227.552C126.355 227.931 126.421 228.352 126.421 228.816V234H125.653C125.488 234 125.363 233.976 125.277 233.928C125.192 233.875 125.12 233.771 125.061 233.616L124.893 232.952C124.685 233.139 124.48 233.307 124.277 233.456C124.075 233.6 123.864 233.723 123.645 233.824C123.432 233.925 123.2 234 122.949 234.048C122.704 234.101 122.432 234.128 122.133 234.128C121.803 234.128 121.493 234.083 121.205 233.992C120.923 233.901 120.677 233.765 120.469 233.584C120.261 233.397 120.096 233.168 119.973 232.896C119.856 232.624 119.797 232.304 119.797 231.936C119.797 231.621 119.88 231.315 120.045 231.016C120.216 230.717 120.493 230.451 120.877 230.216C121.267 229.976 121.776 229.779 122.405 229.624C123.04 229.469 123.821 229.381 124.749 229.36V228.816C124.749 228.229 124.624 227.792 124.373 227.504C124.123 227.216 123.755 227.072 123.269 227.072C122.939 227.072 122.661 227.115 122.437 227.2C122.213 227.28 122.019 227.368 121.853 227.464C121.688 227.56 121.541 227.651 121.413 227.736C121.285 227.816 121.149 227.856 121.005 227.856C120.888 227.856 120.787 227.827 120.701 227.768C120.621 227.704 120.555 227.627 120.501 227.536L120.189 226.976ZM130.204 226.92C130.38 226.739 130.561 226.576 130.748 226.432C130.94 226.283 131.143 226.155 131.356 226.048C131.569 225.941 131.796 225.859 132.036 225.8C132.276 225.741 132.537 225.712 132.82 225.712C133.268 225.712 133.66 225.787 133.996 225.936C134.337 226.085 134.623 226.296 134.852 226.568C135.087 226.84 135.263 227.168 135.38 227.552C135.497 227.931 135.556 228.349 135.556 228.808V234H133.844V228.808C133.844 228.259 133.716 227.832 133.46 227.528C133.209 227.224 132.825 227.072 132.308 227.072C131.924 227.072 131.567 227.16 131.236 227.336C130.911 227.512 130.604 227.752 130.316 228.056V234H128.596V225.84H129.636C129.871 225.84 130.02 225.949 130.084 226.168L130.204 226.92ZM147.754 229.68L146.17 225.472C146.042 225.147 145.911 224.733 145.778 224.232C145.719 224.483 145.655 224.715 145.586 224.928C145.517 225.136 145.453 225.32 145.394 225.48L143.81 229.68H147.754ZM151.298 234H149.85C149.685 234 149.551 233.96 149.45 233.88C149.349 233.795 149.271 233.691 149.218 233.568L148.258 231.024H143.298L142.338 233.568C142.295 233.675 142.221 233.773 142.114 233.864C142.007 233.955 141.874 234 141.714 234H140.266L144.834 222.48H146.73L151.298 234ZM152.451 234V225.84H153.491C153.726 225.84 153.875 225.949 153.939 226.168L154.051 226.88C154.2 226.709 154.355 226.555 154.515 226.416C154.675 226.272 154.846 226.149 155.027 226.048C155.214 225.941 155.411 225.859 155.619 225.8C155.832 225.741 156.062 225.712 156.307 225.712C156.568 225.712 156.808 225.749 157.027 225.824C157.246 225.899 157.438 226.005 157.603 226.144C157.774 226.283 157.92 226.451 158.043 226.648C158.166 226.845 158.267 227.067 158.347 227.312C158.47 227.029 158.624 226.787 158.811 226.584C158.998 226.381 159.206 226.216 159.435 226.088C159.664 225.96 159.907 225.867 160.163 225.808C160.424 225.744 160.688 225.712 160.955 225.712C161.392 225.712 161.782 225.781 162.123 225.92C162.47 226.059 162.76 226.261 162.995 226.528C163.235 226.789 163.416 227.112 163.539 227.496C163.662 227.88 163.723 228.317 163.723 228.808V234H162.003V228.808C162.003 228.232 161.878 227.8 161.627 227.512C161.382 227.219 161.016 227.072 160.531 227.072C160.312 227.072 160.107 227.109 159.915 227.184C159.723 227.259 159.555 227.368 159.411 227.512C159.267 227.656 159.152 227.837 159.067 228.056C158.987 228.269 158.947 228.52 158.947 228.808V234H157.227V228.808C157.227 228.211 157.107 227.773 156.867 227.496C156.627 227.213 156.275 227.072 155.811 227.072C155.491 227.072 155.195 227.155 154.923 227.32C154.651 227.48 154.4 227.701 154.171 227.984V234H152.451ZM169.42 225.712C170.023 225.712 170.567 225.811 171.052 226.008C171.543 226.205 171.959 226.485 172.3 226.848C172.647 227.211 172.914 227.651 173.1 228.168C173.287 228.685 173.38 229.267 173.38 229.912C173.38 230.557 173.287 231.139 173.1 231.656C172.914 232.173 172.647 232.616 172.3 232.984C171.959 233.347 171.543 233.627 171.052 233.824C170.567 234.021 170.023 234.12 169.42 234.12C168.812 234.12 168.263 234.021 167.772 233.824C167.287 233.627 166.871 233.347 166.524 232.984C166.178 232.616 165.911 232.173 165.724 231.656C165.538 231.139 165.444 230.557 165.444 229.912C165.444 229.267 165.538 228.685 165.724 228.168C165.911 227.651 166.178 227.211 166.524 226.848C166.871 226.485 167.287 226.205 167.772 226.008C168.263 225.811 168.812 225.712 169.42 225.712ZM169.42 232.776C170.156 232.776 170.703 232.531 171.06 232.04C171.423 231.544 171.604 230.837 171.604 229.92C171.604 229.003 171.423 228.296 171.06 227.8C170.703 227.299 170.156 227.048 169.42 227.048C168.674 227.048 168.119 227.299 167.756 227.8C167.394 228.296 167.212 229.003 167.212 229.92C167.212 230.837 167.394 231.544 167.756 232.04C168.119 232.531 168.674 232.776 169.42 232.776ZM182.073 225.84V234H181.033C180.804 234 180.657 233.891 180.593 233.672L180.465 232.912C180.294 233.093 180.113 233.259 179.921 233.408C179.734 233.557 179.534 233.685 179.321 233.792C179.108 233.899 178.878 233.981 178.633 234.04C178.393 234.099 178.134 234.128 177.857 234.128C177.409 234.128 177.014 234.053 176.673 233.904C176.332 233.755 176.044 233.544 175.809 233.272C175.58 233 175.406 232.675 175.289 232.296C175.172 231.912 175.113 231.491 175.113 231.032V225.84H176.833V231.032C176.833 231.581 176.958 232.008 177.209 232.312C177.465 232.616 177.852 232.768 178.369 232.768C178.748 232.768 179.1 232.683 179.425 232.512C179.756 232.336 180.065 232.096 180.353 231.792V225.84H182.073ZM185.93 226.92C186.106 226.739 186.287 226.576 186.474 226.432C186.666 226.283 186.868 226.155 187.082 226.048C187.295 225.941 187.522 225.859 187.762 225.8C188.002 225.741 188.263 225.712 188.546 225.712C188.994 225.712 189.386 225.787 189.722 225.936C190.063 226.085 190.348 226.296 190.578 226.568C190.812 226.84 190.988 227.168 191.106 227.552C191.223 227.931 191.282 228.349 191.282 228.808V234H189.57V228.808C189.57 228.259 189.442 227.832 189.186 227.528C188.935 227.224 188.551 227.072 188.034 227.072C187.65 227.072 187.292 227.16 186.962 227.336C186.636 227.512 186.33 227.752 186.042 228.056V234H184.322V225.84H185.362C185.596 225.84 185.746 225.949 185.81 226.168L185.93 226.92ZM195.957 234.128C195.28 234.128 194.757 233.939 194.389 233.56C194.026 233.176 193.845 232.637 193.845 231.944V227.192H192.949C192.853 227.192 192.77 227.163 192.701 227.104C192.632 227.04 192.597 226.947 192.597 226.824V226.128L193.917 225.936L194.293 223.576C194.32 223.485 194.365 223.413 194.429 223.36C194.493 223.301 194.578 223.272 194.685 223.272H195.565V225.952H197.829V227.192H195.565V231.824C195.565 232.117 195.637 232.341 195.781 232.496C195.925 232.651 196.117 232.728 196.357 232.728C196.49 232.728 196.605 232.712 196.701 232.68C196.797 232.643 196.88 232.605 196.949 232.568C197.018 232.525 197.077 232.488 197.125 232.456C197.178 232.419 197.229 232.4 197.277 232.4C197.373 232.4 197.45 232.453 197.509 232.56L198.021 233.4C197.754 233.635 197.44 233.816 197.077 233.944C196.714 234.067 196.341 234.128 195.957 234.128ZM205.689 223.992V227.68H210.193V229.192H205.689V234H203.809V222.48H210.993V223.992H205.689ZM217.345 229C217.345 228.712 217.302 228.445 217.217 228.2C217.137 227.949 217.017 227.733 216.857 227.552C216.697 227.365 216.497 227.221 216.257 227.12C216.022 227.013 215.75 226.96 215.441 226.96C214.817 226.96 214.326 227.139 213.969 227.496C213.612 227.853 213.385 228.355 213.289 229H217.345ZM213.241 230.056C213.262 230.52 213.334 230.923 213.457 231.264C213.58 231.6 213.742 231.88 213.945 232.104C214.153 232.328 214.398 232.496 214.681 232.608C214.969 232.715 215.289 232.768 215.641 232.768C215.977 232.768 216.268 232.731 216.513 232.656C216.758 232.576 216.972 232.491 217.153 232.4C217.334 232.304 217.489 232.219 217.617 232.144C217.745 232.064 217.862 232.024 217.969 232.024C218.108 232.024 218.214 232.077 218.289 232.184L218.777 232.816C218.574 233.056 218.345 233.259 218.089 233.424C217.833 233.589 217.561 233.725 217.273 233.832C216.985 233.933 216.689 234.005 216.385 234.048C216.081 234.096 215.785 234.12 215.497 234.12C214.932 234.12 214.406 234.027 213.921 233.84C213.441 233.648 213.022 233.368 212.665 233C212.313 232.632 212.036 232.176 211.833 231.632C211.636 231.088 211.537 230.461 211.537 229.752C211.537 229.187 211.625 228.659 211.801 228.168C211.982 227.677 212.238 227.251 212.569 226.888C212.905 226.525 213.31 226.24 213.785 226.032C214.265 225.819 214.806 225.712 215.409 225.712C215.91 225.712 216.374 225.795 216.801 225.96C217.228 226.12 217.596 226.357 217.905 226.672C218.214 226.987 218.454 227.373 218.625 227.832C218.801 228.285 218.889 228.803 218.889 229.384C218.889 229.651 218.86 229.829 218.801 229.92C218.742 230.011 218.636 230.056 218.481 230.056H213.241ZM225.013 230.432C224.4 230.453 223.882 230.504 223.461 230.584C223.04 230.659 222.698 230.757 222.437 230.88C222.176 230.997 221.986 231.139 221.869 231.304C221.757 231.469 221.701 231.651 221.701 231.848C221.701 232.04 221.73 232.205 221.789 232.344C221.853 232.477 221.938 232.589 222.045 232.68C222.157 232.765 222.285 232.829 222.429 232.872C222.578 232.909 222.741 232.928 222.917 232.928C223.365 232.928 223.749 232.845 224.069 232.68C224.394 232.509 224.709 232.264 225.013 231.944V230.432ZM220.453 226.976C221.376 226.117 222.474 225.688 223.749 225.688C224.218 225.688 224.634 225.765 224.997 225.92C225.365 226.069 225.672 226.283 225.917 226.56C226.168 226.837 226.357 227.168 226.485 227.552C226.618 227.931 226.685 228.352 226.685 228.816V234H225.917C225.752 234 225.626 233.976 225.541 233.928C225.456 233.875 225.384 233.771 225.325 233.616L225.157 232.952C224.949 233.139 224.744 233.307 224.541 233.456C224.338 233.6 224.128 233.723 223.909 233.824C223.696 233.925 223.464 234 223.213 234.048C222.968 234.101 222.696 234.128 222.397 234.128C222.066 234.128 221.757 234.083 221.469 233.992C221.186 233.901 220.941 233.765 220.733 233.584C220.525 233.397 220.36 233.168 220.237 232.896C220.12 232.624 220.061 232.304 220.061 231.936C220.061 231.621 220.144 231.315 220.309 231.016C220.48 230.717 220.757 230.451 221.141 230.216C221.53 229.976 222.04 229.779 222.669 229.624C223.304 229.469 224.085 229.381 225.013 229.36V228.816C225.013 228.229 224.888 227.792 224.637 227.504C224.386 227.216 224.018 227.072 223.533 227.072C223.202 227.072 222.925 227.115 222.701 227.2C222.477 227.28 222.282 227.368 222.117 227.464C221.952 227.56 221.805 227.651 221.677 227.736C221.549 227.816 221.413 227.856 221.269 227.856C221.152 227.856 221.05 227.827 220.965 227.768C220.885 227.704 220.818 227.627 220.765 227.536L220.453 226.976ZM233.732 227.32C233.689 227.395 233.641 227.448 233.588 227.48C233.535 227.512 233.468 227.528 233.388 227.528C233.297 227.528 233.199 227.501 233.092 227.448C232.985 227.389 232.86 227.325 232.716 227.256C232.572 227.187 232.401 227.125 232.204 227.072C232.012 227.013 231.785 226.984 231.524 226.984C231.311 226.984 231.116 227.011 230.94 227.064C230.769 227.112 230.623 227.184 230.5 227.28C230.383 227.371 230.292 227.48 230.228 227.608C230.164 227.731 230.132 227.864 230.132 228.008C230.132 228.2 230.191 228.36 230.308 228.488C230.425 228.616 230.58 228.728 230.772 228.824C230.964 228.915 231.183 228.997 231.428 229.072C231.673 229.147 231.924 229.227 232.18 229.312C232.436 229.397 232.687 229.496 232.932 229.608C233.177 229.72 233.396 229.859 233.588 230.024C233.78 230.184 233.935 230.381 234.052 230.616C234.169 230.845 234.228 231.125 234.228 231.456C234.228 231.84 234.159 232.195 234.02 232.52C233.881 232.845 233.679 233.128 233.412 233.368C233.145 233.608 232.812 233.795 232.412 233.928C232.017 234.061 231.564 234.128 231.052 234.128C230.769 234.128 230.495 234.101 230.228 234.048C229.967 234 229.716 233.933 229.476 233.848C229.241 233.757 229.02 233.651 228.812 233.528C228.609 233.405 228.428 233.272 228.268 233.128L228.668 232.472C228.716 232.392 228.775 232.331 228.844 232.288C228.919 232.24 229.009 232.216 229.116 232.216C229.228 232.216 229.337 232.253 229.444 232.328C229.556 232.397 229.684 232.475 229.828 232.56C229.977 232.645 230.156 232.725 230.364 232.8C230.572 232.869 230.831 232.904 231.14 232.904C231.396 232.904 231.617 232.875 231.804 232.816C231.991 232.752 232.145 232.667 232.268 232.56C232.391 232.453 232.481 232.333 232.54 232.2C232.599 232.061 232.628 231.915 232.628 231.76C232.628 231.552 232.569 231.381 232.452 231.248C232.335 231.115 232.177 231 231.98 230.904C231.788 230.808 231.567 230.723 231.316 230.648C231.071 230.573 230.82 230.493 230.564 230.408C230.308 230.323 230.055 230.224 229.804 230.112C229.559 230 229.337 229.859 229.14 229.688C228.948 229.512 228.793 229.301 228.676 229.056C228.559 228.805 228.5 228.501 228.5 228.144C228.5 227.819 228.564 227.509 228.692 227.216C228.825 226.923 229.017 226.664 229.268 226.44C229.524 226.216 229.836 226.04 230.204 225.912C230.577 225.779 231.007 225.712 231.492 225.712C232.041 225.712 232.54 225.8 232.988 225.976C233.436 226.152 233.812 226.392 234.116 226.696L233.732 227.32ZM237.796 225.84V234H236.076V225.84H237.796ZM238.084 223.376C238.084 223.531 238.052 223.677 237.988 223.816C237.93 223.955 237.847 224.077 237.74 224.184C237.634 224.285 237.508 224.368 237.364 224.432C237.226 224.491 237.076 224.52 236.916 224.52C236.762 224.52 236.615 224.491 236.476 224.432C236.343 224.368 236.226 224.285 236.124 224.184C236.023 224.077 235.94 223.955 235.876 223.816C235.818 223.677 235.788 223.531 235.788 223.376C235.788 223.216 235.818 223.067 235.876 222.928C235.94 222.789 236.023 222.669 236.124 222.568C236.226 222.461 236.343 222.379 236.476 222.32C236.615 222.256 236.762 222.224 236.916 222.224C237.076 222.224 237.226 222.256 237.364 222.32C237.508 222.379 237.634 222.461 237.74 222.568C237.847 222.669 237.93 222.789 237.988 222.928C238.052 223.067 238.084 223.216 238.084 223.376ZM241.837 231.952C242.077 232.261 242.339 232.48 242.621 232.608C242.909 232.731 243.221 232.792 243.557 232.792C244.235 232.792 244.763 232.547 245.141 232.056C245.52 231.565 245.709 230.805 245.709 229.776C245.709 228.837 245.544 228.152 245.213 227.72C244.888 227.288 244.421 227.072 243.813 227.072C243.392 227.072 243.024 227.168 242.709 227.36C242.4 227.547 242.109 227.816 241.837 228.168V231.952ZM241.837 226.92C242.173 226.552 242.549 226.259 242.965 226.04C243.381 225.821 243.856 225.712 244.389 225.712C244.864 225.712 245.291 225.805 245.669 225.992C246.053 226.173 246.379 226.437 246.645 226.784C246.912 227.131 247.117 227.552 247.261 228.048C247.405 228.539 247.477 229.093 247.477 229.712C247.477 230.373 247.395 230.976 247.229 231.52C247.069 232.059 246.837 232.523 246.533 232.912C246.229 233.296 245.861 233.595 245.429 233.808C244.997 234.016 244.515 234.12 243.981 234.12C243.72 234.12 243.483 234.093 243.269 234.04C243.056 233.992 242.859 233.92 242.677 233.824C242.496 233.728 242.328 233.613 242.173 233.48C242.024 233.347 241.88 233.195 241.741 233.024L241.669 233.656C241.643 233.779 241.595 233.867 241.525 233.92C241.456 233.973 241.36 234 241.237 234H240.117V222.16H241.837V226.92ZM251.101 225.84V234H249.381V225.84H251.101ZM251.389 223.376C251.389 223.531 251.357 223.677 251.293 223.816C251.234 223.955 251.151 224.077 251.045 224.184C250.938 224.285 250.813 224.368 250.669 224.432C250.53 224.491 250.381 224.52 250.221 224.52C250.066 224.52 249.919 224.491 249.781 224.432C249.647 224.368 249.53 224.285 249.429 224.184C249.327 224.077 249.245 223.955 249.181 223.816C249.122 223.677 249.093 223.531 249.093 223.376C249.093 223.216 249.122 223.067 249.181 222.928C249.245 222.789 249.327 222.669 249.429 222.568C249.53 222.461 249.647 222.379 249.781 222.32C249.919 222.256 250.066 222.224 250.221 222.224C250.381 222.224 250.53 222.256 250.669 222.32C250.813 222.379 250.938 222.461 251.045 222.568C251.151 222.669 251.234 222.789 251.293 222.928C251.357 223.067 251.389 223.216 251.389 223.376ZM255.174 222.16V234H253.454V222.16H255.174ZM259.249 225.84V234H257.529V225.84H259.249ZM259.537 223.376C259.537 223.531 259.505 223.677 259.441 223.816C259.382 223.955 259.299 224.077 259.193 224.184C259.086 224.285 258.961 224.368 258.817 224.432C258.678 224.491 258.529 224.52 258.369 224.52C258.214 224.52 258.067 224.491 257.929 224.432C257.795 224.368 257.678 224.285 257.577 224.184C257.475 224.077 257.393 223.955 257.329 223.816C257.27 223.677 257.241 223.531 257.241 223.376C257.241 223.216 257.27 223.067 257.329 222.928C257.393 222.789 257.475 222.669 257.577 222.568C257.678 222.461 257.795 222.379 257.929 222.32C258.067 222.256 258.214 222.224 258.369 222.224C258.529 222.224 258.678 222.256 258.817 222.32C258.961 222.379 259.086 222.461 259.193 222.568C259.299 222.669 259.382 222.789 259.441 222.928C259.505 223.067 259.537 223.216 259.537 223.376ZM264.186 234.128C263.509 234.128 262.986 233.939 262.618 233.56C262.255 233.176 262.074 232.637 262.074 231.944V227.192H261.178C261.082 227.192 260.999 227.163 260.93 227.104C260.861 227.04 260.826 226.947 260.826 226.824V226.128L262.146 225.936L262.522 223.576C262.549 223.485 262.594 223.413 262.658 223.36C262.722 223.301 262.807 223.272 262.914 223.272H263.794V225.952H266.058V227.192H263.794V231.824C263.794 232.117 263.866 232.341 264.01 232.496C264.154 232.651 264.346 232.728 264.586 232.728C264.719 232.728 264.834 232.712 264.93 232.68C265.026 232.643 265.109 232.605 265.178 232.568C265.247 232.525 265.306 232.488 265.354 232.456C265.407 232.419 265.458 232.4 265.506 232.4C265.602 232.4 265.679 232.453 265.738 232.56L266.25 233.4C265.983 233.635 265.669 233.816 265.306 233.944C264.943 234.067 264.57 234.128 264.186 234.128ZM274.814 225.84L270.318 236.32C270.259 236.443 270.187 236.539 270.102 236.608C270.022 236.677 269.896 236.712 269.726 236.712H268.454L269.958 233.448L266.63 225.84H268.126C268.27 225.84 268.379 225.875 268.454 225.944C268.534 226.008 268.592 226.085 268.63 226.176L270.574 230.808C270.622 230.941 270.664 231.075 270.702 231.208C270.744 231.336 270.784 231.469 270.822 231.608C270.864 231.469 270.907 231.333 270.95 231.2C270.992 231.067 271.04 230.933 271.094 230.8L272.958 226.176C272.995 226.08 273.056 226 273.142 225.936C273.232 225.872 273.331 225.84 273.438 225.84H274.814Z" fill="#2A2C2B"/>
<path d="M178.188 408.244L158.843 312.875L191.96 404.37L185.074 406.307L178.188 408.244Z" fill="#2A2C2B"/>
<path d="M196.364 413C196.364 418.25 192.113 422.5 186.876 422.5C181.64 422.5 177.389 418.25 177.389 413C177.389 407.75 181.64 403.5 186.876 403.5C192.113 403.5 196.364 407.75 196.364 413Z" fill="white" stroke="#2A2C2B" stroke-width="8"/>
<path d="M300.464 426.77V434H299.114V430.84H295.719V434H294.369V426.77H295.719V429.88H299.114V426.77H300.464ZM305.894 431.27L305.014 428.865C304.971 428.758 304.926 428.632 304.879 428.485C304.832 428.338 304.786 428.18 304.739 428.01C304.696 428.18 304.651 428.34 304.604 428.49C304.557 428.637 304.512 428.765 304.469 428.875L303.594 431.27H305.894ZM308.269 434H307.229C307.112 434 307.017 433.972 306.944 433.915C306.871 433.855 306.816 433.782 306.779 433.695L306.239 432.22H303.244L302.704 433.695C302.677 433.772 302.626 433.842 302.549 433.905C302.472 433.968 302.377 434 302.264 434H301.214L304.059 426.77H305.429L308.269 434ZM311.202 430.21C311.456 430.21 311.676 430.178 311.862 430.115C312.052 430.052 312.207 429.965 312.327 429.855C312.451 429.742 312.542 429.608 312.602 429.455C312.662 429.302 312.692 429.133 312.692 428.95C312.692 428.583 312.571 428.302 312.327 428.105C312.087 427.908 311.719 427.81 311.222 427.81H310.362V430.21H311.202ZM314.662 434H313.447C313.217 434 313.051 433.91 312.947 433.73L311.427 431.415C311.371 431.328 311.307 431.267 311.237 431.23C311.171 431.193 311.071 431.175 310.937 431.175H310.362V434H309.017V426.77H311.222C311.712 426.77 312.132 426.822 312.482 426.925C312.836 427.025 313.124 427.167 313.347 427.35C313.574 427.533 313.741 427.753 313.847 428.01C313.954 428.263 314.007 428.543 314.007 428.85C314.007 429.093 313.971 429.323 313.897 429.54C313.827 429.757 313.724 429.953 313.587 430.13C313.454 430.307 313.287 430.462 313.087 430.595C312.891 430.728 312.666 430.833 312.412 430.91C312.499 430.96 312.579 431.02 312.652 431.09C312.726 431.157 312.792 431.237 312.852 431.33L314.662 434ZM321.863 430.385C321.863 430.915 321.775 431.402 321.598 431.845C321.422 432.288 321.173 432.67 320.853 432.99C320.533 433.31 320.148 433.558 319.698 433.735C319.248 433.912 318.748 434 318.198 434H315.443V426.77H318.198C318.748 426.77 319.248 426.86 319.698 427.04C320.148 427.217 320.533 427.465 320.853 427.785C321.173 428.102 321.422 428.482 321.598 428.925C321.775 429.368 321.863 429.855 321.863 430.385ZM320.483 430.385C320.483 429.988 320.43 429.633 320.323 429.32C320.22 429.003 320.068 428.737 319.868 428.52C319.672 428.3 319.432 428.132 319.148 428.015C318.868 427.898 318.552 427.84 318.198 427.84H316.793V432.93H318.198C318.552 432.93 318.868 432.872 319.148 432.755C319.432 432.638 319.672 432.472 319.868 432.255C320.068 432.035 320.22 431.768 320.323 431.455C320.43 431.138 320.483 430.782 320.483 430.385Z" fill="#F8304F"/>
<path d="M56.404 427.84V429.845H58.934V430.88H56.404V432.925H59.614V434H55.054V426.77H59.614V427.84H56.404ZM64.626 431.27L63.746 428.865C63.7026 428.758 63.6576 428.632 63.611 428.485C63.5643 428.338 63.5176 428.18 63.471 428.01C63.4276 428.18 63.3826 428.34 63.336 428.49C63.2893 428.637 63.2443 428.765 63.201 428.875L62.326 431.27H64.626ZM67.001 434H65.961C65.8443 434 65.7493 433.972 65.676 433.915C65.6026 433.855 65.5476 433.782 65.511 433.695L64.971 432.22H61.976L61.436 433.695C61.4093 433.772 61.3576 433.842 61.281 433.905C61.2043 433.968 61.1093 434 60.996 434H59.946L62.791 426.77H64.161L67.001 434ZM71.5993 428.085C71.5593 428.155 71.516 428.207 71.4693 428.24C71.426 428.27 71.371 428.285 71.3043 428.285C71.2343 428.285 71.1577 428.26 71.0743 428.21C70.9943 428.157 70.8977 428.098 70.7843 428.035C70.671 427.972 70.5377 427.915 70.3843 427.865C70.2343 427.812 70.056 427.785 69.8493 427.785C69.6627 427.785 69.4993 427.808 69.3593 427.855C69.2193 427.898 69.101 427.96 69.0043 428.04C68.911 428.12 68.841 428.217 68.7943 428.33C68.7477 428.44 68.7243 428.562 68.7243 428.695C68.7243 428.865 68.771 429.007 68.8643 429.12C68.961 429.233 69.0877 429.33 69.2443 429.41C69.401 429.49 69.5793 429.562 69.7793 429.625C69.9793 429.688 70.1843 429.757 70.3943 429.83C70.6043 429.9 70.8093 429.983 71.0093 430.08C71.2093 430.173 71.3877 430.293 71.5443 430.44C71.701 430.583 71.826 430.76 71.9193 430.97C72.016 431.18 72.0643 431.435 72.0643 431.735C72.0643 432.062 72.0077 432.368 71.8943 432.655C71.7843 432.938 71.621 433.187 71.4043 433.4C71.191 433.61 70.9293 433.777 70.6193 433.9C70.3093 434.02 69.9543 434.08 69.5543 434.08C69.3243 434.08 69.0977 434.057 68.8743 434.01C68.651 433.967 68.436 433.903 68.2293 433.82C68.026 433.737 67.8343 433.637 67.6543 433.52C67.4743 433.403 67.3143 433.273 67.1743 433.13L67.5693 432.485C67.6027 432.438 67.646 432.4 67.6993 432.37C67.7527 432.337 67.8093 432.32 67.8693 432.32C67.9527 432.32 68.0427 432.355 68.1393 432.425C68.236 432.492 68.351 432.567 68.4843 432.65C68.6177 432.733 68.7727 432.81 68.9493 432.88C69.1293 432.947 69.3443 432.98 69.5943 432.98C69.9777 432.98 70.2743 432.89 70.4843 432.71C70.6943 432.527 70.7993 432.265 70.7993 431.925C70.7993 431.735 70.751 431.58 70.6543 431.46C70.561 431.34 70.436 431.24 70.2793 431.16C70.1227 431.077 69.9443 431.007 69.7443 430.95C69.5443 430.893 69.341 430.832 69.1343 430.765C68.9277 430.698 68.7243 430.618 68.5243 430.525C68.3243 430.432 68.146 430.31 67.9893 430.16C67.8327 430.01 67.706 429.823 67.6093 429.6C67.516 429.373 67.4693 429.095 67.4693 428.765C67.4693 428.502 67.521 428.245 67.6243 427.995C67.731 427.745 67.8843 427.523 68.0843 427.33C68.2843 427.137 68.531 426.982 68.8243 426.865C69.1177 426.748 69.4543 426.69 69.8343 426.69C70.261 426.69 70.6543 426.757 71.0143 426.89C71.3743 427.023 71.681 427.21 71.9343 427.45L71.5993 428.085ZM76.1766 431.2V434H74.8366V431.2L72.2016 426.77H73.3866C73.5033 426.77 73.5949 426.798 73.6616 426.855C73.7316 426.912 73.7899 426.983 73.8366 427.07L75.1566 429.485C75.2333 429.628 75.2999 429.763 75.3566 429.89C75.4166 430.017 75.4699 430.143 75.5166 430.27C75.5599 430.143 75.6099 430.017 75.6666 429.89C75.7233 429.763 75.7883 429.628 75.8616 429.485L77.1766 427.07C77.2133 426.997 77.2683 426.928 77.3416 426.865C77.4149 426.802 77.5083 426.77 77.6216 426.77H78.8116L76.1766 431.2Z" fill="#00C883"/>
<path d="M59.9999 413C55.5816 413 51.9752 409.414 52.2365 405.004C54.1848 372.116 68.0995 340.967 91.5042 317.541C116.798 292.223 151.105 278 186.876 278C222.647 278 256.953 292.223 282.248 317.541C305.652 340.967 319.567 372.116 321.515 405.004C321.777 409.414 318.17 413 313.752 413H302.764C298.346 413 294.795 409.413 294.468 405.007C292.562 379.29 281.506 355.001 263.164 336.642C242.931 316.39 215.49 305.013 186.876 305.013C158.262 305.013 130.821 316.39 110.588 336.642C92.2454 355.001 81.1897 379.29 79.2837 405.007C78.9572 409.413 75.4063 413 70.988 413H59.9999Z" fill="url(#paint0_radial)"/>
<rect x="52" y="556" width="272" height="56" rx="4" fill="#F2F2F2"/>
<path d="M305.167 580L299.994 585.173L294.82 580C294.571 579.75 294.233 579.61 293.88 579.61C293.528 579.61 293.189 579.75 292.94 580C292.42 580.52 292.42 581.36 292.94 581.88L299.06 588C299.58 588.52 300.42 588.52 300.94 588L307.06 581.88C307.58 581.36 307.58 580.52 307.06 580C306.54 579.493 305.687 579.48 305.167 580Z" fill="#7D8380"/>
<path d="M73.896 599.632C74.3547 599.632 74.7653 599.555 75.128 599.4C75.4907 599.245 75.7973 599.029 76.048 598.752C76.2987 598.469 76.4907 598.136 76.624 597.752C76.7573 597.363 76.824 596.933 76.824 596.464V589.512H78.52V596.464C78.52 597.136 78.4133 597.757 78.2 598.328C77.9867 598.899 77.68 599.392 77.28 599.808C76.88 600.224 76.3947 600.549 75.824 600.784C75.2533 601.019 74.6107 601.136 73.896 601.136C73.1813 601.136 72.5387 601.019 71.968 600.784C71.3973 600.549 70.912 600.224 70.512 599.808C70.112 599.392 69.8053 598.899 69.592 598.328C69.3787 597.757 69.272 597.136 69.272 596.464V589.512H70.976V596.456C70.976 596.925 71.04 597.355 71.168 597.744C71.3013 598.133 71.4933 598.469 71.744 598.752C71.9947 599.029 72.3013 599.245 72.664 599.4C73.0267 599.555 73.4373 599.632 73.896 599.632ZM82.1069 594C82.2829 593.813 82.4669 593.643 82.6589 593.488C82.8509 593.333 83.0535 593.203 83.2669 593.096C83.4855 592.984 83.7175 592.899 83.9629 592.84C84.2135 592.776 84.4802 592.744 84.7629 592.744C85.2109 592.744 85.6029 592.819 85.9389 592.968C86.2802 593.117 86.5655 593.328 86.7949 593.6C87.0242 593.867 87.1975 594.189 87.3149 594.568C87.4322 594.947 87.4909 595.365 87.4909 595.824V601H85.9229V595.824C85.9229 595.243 85.7895 594.792 85.5229 594.472C85.2562 594.147 84.8482 593.984 84.2989 593.984C83.8989 593.984 83.5229 594.08 83.1709 594.272C82.8242 594.459 82.5015 594.715 82.2029 595.04V601H80.6429V592.872H81.5789C81.7975 592.872 81.9335 592.976 81.9869 593.184L82.1069 594ZM94.388 594.272C94.3453 594.341 94.3 594.392 94.252 594.424C94.204 594.451 94.1427 594.464 94.068 594.464C93.9827 594.464 93.8867 594.435 93.78 594.376C93.6787 594.317 93.5533 594.253 93.404 594.184C93.26 594.115 93.0893 594.051 92.892 593.992C92.6947 593.933 92.46 593.904 92.188 593.904C91.964 593.904 91.7587 593.933 91.572 593.992C91.3907 594.045 91.236 594.123 91.108 594.224C90.98 594.32 90.8813 594.437 90.812 594.576C90.7427 594.709 90.708 594.853 90.708 595.008C90.708 595.211 90.7667 595.379 90.884 595.512C91.0067 595.645 91.164 595.76 91.356 595.856C91.5533 595.952 91.7747 596.04 92.02 596.12C92.2707 596.195 92.524 596.275 92.78 596.36C93.0413 596.445 93.2947 596.544 93.54 596.656C93.7907 596.763 94.012 596.899 94.204 597.064C94.4013 597.224 94.5587 597.419 94.676 597.648C94.7987 597.877 94.86 598.157 94.86 598.488C94.86 598.867 94.7907 599.219 94.652 599.544C94.5187 599.864 94.3187 600.141 94.052 600.376C93.7907 600.611 93.4653 600.795 93.076 600.928C92.6867 601.061 92.2413 601.128 91.74 601.128C91.18 601.128 90.6627 601.035 90.188 600.848C89.7133 600.661 89.316 600.424 88.996 600.136L89.364 599.536C89.4067 599.461 89.46 599.405 89.524 599.368C89.588 599.325 89.6733 599.304 89.78 599.304C89.8813 599.304 89.9853 599.341 90.092 599.416C90.1987 599.491 90.3267 599.573 90.476 599.664C90.6253 599.749 90.8067 599.829 91.02 599.904C91.2333 599.973 91.5 600.008 91.82 600.008C92.0867 600.008 92.3187 599.976 92.516 599.912C92.7133 599.843 92.876 599.752 93.004 599.64C93.1373 599.523 93.236 599.389 93.3 599.24C93.364 599.091 93.396 598.933 93.396 598.768C93.396 598.555 93.3347 598.379 93.212 598.24C93.0947 598.096 92.9373 597.973 92.74 597.872C92.548 597.771 92.3267 597.683 92.076 597.608C91.8253 597.533 91.5693 597.453 91.308 597.368C91.0467 597.283 90.7907 597.184 90.54 597.072C90.2893 596.96 90.0653 596.819 89.868 596.648C89.676 596.477 89.5187 596.269 89.396 596.024C89.2787 595.779 89.22 595.48 89.22 595.128C89.22 594.813 89.284 594.512 89.412 594.224C89.5453 593.936 89.7347 593.683 89.98 593.464C90.2307 593.245 90.5373 593.072 90.9 592.944C91.268 592.811 91.6867 592.744 92.156 592.744C92.6947 592.744 93.18 592.829 93.612 593C94.0493 593.171 94.4227 593.405 94.732 593.704L94.388 594.272ZM101.933 596.032C101.933 595.723 101.888 595.437 101.797 595.176C101.712 594.915 101.584 594.688 101.413 594.496C101.242 594.304 101.034 594.155 100.789 594.048C100.544 593.941 100.261 593.888 99.9411 593.888C99.2851 593.888 98.7678 594.077 98.3891 594.456C98.0158 594.835 97.7785 595.36 97.6771 596.032H101.933ZM103.221 599.84C103.029 600.064 102.808 600.259 102.557 600.424C102.306 600.584 102.04 600.715 101.757 600.816C101.474 600.917 101.181 600.992 100.877 601.04C100.578 601.088 100.282 601.112 99.9891 601.112C99.4291 601.112 98.9091 601.019 98.4291 600.832C97.9545 600.64 97.5411 600.363 97.1891 600C96.8425 599.632 96.5705 599.179 96.3731 598.64C96.1811 598.096 96.0851 597.472 96.0851 596.768C96.0851 596.203 96.1731 595.677 96.3491 595.192C96.5251 594.701 96.7758 594.275 97.1011 593.912C97.4318 593.549 97.8345 593.264 98.3091 593.056C98.7838 592.848 99.3171 592.744 99.9091 592.744C100.405 592.744 100.861 592.827 101.277 592.992C101.698 593.152 102.061 593.387 102.365 593.696C102.669 594.005 102.906 594.387 103.077 594.84C103.253 595.293 103.341 595.811 103.341 596.392C103.341 596.632 103.314 596.795 103.261 596.88C103.208 596.96 103.109 597 102.965 597H97.6371C97.6531 597.485 97.7225 597.909 97.8451 598.272C97.9678 598.629 98.1358 598.928 98.3491 599.168C98.5678 599.408 98.8265 599.587 99.1251 599.704C99.4238 599.821 99.7571 599.88 100.125 599.88C100.472 599.88 100.77 599.84 101.021 599.76C101.277 599.68 101.496 599.595 101.677 599.504C101.864 599.408 102.018 599.32 102.141 599.24C102.269 599.16 102.381 599.12 102.477 599.12C102.605 599.12 102.704 599.168 102.773 599.264L103.221 599.84ZM110.714 594.392C110.666 594.451 110.618 594.499 110.57 594.536C110.527 594.568 110.463 594.584 110.378 594.584C110.293 594.584 110.202 594.552 110.106 594.488C110.015 594.419 109.898 594.347 109.754 594.272C109.615 594.192 109.445 594.12 109.242 594.056C109.045 593.987 108.799 593.952 108.506 593.952C108.122 593.952 107.783 594.021 107.49 594.16C107.197 594.299 106.951 594.496 106.754 594.752C106.562 595.008 106.415 595.32 106.314 595.688C106.213 596.056 106.162 596.469 106.162 596.928C106.162 597.403 106.215 597.827 106.322 598.2C106.429 598.568 106.581 598.88 106.778 599.136C106.975 599.387 107.215 599.579 107.498 599.712C107.781 599.84 108.095 599.904 108.442 599.904C108.778 599.904 109.055 599.864 109.274 599.784C109.493 599.699 109.674 599.608 109.818 599.512C109.962 599.416 110.082 599.328 110.178 599.248C110.274 599.163 110.373 599.12 110.474 599.12C110.602 599.12 110.701 599.168 110.77 599.264L111.218 599.84C111.031 600.069 110.821 600.264 110.586 600.424C110.357 600.584 110.111 600.715 109.85 600.816C109.589 600.917 109.314 600.992 109.026 601.04C108.743 601.088 108.455 601.112 108.162 601.112C107.655 601.112 107.181 601.019 106.738 600.832C106.301 600.645 105.919 600.373 105.594 600.016C105.274 599.659 105.021 599.221 104.834 598.704C104.647 598.181 104.554 597.589 104.554 596.928C104.554 596.325 104.637 595.768 104.802 595.256C104.973 594.744 105.221 594.304 105.546 593.936C105.877 593.563 106.282 593.272 106.762 593.064C107.242 592.851 107.791 592.744 108.41 592.744C108.991 592.744 109.503 592.837 109.946 593.024C110.389 593.211 110.783 593.475 111.13 593.816L110.714 594.392ZM119.434 592.872V601H118.498C118.285 601 118.146 600.896 118.082 600.688L117.97 599.872C117.794 600.059 117.61 600.229 117.418 600.384C117.226 600.539 117.021 600.672 116.802 600.784C116.583 600.891 116.351 600.973 116.106 601.032C115.861 601.096 115.597 601.128 115.314 601.128C114.866 601.128 114.471 601.053 114.13 600.904C113.794 600.755 113.511 600.547 113.282 600.28C113.053 600.008 112.879 599.683 112.762 599.304C112.645 598.925 112.586 598.507 112.586 598.048V592.872H114.154V598.048C114.154 598.629 114.287 599.083 114.554 599.408C114.821 599.728 115.229 599.888 115.778 599.888C116.178 599.888 116.551 599.795 116.898 599.608C117.245 599.416 117.57 599.155 117.874 598.824V592.872H119.434ZM123.084 594.432C123.345 593.899 123.66 593.48 124.028 593.176C124.396 592.872 124.838 592.72 125.356 592.72C125.532 592.72 125.697 592.741 125.852 592.784C126.012 592.821 126.15 592.88 126.268 592.96L126.164 594.136C126.126 594.28 126.038 594.352 125.9 594.352C125.825 594.352 125.713 594.339 125.564 594.312C125.414 594.28 125.254 594.264 125.084 594.264C124.833 594.264 124.612 594.301 124.42 594.376C124.228 594.445 124.054 594.552 123.9 594.696C123.75 594.835 123.617 595.008 123.5 595.216C123.382 595.419 123.273 595.651 123.172 595.912V601H121.612V592.872H122.508C122.678 592.872 122.793 592.904 122.852 592.968C122.916 593.027 122.961 593.133 122.988 593.288L123.084 594.432ZM132.558 596.032C132.558 595.723 132.513 595.437 132.422 595.176C132.337 594.915 132.209 594.688 132.038 594.496C131.867 594.304 131.659 594.155 131.414 594.048C131.169 593.941 130.886 593.888 130.566 593.888C129.91 593.888 129.393 594.077 129.014 594.456C128.641 594.835 128.403 595.36 128.302 596.032H132.558ZM133.846 599.84C133.654 600.064 133.433 600.259 133.182 600.424C132.931 600.584 132.665 600.715 132.382 600.816C132.099 600.917 131.806 600.992 131.502 601.04C131.203 601.088 130.907 601.112 130.614 601.112C130.054 601.112 129.534 601.019 129.054 600.832C128.579 600.64 128.166 600.363 127.814 600C127.467 599.632 127.195 599.179 126.998 598.64C126.806 598.096 126.71 597.472 126.71 596.768C126.71 596.203 126.798 595.677 126.974 595.192C127.15 594.701 127.401 594.275 127.726 593.912C128.057 593.549 128.459 593.264 128.934 593.056C129.409 592.848 129.942 592.744 130.534 592.744C131.03 592.744 131.486 592.827 131.902 592.992C132.323 593.152 132.686 593.387 132.99 593.696C133.294 594.005 133.531 594.387 133.702 594.84C133.878 595.293 133.966 595.811 133.966 596.392C133.966 596.632 133.939 596.795 133.886 596.88C133.833 596.96 133.734 597 133.59 597H128.262C128.278 597.485 128.347 597.909 128.47 598.272C128.593 598.629 128.761 598.928 128.974 599.168C129.193 599.408 129.451 599.587 129.75 599.704C130.049 599.821 130.382 599.88 130.75 599.88C131.097 599.88 131.395 599.84 131.646 599.76C131.902 599.68 132.121 599.595 132.302 599.504C132.489 599.408 132.643 599.32 132.766 599.24C132.894 599.16 133.006 599.12 133.102 599.12C133.23 599.12 133.329 599.168 133.398 599.264L133.846 599.84ZM140.883 594.84C140.627 594.504 140.35 594.269 140.051 594.136C139.758 594.003 139.427 593.936 139.059 593.936C138.344 593.936 137.79 594.195 137.395 594.712C137.006 595.224 136.811 595.973 136.811 596.96C136.811 597.477 136.854 597.92 136.939 598.288C137.03 598.651 137.158 598.949 137.323 599.184C137.494 599.413 137.702 599.584 137.947 599.696C138.192 599.803 138.47 599.856 138.779 599.856C139.232 599.856 139.624 599.755 139.955 599.552C140.286 599.349 140.595 599.064 140.883 598.696V594.84ZM142.451 589.192V601H141.507C141.288 601 141.152 600.896 141.099 600.688L140.963 599.752C140.616 600.163 140.222 600.493 139.779 600.744C139.342 600.989 138.835 601.112 138.259 601.112C137.795 601.112 137.374 601.021 136.995 600.84C136.622 600.659 136.302 600.395 136.035 600.048C135.768 599.696 135.563 599.261 135.419 598.744C135.275 598.227 135.203 597.632 135.203 596.96C135.203 596.357 135.283 595.797 135.443 595.28C135.603 594.763 135.835 594.315 136.139 593.936C136.443 593.557 136.811 593.261 137.243 593.048C137.675 592.829 138.163 592.72 138.707 592.72C139.198 592.72 139.614 592.8 139.955 592.96C140.302 593.12 140.611 593.347 140.883 593.64V589.192H142.451Z" fill="#535755"/>
<path d="M73.81 569.775H71.565V576H70.4V569.775H68.15V568.8H73.81V569.775ZM78.2777 570.9L75.4677 577.45C75.431 577.527 75.386 577.587 75.3327 577.63C75.2827 577.673 75.2043 577.695 75.0977 577.695H74.3027L75.2427 575.655L73.1627 570.9H74.0977C74.1877 570.9 74.256 570.922 74.3027 570.965C74.3527 571.005 74.3893 571.053 74.4127 571.11L75.6277 574.005C75.6577 574.088 75.6843 574.172 75.7077 574.255C75.7343 574.335 75.7593 574.418 75.7827 574.505C75.8093 574.418 75.836 574.333 75.8627 574.25C75.8893 574.167 75.9193 574.083 75.9527 574L77.1177 571.11C77.141 571.05 77.1793 571 77.2327 570.96C77.2893 570.92 77.351 570.9 77.4177 570.9H78.2777ZM80.0523 574.72C80.2023 574.913 80.3656 575.05 80.5423 575.13C80.7223 575.207 80.9206 575.245 81.1373 575.245C81.5573 575.245 81.8839 575.092 82.1173 574.785C82.3539 574.478 82.4723 574.022 82.4723 573.415C82.4723 573.102 82.4456 572.835 82.3923 572.615C82.3389 572.392 82.2623 572.21 82.1623 572.07C82.0623 571.93 81.9406 571.828 81.7973 571.765C81.6539 571.702 81.4923 571.67 81.3123 571.67C81.0389 571.67 80.8023 571.73 80.6023 571.85C80.4056 571.967 80.2223 572.135 80.0523 572.355V574.72ZM79.9973 571.64C80.2106 571.39 80.4523 571.188 80.7223 571.035C80.9956 570.882 81.3123 570.805 81.6723 570.805C81.9589 570.805 82.2189 570.863 82.4523 570.98C82.6856 571.093 82.8856 571.26 83.0523 571.48C83.2189 571.7 83.3473 571.973 83.4373 572.3C83.5306 572.623 83.5773 572.995 83.5773 573.415C83.5773 573.792 83.5256 574.143 83.4223 574.47C83.3223 574.793 83.1773 575.075 82.9873 575.315C82.7973 575.552 82.5673 575.738 82.2973 575.875C82.0273 576.008 81.7223 576.075 81.3823 576.075C81.0823 576.075 80.8273 576.027 80.6173 575.93C80.4106 575.833 80.2223 575.7 80.0523 575.53V577.695H78.9773V570.9H79.6273C79.7739 570.9 79.8673 570.968 79.9073 571.105L79.9973 571.64ZM87.9668 572.875C87.9668 572.695 87.9401 572.528 87.8868 572.375C87.8368 572.218 87.7618 572.083 87.6618 571.97C87.5618 571.853 87.4368 571.763 87.2868 571.7C87.1401 571.633 86.9701 571.6 86.7768 571.6C86.3868 571.6 86.0801 571.712 85.8568 571.935C85.6335 572.158 85.4918 572.472 85.4318 572.875H87.9668ZM85.4018 573.535C85.4151 573.825 85.4601 574.077 85.5368 574.29C85.6135 574.5 85.7151 574.675 85.8418 574.815C85.9718 574.955 86.1251 575.06 86.3018 575.13C86.4818 575.197 86.6818 575.23 86.9018 575.23C87.1118 575.23 87.2935 575.207 87.4468 575.16C87.6001 575.11 87.7335 575.057 87.8468 575C87.9601 574.94 88.0568 574.887 88.1368 574.84C88.2168 574.79 88.2901 574.765 88.3568 574.765C88.4435 574.765 88.5101 574.798 88.5568 574.865L88.8618 575.26C88.7351 575.41 88.5918 575.537 88.4318 575.64C88.2718 575.743 88.1018 575.828 87.9218 575.895C87.7418 575.958 87.5568 576.003 87.3668 576.03C87.1768 576.06 86.9918 576.075 86.8118 576.075C86.4585 576.075 86.1301 576.017 85.8268 575.9C85.5268 575.78 85.2651 575.605 85.0418 575.375C84.8218 575.145 84.6485 574.86 84.5218 574.52C84.3985 574.18 84.3368 573.788 84.3368 573.345C84.3368 572.992 84.3918 572.662 84.5018 572.355C84.6151 572.048 84.7751 571.782 84.9818 571.555C85.1918 571.328 85.4451 571.15 85.7418 571.02C86.0418 570.887 86.3801 570.82 86.7568 570.82C87.0701 570.82 87.3601 570.872 87.6268 570.975C87.8935 571.075 88.1235 571.223 88.3168 571.42C88.5101 571.617 88.6601 571.858 88.7668 572.145C88.8768 572.428 88.9318 572.752 88.9318 573.115C88.9318 573.282 88.9135 573.393 88.8768 573.45C88.8401 573.507 88.7735 573.535 88.6768 573.535H85.4018ZM94.6295 570.82C95.0062 570.82 95.3462 570.882 95.6495 571.005C95.9562 571.128 96.2162 571.303 96.4295 571.53C96.6462 571.757 96.8129 572.032 96.9295 572.355C97.0462 572.678 97.1045 573.042 97.1045 573.445C97.1045 573.848 97.0462 574.212 96.9295 574.535C96.8129 574.858 96.6462 575.135 96.4295 575.365C96.2162 575.592 95.9562 575.767 95.6495 575.89C95.3462 576.013 95.0062 576.075 94.6295 576.075C94.2495 576.075 93.9062 576.013 93.5995 575.89C93.2962 575.767 93.0362 575.592 92.8195 575.365C92.6029 575.135 92.4362 574.858 92.3195 574.535C92.2029 574.212 92.1445 573.848 92.1445 573.445C92.1445 573.042 92.2029 572.678 92.3195 572.355C92.4362 572.032 92.6029 571.757 92.8195 571.53C93.0362 571.303 93.2962 571.128 93.5995 571.005C93.9062 570.882 94.2495 570.82 94.6295 570.82ZM94.6295 575.235C95.0895 575.235 95.4312 575.082 95.6545 574.775C95.8812 574.465 95.9945 574.023 95.9945 573.45C95.9945 572.877 95.8812 572.435 95.6545 572.125C95.4312 571.812 95.0895 571.655 94.6295 571.655C94.1629 571.655 93.8162 571.812 93.5895 572.125C93.3629 572.435 93.2495 572.877 93.2495 573.45C93.2495 574.023 93.3629 574.465 93.5895 574.775C93.8162 575.082 94.1629 575.235 94.6295 575.235ZM98.3652 576V571.755L97.8652 571.685C97.7819 571.668 97.7136 571.638 97.6602 571.595C97.6102 571.552 97.5852 571.49 97.5852 571.41V570.97H98.3652V570.54C98.3652 570.25 98.4069 569.99 98.4902 569.76C98.5769 569.53 98.6986 569.335 98.8552 569.175C99.0152 569.015 99.2086 568.893 99.4352 568.81C99.6619 568.723 99.9169 568.68 100.2 568.68C100.317 568.68 100.427 568.688 100.53 568.705C100.637 568.722 100.74 568.747 100.84 568.78L100.82 569.32C100.814 569.41 100.769 569.463 100.685 569.48C100.605 569.497 100.504 569.505 100.38 569.505C100.23 569.505 100.095 569.523 99.9752 569.56C99.8552 569.593 99.7519 569.652 99.6652 569.735C99.5819 569.818 99.5169 569.928 99.4702 570.065C99.4269 570.202 99.4052 570.372 99.4052 570.575V570.97H100.8V571.745H99.4402V576H98.3652ZM104.965 568.6V576H103.89V568.6H104.965ZM108.497 570.82C108.873 570.82 109.213 570.882 109.517 571.005C109.823 571.128 110.083 571.303 110.297 571.53C110.513 571.757 110.68 572.032 110.797 572.355C110.913 572.678 110.972 573.042 110.972 573.445C110.972 573.848 110.913 574.212 110.797 574.535C110.68 574.858 110.513 575.135 110.297 575.365C110.083 575.592 109.823 575.767 109.517 575.89C109.213 576.013 108.873 576.075 108.497 576.075C108.117 576.075 107.773 576.013 107.467 575.89C107.163 575.767 106.903 575.592 106.687 575.365C106.47 575.135 106.303 574.858 106.187 574.535C106.07 574.212 106.012 573.848 106.012 573.445C106.012 573.042 106.07 572.678 106.187 572.355C106.303 572.032 106.47 571.757 106.687 571.53C106.903 571.303 107.163 571.128 107.467 571.005C107.773 570.882 108.117 570.82 108.497 570.82ZM108.497 575.235C108.957 575.235 109.298 575.082 109.522 574.775C109.748 574.465 109.862 574.023 109.862 573.45C109.862 572.877 109.748 572.435 109.522 572.125C109.298 571.812 108.957 571.655 108.497 571.655C108.03 571.655 107.683 571.812 107.457 572.125C107.23 572.435 107.117 572.877 107.117 573.45C107.117 574.023 107.23 574.465 107.457 574.775C107.683 575.082 108.03 575.235 108.497 575.235ZM114.73 573.77C114.346 573.783 114.023 573.815 113.76 573.865C113.496 573.912 113.283 573.973 113.12 574.05C112.956 574.123 112.838 574.212 112.765 574.315C112.695 574.418 112.66 574.532 112.66 574.655C112.66 574.775 112.678 574.878 112.715 574.965C112.755 575.048 112.808 575.118 112.875 575.175C112.945 575.228 113.025 575.268 113.115 575.295C113.208 575.318 113.31 575.33 113.42 575.33C113.7 575.33 113.94 575.278 114.14 575.175C114.343 575.068 114.54 574.915 114.73 574.715V573.77ZM111.88 571.61C112.456 571.073 113.143 570.805 113.94 570.805C114.233 570.805 114.493 570.853 114.72 570.95C114.95 571.043 115.141 571.177 115.295 571.35C115.451 571.523 115.57 571.73 115.65 571.97C115.733 572.207 115.775 572.47 115.775 572.76V576H115.295C115.191 576 115.113 575.985 115.06 575.955C115.006 575.922 114.961 575.857 114.925 575.76L114.82 575.345C114.69 575.462 114.561 575.567 114.435 575.66C114.308 575.75 114.176 575.827 114.04 575.89C113.906 575.953 113.761 576 113.605 576.03C113.451 576.063 113.281 576.08 113.095 576.08C112.888 576.08 112.695 576.052 112.515 575.995C112.338 575.938 112.185 575.853 112.055 575.74C111.925 575.623 111.821 575.48 111.745 575.31C111.671 575.14 111.635 574.94 111.635 574.71C111.635 574.513 111.686 574.322 111.79 574.135C111.896 573.948 112.07 573.782 112.31 573.635C112.553 573.485 112.871 573.362 113.265 573.265C113.661 573.168 114.15 573.113 114.73 573.1V572.76C114.73 572.393 114.651 572.12 114.495 571.94C114.338 571.76 114.108 571.67 113.805 571.67C113.598 571.67 113.425 571.697 113.285 571.75C113.145 571.8 113.023 571.855 112.92 571.915C112.816 571.975 112.725 572.032 112.645 572.085C112.565 572.135 112.48 572.16 112.39 572.16C112.316 572.16 112.253 572.142 112.2 572.105C112.15 572.065 112.108 572.017 112.075 571.96L111.88 571.61ZM118.039 571.575C118.149 571.462 118.262 571.36 118.379 571.27C118.499 571.177 118.626 571.097 118.759 571.03C118.892 570.963 119.034 570.912 119.184 570.875C119.334 570.838 119.497 570.82 119.674 570.82C119.954 570.82 120.199 570.867 120.409 570.96C120.622 571.053 120.801 571.185 120.944 571.355C121.091 571.525 121.201 571.73 121.274 571.97C121.347 572.207 121.384 572.468 121.384 572.755V576H120.314V572.755C120.314 572.412 120.234 572.145 120.074 571.955C119.917 571.765 119.677 571.67 119.354 571.67C119.114 571.67 118.891 571.725 118.684 571.835C118.481 571.945 118.289 572.095 118.109 572.285V576H117.034V570.9H117.684C117.831 570.9 117.924 570.968 117.964 571.105L118.039 571.575Z" fill="#2A2C2B"/>
<rect x="52" y="485" width="272" height="56" rx="4" fill="#F2F2F2"/>
<path d="M72.936 528.784C73.6027 528.715 74.112 528.499 74.464 528.136C74.816 527.768 74.992 527.299 74.992 526.728C74.992 526.477 74.944 526.261 74.848 526.08C74.7573 525.899 74.632 525.741 74.472 525.608C74.312 525.469 74.1227 525.352 73.904 525.256C73.6907 525.16 73.4613 525.072 73.216 524.992L72.936 528.784ZM72.616 519.752C72.28 519.784 71.9893 519.851 71.744 519.952C71.504 520.053 71.304 520.179 71.144 520.328C70.9893 520.477 70.8747 520.648 70.8 520.84C70.7253 521.032 70.688 521.232 70.688 521.44C70.688 521.68 70.7307 521.891 70.816 522.072C70.9013 522.253 71.0187 522.413 71.168 522.552C71.3227 522.685 71.5013 522.803 71.704 522.904C71.912 523.005 72.1333 523.099 72.368 523.184L72.616 519.752ZM73.32 523.496C73.704 523.613 74.0827 523.744 74.456 523.888C74.8347 524.027 75.1733 524.205 75.472 524.424C75.7707 524.643 76.0107 524.917 76.192 525.248C76.3787 525.573 76.472 525.984 76.472 526.48C76.472 526.96 76.3893 527.413 76.224 527.84C76.064 528.267 75.8293 528.643 75.52 528.968C75.2107 529.293 74.8293 529.557 74.376 529.76C73.928 529.963 73.416 530.083 72.84 530.12L72.744 531.456C72.7387 531.563 72.696 531.659 72.616 531.744C72.536 531.829 72.4347 531.872 72.312 531.872H71.736L71.864 530.096C71.2293 530.027 70.6427 529.864 70.104 529.608C69.5653 529.347 69.104 529.019 68.72 528.624L69.192 527.904C69.24 527.84 69.2987 527.787 69.368 527.744C69.4373 527.701 69.5147 527.68 69.6 527.68C69.7067 527.68 69.824 527.728 69.952 527.824C70.0853 527.92 70.2427 528.032 70.424 528.16C70.6053 528.283 70.8187 528.405 71.064 528.528C71.3147 528.645 71.6133 528.728 71.96 528.776L72.256 524.704C71.8827 524.592 71.5147 524.467 71.152 524.328C70.7893 524.184 70.464 523.997 70.176 523.768C69.888 523.533 69.656 523.243 69.48 522.896C69.304 522.549 69.216 522.115 69.216 521.592C69.216 521.197 69.2933 520.813 69.448 520.44C69.6027 520.067 69.8267 519.733 70.12 519.44C70.4187 519.147 70.784 518.907 71.216 518.72C71.6533 518.533 72.152 518.429 72.712 518.408L72.792 517.288C72.7973 517.181 72.84 517.085 72.92 517C73 516.915 73.1013 516.872 73.224 516.872H73.8L73.688 518.448C74.248 518.523 74.7307 518.672 75.136 518.896C75.5467 519.115 75.9067 519.379 76.216 519.688L75.84 520.264C75.728 520.44 75.5973 520.528 75.448 520.528C75.3733 520.528 75.28 520.496 75.168 520.432C75.0613 520.368 74.9307 520.296 74.776 520.216C74.6267 520.131 74.4533 520.045 74.256 519.96C74.0587 519.875 73.8373 519.811 73.592 519.768L73.32 523.496ZM85.1693 528.52C85.3399 528.52 85.4733 528.571 85.5693 528.672C85.6653 528.768 85.7133 528.896 85.7133 529.056V530H78.0013V529.464C78.0013 529.357 78.0226 529.245 78.0653 529.128C78.1079 529.005 78.1799 528.896 78.2812 528.8L81.9133 525.16C82.2173 524.856 82.4919 524.563 82.7373 524.28C82.9826 523.997 83.1906 523.717 83.3613 523.44C83.5319 523.157 83.6626 522.869 83.7533 522.576C83.8493 522.283 83.8973 521.973 83.8973 521.648C83.8973 521.328 83.8466 521.048 83.7453 520.808C83.6439 520.563 83.5053 520.36 83.3293 520.2C83.1533 520.04 82.9453 519.92 82.7053 519.84C82.4653 519.76 82.2066 519.72 81.9293 519.72C81.6519 519.72 81.3959 519.76 81.1613 519.84C80.9319 519.92 80.7266 520.032 80.5453 520.176C80.3639 520.32 80.2119 520.491 80.0893 520.688C79.9666 520.885 79.8786 521.099 79.8253 521.328C79.7506 521.531 79.6546 521.667 79.5373 521.736C79.4253 521.805 79.2599 521.821 79.0413 521.784L78.2253 521.64C78.2999 521.107 78.4466 520.637 78.6653 520.232C78.8839 519.827 79.1586 519.488 79.4893 519.216C79.8199 518.939 80.1986 518.731 80.6253 518.592C81.0573 518.453 81.5213 518.384 82.0173 518.384C82.5186 518.384 82.9799 518.459 83.4013 518.608C83.8279 518.752 84.1959 518.963 84.5053 519.24C84.8146 519.517 85.0573 519.856 85.2333 520.256C85.4093 520.651 85.4973 521.099 85.4973 521.6C85.4973 522.027 85.4333 522.424 85.3053 522.792C85.1826 523.155 85.0119 523.501 84.7933 523.832C84.5799 524.163 84.3293 524.485 84.0413 524.8C83.7586 525.109 83.4573 525.424 83.1373 525.744L80.2253 528.72C80.4493 528.661 80.6733 528.613 80.8973 528.576C81.1266 528.539 81.3426 528.52 81.5453 528.52H85.1693ZM89.5465 522.8C90.1332 522.677 90.6638 522.616 91.1385 522.616C91.7358 522.616 92.2638 522.707 92.7225 522.888C93.1812 523.064 93.5652 523.309 93.8745 523.624C94.1892 523.933 94.4238 524.301 94.5785 524.728C94.7385 525.149 94.8185 525.608 94.8185 526.104C94.8185 526.712 94.7118 527.264 94.4985 527.76C94.2852 528.256 93.9918 528.68 93.6185 529.032C93.2452 529.384 92.8025 529.656 92.2905 529.848C91.7838 530.035 91.2372 530.128 90.6505 530.128C90.3038 530.128 89.9732 530.093 89.6585 530.024C89.3492 529.955 89.0585 529.864 88.7865 529.752C88.5145 529.635 88.2612 529.501 88.0265 529.352C87.7972 529.203 87.5918 529.045 87.4105 528.88L87.8905 528.208C87.9918 528.059 88.1278 527.984 88.2985 527.984C88.4105 527.984 88.5332 528.027 88.6665 528.112C88.8052 528.192 88.9678 528.283 89.1545 528.384C89.3412 528.485 89.5625 528.579 89.8185 528.664C90.0745 528.744 90.3785 528.784 90.7305 528.784C91.1198 528.784 91.4692 528.723 91.7785 528.6C92.0932 528.472 92.3572 528.293 92.5705 528.064C92.7892 527.835 92.9545 527.56 93.0665 527.24C93.1838 526.92 93.2425 526.565 93.2425 526.176C93.2425 525.829 93.1918 525.517 93.0905 525.24C92.9892 524.963 92.8372 524.725 92.6345 524.528C92.4318 524.331 92.1785 524.181 91.8745 524.08C91.5705 523.973 91.2158 523.92 90.8105 523.92C90.2452 523.92 89.6425 524.021 89.0025 524.224L88.0185 523.936L88.9545 518.512H94.4585V519.192C94.4585 519.416 94.3865 519.6 94.2425 519.744C94.1038 519.883 93.8692 519.952 93.5385 519.952H90.0425L89.5465 522.8ZM97.6438 530C97.4998 530 97.3664 529.973 97.2438 529.92C97.1264 529.867 97.0224 529.795 96.9318 529.704C96.8464 529.608 96.7798 529.496 96.7318 529.368C96.6838 529.24 96.6598 529.101 96.6598 528.952C96.6598 528.824 96.6838 528.704 96.7318 528.592C96.7798 528.475 96.8464 528.373 96.9318 528.288C97.0224 528.203 97.1291 528.136 97.2518 528.088C97.3744 528.035 97.5104 528.008 97.6598 528.008C97.8304 528.008 97.9798 528.04 98.1078 528.104C98.2411 528.163 98.3504 528.248 98.4358 528.36C98.5264 528.467 98.5931 528.592 98.6358 528.736C98.6784 528.88 98.6998 529.035 98.6998 529.2C98.6998 529.44 98.6651 529.693 98.5958 529.96C98.5264 530.227 98.4251 530.491 98.2918 530.752C98.1584 531.013 97.9931 531.267 97.7958 531.512C97.5984 531.757 97.3744 531.984 97.1238 532.192L96.8598 531.944C96.7798 531.869 96.7398 531.787 96.7398 531.696C96.7398 531.659 96.7504 531.619 96.7718 531.576C96.7984 531.539 96.8304 531.501 96.8678 531.464C96.9211 531.405 96.9904 531.328 97.0758 531.232C97.1611 531.136 97.2438 531.024 97.3238 530.896C97.4091 530.773 97.4864 530.635 97.5558 530.48C97.6304 530.331 97.6838 530.171 97.7158 530H97.6438ZM108.316 524.256C108.316 525.259 108.207 526.128 107.988 526.864C107.775 527.6 107.479 528.211 107.1 528.696C106.727 529.176 106.284 529.533 105.772 529.768C105.265 530.003 104.719 530.12 104.132 530.12C103.545 530.12 102.996 530.003 102.484 529.768C101.977 529.533 101.537 529.176 101.164 528.696C100.791 528.211 100.497 527.6 100.284 526.864C100.071 526.128 99.964 525.259 99.964 524.256C99.964 523.253 100.071 522.384 100.284 521.648C100.497 520.907 100.791 520.296 101.164 519.816C101.537 519.331 101.977 518.971 102.484 518.736C102.996 518.501 103.545 518.384 104.132 518.384C104.719 518.384 105.265 518.501 105.772 518.736C106.284 518.971 106.727 519.331 107.1 519.816C107.479 520.296 107.775 520.907 107.988 521.648C108.207 522.384 108.316 523.253 108.316 524.256ZM106.7 524.256C106.7 523.392 106.628 522.669 106.484 522.088C106.345 521.507 106.156 521.04 105.916 520.688C105.681 520.331 105.409 520.077 105.1 519.928C104.791 519.779 104.468 519.704 104.132 519.704C103.796 519.704 103.473 519.779 103.164 519.928C102.855 520.077 102.58 520.331 102.34 520.688C102.105 521.04 101.919 521.507 101.78 522.088C101.641 522.669 101.572 523.392 101.572 524.256C101.572 525.12 101.641 525.843 101.78 526.424C101.919 527.005 102.105 527.472 102.34 527.824C102.58 528.176 102.855 528.427 103.164 528.576C103.473 528.725 103.796 528.8 104.132 528.8C104.468 528.8 104.791 528.725 105.1 528.576C105.409 528.427 105.681 528.176 105.916 527.824C106.156 527.472 106.345 527.005 106.484 526.424C106.628 525.843 106.7 525.12 106.7 524.256ZM117.597 524.256C117.597 525.259 117.488 526.128 117.269 526.864C117.056 527.6 116.76 528.211 116.381 528.696C116.008 529.176 115.565 529.533 115.053 529.768C114.547 530.003 114 530.12 113.413 530.12C112.827 530.12 112.277 530.003 111.765 529.768C111.259 529.533 110.819 529.176 110.445 528.696C110.072 528.211 109.779 527.6 109.565 526.864C109.352 526.128 109.245 525.259 109.245 524.256C109.245 523.253 109.352 522.384 109.565 521.648C109.779 520.907 110.072 520.296 110.445 519.816C110.819 519.331 111.259 518.971 111.765 518.736C112.277 518.501 112.827 518.384 113.413 518.384C114 518.384 114.547 518.501 115.053 518.736C115.565 518.971 116.008 519.331 116.381 519.816C116.76 520.296 117.056 520.907 117.269 521.648C117.488 522.384 117.597 523.253 117.597 524.256ZM115.981 524.256C115.981 523.392 115.909 522.669 115.765 522.088C115.627 521.507 115.437 521.04 115.197 520.688C114.963 520.331 114.691 520.077 114.381 519.928C114.072 519.779 113.749 519.704 113.413 519.704C113.077 519.704 112.755 519.779 112.445 519.928C112.136 520.077 111.861 520.331 111.621 520.688C111.387 521.04 111.2 521.507 111.061 522.088C110.923 522.669 110.853 523.392 110.853 524.256C110.853 525.12 110.923 525.843 111.061 526.424C111.2 527.005 111.387 527.472 111.621 527.824C111.861 528.176 112.136 528.427 112.445 528.576C112.755 528.725 113.077 528.8 113.413 528.8C113.749 528.8 114.072 528.725 114.381 528.576C114.691 528.427 114.963 528.176 115.197 527.824C115.437 527.472 115.627 527.005 115.765 526.424C115.909 525.843 115.981 525.12 115.981 524.256ZM126.878 524.256C126.878 525.259 126.769 526.128 126.551 526.864C126.337 527.6 126.041 528.211 125.663 528.696C125.289 529.176 124.847 529.533 124.335 529.768C123.828 530.003 123.281 530.12 122.695 530.12C122.108 530.12 121.559 530.003 121.047 529.768C120.54 529.533 120.1 529.176 119.727 528.696C119.353 528.211 119.06 527.6 118.847 526.864C118.633 526.128 118.527 525.259 118.527 524.256C118.527 523.253 118.633 522.384 118.847 521.648C119.06 520.907 119.353 520.296 119.727 519.816C120.1 519.331 120.54 518.971 121.047 518.736C121.559 518.501 122.108 518.384 122.695 518.384C123.281 518.384 123.828 518.501 124.335 518.736C124.847 518.971 125.289 519.331 125.663 519.816C126.041 520.296 126.337 520.907 126.551 521.648C126.769 522.384 126.878 523.253 126.878 524.256ZM125.263 524.256C125.263 523.392 125.191 522.669 125.047 522.088C124.908 521.507 124.719 521.04 124.479 520.688C124.244 520.331 123.972 520.077 123.663 519.928C123.353 519.779 123.031 519.704 122.695 519.704C122.359 519.704 122.036 519.779 121.727 519.928C121.417 520.077 121.143 520.331 120.903 520.688C120.668 521.04 120.481 521.507 120.343 522.088C120.204 522.669 120.135 523.392 120.135 524.256C120.135 525.12 120.204 525.843 120.343 526.424C120.481 527.005 120.668 527.472 120.903 527.824C121.143 528.176 121.417 528.427 121.727 528.576C122.036 528.725 122.359 528.8 122.695 528.8C123.031 528.8 123.353 528.725 123.663 528.576C123.972 528.427 124.244 528.176 124.479 527.824C124.719 527.472 124.908 527.005 125.047 526.424C125.191 525.843 125.263 525.12 125.263 524.256Z" fill="#535755"/>
<path d="M72.665 502.3L71.675 499.67C71.595 499.467 71.5133 499.208 71.43 498.895C71.3933 499.052 71.3533 499.197 71.31 499.33C71.2667 499.46 71.2267 499.575 71.19 499.675L70.2 502.3H72.665ZM74.88 505H73.975C73.8717 505 73.7883 504.975 73.725 504.925C73.6617 504.872 73.6133 504.807 73.58 504.73L72.98 503.14H69.88L69.28 504.73C69.2533 504.797 69.2067 504.858 69.14 504.915C69.0733 504.972 68.99 505 68.89 505H67.985L70.84 497.8H72.025L74.88 505ZM75.5007 505V499.9H76.1507C76.2974 499.9 76.3907 499.968 76.4307 500.105L76.5007 500.55C76.594 500.443 76.6907 500.347 76.7907 500.26C76.8907 500.17 76.9974 500.093 77.1107 500.03C77.2274 499.963 77.3507 499.912 77.4807 499.875C77.614 499.838 77.7574 499.82 77.9107 499.82C78.074 499.82 78.224 499.843 78.3607 499.89C78.4974 499.937 78.6174 500.003 78.7207 500.09C78.8274 500.177 78.919 500.282 78.9957 500.405C79.0724 500.528 79.1357 500.667 79.1857 500.82C79.2624 500.643 79.359 500.492 79.4757 500.365C79.5924 500.238 79.7224 500.135 79.8657 500.055C80.009 499.975 80.1607 499.917 80.3207 499.88C80.484 499.84 80.649 499.82 80.8157 499.82C81.089 499.82 81.3324 499.863 81.5457 499.95C81.7624 500.037 81.944 500.163 82.0907 500.33C82.2407 500.493 82.354 500.695 82.4307 500.935C82.5074 501.175 82.5457 501.448 82.5457 501.755V505H81.4707V501.755C81.4707 501.395 81.3924 501.125 81.2357 500.945C81.0824 500.762 80.854 500.67 80.5507 500.67C80.414 500.67 80.2857 500.693 80.1657 500.74C80.0457 500.787 79.9407 500.855 79.8507 500.945C79.7607 501.035 79.689 501.148 79.6357 501.285C79.5857 501.418 79.5607 501.575 79.5607 501.755V505H78.4857V501.755C78.4857 501.382 78.4107 501.108 78.2607 500.935C78.1107 500.758 77.8907 500.67 77.6007 500.67C77.4007 500.67 77.2157 500.722 77.0457 500.825C76.8757 500.925 76.719 501.063 76.5757 501.24V505H75.5007ZM86.0065 499.82C86.3832 499.82 86.7232 499.882 87.0265 500.005C87.3332 500.128 87.5932 500.303 87.8065 500.53C88.0232 500.757 88.1898 501.032 88.3065 501.355C88.4232 501.678 88.4815 502.042 88.4815 502.445C88.4815 502.848 88.4232 503.212 88.3065 503.535C88.1898 503.858 88.0232 504.135 87.8065 504.365C87.5932 504.592 87.3332 504.767 87.0265 504.89C86.7232 505.013 86.3832 505.075 86.0065 505.075C85.6265 505.075 85.2832 505.013 84.9765 504.89C84.6732 504.767 84.4132 504.592 84.1965 504.365C83.9798 504.135 83.8132 503.858 83.6965 503.535C83.5798 503.212 83.5215 502.848 83.5215 502.445C83.5215 502.042 83.5798 501.678 83.6965 501.355C83.8132 501.032 83.9798 500.757 84.1965 500.53C84.4132 500.303 84.6732 500.128 84.9765 500.005C85.2832 499.882 85.6265 499.82 86.0065 499.82ZM86.0065 504.235C86.4665 504.235 86.8082 504.082 87.0315 503.775C87.2582 503.465 87.3715 503.023 87.3715 502.45C87.3715 501.877 87.2582 501.435 87.0315 501.125C86.8082 500.812 86.4665 500.655 86.0065 500.655C85.5398 500.655 85.1932 500.812 84.9665 501.125C84.7398 501.435 84.6265 501.877 84.6265 502.45C84.6265 503.023 84.7398 503.465 84.9665 503.775C85.1932 504.082 85.5398 504.235 86.0065 504.235ZM93.8144 499.9V505H93.1644C93.021 505 92.9294 504.932 92.8894 504.795L92.8094 504.32C92.7027 504.433 92.5894 504.537 92.4694 504.63C92.3527 504.723 92.2277 504.803 92.0944 504.87C91.961 504.937 91.8177 504.988 91.6644 505.025C91.5144 505.062 91.3527 505.08 91.1794 505.08C90.8994 505.08 90.6527 505.033 90.4394 504.94C90.226 504.847 90.046 504.715 89.8994 504.545C89.756 504.375 89.6477 504.172 89.5744 503.935C89.501 503.695 89.4644 503.432 89.4644 503.145V499.9H90.5394V503.145C90.5394 503.488 90.6177 503.755 90.7744 503.945C90.9344 504.135 91.176 504.23 91.4994 504.23C91.736 504.23 91.956 504.177 92.1594 504.07C92.366 503.96 92.5594 503.81 92.7394 503.62V499.9H93.8144ZM96.1248 500.575C96.2348 500.462 96.3482 500.36 96.4648 500.27C96.5848 500.177 96.7115 500.097 96.8448 500.03C96.9782 499.963 97.1198 499.912 97.2698 499.875C97.4198 499.838 97.5832 499.82 97.7598 499.82C98.0398 499.82 98.2848 499.867 98.4948 499.96C98.7082 500.053 98.8865 500.185 99.0298 500.355C99.1765 500.525 99.2865 500.73 99.3598 500.97C99.4332 501.207 99.4698 501.468 99.4698 501.755V505H98.3998V501.755C98.3998 501.412 98.3198 501.145 98.1598 500.955C98.0032 500.765 97.7632 500.67 97.4398 500.67C97.1998 500.67 96.9765 500.725 96.7698 500.835C96.5665 500.945 96.3748 501.095 96.1948 501.285V505H95.1198V499.9H95.7698C95.9165 499.9 96.0098 499.968 96.0498 500.105L96.1248 500.575ZM102.292 505.08C101.869 505.08 101.542 504.962 101.312 504.725C101.085 504.485 100.972 504.148 100.972 503.715V500.745H100.412C100.352 500.745 100.3 500.727 100.257 500.69C100.214 500.65 100.192 500.592 100.192 500.515V500.08L101.017 499.96L101.252 498.485C101.269 498.428 101.297 498.383 101.337 498.35C101.377 498.313 101.43 498.295 101.497 498.295H102.047V499.97H103.462V500.745H102.047V503.64C102.047 503.823 102.092 503.963 102.182 504.06C102.272 504.157 102.392 504.205 102.542 504.205C102.625 504.205 102.697 504.195 102.757 504.175C102.817 504.152 102.869 504.128 102.912 504.105C102.955 504.078 102.992 504.055 103.022 504.035C103.055 504.012 103.087 504 103.117 504C103.177 504 103.225 504.033 103.262 504.1L103.582 504.625C103.415 504.772 103.219 504.885 102.992 504.965C102.765 505.042 102.532 505.08 102.292 505.08Z" fill="#2A2C2B"/>
<defs>
<filter id="filter0_d" x="4" y="148" width="368" height="524" filterUnits="userSpaceOnUse" color-interpolation-filters="sRGB">
<feFlood flood-opacity="0" result="BackgroundImageFix"/>
<feColorMatrix in="SourceAlpha" type="matrix" values="0 0 0 0 0 0 0 0 0 0 0 0 0 0 0 0 0 0 127 0"/>
<feOffset dy="4"/>
<feGaussianBlur stdDeviation="8"/>
<feColorMatrix type="matrix" values="0 0 0 0 0 0 0 0 0 0 0 0 0 0 0 0 0 0 0.1 0"/>
<feBlend mode="normal" in2="BackgroundImageFix" result="effect1_dropShadow"/>
<feBlend mode="normal" in="SourceGraphic" in2="effect1_dropShadow" result="shape"/>
</filter>
<radialGradient id="paint0_radial" cx="0" cy="0" r="1" gradientUnits="userSpaceOnUse" gradientTransform="translate(316.694 407.937) rotate(179.748) scale(256.267 256.502)">
<stop stop-color="#F8304F"/>
<stop offset="0.5" stop-color="#F8D930"/>
<stop offset="1" stop-color="#00C883"/>
</radialGradient>
</defs>
</svg>
