<svg width="80" height="80" viewBox="0 0 80 80" fill="none" xmlns="http://www.w3.org/2000/svg">
<path d="M18.4 10.4C14.8712 10.4 12 13.2712 12 16.8V55.2C12 58.7288 14.8712 61.6 18.4 61.6H27.2V63.2C27.2 66.7288 30.0712 69.6 33.6 69.6H61.6C65.1288 69.6 68 66.7288 68 63.2V24.8C68 21.2712 65.1288 18.4 61.6 18.4H52.8V16.8C52.8 13.2712 49.9288 10.4 46.4 10.4H18.4ZM18.4 12H46.4C49.0472 12 51.2 14.1528 51.2 16.8V18.4H33.6C30.0712 18.4 27.2 21.2712 27.2 24.8V56.8H18.8C17.6976 56.8 16.8 55.9032 16.8 54.8V17.2C16.8 16.0968 17.6976 15.2 18.8 15.2H20.4C20.6208 15.2 20.8 15.0208 20.8 14.8C20.8 14.5792 20.6208 14.4 20.4 14.4H18.8C17.256 14.4 16 15.656 16 17.2V54.8C16 56.344 17.256 57.6 18.8 57.6H27.2V60H18.4C15.7528 60 13.6 57.8472 13.6 55.2V16.8C13.6 14.1528 15.7528 12 18.4 12ZM22.8 14.4C22.5792 14.4 22.4 14.5792 22.4 14.8C22.4 15.0208 22.5792 15.2 22.8 15.2H42C42.2208 15.2 42.4 15.0208 42.4 14.8C42.4 14.5792 42.2208 14.4 42 14.4H22.8ZM33.6 20H61.6C64.2472 20 66.4 22.1528 66.4 24.8V63.2C66.4 65.8472 64.2472 68 61.6 68H33.6C30.9528 68 28.8 65.8472 28.8 63.2V24.8C28.8 22.1528 30.9528 20 33.6 20ZM34 22.4C32.456 22.4 31.2 23.656 31.2 25.2V62.8C31.2 64.344 32.456 65.6 34 65.6H61.2C62.744 65.6 64 64.344 64 62.8V57.2C64 56.9792 63.8208 56.8 63.6 56.8C63.3792 56.8 63.2 56.9792 63.2 57.2V62.8C63.2 63.9032 62.3032 64.8 61.2 64.8H34C32.8976 64.8 32 63.9032 32 62.8V25.2C32 24.0968 32.8976 23.2 34 23.2H35.6C35.8208 23.2 36 23.0208 36 22.8C36 22.5792 35.8208 22.4 35.6 22.4H34ZM38 22.4C37.7792 22.4 37.6 22.5792 37.6 22.8C37.6 23.0208 37.7792 23.2 38 23.2H57.2C57.4208 23.2 57.6 23.0208 57.6 22.8C57.6 22.5792 57.4208 22.4 57.2 22.4H38ZM59.9875 37.5891C59.9487 37.5899 59.9101 37.5935 59.8719 37.6H54.4C54.294 37.5985 54.1887 37.6181 54.0904 37.6576C53.992 37.6971 53.9025 37.7558 53.827 37.8303C53.7515 37.9047 53.6915 37.9934 53.6506 38.0912C53.6097 38.189 53.5886 38.294 53.5886 38.4C53.5886 38.506 53.6097 38.611 53.6506 38.7088C53.6915 38.8066 53.7515 38.8953 53.827 38.9697C53.9025 39.0442 53.992 39.1028 54.0904 39.1424C54.1887 39.1819 54.294 39.2015 54.4 39.2H58.1188L49.5891 48.0578L42.9656 41.4344C42.89 41.3587 42.8 41.299 42.701 41.2588C42.6019 41.2185 42.4958 41.1986 42.3889 41.2C42.282 41.2015 42.1764 41.2243 42.0785 41.2673C41.9806 41.3102 41.8923 41.3723 41.8188 41.45L35.0188 48.65C34.9465 48.7263 34.89 48.8161 34.8524 48.9143C34.8149 49.0125 34.797 49.1171 34.7999 49.2221C34.8028 49.3272 34.8264 49.4307 34.8692 49.5266C34.9121 49.6226 34.9735 49.7092 35.0498 49.7814C35.1262 49.8537 35.216 49.9101 35.3142 49.9477C35.4124 49.9852 35.517 50.003 35.6221 50.0001C35.7271 49.9972 35.8306 49.9736 35.9265 49.9307C36.0225 49.8877 36.109 49.8264 36.1812 49.75L42.4172 43.1484L49.0344 49.7656C49.1096 49.8408 49.199 49.9003 49.2975 49.9405C49.3959 49.9807 49.5014 50.0009 49.6078 49.9999C49.7141 49.9989 49.8192 49.9767 49.9169 49.9346C50.0145 49.8925 50.1028 49.8313 50.1766 49.7547L59.2 40.3844V44C59.1985 44.106 59.2181 44.2113 59.2576 44.3096C59.2971 44.408 59.3558 44.4975 59.4303 44.573C59.5047 44.6485 59.5934 44.7085 59.6912 44.7494C59.789 44.7903 59.894 44.8114 60 44.8114C60.106 44.8114 60.211 44.7903 60.3088 44.7494C60.4066 44.7085 60.4953 44.6485 60.5697 44.573C60.6442 44.4975 60.7029 44.408 60.7424 44.3096C60.7819 44.2113 60.8015 44.106 60.8 44V38.4C60.7999 38.3854 60.7994 38.3708 60.7984 38.3562C60.7899 38.1479 60.7003 37.9511 60.5489 37.8078C60.3974 37.6646 60.196 37.5861 59.9875 37.5891ZM63.6 48C63.3792 48 63.2 48.1792 63.2 48.4V49.2C63.2 49.4208 63.3792 49.6 63.6 49.6C63.8208 49.6 64 49.4208 64 49.2V48.4C64 48.1792 63.8208 48 63.6 48ZM63.6 51.2C63.3792 51.2 63.2 51.3792 63.2 51.6V54.8C63.2 55.0208 63.3792 55.2 63.6 55.2C63.8208 55.2 64 55.0208 64 54.8V51.6C64 51.3792 63.8208 51.2 63.6 51.2Z" fill="#2A2C2B"/>
</svg>
