<svg width="81" height="80" viewBox="0 0 81 80" fill="none" xmlns="http://www.w3.org/2000/svg">
<path d="M36.2943 8.79999C35.3435 8.79999 34.5198 9.47522 34.3333 10.4078C34.3328 10.4104 34.3322 10.413 34.3318 10.4156L33.0489 17.6H32.5833C30.5999 17.6 28.9833 19.2166 28.9833 21.2V21.6H25.7833C19.607 21.6 14.5833 26.6237 14.5833 32.8V34.5391L11.3833 35.1578V20.7281C12.3068 20.5672 13.0538 20.1346 13.5818 19.5406C14.2551 18.7831 14.5833 17.7889 14.5833 16.8C14.5833 15.8111 14.2551 14.8168 13.5818 14.0594C12.9084 13.3019 11.8833 12.8 10.5833 12.8C9.28331 12.8 8.25818 13.3019 7.58488 14.0594C6.91157 14.8168 6.58331 15.8111 6.58331 16.8C6.58331 17.7889 6.91157 18.7831 7.58488 19.5406C8.11282 20.1346 8.85985 20.5672 9.78331 20.7281V35.4672L9.11144 35.5969C9.10413 35.5978 9.09684 35.5988 9.08956 35.6C7.63008 35.9244 6.58331 37.2296 6.58331 38.725V45.275C6.58331 46.7709 7.63044 48.0741 9.08956 48.3984C9.09683 48.4001 9.10412 48.4017 9.11144 48.4031L14.5833 49.4609V58.4C14.5833 64.5763 19.607 69.6 25.7833 69.6H55.3833C61.5596 69.6 66.5833 64.5763 66.5833 58.4V49.4609L72.0552 48.4031C72.0625 48.4017 72.0698 48.4001 72.0771 48.3984C73.5362 48.0741 74.5833 46.7709 74.5833 45.275V38.725C74.5833 37.2296 73.5366 35.9244 72.0771 35.6C72.0698 35.5988 72.0625 35.5978 72.0552 35.5969L71.3833 35.4672V20.7281C72.3068 20.5672 73.0538 20.1346 73.5817 19.5406C74.2551 18.7831 74.5833 17.7889 74.5833 16.8C74.5833 15.8111 74.2551 14.8168 73.5817 14.0594C72.9084 13.3019 71.8833 12.8 70.5833 12.8C69.2833 12.8 68.2582 13.3019 67.5849 14.0594C66.9116 14.8168 66.5833 15.8111 66.5833 16.8C66.5833 17.7889 66.9116 18.7831 67.5849 19.5406C68.1128 20.1346 68.8598 20.5672 69.7833 20.7281V35.1578L66.5833 34.5391V32.8C66.5833 26.6237 61.5596 21.6 55.3833 21.6H52.1833V21.2C52.1833 19.2166 50.5667 17.6 48.5833 17.6H48.1177L46.8333 10.4156C46.8328 10.413 46.8323 10.4104 46.8318 10.4078C46.6453 9.47525 45.8215 8.79999 44.8708 8.79999H36.2943ZM36.2943 9.59999H44.8708C45.4449 9.59999 45.9347 10.0022 46.0474 10.5656L47.3052 17.6H33.8614L35.1177 10.5656C35.2304 10.0022 35.7202 9.59999 36.2943 9.59999ZM10.5833 13.6C11.6833 13.6 12.4582 13.9981 12.9849 14.5906C13.5116 15.1831 13.7833 15.9889 13.7833 16.8C13.7833 17.6111 13.5116 18.4168 12.9849 19.0094C12.4582 19.6019 11.6833 20 10.5833 20C9.48331 20 8.70844 19.6019 8.18175 19.0094C7.65506 18.4168 7.38331 17.6111 7.38331 16.8C7.38331 15.9889 7.65506 15.1831 8.18175 14.5906C8.70844 13.9981 9.48331 13.6 10.5833 13.6ZM70.5833 13.6C71.6833 13.6 72.4582 13.9981 72.9849 14.5906C73.5116 15.1831 73.7833 15.9889 73.7833 16.8C73.7833 17.6111 73.5116 18.4168 72.9849 19.0094C72.4582 19.6019 71.6833 20 70.5833 20C69.4833 20 68.7084 19.6019 68.1818 19.0094C67.6551 18.4168 67.3833 17.6111 67.3833 16.8C67.3833 15.9889 67.6551 15.1831 68.1818 14.5906C68.7084 13.9981 69.4833 13.6 70.5833 13.6ZM32.5833 18.4H33.3646H47.7833H48.5833C50.1343 18.4 51.3833 19.649 51.3833 21.2V21.6H29.7833V21.2C29.7833 19.649 31.0323 18.4 32.5833 18.4ZM25.7833 23.2H55.3833C60.695 23.2 64.9833 27.4883 64.9833 32.8V35.2V48.8V58.4C64.9833 63.7117 60.695 68 55.3833 68H25.7833C20.4716 68 16.1833 63.7117 16.1833 58.4V48.8V35.2V32.8C16.1833 27.4883 20.4716 23.2 25.7833 23.2ZM28.9833 31.2C25.0116 31.2 21.7833 34.4283 21.7833 38.4C21.7833 42.3717 25.0116 45.6 28.9833 45.6C32.955 45.6 36.1833 42.3717 36.1833 38.4C36.1833 34.4283 32.955 31.2 28.9833 31.2ZM52.1833 31.2C48.2116 31.2 44.9833 34.4283 44.9833 38.4C44.9833 42.3717 48.2116 45.6 52.1833 45.6C56.155 45.6 59.3833 42.3717 59.3833 38.4C59.3833 34.4283 56.155 31.2 52.1833 31.2ZM28.9833 32C32.5227 32 35.3833 34.8606 35.3833 38.4C35.3833 41.9394 32.5227 44.8 28.9833 44.8C25.444 44.8 22.5833 41.9394 22.5833 38.4C22.5833 34.8606 25.444 32 28.9833 32ZM52.1833 32C55.7227 32 58.5833 34.8606 58.5833 38.4C58.5833 41.9394 55.7227 44.8 52.1833 44.8C48.644 44.8 45.7833 41.9394 45.7833 38.4C45.7833 34.8606 48.644 32 52.1833 32ZM28.9833 35.2C27.2185 35.2 25.7833 36.6352 25.7833 38.4C25.7833 40.1648 27.2185 41.6 28.9833 41.6C30.7481 41.6 32.1833 40.1648 32.1833 38.4C32.1833 36.6352 30.7481 35.2 28.9833 35.2ZM52.1833 35.2C50.4185 35.2 48.9833 36.6352 48.9833 38.4C48.9833 40.1648 50.4185 41.6 52.1833 41.6C53.9481 41.6 55.3833 40.1648 55.3833 38.4C55.3833 36.6352 53.9481 35.2 52.1833 35.2ZM14.5833 36.1703V47.8297L9.41456 46.8328L9.43644 46.8359C8.70037 46.6723 8.18331 46.0303 8.18331 45.275V38.725C8.18331 37.9713 8.6999 37.3265 9.43488 37.1625H9.43644L14.5833 36.1703ZM66.5833 36.1703L71.7302 37.1625H71.7318C72.4667 37.3265 72.9833 37.9713 72.9833 38.725V45.275C72.9833 46.0303 72.4663 46.6723 71.7302 46.8359L71.7521 46.8328L66.5833 47.8297V36.1703ZM30.9771 51.9937C30.9571 51.9943 30.9373 51.9964 30.9177 52H26.1833C26.0772 52 25.9755 52.0421 25.9005 52.1172C25.8255 52.1922 25.7833 52.2939 25.7833 52.4V57.2C25.7833 60.0389 28.0708 62.3496 30.8989 62.3953C30.9482 62.4063 30.9991 62.4079 31.0489 62.4H35.7193C35.7622 62.407 35.806 62.407 35.8489 62.4H40.5193C40.5622 62.407 40.606 62.407 40.6489 62.4H45.3193C45.3622 62.407 45.406 62.407 45.4489 62.4H50.1193C50.1706 62.4085 50.2232 62.4069 50.2739 62.3953C53.0992 62.3463 55.3833 60.0367 55.3833 57.2V52.4C55.3833 52.2939 55.3412 52.1922 55.2661 52.1172C55.1911 52.0421 55.0894 52 54.9833 52H50.2568C50.2305 51.9953 50.2038 51.9932 50.1771 51.9937C50.1571 51.9943 50.1373 51.9964 50.1177 52H45.4568C45.4305 51.9953 45.4038 51.9932 45.3771 51.9937C45.3571 51.9943 45.3373 51.9964 45.3177 52H40.6567C40.6305 51.9953 40.6038 51.9932 40.5771 51.9937C40.5571 51.9943 40.5373 51.9964 40.5177 52H35.8568C35.8305 51.9953 35.8038 51.9932 35.7771 51.9937C35.7571 51.9943 35.7373 51.9964 35.7177 52H31.0568C31.0305 51.9953 31.0038 51.9932 30.9771 51.9937ZM26.5833 52.8H30.5833V55.6C30.5826 55.653 30.5924 55.7056 30.6121 55.7548C30.6319 55.804 30.6612 55.8488 30.6985 55.8865C30.7357 55.9243 30.78 55.9542 30.8289 55.9747C30.8778 55.9951 30.9303 56.0057 30.9833 56.0057C31.0363 56.0057 31.0888 55.9951 31.1377 55.9747C31.1866 55.9542 31.231 55.9243 31.2682 55.8865C31.3054 55.8488 31.3347 55.804 31.3545 55.7548C31.3743 55.7056 31.3841 55.653 31.3833 55.6V52.8H35.3833V61.6H31.3833V57.2C31.3842 57.1464 31.3742 57.0932 31.3541 57.0435C31.334 56.9939 31.3041 56.9487 31.2662 56.9109C31.2283 56.873 31.1832 56.8431 31.1335 56.823C31.0838 56.8028 31.0306 56.7929 30.9771 56.7937C30.9245 56.7946 30.8727 56.8057 30.8245 56.8266C30.7762 56.8474 30.7326 56.8776 30.696 56.9153C30.6595 56.953 30.6307 56.9976 30.6114 57.0464C30.592 57.0953 30.5825 57.1475 30.5833 57.2V61.5797C28.3372 61.3778 26.5833 59.4998 26.5833 57.2V52.8ZM36.1833 52.8H40.1833V58.8C40.1826 58.853 40.1924 58.9056 40.2121 58.9548C40.2319 59.004 40.2612 59.0488 40.2985 59.0865C40.3357 59.1243 40.38 59.1542 40.4289 59.1747C40.4778 59.1951 40.5303 59.2057 40.5833 59.2057C40.6363 59.2057 40.6888 59.1951 40.7377 59.1747C40.7866 59.1542 40.831 59.1243 40.8682 59.0865C40.9054 59.0488 40.9347 59.004 40.9545 58.9548C40.9743 58.9056 40.9841 58.853 40.9833 58.8V52.8H44.9833V54.8C44.9826 54.853 44.9924 54.9056 45.0121 54.9548C45.0319 55.004 45.0612 55.0488 45.0984 55.0865C45.1357 55.1243 45.18 55.1542 45.2289 55.1747C45.2778 55.1951 45.3303 55.2057 45.3833 55.2057C45.4363 55.2057 45.4888 55.1951 45.5377 55.1747C45.5866 55.1542 45.631 55.1243 45.6682 55.0865C45.7054 55.0488 45.7347 55.004 45.7545 54.9548C45.7743 54.9056 45.7841 54.853 45.7833 54.8V52.8H49.7833V61.6H45.7833V56.4C45.7842 56.3464 45.7742 56.2932 45.7541 56.2435C45.734 56.1939 45.7041 56.1488 45.6662 56.1109C45.6283 56.073 45.5832 56.0431 45.5335 56.023C45.4838 56.0028 45.4306 55.9929 45.3771 55.9937C45.3245 55.9946 45.2727 56.0057 45.2245 56.0266C45.1762 56.0474 45.1326 56.0776 45.0961 56.1153C45.0595 56.153 45.0307 56.1976 45.0114 56.2464C44.992 56.2953 44.9825 56.3475 44.9833 56.4V61.6H40.9833V60.4C40.9842 60.3464 40.9742 60.2932 40.9541 60.2435C40.934 60.1939 40.9041 60.1488 40.8662 60.1109C40.8283 60.073 40.7832 60.0431 40.7335 60.023C40.6838 60.0028 40.6306 59.9929 40.5771 59.9937C40.5245 59.9946 40.4727 60.0057 40.4245 60.0266C40.3762 60.0474 40.3326 60.0776 40.296 60.1153C40.2595 60.153 40.2307 60.1976 40.2114 60.2464C40.192 60.2953 40.1825 60.3475 40.1833 60.4V61.6H36.1833V52.8ZM50.5833 52.8H54.5833V57.2C54.5833 59.4998 52.8294 61.3778 50.5833 61.5797V52.8Z" fill="#2A2C2B"/>
</svg>
