<svg width="81" height="80" viewBox="0 0 81 80" fill="none" xmlns="http://www.w3.org/2000/svg">
<path d="M17.8386 14.4C16.5357 14.4 15.4167 15.4228 15.4167 16.7266C15.4167 16.7892 15.424 16.8516 15.4385 16.9125L15.7276 18.1203L13.8385 29.8297H14.5182C14.3244 29.83 14.1372 29.9006 13.9915 30.0285C13.8458 30.1564 13.7514 30.3328 13.726 30.525C13.7229 30.5484 13.7208 30.5718 13.7198 30.5953C13.7192 30.6 13.7187 30.6047 13.7182 30.6094L13.7135 30.7094C13.7004 31.0019 13.6932 31.314 13.6932 31.661C13.6932 33.0171 14.394 34.0662 15.4167 34.7125V61.6H14.6167C14.4045 61.6 14.201 61.6843 14.051 61.8344C13.901 61.9844 13.8167 62.1879 13.8167 62.4V64.8C13.8167 65.0122 13.901 65.2157 14.051 65.3657C14.201 65.5157 14.4045 65.6 14.6167 65.6H65.8167C66.0288 65.6 66.2323 65.5157 66.3823 65.3657C66.5324 65.2157 66.6167 65.0122 66.6167 64.8V62.4C66.6167 62.1879 66.5324 61.9844 66.3823 61.8344C66.2323 61.6843 66.0288 61.6 65.8167 61.6H64.2198L64.3401 35.2H63.887C64.0136 35.2001 64.1383 35.1701 64.251 35.1125C65.4809 34.4841 66.3276 33.2511 66.3276 31.6922C66.3276 31.3639 66.3216 31.0668 66.312 30.7172C66.311 30.6879 66.3084 30.6587 66.3042 30.6297L64.6651 18.9313L65.0057 16.8563C65.0129 16.8134 65.0166 16.77 65.0167 16.7266C65.0167 15.4228 63.8977 14.4 62.5948 14.4H17.8386ZM17.8386 16H62.5948C63.0677 16 63.3975 16.3405 63.4089 16.7094L63.0667 18.7922C63.0535 18.8718 63.0525 18.9529 63.0635 19.0328L63.087 19.2H59.8182H59.8167H54.2167H54.2151H48.6167H43.0167H37.4167H31.8182H31.8167H26.2167H20.6167H17.1745L17.3323 18.2172C17.3489 18.1127 17.3447 18.006 17.3198 17.9031L17.0307 16.6938C17.0518 16.3315 17.3729 16 17.8386 16ZM17.1292 20H20.2167V30.211V30.4H15.3682L16.3495 24.3156L17.1292 20ZM21.0167 20H25.8167V30.211V30.4H21.0167V30.3844V20ZM26.6167 20H31.4167V30.211V30.4H26.6182C26.6176 28.869 26.6167 20.6761 26.6167 20ZM32.2182 20H37.0167V30.211V30.4H32.2182C32.2182 30.3995 32.2182 30.399 32.2182 30.3985V20ZM37.8182 20H42.6167V30.211V30.4H37.8182C37.8182 30.3995 37.8182 30.399 37.8182 30.3985V20ZM43.4167 20H48.2167V30.211V30.4H43.4182C43.4176 28.9209 43.4167 20.6761 43.4167 20ZM49.0182 20H53.8151V30.3985C53.8151 30.399 53.8151 30.3995 53.8151 30.4H49.0182C49.0182 30.3995 49.0182 30.399 49.0182 30.3985V20ZM54.6167 20H59.4167V30C59.4165 30.0136 59.417 30.0271 59.4182 30.0406V30.3985C59.4182 30.399 59.4182 30.3995 59.4182 30.4H54.6167V30.211V20ZM60.2182 20H63.1995L64.6557 30.4H60.2276C60.231 30.2746 60.2316 30.1353 60.237 30.0188C60.239 29.9717 60.2326 29.9246 60.2182 29.8797V20ZM15.3026 31.2H20.2167C20.2167 31.2056 20.2167 31.2097 20.2167 31.2156C20.2167 32.5021 18.9735 33.6 17.8057 33.6H17.3635C17.2447 33.6 17.1293 33.5819 17.0151 33.561C17.0064 33.4279 16.9646 33.2992 16.8936 33.1864C16.8225 33.0737 16.7243 32.9804 16.6081 32.9152C16.4918 32.85 16.3611 32.8149 16.2278 32.8131C16.0945 32.8112 15.9628 32.8427 15.8448 32.9047C15.5927 32.6281 15.4103 32.2773 15.3057 31.8891C15.301 31.8134 15.2932 31.7438 15.2932 31.661C15.2932 31.4925 15.2992 31.3523 15.3026 31.2ZM21.0292 31.2H25.3511C25.2567 31.2157 25.1711 31.2647 25.1098 31.3381C25.0484 31.4115 25.0154 31.5044 25.0167 31.6V33.1172C24.6704 33.4164 24.2342 33.5985 23.7292 33.5985H23.3682C22.128 33.5985 21.0947 32.5438 21.0292 31.2ZM25.4901 31.2H25.8182C25.8182 31.2005 25.8182 31.2152 25.8182 31.2156C25.8182 31.3038 25.8052 31.3866 25.7979 31.4719C25.776 31.403 25.7358 31.3413 25.6816 31.2934C25.6274 31.2456 25.5612 31.2133 25.4901 31.2ZM26.6292 31.2H31.4182C31.4182 31.205 31.4182 31.2087 31.4182 31.2141C31.4182 32.5658 30.5584 33.5985 29.3292 33.5985H28.9682C27.7281 33.5985 26.6947 32.5438 26.6292 31.2ZM32.2292 31.2H37.0182C37.0182 31.205 37.0182 31.2087 37.0182 31.2141C37.0182 32.5658 36.1584 33.5985 34.9292 33.5985H34.5682C33.328 33.5985 32.2945 32.5438 32.2292 31.2ZM37.8292 31.2H42.6182C42.6182 31.2034 42.6182 31.2152 42.6182 31.2156C42.6175 32.5666 41.7579 33.5985 40.5292 33.5985H40.1682C38.928 33.5985 37.8945 32.5438 37.8292 31.2ZM43.4292 31.2H48.2182C48.2155 32.5487 47.3528 33.5985 46.1292 33.5985H45.7682C44.5281 33.5985 43.4947 32.5437 43.4292 31.2ZM49.0542 31.2H53.7964C53.7419 31.8389 53.5321 32.4163 53.2073 32.8344C52.8306 33.3192 52.3333 33.5985 51.7323 33.5985H51.3714C50.2288 33.5985 49.2315 32.5765 49.0542 31.2ZM54.6292 31.2H54.951C54.8888 31.2104 54.8299 31.2353 54.7791 31.2728C54.7283 31.3102 54.6871 31.3592 54.6589 31.4156C54.6495 31.3435 54.6328 31.274 54.6292 31.2ZM55.0807 31.2H59.4182V31.2141C59.4182 32.5658 58.5584 33.5985 57.3292 33.5985H56.9682C56.3742 33.5985 55.8322 33.3514 55.4167 32.9516V31.6C55.4179 31.5042 55.3847 31.411 55.323 31.3376C55.2613 31.2642 55.1754 31.2154 55.0807 31.2ZM60.2432 31.2H64.7182C64.7216 31.3616 64.7276 31.5298 64.7276 31.6922C64.7276 32.0371 64.6783 32.32 64.5886 32.5641C64.1956 33.1917 63.5409 33.6 62.8151 33.6H62.6573C61.4216 33.6 60.3792 32.5582 60.2432 31.2ZM20.6151 32.65C21.1495 33.6806 22.1726 34.3985 23.3682 34.3985H23.7292C24.2039 34.3985 24.6348 34.2729 25.0167 34.0672V50.4H23.8167C23.7106 50.4 23.6089 50.4422 23.5338 50.5172C23.4588 50.5922 23.4167 50.6939 23.4167 50.8V55.6C23.4167 55.7061 23.4588 55.8078 23.5338 55.8829C23.6089 55.9579 23.7106 56 23.8167 56H52.6167C52.6697 56.0008 52.7223 55.991 52.7715 55.9712C52.8207 55.9514 52.8655 55.9221 52.9032 55.8849C52.9409 55.8477 52.9709 55.8033 52.9914 55.7544C53.0118 55.7055 53.0224 55.653 53.0224 55.6C53.0224 55.547 53.0118 55.4945 52.9914 55.4456C52.9709 55.3967 52.9409 55.3524 52.9032 55.3152C52.8655 55.2779 52.8207 55.2486 52.7715 55.2288C52.7223 55.2091 52.6697 55.1993 52.6167 55.2H24.2167V51.2H56.2167V55.2H55.0167C54.9637 55.1993 54.911 55.2091 54.8619 55.2288C54.8127 55.2486 54.7679 55.2779 54.7302 55.3152C54.6924 55.3524 54.6624 55.3967 54.642 55.4456C54.6215 55.4945 54.611 55.547 54.611 55.6C54.611 55.653 54.6215 55.7055 54.642 55.7544C54.6624 55.8033 54.6924 55.8477 54.7302 55.8849C54.7679 55.9221 54.8127 55.9514 54.8619 55.9712C54.911 55.991 54.9637 56.0008 55.0167 56H56.6167C56.7228 56 56.8245 55.9579 56.8995 55.8829C56.9745 55.8078 57.0167 55.7061 57.0167 55.6V50.8C57.0167 50.6939 56.9745 50.5922 56.8995 50.5172C56.8245 50.4422 56.7228 50.4 56.6167 50.4H55.4167V33.9469C55.8749 34.2266 56.3995 34.3985 56.9682 34.3985H57.3292C58.5053 34.3985 59.4346 33.6755 59.8964 32.6625C60.4519 33.6899 61.4643 34.4 62.6573 34.4H62.7432L62.6167 62.3969C62.6163 62.5022 62.6367 62.6066 62.6767 62.704C62.7167 62.8014 62.7756 62.89 62.8499 62.9646C62.9242 63.0392 63.0126 63.0984 63.1098 63.1388C63.2071 63.1792 63.3114 63.2 63.4167 63.2H65.0167V64H15.4167V63.2H16.2167C16.295 63.1999 16.3729 63.1884 16.4479 63.1656C16.501 63.1892 16.5586 63.201 16.6167 63.2H55.8167C55.8697 63.2008 55.9223 63.191 55.9715 63.1712C56.0207 63.1514 56.0655 63.1221 56.1032 63.0849C56.1409 63.0477 56.1709 63.0033 56.1914 62.9544C56.2118 62.9055 56.2224 62.853 56.2224 62.8C56.2224 62.747 56.2118 62.6945 56.1914 62.6456C56.1709 62.5967 56.1409 62.5524 56.1032 62.5152C56.0655 62.4779 56.0207 62.4486 55.9715 62.4288C55.9223 62.4091 55.8697 62.3993 55.8167 62.4H17.0167V34.3625C17.1316 34.3774 17.2445 34.4 17.3635 34.4H17.8057C18.9654 34.4 20.0641 33.6898 20.6151 32.65ZM48.6901 32.6578C49.2403 33.6896 50.2202 34.3985 51.3714 34.3985H51.7323C52.5921 34.3985 53.3368 33.9708 53.8386 33.325C53.9933 33.1258 54.1199 32.9014 54.2307 32.6656C54.3401 32.8751 54.4688 33.0691 54.6167 33.2485V50.4H53.0167V46.8C53.0167 46.6939 52.9745 46.5922 52.8995 46.5172C52.8245 46.4422 52.7228 46.4 52.6167 46.4H51.4167V42.8C51.4167 42.6939 51.3745 42.5922 51.2995 42.5172C51.2245 42.4422 51.1228 42.4 51.0167 42.4H46.2167C46.1106 42.4 46.0089 42.4422 45.9338 42.5172C45.8588 42.5922 45.8167 42.6939 45.8167 42.8V46.4H45.4167C45.3106 46.4 45.2089 46.4422 45.1338 46.5172C45.0588 46.5922 45.0167 46.6939 45.0167 46.8V50.4H42.7573C43.0659 49.9413 43.2495 49.3933 43.2495 48.8047C43.2495 47.7972 42.6682 46.9713 41.8745 46.45C41.8898 46.3795 41.9454 46.3124 41.9573 46.236C41.9907 46.0208 42.0036 45.7785 41.9995 45.536C41.9954 45.2934 41.9745 45.0529 41.9323 44.836C41.8901 44.619 41.865 44.4292 41.6682 44.2313C41.631 44.1937 41.5868 44.1638 41.5379 44.1434C41.4891 44.123 41.4368 44.1125 41.3839 44.1125H39.1151C39.0622 44.1125 39.0098 44.123 38.961 44.1434C38.9122 44.1638 38.8679 44.1937 38.8307 44.2313C38.6346 44.4291 38.6089 44.619 38.5667 44.836C38.5245 45.0529 38.5036 45.295 38.4995 45.5375C38.4954 45.78 38.5083 46.0208 38.5417 46.236C38.5535 46.3123 38.6092 46.3795 38.6245 46.45C37.8305 46.9712 37.2495 47.7969 37.2495 48.8047C37.2495 49.3933 37.433 49.9414 37.7417 50.4H35.4167V46.8C35.4167 46.6939 35.3745 46.5922 35.2995 46.5172C35.2245 46.4422 35.1228 46.4 35.0167 46.4H34.6167V42.8C34.6167 42.6939 34.5745 42.5922 34.4995 42.5172C34.4245 42.4422 34.3228 42.4 34.2167 42.4H28.6167C28.5106 42.4 28.4089 42.4422 28.3338 42.5172C28.2588 42.5922 28.2167 42.6939 28.2167 42.8V46.4H27.8167C27.7106 46.4 27.6089 46.4422 27.5338 46.5172C27.4588 46.5922 27.4167 46.6939 27.4167 46.8V50.4H25.8167V33.436C25.9959 33.2298 26.1377 32.9898 26.2604 32.7375C26.807 33.721 27.8065 34.3985 28.9682 34.3985H29.3292C30.476 34.3985 31.3871 33.7105 31.8604 32.7375C32.407 33.721 33.4065 34.3985 34.5682 34.3985H34.9292C36.076 34.3985 36.9871 33.7105 37.4604 32.7375C38.007 33.721 39.0065 34.3985 40.1682 34.3985H40.5292C41.676 34.3985 42.5871 33.7105 43.0604 32.7375C43.607 33.721 44.6065 34.3985 45.7682 34.3985H46.1292C47.3034 34.3985 48.2273 33.6706 48.6901 32.6578ZM29.0167 43.2H33.8167V46.4H29.0167V43.2ZM46.6167 43.2H50.6167V46.4H46.6167V43.2ZM39.3698 44.9125H41.1292C41.1445 44.9501 41.1362 44.9289 41.1479 44.9891C41.1776 45.1416 41.1961 45.346 41.1995 45.55C41.2029 45.7541 41.1904 45.9595 41.1667 46.1125C41.1429 46.2656 41.0661 46.3745 41.1323 46.3016C41.0908 46.3473 41.0605 46.402 41.0436 46.4614C41.0268 46.5208 41.024 46.5833 41.0353 46.644C41.0467 46.7046 41.0719 46.7619 41.1091 46.8112C41.1462 46.8605 41.1943 46.9005 41.2495 46.9281C41.9643 47.2835 42.4495 47.9858 42.4495 48.8047C42.4495 49.3882 42.2064 49.9115 41.8089 50.2969C41.778 50.3269 41.7521 50.3618 41.7323 50.4H38.7667C38.7464 50.3616 38.72 50.3268 38.6886 50.2969C38.2915 49.9127 38.0495 49.3882 38.0495 48.8047C38.0495 47.9846 38.5338 47.2836 39.2495 46.9281C39.3047 46.9005 39.3528 46.8605 39.3899 46.8112C39.4271 46.7619 39.4523 46.7046 39.4637 46.644C39.475 46.5833 39.4722 46.5208 39.4553 46.4614C39.4385 46.402 39.4082 46.3473 39.3667 46.3016C39.4328 46.3744 39.356 46.2655 39.3323 46.1125C39.3086 45.9596 39.2961 45.754 39.2995 45.55C39.3029 45.346 39.3214 45.1417 39.351 44.9891C39.3627 44.9293 39.3546 44.9501 39.3698 44.9125ZM28.2167 47.2H34.6167V50.4H28.2167V47.2ZM45.8167 47.2H52.2167V50.4H45.8167V47.2ZM57.4167 62.4C57.3637 62.3993 57.311 62.4091 57.2619 62.4288C57.2127 62.4486 57.1679 62.4779 57.1302 62.5152C57.0924 62.5524 57.0624 62.5967 57.042 62.6456C57.0215 62.6945 57.011 62.747 57.011 62.8C57.011 62.853 57.0215 62.9055 57.042 62.9544C57.0624 63.0033 57.0924 63.0477 57.1302 63.0849C57.1679 63.1221 57.2127 63.1514 57.2619 63.1712C57.311 63.191 57.3637 63.2008 57.4167 63.2C57.4697 63.2008 57.5223 63.191 57.5715 63.1712C57.6207 63.1514 57.6655 63.1221 57.7032 63.0849C57.7409 63.0477 57.7709 63.0033 57.7914 62.9544C57.8118 62.9055 57.8224 62.853 57.8224 62.8C57.8224 62.747 57.8118 62.6945 57.7914 62.6456C57.7709 62.5967 57.7409 62.5524 57.7032 62.5152C57.6655 62.4779 57.6207 62.4486 57.5715 62.4288C57.5223 62.4091 57.4697 62.3993 57.4167 62.4ZM59.8167 62.4C59.7637 62.3993 59.711 62.4091 59.6619 62.4288C59.6127 62.4486 59.5679 62.4779 59.5302 62.5152C59.4924 62.5524 59.4624 62.5967 59.442 62.6456C59.4215 62.6945 59.411 62.747 59.411 62.8C59.411 62.853 59.4215 62.9055 59.442 62.9544C59.4624 63.0033 59.4924 63.0477 59.5302 63.0849C59.5679 63.1221 59.6127 63.1514 59.6619 63.1712C59.711 63.191 59.7637 63.2008 59.8167 63.2H60.6167C60.6697 63.2008 60.7223 63.191 60.7715 63.1712C60.8207 63.1514 60.8655 63.1221 60.9032 63.0849C60.9409 63.0477 60.9709 63.0033 60.9914 62.9544C61.0118 62.9055 61.0224 62.853 61.0224 62.8C61.0224 62.747 61.0118 62.6945 60.9914 62.6456C60.9709 62.5967 60.9409 62.5524 60.9032 62.5152C60.8655 62.4779 60.8207 62.4486 60.7715 62.4288C60.7223 62.4091 60.6697 62.3993 60.6167 62.4H59.8167Z" fill="#2A2C2B"/>
</svg>
