<svg width="80" height="80" viewBox="0 0 80 80" fill="none" xmlns="http://www.w3.org/2000/svg">
<path d="M28 9.60001C24.9072 9.60001 22.4 12.1072 22.4 15.2V64C22.4 67.0928 24.9072 69.6 28 69.6H49.6C52.6928 69.6 55.2 67.0928 55.2 64V23.2H55.6C56.258 23.2 56.8 22.658 56.8 22V18C56.8 17.342 56.258 16.8 55.6 16.8H55.2V15.2C55.2 12.1072 52.6928 9.60001 49.6 9.60001H28ZM28 11.2H49.6C51.8088 11.2 53.6 12.9912 53.6 15.2V64C53.6 66.2088 51.8088 68 49.6 68H28C25.7912 68 24 66.2088 24 64V15.2C24 12.9912 25.7912 11.2 28 11.2ZM35.6 13.6C35.547 13.5993 35.4944 13.609 35.4452 13.6288C35.396 13.6486 35.3512 13.6779 35.3135 13.7151C35.2757 13.7524 35.2458 13.7967 35.2253 13.8456C35.2048 13.8945 35.1943 13.947 35.1943 14C35.1943 14.053 35.2048 14.1055 35.2253 14.1544C35.2458 14.2033 35.2757 14.2477 35.3135 14.2849C35.3512 14.3221 35.396 14.3514 35.4452 14.3712C35.4944 14.391 35.547 14.4008 35.6 14.4H41.9984C42.0514 14.4008 42.1041 14.391 42.1533 14.3712C42.2024 14.3514 42.2472 14.3221 42.285 14.2849C42.3227 14.2477 42.3527 14.2033 42.3731 14.1544C42.3936 14.1055 42.4041 14.053 42.4041 14C42.4041 13.947 42.3936 13.8945 42.3731 13.8456C42.3527 13.7967 42.3227 13.7524 42.285 13.7151C42.2472 13.6779 42.2024 13.6486 42.1533 13.6288C42.1041 13.609 42.0514 13.5993 41.9984 13.6H35.6ZM50.7938 16.7938C50.7412 16.7946 50.6894 16.8057 50.6411 16.8266C50.5929 16.8475 50.5493 16.8776 50.5127 16.9153C50.4762 16.9531 50.4474 16.9976 50.4281 17.0465C50.4087 17.0953 50.3992 17.1475 50.4 17.2V20.4C50.3993 20.453 50.409 20.5056 50.4288 20.5548C50.4486 20.604 50.4779 20.6488 50.5151 20.6865C50.5524 20.7243 50.5967 20.7542 50.6456 20.7747C50.6945 20.7952 50.747 20.8057 50.8 20.8057C50.853 20.8057 50.9055 20.7952 50.9544 20.7747C51.0033 20.7542 51.0476 20.7243 51.0849 20.6865C51.1221 20.6488 51.1514 20.604 51.1712 20.5548C51.191 20.5056 51.2008 20.453 51.2 20.4V17.2C51.2008 17.1464 51.1909 17.0932 51.1708 17.0436C51.1507 16.9939 51.1208 16.9488 51.0829 16.9109C51.045 16.873 50.9999 16.8431 50.9502 16.823C50.9005 16.8029 50.8473 16.7929 50.7938 16.7938ZM26.8 16.8C26.6939 16.8 26.5922 16.8422 26.5172 16.9172C26.4422 16.9922 26.4 17.0939 26.4 17.2V44.4C26.3993 44.453 26.409 44.5056 26.4288 44.5548C26.4486 44.604 26.4779 44.6488 26.5151 44.6865C26.5524 44.7243 26.5967 44.7542 26.6456 44.7747C26.6945 44.7952 26.747 44.8057 26.8 44.8057C26.853 44.8057 26.9055 44.7952 26.9544 44.7747C27.0033 44.7542 27.0476 44.7243 27.0849 44.6865C27.1221 44.6488 27.1514 44.604 27.1712 44.5548C27.191 44.5056 27.2008 44.453 27.2 44.4V17.6H47.6C47.653 17.6008 47.7056 17.591 47.7548 17.5712C47.804 17.5514 47.8488 17.5221 47.8865 17.4849C47.9243 17.4477 47.9542 17.4033 47.9747 17.3544C47.9952 17.3055 48.0057 17.253 48.0057 17.2C48.0057 17.147 47.9952 17.0945 47.9747 17.0456C47.9542 16.9967 47.9243 16.9524 47.8865 16.9151C47.8488 16.8779 47.804 16.8486 47.7548 16.8288C47.7056 16.809 47.653 16.7993 47.6 16.8H26.8ZM55.2 17.6H55.6C55.8252 17.6 56 17.7748 56 18V22C56 22.2252 55.8252 22.4 55.6 22.4H55.2V17.6ZM30 20C29.342 20 28.8 20.542 28.8 21.2V24.4C28.8 25.058 29.342 25.6 30 25.6H33.2C33.858 25.6 34.4 25.058 34.4 24.4V21.2C34.4 20.542 33.858 20 33.2 20H30ZM37.2 20C36.542 20 36 20.542 36 21.2V24.4C36 25.058 36.542 25.6 37.2 25.6H40.4C41.058 25.6 41.6 25.058 41.6 24.4V21.2C41.6 20.542 41.058 20 40.4 20H37.2ZM44.4 20C43.742 20 43.2 20.542 43.2 21.2V24.4C43.2 25.058 43.742 25.6 44.4 25.6H47.6C48.258 25.6 48.8 25.058 48.8 24.4V21.2C48.8 20.542 48.258 20 47.6 20H44.4ZM30 20.8H33.2C33.4252 20.8 33.6 20.9748 33.6 21.2V24.4C33.6 24.6252 33.4252 24.8 33.2 24.8H30C29.7748 24.8 29.6 24.6252 29.6 24.4V21.2C29.6 20.9748 29.7748 20.8 30 20.8ZM37.2 20.8H40.4C40.6252 20.8 40.8 20.9748 40.8 21.2V24.4C40.8 24.6252 40.6252 24.8 40.4 24.8H37.2C36.9748 24.8 36.8 24.6252 36.8 24.4V21.2C36.8 20.9748 36.9748 20.8 37.2 20.8ZM44.4 20.8H47.6C47.8252 20.8 48 20.9748 48 21.2V24.4C48 24.6252 47.8252 24.8 47.6 24.8H44.4C44.1748 24.8 44 24.6252 44 24.4V21.2C44 20.9748 44.1748 20.8 44.4 20.8ZM50.7938 21.5938C50.7412 21.5946 50.6894 21.6057 50.6411 21.6266C50.5929 21.6475 50.5493 21.6776 50.5127 21.7153C50.4762 21.7531 50.4474 21.7976 50.4281 21.8465C50.4087 21.8953 50.3992 21.9475 50.4 22V22.8C50.3993 22.853 50.409 22.9056 50.4288 22.9548C50.4486 23.004 50.4779 23.0488 50.5151 23.0865C50.5524 23.1243 50.5967 23.1543 50.6456 23.1747C50.6945 23.1952 50.747 23.2057 50.8 23.2057C50.853 23.2057 50.9055 23.1952 50.9544 23.1747C51.0033 23.1543 51.0476 23.1243 51.0849 23.0865C51.1221 23.0488 51.1514 23.004 51.1712 22.9548C51.191 22.9056 51.2008 22.853 51.2 22.8V22C51.2008 21.9464 51.1909 21.8932 51.1708 21.8436C51.1507 21.7939 51.1208 21.7488 51.0829 21.7109C51.045 21.673 50.9999 21.6431 50.9502 21.623C50.9005 21.6029 50.8473 21.5929 50.7938 21.5938ZM67.6062 26.3922C67.4473 26.3901 67.2914 26.4353 67.1582 26.5222C67.0251 26.6091 66.9209 26.7336 66.8589 26.88C66.7969 27.0263 66.7798 27.1878 66.81 27.3439C66.8401 27.5 66.9161 27.6435 67.0281 27.7563C73.6508 34.5842 73.6508 45.4159 67.0281 52.2438C66.9502 52.3181 66.8881 52.4075 66.8455 52.5064C66.803 52.6053 66.7808 52.7119 66.7804 52.8196C66.78 52.9273 66.8013 53.034 66.8432 53.1332C66.885 53.2325 66.9464 53.3223 67.0238 53.3972C67.1012 53.4722 67.1929 53.5307 67.2934 53.5694C67.394 53.608 67.5013 53.626 67.6089 53.6222C67.7165 53.6183 67.8223 53.5928 67.9199 53.5471C68.0174 53.5014 68.1047 53.4365 68.1766 53.3563C75.3891 45.9202 75.3891 34.0799 68.1766 26.6438C68.1032 26.5658 68.0149 26.5034 67.9169 26.4601C67.8189 26.4169 67.7133 26.3938 67.6062 26.3922ZM50.7938 26.3938C50.7412 26.3946 50.6894 26.4057 50.6411 26.4266C50.5929 26.4475 50.5493 26.4776 50.5127 26.5153C50.4762 26.5531 50.4474 26.5976 50.4281 26.6465C50.4087 26.6953 50.3992 26.7475 50.4 26.8V58.4H27.2V52.4C27.2008 52.347 27.191 52.2944 27.1712 52.2452C27.1514 52.196 27.1221 52.1512 27.0849 52.1135C27.0476 52.0757 27.0033 52.0458 26.9544 52.0253C26.9055 52.0048 26.853 51.9943 26.8 51.9943C26.747 51.9943 26.6945 52.0048 26.6456 52.0253C26.5967 52.0458 26.5524 52.0757 26.5151 52.1135C26.4779 52.1512 26.4486 52.196 26.4288 52.2452C26.409 52.2944 26.3993 52.347 26.4 52.4V58.8C26.4 58.9061 26.4422 59.0078 26.5172 59.0828C26.5922 59.1578 26.6939 59.2 26.8 59.2H50.8C50.9061 59.2 51.0078 59.1578 51.0828 59.0828C51.1578 59.0078 51.2 58.9061 51.2 58.8V26.8C51.2008 26.7464 51.1909 26.6932 51.1708 26.6436C51.1507 26.5939 51.1208 26.5488 51.0829 26.5109C51.045 26.473 50.9999 26.4431 50.9502 26.423C50.9005 26.4029 50.8473 26.3929 50.7938 26.3938ZM30 27.2C29.342 27.2 28.8 27.742 28.8 28.4V31.6C28.8 32.258 29.342 32.8 30 32.8H33.2C33.858 32.8 34.4 32.258 34.4 31.6V28.4C34.4 27.742 33.858 27.2 33.2 27.2H30ZM37.2 27.2C36.542 27.2 36 27.742 36 28.4V31.6C36 32.258 36.542 32.8 37.2 32.8H40.4C41.058 32.8 41.6 32.258 41.6 31.6V28.4C41.6 27.742 41.058 27.2 40.4 27.2H37.2ZM44.4 27.2C43.742 27.2 43.2 27.742 43.2 28.4V31.6C43.2 32.258 43.742 32.8 44.4 32.8H47.6C48.258 32.8 48.8 32.258 48.8 31.6V28.4C48.8 27.742 48.258 27.2 47.6 27.2H44.4ZM30 28H33.2C33.4252 28 33.6 28.1748 33.6 28.4V31.6C33.6 31.8252 33.4252 32 33.2 32H30C29.7748 32 29.6 31.8252 29.6 31.6V28.4C29.6 28.1748 29.7748 28 30 28ZM37.2 28H40.4C40.6252 28 40.8 28.1748 40.8 28.4V31.6C40.8 31.8252 40.6252 32 40.4 32H37.2C36.9748 32 36.8 31.8252 36.8 31.6V28.4C36.8 28.1748 36.9748 28 37.2 28ZM44.4 28H47.6C47.8252 28 48 28.1748 48 28.4V31.6C48 31.8252 47.8252 32 47.6 32H44.4C44.1748 32 44 31.8252 44 31.6V28.4C44 28.1748 44.1748 28 44.4 28ZM63.6906 30.3922C63.5316 30.3881 63.375 30.4316 63.2408 30.5169C63.1066 30.6023 63.0009 30.7257 62.9372 30.8715C62.8735 31.0172 62.8546 31.1786 62.8831 31.3351C62.9115 31.4916 62.986 31.636 63.0969 31.75C67.491 36.3799 67.491 43.6201 63.0969 48.25C63.0206 48.3254 62.9602 48.4154 62.9194 48.5146C62.8786 48.6138 62.8582 48.7202 62.8593 48.8275C62.8605 48.9347 62.8832 49.0407 62.9261 49.139C62.969 49.2373 63.0312 49.326 63.1091 49.3998C63.1869 49.4736 63.2788 49.5309 63.3793 49.5685C63.4798 49.606 63.5868 49.623 63.694 49.6183C63.8012 49.6137 63.9063 49.5875 64.0032 49.5414C64.1 49.4953 64.1866 49.4302 64.2578 49.35C69.2269 44.1143 69.2269 35.8857 64.2578 30.65C64.1853 30.5713 64.0978 30.5079 64.0003 30.4636C63.9029 30.4193 63.7976 30.3951 63.6906 30.3922ZM59.7094 34.3922C59.5572 34.3994 59.4102 34.4498 59.2857 34.5377C59.1612 34.6255 59.0644 34.747 59.0067 34.888C58.9489 35.029 58.9326 35.1835 58.9596 35.3335C58.9867 35.4834 59.056 35.6225 59.1594 35.7344C61.3404 38.1647 61.3404 41.8354 59.1594 44.2656C59.0872 44.3435 59.0312 44.4349 58.9946 44.5346C58.9581 44.6343 58.9418 44.7403 58.9466 44.8463C58.9515 44.9524 58.9774 45.0564 59.0228 45.1524C59.0683 45.2484 59.1324 45.3343 59.2114 45.4052C59.2904 45.4762 59.3828 45.5306 59.4831 45.5655C59.5834 45.6004 59.6896 45.615 59.7956 45.6084C59.9015 45.6018 60.0051 45.5742 60.1003 45.5271C60.1955 45.4801 60.2804 45.4146 60.35 45.3344C63.0682 42.3055 63.0682 37.6945 60.35 34.6656C60.2707 34.5747 60.1719 34.5029 60.061 34.4555C59.9501 34.4082 59.8299 34.3865 59.7094 34.3922ZM26.7938 48.7938C26.7412 48.7946 26.6894 48.8057 26.6412 48.8266C26.5929 48.8475 26.5493 48.8776 26.5127 48.9153C26.4762 48.9531 26.4474 48.9976 26.4281 49.0465C26.4087 49.0953 26.3992 49.1475 26.4 49.2V50.8C26.3993 50.853 26.409 50.9056 26.4288 50.9548C26.4486 51.004 26.4779 51.0488 26.5151 51.0865C26.5524 51.1243 26.5967 51.1542 26.6456 51.1747C26.6945 51.1952 26.747 51.2057 26.8 51.2057C26.853 51.2057 26.9055 51.1952 26.9544 51.1747C27.0033 51.1542 27.0476 51.1243 27.0849 51.0865C27.1221 51.0488 27.1514 51.004 27.1712 50.9548C27.191 50.9056 27.2008 50.853 27.2 50.8V49.2C27.2008 49.1464 27.1909 49.0932 27.1708 49.0436C27.1507 48.9939 27.1208 48.9488 27.0829 48.9109C27.045 48.873 26.9999 48.8431 26.9502 48.823C26.9005 48.8029 26.8473 48.7929 26.7938 48.7938ZM38.8 60.8C37.9 60.8 37.1749 61.1519 36.7016 61.6844C36.2283 62.2169 36 62.9111 36 63.6C36 64.2889 36.2283 64.9832 36.7016 65.5156C37.1749 66.0481 37.9 66.4 38.8 66.4C39.7 66.4 40.4251 66.0481 40.8984 65.5156C41.3717 64.9832 41.6 64.2889 41.6 63.6C41.6 62.9111 41.3717 62.2169 40.8984 61.6844C40.4251 61.1519 39.7 60.8 38.8 60.8ZM38.8 61.6C39.5 61.6 39.9749 61.8481 40.3016 62.2156C40.6283 62.5832 40.8 63.0889 40.8 63.6C40.8 64.1111 40.6283 64.6169 40.3016 64.9844C39.9749 65.3519 39.5 65.6 38.8 65.6C38.1 65.6 37.6251 65.3519 37.2984 64.9844C36.9717 64.6169 36.8 64.1111 36.8 63.6C36.8 63.0889 36.9717 62.5832 37.2984 62.2156C37.6251 61.8481 38.1 61.6 38.8 61.6Z" fill="#2A2C2B"/>
</svg>
