<svg width="81" height="80" viewBox="0 0 81 80" fill="none" xmlns="http://www.w3.org/2000/svg">
<path d="M44.0506 14.35C43.2066 14.35 42.52 15.0094 42.4616 15.839L37.371 23.1515C37.1406 23.1555 36.924 23.2103 36.7272 23.3015L26.4335 16.589C26.3519 15.7826 25.6771 15.15 24.8491 15.15C23.9667 15.15 23.2491 15.8676 23.2491 16.75C23.2491 16.9156 23.2824 17.0715 23.3288 17.2219L10.3366 33.0203C10.0558 33.3611 10.1052 33.8653 10.446 34.1453C10.5956 34.2677 10.7761 34.3281 10.9553 34.3281C11.1865 34.3281 11.4157 34.2287 11.5741 34.0359L24.5069 18.3109C24.6181 18.3357 24.733 18.35 24.8522 18.35C25.1914 18.35 25.5039 18.2417 25.7631 18.0609L35.8131 24.6156C35.8091 24.6604 35.7991 24.7036 35.7991 24.75C35.7991 25.6324 36.5167 26.35 37.3991 26.35C38.2815 26.35 38.9991 25.6324 38.9991 24.75C38.9991 24.454 38.9133 24.1798 38.7725 23.9422L43.3413 17.3765C43.5557 17.4837 43.7962 17.55 44.0522 17.55C44.377 17.55 44.6775 17.4516 44.9303 17.2844L50.471 21.364C50.4622 21.4248 50.4506 21.486 50.4506 21.55C50.4506 22.4324 51.1682 23.15 52.0506 23.15C52.933 23.15 53.6506 22.4324 53.6506 21.55C53.6506 21.546 53.6491 21.543 53.6491 21.539L59.3491 17.9297L58.2741 20.2578C58.0885 20.6586 58.2639 21.1355 58.6647 21.3203C58.7735 21.3699 58.8863 21.3937 58.9991 21.3937C59.3015 21.3937 59.5912 21.2209 59.7256 20.9281L61.7085 16.6328C61.7845 16.4696 61.7874 16.296 61.7522 16.1328C61.7834 16.0016 61.7914 15.8625 61.7522 15.7265C61.653 15.3841 61.3387 15.15 60.9835 15.15H56.0506C55.609 15.15 55.2506 15.5076 55.2506 15.95C55.2506 16.3924 55.609 16.75 56.0506 16.75H58.2241L52.8335 20.1625C52.6015 20.0305 52.3362 19.95 52.0506 19.95C51.8282 19.95 51.6169 19.9957 51.4241 20.0781L45.6381 15.8187C45.5701 14.9987 44.889 14.35 44.0506 14.35ZM44.0506 15.15C44.4914 15.15 44.8506 15.5084 44.8506 15.95C44.8506 16.3916 44.4914 16.75 44.0506 16.75C43.6098 16.75 43.2506 16.3916 43.2506 15.95C43.2506 15.5084 43.6098 15.15 44.0506 15.15ZM24.8506 15.95C25.2914 15.95 25.6506 16.3084 25.6506 16.75C25.6506 17.1916 25.2914 17.55 24.8506 17.55C24.4098 17.55 24.0506 17.1916 24.0506 16.75C24.0506 16.3084 24.4098 15.95 24.8506 15.95ZM52.0506 20.75C52.4914 20.75 52.8506 21.1084 52.8506 21.55C52.8506 21.9916 52.4914 22.35 52.0506 22.35C51.6098 22.35 51.2506 21.9916 51.2506 21.55C51.2506 21.1084 51.6098 20.75 52.0506 20.75ZM37.3991 23.95C37.8399 23.95 38.1991 24.3084 38.1991 24.75C38.1991 25.1916 37.8407 25.55 37.3991 25.55C36.9583 25.55 36.5991 25.1916 36.5991 24.75C36.5991 24.3084 36.9583 23.95 37.3991 23.95ZM23.8288 24.4281C21.8441 24.3412 19.9993 25.6556 19.496 27.6562L17.9803 33.6812C17.8723 34.11 18.1328 34.5435 18.5616 34.6515C18.9856 34.7563 19.4247 34.5007 19.5319 34.0719L21.046 28.0469C21.406 26.6157 22.8616 25.7447 24.2944 26.1047L69.4616 37.4609C70.1504 37.6345 70.7326 38.0692 71.1006 38.6844C71.4686 39.3004 71.575 40.019 71.4022 40.7078L65.9194 62.5156C65.5594 63.9468 64.1045 64.8194 62.6725 64.4594L36.9631 57.9953C36.5367 57.8857 36.1 58.1477 35.9928 58.5765C35.8848 59.0053 36.1437 59.4389 36.5725 59.5469L62.2819 66.0125C62.6307 66.0997 62.9801 66.1422 63.3241 66.1422C65.2377 66.1422 66.9838 64.8454 67.471 62.9078L72.9553 41.0984C73.2329 39.9944 73.0605 38.8464 72.4725 37.864C71.8853 36.8816 70.9538 36.1877 69.8506 35.9109L24.685 24.5531C24.3993 24.4814 24.1123 24.4405 23.8288 24.4281ZM26.571 29.9578C26.4166 29.982 26.2846 30.0945 26.2444 30.2547C25.8492 31.8219 24.3556 32.8054 22.9116 32.439C22.698 32.3862 22.4792 32.5161 22.4256 32.7297L21.5725 36.1219C19.5613 35.9603 17.6851 35.95 17.2491 35.95C16.2259 35.95 7.24908 36.006 7.24908 37.95V41.1859C7.24908 41.7035 7.88241 42.087 8.82721 42.3734C7.99201 42.6246 7.41291 42.954 7.28971 43.3828C7.26651 43.434 7.25065 43.49 7.25065 43.55V46.7859C7.25065 47.0915 7.47 47.3511 7.8444 47.5703C7.4708 47.7887 7.25065 48.0468 7.25065 48.35V51.5859C7.25065 52.1027 7.88168 52.4863 8.82408 52.7719C7.99128 53.0223 7.41843 53.3509 7.29283 53.7781C7.26803 53.8301 7.25065 53.8884 7.25065 53.95V57.1859C7.25065 59.1403 16.2274 59.1969 17.2506 59.1969C18.2234 59.1969 26.3811 59.145 27.1819 57.4594C27.3963 57.9266 27.6106 58.364 27.821 58.7656C28.9266 60.872 29.5816 61.3156 30.0272 61.3156C30.1104 61.3156 30.1881 61.2997 30.2585 61.2765L33.0553 60.3578C33.1001 60.3658 33.1443 60.3734 33.1835 60.3734C33.2691 60.3734 33.343 60.3567 33.4006 60.3375C34.4838 59.9607 33.9271 56.5971 33.2631 53.8187L60.235 60.6C60.2678 60.608 60.2991 60.6125 60.3319 60.6125C60.4039 60.6125 60.4749 60.5923 60.5381 60.5547C60.6293 60.5011 60.6954 60.4126 60.721 60.3094C60.9138 59.5438 61.3693 58.8948 62.0053 58.4828C62.6325 58.0756 63.3594 57.9466 64.0538 58.1234C64.1554 58.1474 64.2657 58.1325 64.3569 58.0781C64.4481 58.0245 64.5141 57.936 64.5397 57.8328L67.971 44.1828C67.9966 44.0796 67.9816 43.9709 67.9272 43.8797C67.8728 43.7893 67.7827 43.7225 67.6803 43.6953C66.2363 43.3329 65.3828 41.7617 65.7772 40.1937C65.8308 39.9785 65.701 39.763 65.4866 39.7094L62.0053 38.8344C61.7901 38.7824 61.5746 38.9098 61.521 39.1234C61.4674 39.3378 61.5956 39.5558 61.81 39.6094L64.9241 40.3922C64.6713 42.1122 65.5829 43.7659 67.1053 44.3515L63.8569 57.2719C63.0689 57.1711 62.2702 57.3573 61.571 57.8109C60.8734 58.2621 60.3472 58.9345 60.0616 59.7297L33.046 52.9375C32.694 51.5663 32.3576 50.4621 32.26 50.1469C31.0264 46.1677 29.2377 41.8777 28.0225 41.2625C27.7729 41.1377 27.5685 41.1646 27.4413 41.2078C27.3997 41.2222 27.364 41.2455 27.3272 41.2687C27.2992 41.2607 27.2709 41.2523 27.2413 41.2515C27.2429 41.2299 27.2506 41.2091 27.2506 41.1859V37.95C27.2506 36.9436 24.8435 36.4433 22.3803 36.1953L23.11 33.289C24.7292 33.4946 26.3134 32.4696 26.9038 30.8344L55.3225 37.9797C55.5361 38.0293 55.7525 37.9026 55.8069 37.689C55.8605 37.4746 55.7307 37.2583 55.5163 37.2047L26.7303 29.964C26.6763 29.9508 26.6224 29.9497 26.571 29.9578ZM17.2506 36.75C22.9842 36.75 26.0104 37.5188 26.4256 37.95C26.0104 38.3812 22.9842 39.15 17.2506 39.15C11.517 39.15 8.49085 38.3812 8.07565 37.95C8.49085 37.5188 11.517 36.75 17.2506 36.75ZM56.6553 37.5219C56.5011 37.5462 56.369 37.6585 56.3288 37.8187C56.2752 38.0331 56.405 38.2511 56.6194 38.3047L57.2678 38.4687C57.3006 38.4767 57.3335 38.4797 57.3663 38.4797C57.5455 38.4797 57.7082 38.3597 57.7538 38.1781C57.8074 37.9637 57.6775 37.7458 57.4631 37.6922L56.8147 37.5281C56.7609 37.5151 56.7068 37.5138 56.6553 37.5219ZM33.3741 38.3531C32.0768 38.2982 30.8647 39.1559 30.535 40.4656C30.159 41.9624 31.0702 43.4864 32.5678 43.864C32.7958 43.9208 33.0235 43.9484 33.2491 43.9484C34.5019 43.9484 35.6471 43.0992 35.9663 41.8312C36.3423 40.3344 35.4311 38.812 33.9335 38.4344C33.747 38.3879 33.5594 38.361 33.3741 38.3531ZM26.4538 38.8359L26.46 41.1422C26.2256 41.5654 23.1938 42.3953 17.2506 42.3953C11.3074 42.3953 8.27625 41.5667 8.05065 41.1859V38.8375C10.2714 39.9111 16.4146 39.95 17.2506 39.95C18.0874 39.95 24.2354 39.9111 26.4538 38.8359ZM33.2522 39.1484C33.413 39.1484 33.5757 39.1678 33.7381 39.2094C34.8069 39.479 35.4585 40.5687 35.1897 41.6375C34.9209 42.7063 33.8343 43.3603 32.7631 43.0875C31.6943 42.8187 31.0428 41.7297 31.3116 40.6609C31.5396 39.7545 32.357 39.1484 33.2522 39.1484ZM42.5163 39.1562C41.4139 39.2092 40.3356 39.5331 39.3616 40.1156C37.8032 41.0476 36.7009 42.5314 36.2585 44.2922C35.3441 47.9282 37.5576 51.6301 41.1928 52.5437C41.7464 52.6829 42.3071 52.7515 42.8631 52.7515C44.0767 52.7515 45.2709 52.4236 46.3397 51.7844C47.8981 50.8524 49.0004 49.3686 49.4428 47.6078C50.3572 43.9718 48.1437 40.2698 44.5085 39.3562C43.8479 39.19 43.1777 39.1245 42.5163 39.1562ZM42.8397 39.9484C43.3301 39.9484 43.8251 40.008 44.3131 40.1312C45.8675 40.5224 47.1767 41.4959 47.9991 42.8703C48.8215 44.2455 49.0582 45.8581 48.6678 47.4125C48.2774 48.9669 47.3055 50.2753 45.9303 51.0969C44.5551 51.9193 42.9425 52.1592 41.3881 51.7656C39.8337 51.3752 38.5246 50.4033 37.7022 49.0281C36.8798 47.6529 36.6431 46.0403 37.0335 44.4859C37.4239 42.9315 38.3958 41.6231 39.771 40.8015C40.7142 40.2375 41.7685 39.9484 42.8397 39.9484ZM27.71 42.0015C28.3244 42.3559 29.9488 45.3963 31.496 50.3859C33.0616 55.4355 33.4439 58.9013 33.1319 59.5453C32.5167 59.1917 30.8932 56.1498 29.346 51.1594C27.7804 46.1098 27.3972 42.6463 27.71 42.0015ZM26.8803 42.1828C26.5131 44.5988 28.3307 50.5905 28.5803 51.3969C29.6339 54.7953 31.093 58.4132 32.2538 59.7812L30.0522 60.5109C29.577 60.4205 27.8433 57.8003 25.9913 52.1547C24.1393 46.5083 23.9829 43.3711 24.2741 43.0375L26.8803 42.1828ZM10.7522 42.7797C13.393 43.1765 16.657 43.1969 17.2506 43.1969C17.829 43.1969 20.9451 43.1789 23.5475 42.8109C23.4043 43.1893 23.3647 43.7326 23.3975 44.375C21.9023 44.5894 19.861 44.75 17.2506 44.75C11.517 44.75 8.49085 43.9812 8.07565 43.55C8.28605 43.3316 9.18661 43.0277 10.7522 42.7797ZM8.05065 44.4375C10.2714 45.5111 16.4146 45.55 17.2506 45.55C17.8226 45.55 20.8799 45.5302 23.4663 45.175C23.5535 45.9158 23.7066 46.7318 23.8866 47.5422C22.3626 47.7958 20.1658 47.9969 17.2506 47.9969C11.3074 47.9969 8.27625 47.1667 8.05065 46.7859V44.4375ZM55.3678 45.5531C54.8987 45.5296 54.4322 45.6434 54.0194 45.8906C53.469 46.2194 53.0801 46.7424 52.9241 47.364C52.6017 48.6472 53.3815 49.9541 54.6647 50.2781C54.8599 50.3269 55.0593 50.3515 55.2553 50.3515C55.6833 50.3515 56.1043 50.235 56.4819 50.0094C57.0323 49.6806 57.4212 49.1583 57.5772 48.5359C57.8996 47.2527 57.1182 45.9459 55.835 45.6219C55.68 45.5835 55.5242 45.5609 55.3678 45.5531ZM55.246 46.35C55.3772 46.35 55.5101 46.3656 55.6397 46.3984C56.4965 46.6128 57.0174 47.4846 56.8022 48.339C56.6982 48.7542 56.4382 49.1019 56.071 49.3219C55.7046 49.5419 55.2752 49.6063 54.86 49.5015C54.0048 49.2863 53.4839 48.4146 53.6991 47.5594C53.8031 47.1442 54.0616 46.7965 54.4288 46.5765C54.68 46.4261 54.9612 46.35 55.246 46.35ZM8.87408 47.9859C11.5093 48.7651 16.5026 48.7969 17.2506 48.7969C17.8682 48.7969 21.3782 48.7737 24.0678 48.3265C24.1262 48.5673 24.186 48.8055 24.246 49.0375C22.7156 49.3175 20.3978 49.55 17.2506 49.55C12.5898 49.55 9.71942 49.0419 8.58502 48.6203C8.45062 48.5051 8.34765 48.37 8.27565 48.214C8.41325 48.142 8.62128 48.0643 8.87408 47.9859ZM8.05065 49.2375C10.2714 50.3111 16.4146 50.35 17.2506 50.35C17.8986 50.35 21.7281 50.3252 24.4553 49.8156C24.7265 50.8012 24.9823 51.6274 25.1303 52.0906C23.6911 52.4498 21.0874 52.7969 17.2506 52.7969C11.3074 52.7969 8.27625 51.9667 8.05065 51.5859V49.2375ZM10.7522 53.1797C13.393 53.5765 16.657 53.5969 17.2506 53.5969C17.8434 53.5969 21.1021 53.5757 23.7413 53.1797C24.5501 53.3061 25.1855 53.4475 25.6335 53.5859C25.7103 53.8043 25.7879 54.0239 25.8663 54.2375C24.7031 54.6559 21.8522 55.15 17.2506 55.15C11.517 55.15 8.49085 54.3812 8.07565 53.95C8.28605 53.7316 9.18581 53.4269 10.7522 53.1797ZM8.05065 54.8375C10.2714 55.9111 16.4146 55.95 17.2506 55.95C18.0514 55.95 23.7125 55.9104 26.1397 54.964C26.2445 55.2368 26.3497 55.5063 26.4553 55.7687L26.46 57.1422C26.2256 57.5654 23.1938 58.3953 17.2506 58.3953C11.3074 58.3953 8.27625 57.5667 8.05065 57.1859V54.8375Z" fill="#2A2C2B"/>
</svg>
