<svg width="80" height="80" viewBox="0 0 80 80" fill="none" xmlns="http://www.w3.org/2000/svg">
<path d="M14.4 13.6C13.9576 13.6 13.6 13.9576 13.6 14.4V27.2C13.6 27.6424 13.9576 28 14.4 28H27.2C27.6424 28 28 27.6424 28 27.2V14.4C28 13.9576 27.6424 13.6 27.2 13.6H14.4ZM15.2 15.2H26.4V26.4H15.2V15.2ZM33.6 16C33.1576 16 32.8 16.3576 32.8 16.8V24.8C32.8 25.2424 33.1576 25.6 33.6 25.6H65.6C66.0424 25.6 66.4 25.2424 66.4 24.8V16.8C66.4 16.3576 66.0424 16 65.6 16H33.6ZM18 17.6C17.7792 17.6 17.6 17.7792 17.6 18V23.6C17.6 23.8208 17.7792 24 18 24H23.6C23.8208 24 24 23.8208 24 23.6V22.8C24 22.5792 23.8208 22.4 23.6 22.4C23.3792 22.4 23.2 22.5792 23.2 22.8V23.2H18.4V18.4H23.2V20.4C23.2 20.6208 23.3792 20.8 23.6 20.8C23.8208 20.8 24 20.6208 24 20.4V18C24 17.7792 23.8208 17.6 23.6 17.6H18ZM34.4 17.6H64.8V21.6H46C45.7792 21.6 45.6 21.7792 45.6 22C45.6 22.2208 45.7792 22.4 46 22.4H64.8V24H34.4V17.6ZM39.6 21.6C39.3792 21.6 39.2 21.7792 39.2 22C39.2 22.2208 39.3792 22.4 39.6 22.4H40.4C40.6208 22.4 40.8 22.2208 40.8 22C40.8 21.7792 40.6208 21.6 40.4 21.6H39.6ZM42 21.6C41.7792 21.6 41.6 21.7792 41.6 22C41.6 22.2208 41.7792 22.4 42 22.4H43.6C43.8208 22.4 44 22.2208 44 22C44 21.7792 43.8208 21.6 43.6 21.6H42ZM14.4 32.8C13.9576 32.8 13.6 33.1576 13.6 33.6V46.4C13.6 46.8424 13.9576 47.2 14.4 47.2H27.2C27.6424 47.2 28 46.8424 28 46.4V33.6C28 33.1576 27.6424 32.8 27.2 32.8H14.4ZM15.2 34.4H26.4V45.6H15.2V34.4ZM33.6 35.2C33.1576 35.2 32.8 35.5576 32.8 36V44C32.8 44.4424 33.1576 44.8 33.6 44.8H65.6C66.0424 44.8 66.4 44.4424 66.4 44V36C66.4 35.5576 66.0424 35.2 65.6 35.2H33.6ZM34.4 36.8H64.8V43.2H34.4V36.8ZM14.4 52C13.9576 52 13.6 52.3576 13.6 52.8V65.6C13.6 66.0424 13.9576 66.4 14.4 66.4H27.2C27.6424 66.4 28 66.0424 28 65.6V52.8C28 52.3576 27.6424 52 27.2 52H14.4ZM15.2 53.6H26.4V64.8H15.2V53.6ZM33.6 54.4C33.1576 54.4 32.8 54.7576 32.8 55.2V63.2C32.8 63.6424 33.1576 64 33.6 64H65.6C66.0424 64 66.4 63.6424 66.4 63.2V55.2C66.4 54.7576 66.0424 54.4 65.6 54.4H33.6ZM18 56C17.7792 56 17.6 56.1792 17.6 56.4V62C17.6 62.2208 17.7792 62.4 18 62.4H23.6C23.8208 62.4 24 62.2208 24 62V58.8C24 58.5792 23.8208 58.4 23.6 58.4C23.3792 58.4 23.2 58.5792 23.2 58.8V61.6H18.4V56.8H19.6C19.8208 56.8 20 56.6208 20 56.4C20 56.1792 19.8208 56 19.6 56H18ZM22 56C21.7792 56 21.6 56.1792 21.6 56.4C21.6 56.6208 21.7792 56.8 22 56.8H23.2V57.2C23.2 57.4208 23.3792 57.6 23.6 57.6C23.8208 57.6 24 57.4208 24 57.2V56.4C24 56.1792 23.8208 56 23.6 56H22ZM34.4 56H64.8V57.6H52.4C52.1792 57.6 52 57.7792 52 58C52 58.2208 52.1792 58.4 52.4 58.4H64.8V62.4H34.4V56ZM46 57.6C45.7792 57.6 45.6 57.7792 45.6 58C45.6 58.2208 45.7792 58.4 46 58.4H46.8C47.0208 58.4 47.2 58.2208 47.2 58C47.2 57.7792 47.0208 57.6 46.8 57.6H46ZM48.4 57.6C48.1792 57.6 48 57.7792 48 58C48 58.2208 48.1792 58.4 48.4 58.4H50C50.2208 58.4 50.4 58.2208 50.4 58C50.4 57.7792 50.2208 57.6 50 57.6H48.4Z" fill="#2A2C2B"/>
</svg>
