<svg width="80" height="80" viewBox="0 0 80 80" fill="none" xmlns="http://www.w3.org/2000/svg">
<g clip-path="url(#clip0)">
<path d="M26.8 7.19995C25.2583 7.19995 24 8.45822 24 9.99995V19.2C24 21.4042 25.7958 23.2 28 23.2C30.2042 23.2 32 21.4042 32 19.2V11.6C32.0007 11.5469 31.991 11.4943 31.9712 11.4451C31.9514 11.3959 31.9221 11.3512 31.8849 11.3134C31.8476 11.2757 31.8033 11.2457 31.7544 11.2252C31.7055 11.2048 31.653 11.1943 31.6 11.1943C31.547 11.1943 31.4945 11.2048 31.4456 11.2252C31.3967 11.2457 31.3524 11.2757 31.3151 11.3134C31.2779 11.3512 31.2486 11.3959 31.2288 11.4451C31.209 11.4943 31.1992 11.5469 31.2 11.6V19.2C31.2 20.9717 29.7718 22.4 28 22.4C26.2282 22.4 24.8 20.9717 24.8 19.2V9.99995C24.8 8.89048 25.6905 7.99995 26.8 7.99995C27.9095 7.99995 28.8 8.89048 28.8 9.99995V19.2C28.8 19.6459 28.446 20 28 20C27.554 20 27.2 19.6459 27.2 19.2V11.6C27.2007 11.5469 27.191 11.4943 27.1712 11.4451C27.1514 11.3959 27.1221 11.3512 27.0849 11.3134C27.0476 11.2757 27.0033 11.2457 26.9544 11.2252C26.9055 11.2048 26.853 11.1943 26.8 11.1943C26.747 11.1943 26.6945 11.2048 26.6456 11.2252C26.5967 11.2457 26.5524 11.2757 26.5151 11.3134C26.4779 11.3512 26.4486 11.3959 26.4288 11.4451C26.409 11.4943 26.3992 11.5469 26.4 11.6V19.2C26.4 20.0788 27.1212 20.8 28 20.8C28.8788 20.8 29.6 20.0788 29.6 19.2V9.99995C29.6 8.45822 28.3417 7.19995 26.8 7.19995ZM22.4 7.99995C18.4296 7.99995 15.2 11.2304 15.2 15.2V65.6C15.2 69.5696 18.4296 72.8 22.4 72.8H48.7516C50.3664 77.0036 54.4344 80 59.2 80C63.9878 80 68.0711 76.9752 69.6703 72.7406C75.4397 72.2936 80 67.4817 80 61.6C80 55.4236 74.9763 50.4 68.8 50.4C67.3882 50.4 66.0423 50.6707 64.8 51.15V24.4C64.8 24.2939 64.7578 24.1921 64.6828 24.1171L48.6828 8.11714C48.6078 8.04212 48.5061 7.99997 48.4 7.99995H48.3937H31.2C30.7576 7.99995 30.4 8.35835 30.4 8.79995C30.4 9.24155 30.7576 9.59995 31.2 9.59995H48V17.6C48 21.5714 51.2286 24.8 55.2 24.8H63.2V51.9203C61.9623 52.6431 60.877 53.5952 60 54.7218V48.4C60.0008 48.3464 59.9909 48.2932 59.9708 48.2435C59.9507 48.1938 59.9208 48.1487 59.8829 48.1108C59.845 48.0729 59.7999 48.043 59.7502 48.0229C59.7005 48.0028 59.6473 47.9929 59.5937 47.9937C59.5412 47.9945 59.4894 48.0057 59.4411 48.0265C59.3929 48.0474 59.3493 48.0776 59.3127 48.1153C59.2762 48.153 59.2474 48.1976 59.228 48.2464C59.2087 48.2952 59.1992 48.3474 59.2 48.4V55.8859C58.8699 56.4416 58.5912 57.0301 58.3594 57.6421C55.6508 57.8447 53.2087 59.0079 51.3766 60.8H45.2C45.147 60.7992 45.0944 60.809 45.0452 60.8288C44.996 60.8485 44.9512 60.8779 44.9135 60.9151C44.8757 60.9523 44.8458 60.9967 44.8253 61.0456C44.8048 61.0945 44.7943 61.1469 44.7943 61.2C44.7943 61.253 44.8048 61.3054 44.8253 61.3543C44.8458 61.4032 44.8757 61.4476 44.9135 61.4848C44.9512 61.522 44.996 61.5514 45.0452 61.5711C45.0944 61.5909 45.147 61.6007 45.2 61.6H50.6328C49.3185 63.1613 48.4324 65.0869 48.1281 67.2H26C23.1234 67.2 20.8 64.8766 20.8 62V18.8C20.8 17.0308 21.6829 15.4761 23.0297 14.5359C23.1025 14.4869 23.1571 14.4154 23.1853 14.3323C23.2134 14.2492 23.2134 14.1591 23.1854 14.076C23.1573 13.9929 23.1027 13.9213 23.03 13.8723C22.9572 13.8232 22.8704 13.7995 22.7828 13.8046C22.7063 13.8088 22.6325 13.8348 22.5703 13.8796C21.0179 14.9634 20 16.7643 20 18.8V62C20 65.3089 22.691 68 26 68H48.0406C48.0217 68.2652 48 68.53 48 68.8C48 69.6243 48.0958 70.4259 48.2656 71.2H22.4C19.3128 71.2 16.8 68.688 16.8 65.6V15.2C16.8 12.112 19.3128 9.59995 22.4 9.59995C22.8424 9.59995 23.2 9.24155 23.2 8.79995C23.2 8.35835 22.8424 7.99995 22.4 7.99995ZM48.8 9.36558L63.4344 24H55.2C51.661 24 48.8 21.1389 48.8 17.6V9.36558ZM28.4 32.8C28.347 32.7992 28.2944 32.809 28.2452 32.8288C28.196 32.8485 28.1512 32.8779 28.1135 32.9151C28.0757 32.9523 28.0458 32.9967 28.0253 33.0456C28.0048 33.0945 27.9943 33.1469 27.9943 33.2C27.9943 33.253 28.0048 33.3054 28.0253 33.3543C28.0458 33.4032 28.0757 33.4476 28.1135 33.4848C28.1512 33.522 28.196 33.5514 28.2452 33.5711C28.2944 33.5909 28.347 33.6007 28.4 33.6H42.8C42.853 33.6007 42.9056 33.5909 42.9548 33.5711C43.004 33.5514 43.0488 33.522 43.0865 33.4848C43.1243 33.4476 43.1542 33.4032 43.1747 33.3543C43.1952 33.3054 43.2057 33.253 43.2057 33.2C43.2057 33.1469 43.1952 33.0945 43.1747 33.0456C43.1542 32.9967 43.1243 32.9523 43.0865 32.9151C43.0488 32.8779 43.004 32.8485 42.9548 32.8288C42.9056 32.809 42.853 32.7992 42.8 32.8H28.4ZM46 32.8C45.947 32.7992 45.8944 32.809 45.8452 32.8288C45.796 32.8485 45.7512 32.8779 45.7135 32.9151C45.6757 32.9523 45.6458 32.9967 45.6253 33.0456C45.6048 33.0945 45.5943 33.1469 45.5943 33.2C45.5943 33.253 45.6048 33.3054 45.6253 33.3543C45.6458 33.4032 45.6757 33.4476 45.7135 33.4848C45.7512 33.522 45.796 33.5514 45.8452 33.5711C45.8944 33.5909 45.947 33.6007 46 33.6H51.6C51.653 33.6007 51.7056 33.5909 51.7548 33.5711C51.804 33.5514 51.8488 33.522 51.8865 33.4848C51.9243 33.4476 51.9542 33.4032 51.9747 33.3543C51.9952 33.3054 52.0057 33.253 52.0057 33.2C52.0057 33.1469 51.9952 33.0945 51.9747 33.0456C51.9542 32.9967 51.9243 32.9523 51.8865 32.9151C51.8488 32.8779 51.804 32.8485 51.7548 32.8288C51.7056 32.809 51.653 32.7992 51.6 32.8H46ZM28.3937 36.7937C28.3738 36.7943 28.354 36.7964 28.3344 36.8H26C24.9 36.8 24 37.7 24 38.8V43.5359C23.9929 43.5788 23.9929 43.6226 24 43.6656V50.7359C23.9929 50.7788 23.9929 50.8226 24 50.8656V55.6C24 56.6999 24.9 57.6 26 57.6H28.3359C28.3789 57.607 28.4227 57.607 28.4656 57.6H54C55.1 57.6 56 56.6999 56 55.6V50.864C56.0071 50.8211 56.0071 50.7773 56 50.7343V43.664C56.0071 43.6211 56.0071 43.5773 56 43.5343V38.8C56 37.7 55.1 36.8 54 36.8H28.4734C28.4471 36.7952 28.4205 36.7931 28.3937 36.7937V36.7937ZM59.5937 36.7937C59.5412 36.7945 59.4894 36.8057 59.4411 36.8265C59.3929 36.8474 59.3493 36.8776 59.3127 36.9153C59.2762 36.953 59.2474 36.9976 59.228 37.0464C59.2087 37.0952 59.1992 37.1474 59.2 37.2V39.6C59.1992 39.653 59.209 39.7056 59.2288 39.7548C59.2486 39.804 59.2779 39.8487 59.3151 39.8865C59.3524 39.9242 59.3967 39.9542 59.4456 39.9747C59.4945 39.9951 59.547 40.0056 59.6 40.0056C59.653 40.0056 59.7055 39.9951 59.7544 39.9747C59.8033 39.9542 59.8476 39.9242 59.8849 39.8865C59.9221 39.8487 59.9514 39.804 59.9712 39.7548C59.991 39.7056 60.0007 39.653 60 39.6V37.2C60.0008 37.1464 59.9909 37.0932 59.9708 37.0435C59.9507 36.9938 59.9208 36.9487 59.8829 36.9108C59.845 36.8729 59.7999 36.843 59.7502 36.8229C59.7005 36.8028 59.6473 36.7929 59.5937 36.7937V36.7937ZM26 37.6H28V43.2H24.8V38.8C24.8 38.1319 25.332 37.6 26 37.6ZM28.8 37.6H47.2V43.2H28.8V37.6ZM48 37.6H54C54.668 37.6 55.2 38.1319 55.2 38.8V43.2H48V37.6ZM59.5937 40.7937C59.5412 40.7945 59.4894 40.8057 59.4411 40.8265C59.3929 40.8474 59.3493 40.8776 59.3127 40.9153C59.2762 40.953 59.2474 40.9976 59.228 41.0464C59.2087 41.0952 59.1992 41.1474 59.2 41.2V46.8C59.1992 46.853 59.209 46.9056 59.2288 46.9548C59.2486 47.004 59.2779 47.0487 59.3151 47.0865C59.3524 47.1242 59.3967 47.1542 59.4456 47.1747C59.4945 47.1951 59.547 47.2056 59.6 47.2056C59.653 47.2056 59.7055 47.1951 59.7544 47.1747C59.8033 47.1542 59.8476 47.1242 59.8849 47.0865C59.9221 47.0487 59.9514 47.004 59.9712 46.9548C59.991 46.9056 60.0007 46.853 60 46.8V41.2C60.0008 41.1464 59.9909 41.0932 59.9708 41.0435C59.9507 40.9938 59.9208 40.9487 59.8829 40.9108C59.845 40.8729 59.7999 40.843 59.7502 40.8229C59.7005 40.8028 59.6473 40.7929 59.5937 40.7937ZM24.8 44H28V50.4H24.8V44ZM28.8 44H47.2V50.4H28.8V44ZM48 44H55.2V50.4H48V44ZM24.8 51.2H28V56.8H26C25.332 56.8 24.8 56.268 24.8 55.6V51.2ZM28.8 51.2H47.2V56.8H28.8V51.2ZM48 51.2H55.2V55.6C55.2 56.268 54.668 56.8 54 56.8H48V51.2ZM68.8 52C74.1117 52 78.4 56.2883 78.4 61.6C78.4 66.4465 74.8245 70.425 70.1641 71.0859C70.3178 70.3476 70.4 69.5832 70.4 68.8C70.4 68.7383 70.3916 68.6786 70.3906 68.6171C73.6001 67.8925 76 65.0247 76 61.6C76 57.6285 72.7714 54.4 68.8 54.4C66.0992 54.4 63.7611 55.9013 62.5328 58.1062C61.7514 57.8622 60.9314 57.7119 60.0875 57.6453C61.5925 54.3214 64.9077 52 68.8 52ZM68.8 55.2C72.339 55.2 75.2 58.061 75.2 61.6C75.2 64.6028 73.1347 67.1076 70.35 67.8C69.9675 63.5024 67.1492 59.9033 63.2875 58.3828C64.3939 56.4827 66.4387 55.2 68.8 55.2ZM59.2 59.2C64.5114 59.2 68.8 63.4885 68.8 68.8C68.8 74.1114 64.5114 78.4 59.2 78.4C53.8886 78.4 49.6 74.1114 49.6 68.8C49.6 63.4885 53.8886 59.2 59.2 59.2ZM59.2 61.6C55.2283 61.6 52 64.8282 52 68.8C52 72.7717 55.2283 76 59.2 76C63.1717 76 66.4 72.7717 66.4 68.8C66.4 64.8282 63.1717 61.6 59.2 61.6ZM59.2 62.4C62.7394 62.4 65.6 65.2606 65.6 68.8C65.6 72.3393 62.7394 75.2 59.2 75.2C55.6606 75.2 52.8 72.3393 52.8 68.8C52.8 65.2606 55.6606 62.4 59.2 62.4Z" fill="#2A2C2B"/>
</g>
<defs>
<clipPath id="clip0">
<rect width="80" height="80" fill="white"/>
</clipPath>
</defs>
</svg>
