<svg width="80" height="80" viewBox="0 0 80 80" fill="none" xmlns="http://www.w3.org/2000/svg">
<path d="M13.6 16C12.284 16 11.2 17.084 11.2 18.4V61.6C11.2 62.916 12.284 64 13.6 64H18.4C18.6122 64 18.8156 63.9157 18.9657 63.7657C19.1157 63.6156 19.2 63.4122 19.2 63.2V60C19.2 59.548 19.548 59.2 20 59.2H23.2C23.652 59.2 24 59.548 24 60V63.2C24 63.4122 24.0843 63.6156 24.2343 63.7657C24.3844 63.9157 24.5878 64 24.8 64H55.2C55.4122 64 55.6156 63.9157 55.7657 63.7657C55.9157 63.6156 56 63.4122 56 63.2V60C56 59.548 56.348 59.2 56.8 59.2H60C60.452 59.2 60.8 59.548 60.8 60V63.2C60.8 63.4122 60.8843 63.6156 61.0343 63.7657C61.1844 63.9157 61.3878 64 61.6 64H66.4C67.716 64 68.8 62.916 68.8 61.6V21.6C68.8 20.284 67.716 19.2 66.4 19.2H40.8V18.4C40.8 17.084 39.716 16 38.4 16H13.6ZM13.6 17.6H38.4C38.852 17.6 39.2 17.948 39.2 18.4V20C39.2 20.2122 39.2843 20.4156 39.4343 20.5657C39.5844 20.7157 39.7878 20.8 40 20.8H66.4C66.852 20.8 67.2 21.148 67.2 21.6V61.6C67.2 62.052 66.852 62.4 66.4 62.4H62.4V60C62.4 58.684 61.316 57.6 60 57.6H56.8C55.484 57.6 54.4 58.684 54.4 60V62.4H25.6V60C25.6 58.684 24.516 57.6 23.2 57.6H20C18.684 57.6 17.6 58.684 17.6 60V62.4H13.6C13.148 62.4 12.8 62.052 12.8 61.6V18.4C12.8 17.948 13.148 17.6 13.6 17.6ZM15.6 23.2C15.547 23.1993 15.4944 23.209 15.4452 23.2288C15.396 23.2486 15.3512 23.2779 15.3135 23.3151C15.2757 23.3524 15.2458 23.3967 15.2253 23.4456C15.2048 23.4945 15.1943 23.547 15.1943 23.6C15.1943 23.653 15.2048 23.7055 15.2253 23.7544C15.2458 23.8033 15.2757 23.8476 15.3135 23.8849C15.3512 23.9221 15.396 23.9514 15.4452 23.9712C15.4944 23.991 15.547 24.0007 15.6 24H54.8C54.853 24.0007 54.9056 23.991 54.9548 23.9712C55.004 23.9514 55.0488 23.9221 55.0865 23.8849C55.1243 23.8476 55.1542 23.8033 55.1747 23.7544C55.1952 23.7055 55.2057 23.653 55.2057 23.6C55.2057 23.547 55.1952 23.4945 55.1747 23.4456C55.1542 23.3967 55.1243 23.3524 55.0865 23.3151C55.0488 23.2779 55.004 23.2486 54.9548 23.2288C54.9056 23.209 54.853 23.1993 54.8 23.2H15.6ZM57.2 23.2C57.147 23.1993 57.0944 23.209 57.0452 23.2288C56.996 23.2486 56.9512 23.2779 56.9135 23.3151C56.8757 23.3524 56.8458 23.3967 56.8253 23.4456C56.8048 23.4945 56.7943 23.547 56.7943 23.6C56.7943 23.653 56.8048 23.7055 56.8253 23.7544C56.8458 23.8033 56.8757 23.8476 56.9135 23.8849C56.9512 23.9221 56.996 23.9514 57.0452 23.9712C57.0944 23.991 57.147 24.0007 57.2 24H60.4C60.453 24.0007 60.5056 23.991 60.5548 23.9712C60.604 23.9514 60.6488 23.9221 60.6865 23.8849C60.7243 23.8476 60.7542 23.8033 60.7747 23.7544C60.7952 23.7055 60.8057 23.653 60.8057 23.6C60.8057 23.547 60.7952 23.4945 60.7747 23.4456C60.7542 23.3967 60.7243 23.3524 60.6865 23.3151C60.6488 23.2779 60.604 23.2486 60.5548 23.2288C60.5056 23.209 60.453 23.1993 60.4 23.2H57.2ZM62.8 23.2C62.747 23.1993 62.6944 23.209 62.6452 23.2288C62.596 23.2486 62.5512 23.2779 62.5135 23.3151C62.4757 23.3524 62.4458 23.3967 62.4253 23.4456C62.4048 23.4945 62.3943 23.547 62.3943 23.6C62.3943 23.653 62.4048 23.7055 62.4253 23.7544C62.4458 23.8033 62.4757 23.8476 62.5135 23.8849C62.5512 23.9221 62.596 23.9514 62.6452 23.9712C62.6944 23.991 62.747 24.0007 62.8 24H64.4C64.453 24.0007 64.5056 23.991 64.5548 23.9712C64.604 23.9514 64.6488 23.9221 64.6865 23.8849C64.7243 23.8476 64.7542 23.8033 64.7747 23.7544C64.7952 23.7055 64.8057 23.653 64.8057 23.6C64.8057 23.547 64.7952 23.4945 64.7747 23.4456C64.7542 23.3967 64.7243 23.3524 64.6865 23.3151C64.6488 23.2779 64.604 23.2486 64.5548 23.2288C64.5056 23.209 64.453 23.1993 64.4 23.2H62.8ZM26 31.2C23.1329 31.2 20.8 33.5329 20.8 36.4C20.8 38.1757 21.6971 39.7442 23.0594 40.6828C19.831 42.2269 17.6 46.1924 17.6 50.8C17.5993 50.853 17.609 50.9056 17.6288 50.9548C17.6486 51.004 17.6779 51.0488 17.7151 51.0865C17.7524 51.1243 17.7967 51.1542 17.8456 51.1747C17.8945 51.1952 17.947 51.2057 18 51.2057C18.053 51.2057 18.1055 51.1952 18.1544 51.1747C18.2033 51.1542 18.2476 51.1243 18.2849 51.0865C18.3221 51.0488 18.3514 51.004 18.3712 50.9548C18.391 50.9056 18.4008 50.853 18.4 50.8C18.4 46.1826 20.798 42.3412 23.9469 41.175C24.5774 41.4472 25.2708 41.6 26 41.6C26.7292 41.6 27.4226 41.4472 28.0531 41.175C31.202 42.3412 33.6 46.1826 33.6 50.8C33.5993 50.853 33.609 50.9056 33.6288 50.9548C33.6486 51.004 33.6779 51.0488 33.7151 51.0865C33.7524 51.1243 33.7967 51.1542 33.8456 51.1747C33.8945 51.1952 33.947 51.2057 34 51.2057C34.053 51.2057 34.1055 51.1952 34.1544 51.1747C34.2033 51.1542 34.2476 51.1243 34.2849 51.0865C34.3221 51.0488 34.3514 51.004 34.3712 50.9548C34.391 50.9056 34.4008 50.853 34.4 50.8C34.4 46.1924 32.169 42.2269 28.9406 40.6828C30.3029 39.7442 31.2 38.1757 31.2 36.4C31.2 33.5329 28.8671 31.2 26 31.2ZM26 32C28.4348 32 30.4 33.9652 30.4 36.4C30.4 38.1522 29.3782 39.6573 27.9 40.3656C27.875 40.3747 27.8509 40.3862 27.8281 40.4H27.8266C27.2698 40.654 26.6532 40.8 26 40.8C25.3408 40.8 24.7185 40.6522 24.1578 40.3938C24.1563 40.3932 24.1547 40.3927 24.1531 40.3922C24.1371 40.3827 24.1204 40.3743 24.1031 40.3672C22.6226 39.6597 21.6 38.154 21.6 36.4C21.6 33.9652 23.5652 32 26 32ZM40.4 32.8C40.347 32.7993 40.2944 32.809 40.2452 32.8288C40.196 32.8486 40.1512 32.8779 40.1135 32.9151C40.0757 32.9524 40.0458 32.9967 40.0253 33.0456C40.0048 33.0945 39.9943 33.147 39.9943 33.2C39.9943 33.253 40.0048 33.3055 40.0253 33.3544C40.0458 33.4033 40.0757 33.4476 40.1135 33.4849C40.1512 33.5221 40.196 33.5514 40.2452 33.5712C40.2944 33.591 40.347 33.6007 40.4 33.6H62C62.053 33.6007 62.1056 33.591 62.1548 33.5712C62.204 33.5514 62.2488 33.5221 62.2865 33.4849C62.3243 33.4476 62.3542 33.4033 62.3747 33.3544C62.3952 33.3055 62.4057 33.253 62.4057 33.2C62.4057 33.147 62.3952 33.0945 62.3747 33.0456C62.3542 32.9967 62.3243 32.9524 62.2865 32.9151C62.2488 32.8779 62.204 32.8486 62.1548 32.8288C62.1056 32.809 62.053 32.7993 62 32.8H40.4ZM40.4 38.4C40.347 38.3993 40.2944 38.409 40.2452 38.4288C40.196 38.4486 40.1512 38.4779 40.1135 38.5151C40.0757 38.5524 40.0458 38.5967 40.0253 38.6456C40.0048 38.6945 39.9943 38.747 39.9943 38.8C39.9943 38.853 40.0048 38.9055 40.0253 38.9544C40.0458 39.0033 40.0757 39.0476 40.1135 39.0849C40.1512 39.1221 40.196 39.1514 40.2452 39.1712C40.2944 39.191 40.347 39.2008 40.4 39.2H55.6C55.653 39.2008 55.7056 39.191 55.7548 39.1712C55.804 39.1514 55.8488 39.1221 55.8865 39.0849C55.9243 39.0476 55.9542 39.0033 55.9747 38.9544C55.9952 38.9055 56.0057 38.853 56.0057 38.8C56.0057 38.747 55.9952 38.6945 55.9747 38.6456C55.9542 38.5967 55.9243 38.5524 55.8865 38.5151C55.8488 38.4779 55.804 38.4486 55.7548 38.4288C55.7056 38.409 55.653 38.3993 55.6 38.4H40.4ZM58 38.4C57.947 38.3993 57.8944 38.409 57.8452 38.4288C57.796 38.4486 57.7512 38.4779 57.7135 38.5151C57.6757 38.5524 57.6458 38.5967 57.6253 38.6456C57.6048 38.6945 57.5943 38.747 57.5943 38.8C57.5943 38.853 57.6048 38.9055 57.6253 38.9544C57.6458 39.0033 57.6757 39.0476 57.7135 39.0849C57.7512 39.1221 57.796 39.1514 57.8452 39.1712C57.8944 39.191 57.947 39.2008 58 39.2H62C62.053 39.2008 62.1056 39.191 62.1548 39.1712C62.204 39.1514 62.2488 39.1221 62.2865 39.0849C62.3243 39.0476 62.3542 39.0033 62.3747 38.9544C62.3952 38.9055 62.4057 38.853 62.4057 38.8C62.4057 38.747 62.3952 38.6945 62.3747 38.6456C62.3542 38.5967 62.3243 38.5524 62.2865 38.5151C62.2488 38.4779 62.204 38.4486 62.1548 38.4288C62.1056 38.409 62.053 38.3993 62 38.4H58ZM40.4 44C40.347 43.9993 40.2944 44.009 40.2452 44.0288C40.196 44.0486 40.1512 44.0779 40.1135 44.1151C40.0757 44.1524 40.0458 44.1967 40.0253 44.2456C40.0048 44.2945 39.9943 44.347 39.9943 44.4C39.9943 44.453 40.0048 44.5055 40.0253 44.5544C40.0458 44.6033 40.0757 44.6476 40.1135 44.6849C40.1512 44.7221 40.196 44.7514 40.2452 44.7712C40.2944 44.791 40.347 44.8008 40.4 44.8H52.4C52.453 44.8008 52.5056 44.791 52.5548 44.7712C52.604 44.7514 52.6488 44.7221 52.6865 44.6849C52.7243 44.6476 52.7542 44.6033 52.7747 44.5544C52.7952 44.5055 52.8057 44.453 52.8057 44.4C52.8057 44.347 52.7952 44.2945 52.7747 44.2456C52.7542 44.1967 52.7243 44.1524 52.6865 44.1151C52.6488 44.0779 52.604 44.0486 52.5548 44.0288C52.5056 44.009 52.453 43.9993 52.4 44H40.4ZM54.8 44C54.747 43.9993 54.6944 44.009 54.6452 44.0288C54.596 44.0486 54.5512 44.0779 54.5135 44.1151C54.4757 44.1524 54.4458 44.1967 54.4253 44.2456C54.4048 44.2945 54.3943 44.347 54.3943 44.4C54.3943 44.453 54.4048 44.5055 54.4253 44.5544C54.4458 44.6033 54.4757 44.6476 54.5135 44.6849C54.5512 44.7221 54.596 44.7514 54.6452 44.7712C54.6944 44.791 54.747 44.8008 54.8 44.8H58C58.053 44.8008 58.1056 44.791 58.1548 44.7712C58.204 44.7514 58.2488 44.7221 58.2865 44.6849C58.3243 44.6476 58.3542 44.6033 58.3747 44.5544C58.3952 44.5055 58.4057 44.453 58.4057 44.4C58.4057 44.347 58.3952 44.2945 58.3747 44.2456C58.3542 44.1967 58.3243 44.1524 58.2865 44.1151C58.2488 44.0779 58.204 44.0486 58.1548 44.0288C58.1056 44.009 58.053 43.9993 58 44H54.8ZM60.4 44C60.347 43.9993 60.2944 44.009 60.2452 44.0288C60.196 44.0486 60.1512 44.0779 60.1135 44.1151C60.0757 44.1524 60.0458 44.1967 60.0253 44.2456C60.0048 44.2945 59.9943 44.347 59.9943 44.4C59.9943 44.453 60.0048 44.5055 60.0253 44.5544C60.0458 44.6033 60.0757 44.6476 60.1135 44.6849C60.1512 44.7221 60.196 44.7514 60.2452 44.7712C60.2944 44.791 60.347 44.8008 60.4 44.8H62C62.053 44.8008 62.1056 44.791 62.1548 44.7712C62.204 44.7514 62.2488 44.7221 62.2865 44.6849C62.3243 44.6476 62.3542 44.6033 62.3747 44.5544C62.3952 44.5055 62.4057 44.453 62.4057 44.4C62.4057 44.347 62.3952 44.2945 62.3747 44.2456C62.3542 44.1967 62.3243 44.1524 62.2865 44.1151C62.2488 44.0779 62.204 44.0486 62.1548 44.0288C62.1056 44.009 62.053 43.9993 62 44H60.4ZM40.4 49.6C40.347 49.5993 40.2944 49.609 40.2452 49.6288C40.196 49.6486 40.1512 49.6779 40.1135 49.7151C40.0757 49.7524 40.0458 49.7967 40.0253 49.8456C40.0048 49.8945 39.9943 49.947 39.9943 50C39.9943 50.053 40.0048 50.1055 40.0253 50.1544C40.0458 50.2033 40.0757 50.2476 40.1135 50.2849C40.1512 50.3221 40.196 50.3514 40.2452 50.3712C40.2944 50.391 40.347 50.4007 40.4 50.4H55.6C55.653 50.4007 55.7056 50.391 55.7548 50.3712C55.804 50.3514 55.8488 50.3221 55.8865 50.2849C55.9243 50.2476 55.9542 50.2033 55.9747 50.1544C55.9952 50.1055 56.0057 50.053 56.0057 50C56.0057 49.947 55.9952 49.8945 55.9747 49.8456C55.9542 49.7967 55.9243 49.7524 55.8865 49.7151C55.8488 49.6779 55.804 49.6486 55.7548 49.6288C55.7056 49.609 55.653 49.5993 55.6 49.6H40.4ZM58 49.6C57.947 49.5993 57.8944 49.609 57.8452 49.6288C57.796 49.6486 57.7512 49.6779 57.7135 49.7151C57.6757 49.7524 57.6458 49.7967 57.6253 49.8456C57.6048 49.8945 57.5943 49.947 57.5943 50C57.5943 50.053 57.6048 50.1055 57.6253 50.1544C57.6458 50.2033 57.6757 50.2476 57.7135 50.2849C57.7512 50.3221 57.796 50.3514 57.8452 50.3712C57.8944 50.391 57.947 50.4007 58 50.4H62C62.053 50.4007 62.1056 50.391 62.1548 50.3712C62.204 50.3514 62.2488 50.3221 62.2865 50.2849C62.3243 50.2476 62.3542 50.2033 62.3747 50.1544C62.3952 50.1055 62.4057 50.053 62.4057 50C62.4057 49.947 62.3952 49.8945 62.3747 49.8456C62.3542 49.7967 62.3243 49.7524 62.2865 49.7151C62.2488 49.6779 62.204 49.6486 62.1548 49.6288C62.1056 49.609 62.053 49.5993 62 49.6H58Z" fill="#2A2C2B"/>
</svg>
