<svg width="49" height="48" viewBox="0 0 49 48" fill="none" xmlns="http://www.w3.org/2000/svg">
<path d="M15.4605 8.15918C13.6876 8.16057 12.1037 9.00569 11.4986 10.4973C11.472 10.5626 11.1905 11.2626 10.713 12.4501C10.2354 13.6377 9.58096 15.2654 8.86514 17.0429C7.43349 20.598 5.75778 24.7514 4.77108 27.1754C4.32734 28.2652 4.0567 29.4587 4.0567 30.7201C4.0567 35.7512 8.1456 39.8401 13.1767 39.8401C18.2078 39.8401 22.2967 35.7512 22.2967 30.7201C22.2967 27.1546 20.2146 24.1107 17.2267 22.6126C18.5979 19.1851 20.3191 14.8617 20.6889 13.7129V13.712C21.3784 11.5697 19.7708 9.25347 17.267 8.44699C16.6635 8.25264 16.0514 8.15872 15.4605 8.15918ZM37.5404 8.15918C35.7676 8.16057 34.1837 9.00569 33.5786 10.4973C33.552 10.5626 33.2705 11.2626 32.7929 12.4501C32.3154 13.6377 31.661 15.2654 30.9451 17.0429C29.5135 20.598 27.8378 24.7514 26.8511 27.1754C26.4073 28.2652 26.1367 29.4587 26.1367 30.7201C26.1367 35.7512 30.2256 39.8401 35.2567 39.8401C40.2878 39.8401 44.3767 35.7512 44.3767 30.7201C44.3767 27.1546 42.2946 24.1107 39.3067 22.6126C40.6779 19.1851 42.3991 14.8617 42.7689 13.7129V13.712C43.4583 11.5697 41.8508 9.25347 39.347 8.44699C38.7435 8.25264 38.1314 8.15872 37.5404 8.15918ZM15.4773 9.12012C15.958 9.12031 16.4635 9.19616 16.9726 9.36012C19.0851 10.0406 20.2654 11.8987 19.7758 13.4186C19.4465 14.4419 17.588 19.1397 16.1917 22.6276C16.1455 22.7433 16.146 22.8725 16.1933 22.9877C16.2405 23.103 16.3307 23.1954 16.4448 23.2454C19.3229 24.5059 21.3367 27.3723 21.3367 30.7201C21.3367 35.2324 17.689 38.8801 13.1767 38.8801C8.66444 38.8801 5.0167 35.2324 5.0167 30.7201C5.0167 29.596 5.25778 28.5279 5.66076 27.5382C5.66076 27.5379 5.66076 27.5376 5.66076 27.5373C6.64878 25.11 8.32397 20.9565 9.75576 17.4011C10.4717 15.6233 11.1269 13.9959 11.6045 12.8082C12.0821 11.6206 12.4018 10.8258 12.3883 10.8592C12.3883 10.8589 12.3883 10.8586 12.3883 10.8582C12.8163 9.80327 14.0352 9.11954 15.4773 9.12012ZM37.5573 9.12012C38.038 9.12031 38.5435 9.19616 39.0526 9.36012C41.1651 10.0406 42.3454 11.8987 41.8558 13.4186C41.5265 14.4419 39.668 19.1397 38.2717 22.6276C38.2255 22.7433 38.226 22.8725 38.2733 22.9877C38.3205 23.103 38.4107 23.1954 38.5248 23.2454C41.4029 24.5059 43.4167 27.3723 43.4167 30.7201C43.4167 35.2324 39.769 38.8801 35.2567 38.8801C30.7444 38.8801 27.0967 35.2324 27.0967 30.7201C27.0967 29.596 27.3378 28.5279 27.7408 27.5382C27.7408 27.5379 27.7408 27.5376 27.7408 27.5373C28.7288 25.11 30.404 20.9565 31.8358 17.4011C32.5517 15.6233 33.2069 13.9959 33.6845 12.8082C34.1621 11.6206 34.4818 10.8258 34.4683 10.8592C34.4683 10.8589 34.4683 10.8586 34.4683 10.8582C34.8963 9.80327 36.1152 9.11954 37.5573 9.12012ZM15.798 24.5645C15.744 24.5678 15.6927 24.5892 15.6525 24.6252C15.6122 24.6613 15.5853 24.7099 15.576 24.7631C15.5668 24.8164 15.5758 24.8712 15.6017 24.9187C15.6275 24.9662 15.6686 25.0036 15.7183 25.0248C15.8748 25.0948 16.0284 25.1733 16.1805 25.2573C16.208 25.2726 16.2383 25.2823 16.2697 25.2858C16.301 25.2894 16.3327 25.2867 16.363 25.278C16.3933 25.2693 16.4216 25.2547 16.4462 25.2351C16.4709 25.2154 16.4914 25.1911 16.5067 25.1636C16.522 25.136 16.5317 25.1057 16.5352 25.0743C16.5388 25.043 16.5361 25.0113 16.5274 24.981C16.5187 24.9507 16.5041 24.9224 16.4845 24.8978C16.4648 24.8731 16.4405 24.8526 16.413 24.8373C16.2521 24.7485 16.0869 24.6639 15.9151 24.587C15.886 24.5734 15.8545 24.5657 15.8223 24.5645C15.8142 24.5641 15.8061 24.5641 15.798 24.5645ZM37.8779 24.5645C37.824 24.5678 37.7727 24.5892 37.7325 24.6252C37.6922 24.6613 37.6653 24.7099 37.656 24.7631C37.6468 24.8164 37.6558 24.8712 37.6817 24.9187C37.7075 24.9662 37.7486 25.0036 37.7983 25.0248C37.9548 25.0948 38.1084 25.1733 38.2604 25.2573C38.288 25.2726 38.3183 25.2823 38.3497 25.2858C38.381 25.2894 38.4127 25.2867 38.443 25.278C38.4733 25.2693 38.5016 25.2547 38.5262 25.2351C38.5509 25.2154 38.5714 25.1911 38.5867 25.1636C38.602 25.136 38.6116 25.1057 38.6152 25.0743C38.6188 25.043 38.6161 25.0113 38.6074 24.981C38.5987 24.9507 38.5841 24.9224 38.5645 24.8978C38.5448 24.8731 38.5205 24.8526 38.493 24.8373C38.3321 24.7485 38.1669 24.6639 37.9951 24.587C37.966 24.5734 37.9345 24.5657 37.9023 24.5645C37.8942 24.5641 37.8861 24.5641 37.8779 24.5645ZM17.253 25.4532C17.2032 25.4536 17.1548 25.4693 17.1144 25.4983C17.074 25.5274 17.0436 25.5682 17.0275 25.6153C17.0113 25.6623 17.0101 25.7132 17.0242 25.761C17.0382 25.8087 17.0667 25.8509 17.1058 25.8817C17.44 26.153 17.7441 26.4581 18.0161 26.792C18.0564 26.8414 18.1146 26.8727 18.178 26.8791C18.2414 26.8855 18.3047 26.8665 18.354 26.8262C18.4034 26.7859 18.4347 26.7277 18.4411 26.6643C18.4476 26.6009 18.4285 26.5376 18.3883 26.4882C18.0957 26.1291 17.7675 25.8017 17.4076 25.5095C17.3643 25.4731 17.3095 25.4532 17.253 25.4532ZM39.3329 25.4532C39.2832 25.4536 39.2348 25.4693 39.1944 25.4983C39.154 25.5274 39.1236 25.5682 39.1075 25.6153C39.0913 25.6623 39.0901 25.7132 39.1042 25.761C39.1182 25.8087 39.1467 25.8509 39.1858 25.8817C39.52 26.153 39.8241 26.4581 40.0961 26.792C40.1364 26.8414 40.1946 26.8727 40.258 26.8791C40.3214 26.8855 40.3847 26.8665 40.434 26.8262C40.4834 26.7859 40.5147 26.7277 40.5211 26.6643C40.5276 26.6009 40.5085 26.5376 40.4683 26.4882C40.1757 26.1291 39.8475 25.8017 39.4876 25.5095C39.4443 25.4731 39.3895 25.4532 39.3329 25.4532ZM19.4373 28.7964C19.4292 28.7963 19.4211 28.7966 19.413 28.7973C19.3775 28.8 19.3431 28.8105 19.3122 28.8282C19.2813 28.8458 19.2547 28.87 19.2343 28.8992C19.214 28.9284 19.2003 28.9617 19.1944 28.9968C19.1885 29.0318 19.1905 29.0678 19.2001 29.102C19.3391 29.6193 19.4167 30.1605 19.4167 30.7201C19.4167 34.1693 16.6259 36.9601 13.1767 36.9601C9.80581 36.9601 7.07146 34.292 6.94889 30.9517C6.94662 30.8881 6.91917 30.8279 6.87259 30.7845C6.826 30.7411 6.76409 30.718 6.70046 30.7202C6.63683 30.7225 6.57669 30.7499 6.53326 30.7965C6.48984 30.843 6.46669 30.9049 6.46889 30.9686C6.60072 34.5614 9.55207 37.4401 13.1767 37.4401C16.8853 37.4401 19.8967 34.4287 19.8967 30.7201C19.8967 30.1162 19.8133 29.5333 19.6642 28.9782C19.6515 28.9273 19.6224 28.8819 19.5814 28.849C19.5405 28.8162 19.4898 28.7977 19.4373 28.7964ZM41.5173 28.7964C41.5092 28.7963 41.5011 28.7966 41.4929 28.7973C41.4575 28.8 41.4231 28.8105 41.3922 28.8282C41.3613 28.8458 41.3347 28.87 41.3143 28.8992C41.2939 28.9284 41.2803 28.9617 41.2744 28.9968C41.2685 29.0318 41.2705 29.0678 41.2801 29.102C41.4191 29.6193 41.4967 30.1605 41.4967 30.7201C41.4967 34.1693 38.7059 36.9601 35.2567 36.9601C31.8858 36.9601 29.1515 34.292 29.0289 30.9517C29.0266 30.8881 28.9992 30.8279 28.9526 30.7845C28.906 30.7411 28.8441 30.718 28.7805 30.7202C28.7168 30.7225 28.6567 30.7499 28.6133 30.7965C28.5698 30.843 28.5467 30.9049 28.5489 30.9686C28.6807 34.5614 31.6321 37.4401 35.2567 37.4401C38.9653 37.4401 41.9767 34.4287 41.9767 30.7201C41.9767 30.1162 41.8933 29.5333 41.7442 28.9782C41.7315 28.9273 41.7024 28.8819 41.6614 28.849C41.6205 28.8162 41.5698 28.7977 41.5173 28.7964Z" fill="#2A2C2B"/>
</svg>
