<svg width="81" height="80" viewBox="0 0 81 80" fill="none" xmlns="http://www.w3.org/2000/svg">
<path d="M13.7019 14.3984C11.0611 14.3984 8.90279 16.5571 8.90279 19.1984V56.7984C8.90279 57.6729 9.6282 58.3984 10.5025 58.3984H16.1483C16.5465 61.9953 19.599 64.8 23.3 64.8C27.0005 64.8 30.0528 61.9961 30.4518 58.4H47.2954H51.3415C51.7405 61.9961 54.7927 64.8 58.4933 64.8C62.1938 64.8 65.2461 61.9961 65.645 58.4H68.093C70.7338 58.4 72.8895 56.2408 72.8905 53.6V38.6C72.8905 38.599 72.8905 38.5979 72.8905 38.5969C72.8876 37.8114 72.6948 37.0352 72.3203 36.3391L66.6667 25.8391C65.5634 23.7479 63.3933 22.403 61.0193 22.3984C61.0188 22.3984 61.0183 22.3984 61.0178 22.3984H48.0953V19.1984C48.0953 16.5571 45.937 14.3984 43.2962 14.3984H13.7019ZM13.7019 15.9984H43.2962C45.0721 15.9984 46.4956 17.4221 46.4956 19.1984V23.1984C46.4956 23.199 46.4956 23.1995 46.4956 23.2V36H10.5025V26.4H34.8978C34.9508 26.4008 35.0034 26.391 35.0526 26.3712C35.1018 26.3514 35.1465 26.3221 35.1843 26.2849C35.222 26.2476 35.252 26.2033 35.2724 26.1544C35.2929 26.1055 35.3034 26.053 35.3034 26C35.3034 25.947 35.2929 25.8945 35.2724 25.8456C35.252 25.7967 35.222 25.7524 35.1843 25.7151C35.1465 25.6779 35.1018 25.6486 35.0526 25.6288C35.0034 25.609 34.9508 25.5993 34.8978 25.6H10.5025V19.1984C10.5025 17.4221 11.9259 15.9984 13.7019 15.9984ZM47.2954 23.9984H61.0178C62.7901 24.0024 64.4244 25.0127 65.2545 26.5906C65.256 26.5932 65.2576 26.5958 65.2592 26.5984L70.9128 37.0984C71.16 37.5587 71.2889 38.0755 71.2908 38.6031V42.4H55.6938C55.0259 42.4 54.494 41.868 54.494 41.2V29.2C54.494 28.532 55.0259 28 55.6938 28H59.693C59.746 28.0008 59.7986 27.991 59.8478 27.9712C59.897 27.9514 59.9418 27.9221 59.9795 27.8849C60.0172 27.8476 60.0472 27.8033 60.0677 27.7544C60.0881 27.7055 60.0987 27.653 60.0987 27.6C60.0987 27.547 60.0881 27.4945 60.0677 27.4456C60.0472 27.3967 60.0172 27.3524 59.9795 27.3151C59.9418 27.2779 59.897 27.2486 59.8478 27.2288C59.7986 27.209 59.746 27.1993 59.693 27.2H55.6938C54.594 27.2 53.6942 28.1 53.6942 29.2V41.2C53.6942 42.3 54.594 43.2 55.6938 43.2H71.2908V48.8H68.4913C67.3916 48.8 66.4917 49.7 66.4917 50.8V52.4C66.4917 53.5 67.3916 54.4 68.4913 54.4H71.1799C70.8259 55.7828 69.5906 56.8 68.093 56.8H65.645C65.2461 53.2039 62.1938 50.4 58.4933 50.4C54.7927 50.4 51.7405 53.2039 51.3415 56.8H47.2954V36.4641C47.3025 36.4211 47.3025 36.3773 47.2954 36.3344V23.9984ZM37.2973 25.6C37.2443 25.5993 37.1917 25.609 37.1425 25.6288C37.0934 25.6486 37.0486 25.6779 37.0109 25.7151C36.9731 25.7524 36.9432 25.7967 36.9227 25.8456C36.9023 25.8945 36.8917 25.947 36.8917 26C36.8917 26.053 36.9023 26.1055 36.9227 26.1544C36.9432 26.2033 36.9731 26.2476 37.0109 26.2849C37.0486 26.3221 37.0934 26.3514 37.1425 26.3712C37.1917 26.391 37.2443 26.4008 37.2973 26.4H41.2966C41.3496 26.4008 41.4022 26.391 41.4514 26.3712C41.5005 26.3514 41.5453 26.3221 41.583 26.2849C41.6208 26.2476 41.6507 26.2033 41.6712 26.1544C41.6917 26.1055 41.7022 26.053 41.7022 26C41.7022 25.947 41.6917 25.8945 41.6712 25.8456C41.6507 25.7967 41.6208 25.7524 41.583 25.7151C41.5453 25.6779 41.5005 25.6486 41.4514 25.6288C41.4022 25.609 41.3496 25.5993 41.2966 25.6H37.2973ZM43.6961 25.6C43.6431 25.5993 43.5905 25.609 43.5413 25.6288C43.4921 25.6486 43.4474 25.6779 43.4096 25.7151C43.3719 25.7524 43.3419 25.7967 43.3215 25.8456C43.301 25.8945 43.2905 25.947 43.2905 26C43.2905 26.053 43.301 26.1055 43.3215 26.1544C43.3419 26.2033 43.3719 26.2476 43.4096 26.2849C43.4474 26.3221 43.4921 26.3514 43.5413 26.3712C43.5905 26.391 43.6431 26.4008 43.6961 26.4H44.496C44.5489 26.4008 44.6016 26.391 44.6507 26.3712C44.6999 26.3514 44.7447 26.3221 44.7824 26.2849C44.8202 26.2476 44.8501 26.2033 44.8706 26.1544C44.891 26.1055 44.9016 26.053 44.9016 26C44.9016 25.947 44.891 25.8945 44.8706 25.8456C44.8501 25.7967 44.8202 25.7524 44.7824 25.7151C44.7447 25.6779 44.6999 25.6486 44.6507 25.6288C44.6016 25.609 44.5489 25.5993 44.496 25.6H43.6961ZM61.2927 27.2C61.2397 27.1993 61.1871 27.209 61.1379 27.2288C61.0888 27.2486 61.044 27.2779 61.0063 27.3151C60.9685 27.3524 60.9386 27.3967 60.9181 27.4456C60.8976 27.4945 60.8871 27.547 60.8871 27.6C60.8871 27.653 60.8976 27.7055 60.9181 27.7544C60.9386 27.8033 60.9685 27.8476 61.0063 27.8849C61.044 27.9221 61.0888 27.9514 61.1379 27.9712C61.1871 27.991 61.2397 28.0008 61.2927 28H62.0926C62.1456 28.0008 62.1982 27.991 62.2474 27.9712C62.2965 27.9514 62.3413 27.9221 62.379 27.8849C62.4168 27.8476 62.4467 27.8033 62.4672 27.7544C62.4877 27.7055 62.4982 27.653 62.4982 27.6C62.4982 27.547 62.4877 27.4945 62.4672 27.4456C62.4467 27.3967 62.4168 27.3524 62.379 27.3151C62.3413 27.2779 62.2965 27.2486 62.2474 27.2288C62.1982 27.209 62.1456 27.1993 62.0926 27.2H61.2927ZM63.6923 27.2C63.6393 27.1993 63.5867 27.209 63.5375 27.2288C63.4883 27.2486 63.4435 27.2779 63.4058 27.3151C63.3681 27.3524 63.3381 27.3967 63.3176 27.4456C63.2972 27.4945 63.2866 27.547 63.2866 27.6C63.2866 27.653 63.2972 27.7055 63.3176 27.7544C63.3381 27.8033 63.3681 27.8476 63.4058 27.8849C63.4435 27.9221 63.4883 27.9514 63.5375 27.9712C63.5867 27.991 63.6393 28.0008 63.6923 28H64.4921C64.5451 28.0008 64.5977 27.991 64.6469 27.9712C64.6961 27.9514 64.7408 27.9221 64.7786 27.8849C64.8163 27.8476 64.8463 27.8033 64.8667 27.7544C64.8872 27.7055 64.8977 27.653 64.8977 27.6C64.8977 27.547 64.8872 27.4945 64.8667 27.4456C64.8463 27.3967 64.8163 27.3524 64.7786 27.3151C64.7408 27.2779 64.6961 27.2486 64.6469 27.2288C64.5977 27.209 64.5451 27.1993 64.4921 27.2H63.6923ZM10.5025 36.8H46.4956V45.6H10.5025V36.8ZM10.5025 46.4H46.4956V56.8H30.4518C30.0528 53.2039 27.0005 50.4 23.3 50.4C19.6 50.4 16.5479 53.2031 16.1483 56.7984H10.5025V54.4H13.3019C14.4017 54.4 15.3016 53.5 15.3016 52.4V50.8C15.3016 49.7 14.4017 48.8 13.3019 48.8H10.5025V46.4ZM10.5025 49.6H13.3019C13.9698 49.6 14.5017 50.132 14.5017 50.8V52.4C14.5017 53.068 13.9698 53.6 13.3019 53.6H10.5025V49.6ZM68.4913 49.6H71.2908V53.6H68.4913C67.8235 53.6 67.2916 53.068 67.2916 52.4V50.8C67.2916 50.132 67.8235 49.6 68.4913 49.6ZM23.3 51.2C26.8387 51.2 29.6988 54.0606 29.6988 57.6C29.6988 61.1394 26.8387 64 23.3 64C19.7613 64 16.9013 61.1394 16.9013 57.6C16.9013 54.0606 19.7613 51.2 23.3 51.2ZM58.4933 51.2C62.0319 51.2 64.892 54.0606 64.892 57.6C64.892 61.1394 62.0319 64 58.4933 64C54.9546 64 52.0945 61.1394 52.0945 57.6C52.0945 54.0606 54.9546 51.2 58.4933 51.2ZM23.3 54.4C22.2669 54.4 21.4419 54.8019 20.902 55.4094C20.3622 56.0169 20.1006 56.8111 20.1006 57.6C20.1006 58.3889 20.3622 59.1832 20.902 59.7906C21.4419 60.3981 22.2669 60.8 23.3 60.8C24.3332 60.8 25.1581 60.3981 25.698 59.7906C26.2379 59.1832 26.4994 58.3889 26.4994 57.6C26.4994 56.8111 26.2379 56.0169 25.698 55.4094C25.1581 54.8019 24.3332 54.4 23.3 54.4ZM58.4933 54.4C57.4601 54.4 56.6352 54.8019 56.0953 55.4094C55.5554 56.0169 55.2939 56.8111 55.2939 57.6C55.2939 58.3889 55.5554 59.1832 56.0953 59.7906C56.6352 60.3981 57.4601 60.8 58.4933 60.8C59.5264 60.8 60.3514 60.3981 60.8912 59.7906C61.4311 59.1832 61.6926 58.3889 61.6926 57.6C61.6926 56.8111 61.4311 56.0169 60.8912 55.4094C60.3514 54.8019 59.5264 54.4 58.4933 54.4ZM23.3 55.2C24.1332 55.2 24.708 55.4981 25.1012 55.9406C25.4945 56.3832 25.6996 56.9889 25.6996 57.6C25.6996 58.2111 25.4945 58.8169 25.1012 59.2594C24.708 59.7019 24.1332 60 23.3 60C22.4669 60 21.8921 59.7019 21.4988 59.2594C21.1055 58.8169 20.9005 58.2111 20.9005 57.6C20.9005 56.9889 21.1055 56.3832 21.4988 55.9406C21.8921 55.4981 22.4669 55.2 23.3 55.2ZM58.4933 55.2C59.3264 55.2 59.9012 55.4981 60.2945 55.9406C60.6878 56.3832 60.8928 56.9889 60.8928 57.6C60.8928 58.2111 60.6878 58.8169 60.2945 59.2594C59.9012 59.7019 59.3264 60 58.4933 60C57.6601 60 57.0853 59.7019 56.692 59.2594C56.2988 58.8169 56.0937 58.2111 56.0937 57.6C56.0937 56.9889 56.2988 56.3832 56.692 55.9406C57.0853 55.4981 57.6601 55.2 58.4933 55.2Z" fill="#2A2C2B"/>
</svg>
