<svg width="80" height="80" viewBox="0 0 80 80" fill="none" xmlns="http://www.w3.org/2000/svg">
<path d="M24.8 13.6C18.6237 13.6 13.6 18.6237 13.6 24.8V55.2C13.6 61.3763 18.6237 66.4 24.8 66.4H55.2C61.3763 66.4 66.4 61.3763 66.4 55.2V24.8C66.4 18.6237 61.3763 13.6 55.2 13.6H24.8ZM24.8 15.2H55.2C60.5117 15.2 64.8 19.4883 64.8 24.8V55.2C64.8 60.5117 60.5117 64.8 55.2 64.8H24.8C19.4883 64.8 15.2 60.5117 15.2 55.2V24.8C15.2 19.4883 19.4883 15.2 24.8 15.2ZM26.8 17.6C21.7238 17.6 17.6 21.7238 17.6 26.8V53.2C17.6 58.2762 21.7238 62.4 26.8 62.4H53.2C58.2762 62.4 62.4 58.2762 62.4 53.2V39.6C62.4008 39.547 62.391 39.4944 62.3712 39.4452C62.3514 39.396 62.3221 39.3512 62.2849 39.3135C62.2477 39.2757 62.2033 39.2458 62.1544 39.2253C62.1055 39.2048 62.053 39.1943 62 39.1943C61.947 39.1943 61.8945 39.2048 61.8456 39.2253C61.7967 39.2458 61.7524 39.2757 61.7151 39.3135C61.6779 39.3512 61.6486 39.396 61.6288 39.4452C61.609 39.4944 61.5993 39.547 61.6 39.6V53.2C61.6 57.8438 57.8438 61.6 53.2 61.6H26.8C22.1562 61.6 18.4 57.8438 18.4 53.2V26.8C18.4 22.1562 22.1562 18.4 26.8 18.4H53.2C53.4538 18.4 53.7074 18.4157 53.9641 18.4391C54.0164 18.4438 54.0691 18.4382 54.1193 18.4225C54.1694 18.4068 54.216 18.3815 54.2564 18.3478C54.2967 18.3141 54.33 18.2729 54.3544 18.2263C54.3788 18.1798 54.3938 18.1289 54.3985 18.0766C54.4032 18.0242 54.3976 17.9715 54.3819 17.9214C54.3662 17.8712 54.3409 17.8246 54.3072 17.7843C54.2735 17.744 54.2322 17.7106 54.1857 17.6863C54.1392 17.6619 54.0883 17.6469 54.0359 17.6422C53.7646 17.6175 53.487 17.6 53.2 17.6H26.8ZM61.9938 29.5938C61.9412 29.5946 61.8894 29.6057 61.8412 29.6266C61.7929 29.6475 61.7493 29.6776 61.7127 29.7153C61.6762 29.7531 61.6474 29.7976 61.6281 29.8465C61.6087 29.8953 61.5992 29.9475 61.6 30V31.6C61.5993 31.653 61.609 31.7056 61.6288 31.7548C61.6486 31.804 61.6779 31.8488 61.7151 31.8865C61.7524 31.9243 61.7967 31.9543 61.8456 31.9747C61.8945 31.9952 61.947 32.0057 62 32.0057C62.053 32.0057 62.1055 31.9952 62.1544 31.9747C62.2033 31.9543 62.2477 31.9243 62.2849 31.8865C62.3221 31.8488 62.3514 31.804 62.3712 31.7548C62.391 31.7056 62.4008 31.653 62.4 31.6V30C62.4008 29.9464 62.3909 29.8932 62.3708 29.8436C62.3507 29.7939 62.3208 29.7488 62.2829 29.7109C62.245 29.673 62.1999 29.6431 62.1502 29.623C62.1005 29.6029 62.0473 29.5929 61.9938 29.5938ZM40 32C31.7467 32 26.4703 39.7734 26.4703 39.7734C26.4245 39.8401 26.4 39.9191 26.4 40C26.4 40.0809 26.4245 40.1599 26.4703 40.2266C26.4703 40.2266 31.7467 48 40 48C48.2533 48 53.5297 40.2266 53.5297 40.2266C53.5755 40.1599 53.6 40.0809 53.6 40C53.6 39.9191 53.5755 39.8401 53.5297 39.7734C53.5297 39.7734 48.2533 32 40 32ZM40 32.8C47.3689 32.8 52.221 39.3447 52.6906 40C52.221 40.6553 47.3689 47.2 40 47.2C32.6311 47.2 27.779 40.6553 27.3094 40C27.779 39.3447 32.6311 32.8 40 32.8ZM61.9938 33.5938C61.9412 33.5946 61.8894 33.6057 61.8412 33.6266C61.7929 33.6475 61.7493 33.6776 61.7127 33.7153C61.6762 33.7531 61.6474 33.7976 61.6281 33.8465C61.6087 33.8953 61.5992 33.9475 61.6 34V37.2C61.5993 37.253 61.609 37.3056 61.6288 37.3548C61.6486 37.404 61.6779 37.4488 61.7151 37.4865C61.7524 37.5243 61.7967 37.5543 61.8456 37.5747C61.8945 37.5952 61.947 37.6057 62 37.6057C62.053 37.6057 62.1055 37.5952 62.1544 37.5747C62.2033 37.5543 62.2477 37.5243 62.2849 37.4865C62.3221 37.4488 62.3514 37.404 62.3712 37.3548C62.391 37.3056 62.4008 37.253 62.4 37.2V34C62.4008 33.9464 62.3909 33.8932 62.3708 33.8436C62.3507 33.7939 62.3208 33.7488 62.2829 33.7109C62.245 33.673 62.1999 33.6431 62.1502 33.623C62.1005 33.6029 62.0473 33.5929 61.9938 33.5938ZM40 33.6C36.4702 33.6 33.6 36.4702 33.6 40C33.6 43.5298 36.4702 46.4 40 46.4C41.4421 46.4 42.7719 45.9155 43.8406 45.1109C43.8834 45.0797 43.9196 45.0402 43.947 44.9948C43.9743 44.9494 43.9925 44.8991 44.0002 44.8466C44.008 44.7942 44.0052 44.7407 43.9922 44.6894C43.9791 44.638 43.9559 44.5897 43.9241 44.5474C43.8922 44.505 43.8522 44.4695 43.8064 44.4427C43.7607 44.4159 43.71 44.3986 43.6575 44.3915C43.605 44.3845 43.5516 44.388 43.5004 44.4018C43.4492 44.4156 43.4013 44.4394 43.3594 44.4719C42.4217 45.1777 41.2635 45.6 40 45.6C36.9026 45.6 34.4 43.0974 34.4 40C34.4 36.9026 36.9026 34.4 40 34.4C43.0974 34.4 45.6 36.9026 45.6 40C45.6 40.1131 45.5904 40.2358 45.5813 40.3734C45.5743 40.4793 45.6096 40.5835 45.6795 40.6633C45.7494 40.7431 45.8481 40.7919 45.9539 40.7989C46.0598 40.806 46.164 40.7707 46.2439 40.7009C46.3237 40.6311 46.3726 40.5324 46.3797 40.4266C46.3882 40.2987 46.4 40.1573 46.4 40C46.4 36.4702 43.5298 33.6 40 33.6ZM40 37.6C39.2333 37.6 38.6082 37.9019 38.2016 38.3594C37.7949 38.8169 37.6 39.4111 37.6 40C37.6 40.5889 37.7949 41.1832 38.2016 41.6406C38.6082 42.0981 39.2333 42.4 40 42.4C40.7667 42.4 41.3918 42.0981 41.7984 41.6406C42.2051 41.1832 42.4 40.5889 42.4 40C42.4 39.4111 42.2051 38.8169 41.7984 38.3594C41.3918 37.9019 40.7667 37.6 40 37.6ZM40 38.4C40.5667 38.4 40.9415 38.5981 41.2016 38.8906C41.4616 39.1832 41.6 39.5889 41.6 40C41.6 40.4111 41.4616 40.8169 41.2016 41.1094C40.9415 41.4019 40.5667 41.6 40 41.6C39.4333 41.6 39.0585 41.4019 38.7984 41.1094C38.5384 40.8169 38.4 40.4111 38.4 40C38.4 39.5889 38.5384 39.1832 38.7984 38.8906C39.0585 38.5981 39.4333 38.4 40 38.4ZM45.6625 41.5938C45.6495 41.5936 45.6364 41.5942 45.6234 41.5953C45.5448 41.6011 45.4696 41.63 45.4074 41.6784C45.3451 41.7267 45.2985 41.7924 45.2734 41.8672C45.0824 42.4081 44.811 42.909 44.4719 43.3594C44.4394 43.4013 44.4156 43.4492 44.4018 43.5004C44.388 43.5516 44.3845 43.605 44.3915 43.6575C44.3985 43.7101 44.4159 43.7607 44.4427 43.8064C44.4695 43.8522 44.505 43.8922 44.5474 43.9241C44.5897 43.9559 44.638 43.9791 44.6894 43.9922C44.7407 44.0052 44.7942 44.008 44.8466 44.0002C44.899 43.9925 44.9494 43.9744 44.9948 43.947C45.0402 43.9196 45.0797 43.8834 45.1109 43.8406C45.4982 43.3262 45.8095 42.7519 46.0281 42.1328C46.0503 42.0731 46.0579 42.0089 46.0502 41.9456C46.0426 41.8824 46.0199 41.8219 45.9841 41.7691C45.9484 41.7164 45.9005 41.673 45.8446 41.6425C45.7886 41.612 45.7262 41.5953 45.6625 41.5938Z" fill="#2A2C2B"/>
</svg>
